<?xml version="1.0" encoding="utf-8"?>
<!-- Generator: Adobe Illustrator 23.0.3, SVG Export Plug-In . SVG Version: 6.00 Build 0)  -->
<svg version="1.1" id="Ebene_1" xmlns="http://www.w3.org/2000/svg" xmlns:xlink="http://www.w3.org/1999/xlink" x="0px" y="0px"
	 viewBox="0 0 240 240" style="enable-background:new 0 0 240 240;" xml:space="preserve">
<style type="text/css">
	.st0{fill:#D50000;}
	.st1{fill:#E20613;}
	.st2{fill:#FFFFFF;}
	.st3{fill:#585858;}
	.st4{fill:#1D1D1B;}
	.st5{fill:#858B8A;}
	.st6{fill:none;}
</style>
<g>
	<path class="st0" d="M146.27,104.75c1.07,0,1.94,0.87,1.94,1.94s-0.87,1.94-1.94,1.94c-0.42,0-0.8-0.13-1.12-0.36v7.88h25.42v-4.08
		v-7.44H69.53v11.52h25.08v-7.88c-0.32,0.22-0.7,0.36-1.12,0.36c-1.07,0-1.94-0.87-1.94-1.94s0.87-1.94,1.94-1.94h1.12h2.33h0.7
		h1.63h1.12c1.07,0,1.94,0.87,1.94,1.94s-0.87,1.94-1.94,1.94c-0.42,0-0.8-0.13-1.12-0.36v7.88h6.9v-0.64h16.75h10.9v0.64h6.68
		v-7.88c-0.32,0.22-0.7,0.36-1.12,0.36c-1.07,0-1.94-0.87-1.94-1.94s0.87-1.94,1.94-1.94h1.12h2.33h0.7h1.63H146.27z"/>
	<path class="st0" d="M89.76,124.67v12.52v1.38H76.18v-1.38v-12.52v-0.68h-6.66H20.73v65.53h48.79H92.1v-2.29h0.98v-1.05h1.52
		v-33.72c-0.32,0.22-0.7,0.36-1.12,0.36c-1.07,0-1.94-0.87-1.94-1.94c0-1.07,0.87-1.94,1.94-1.94h-3.15v-2.71v-2.71h1.76v-0.47h0.98
		v-1.05h1.52v-18h-4.85V124.67z M42.78,166.43v1.38v12.52v1.38H29.2v-1.38v-12.52v-1.38v-7.09h8.22h5.35V166.43z M42.78,135.58v1.38
		v12.52v1.38H29.2v-1.38v-12.52v-1.38v-7.09h8.22h5.35V135.58z M62.28,166.43v1.38v12.52v1.38H48.71v-1.38v-12.52v-1.38v-7.09h8.22
		h5.35V166.43z M62.28,135.58v1.38v12.52v1.38H48.71v-1.38v-12.52v-1.38v-7.09h8.22h5.35V135.58z M89.76,154.13v1.38v12.52v1.38
		H76.18v-1.38v-12.52v-1.38v-7.09h8.22h5.35V154.13z"/>
	<polygon class="st0" points="133.81,136.5 133.81,137.88 106.17,137.88 106.17,136.5 106.17,123.99 99.27,123.99 99.27,141.99 
		100.79,141.99 100.79,143.04 101.78,143.04 101.78,143.51 137.98,143.51 137.98,143.04 138.97,143.04 138.97,141.99 140.49,141.99 
		140.49,123.99 133.81,123.99 	"/>
	<path class="st0" d="M170.57,123.99h-6.66v0.68v12.52v1.38h-13.58v-1.38v-12.52v-0.68h-5.18v18h1.52v1.05h0.98v0.47h1.76v2.71v2.71
		h-3.15c1.07,0,1.94,0.87,1.94,1.94c0,1.07-0.87,1.94-1.94,1.94c-0.42,0-0.8-0.13-1.12-0.36v33.72h1.52v1.05h0.98v2.29h22.91h48.79
		v-65.53H170.57z M163.91,154.13v1.38v12.52v1.38h-13.58v-1.38v-12.52v-1.38v-7.09h8.22h5.35V154.13z M191.58,166.43v1.38v12.52
		v1.38h-13.58v-1.38v-12.52v-1.38v-7.09h8.22h5.35V166.43z M191.58,135.58v1.38v12.52v1.38h-13.58v-1.38v-12.52v-1.38v-7.09h8.22
		h5.35V135.58z M211.09,166.43v1.38v12.52v1.38h-13.58v-1.38v-12.52v-1.38v-7.09h8.22h5.35V166.43z M211.09,135.58v1.38v12.52v1.38
		h-13.58v-1.38v-12.52v-1.38v-7.09h8.22h5.35V135.58z"/>
	<path class="st0" d="M137.43,150.87c0-1.07,0.87-1.94,1.94-1.94h-38.99c1.07,0,1.94,0.87,1.94,1.94c0,1.07-0.87,1.94-1.94,1.94
		c-0.42,0-0.8-0.13-1.12-0.36v33.72h1.52v1.05h0.98v2.29h18.67h17.54v-2.29h0.98v-1.05h1.52v-33.72c-0.32,0.22-0.7,0.36-1.12,0.36
		C138.3,152.82,137.43,151.95,137.43,150.87z M135.51,189.46h-0.59h-14.47h-0.59h-15.02h-0.04h-0.55v-32.71h0.55h0.04h15.02h0.59
		h14.47h0.59V189.46z"/>
	<path class="st0" d="M176.97,96.4L120.29,62L64.55,96.38v3.45h112.42V96.4z M120.76,93.18c-5.68,0-10.28-4.6-10.28-10.28
		c0-5.68,4.6-10.28,10.28-10.28c5.68,0,10.28,4.6,10.28,10.28C131.04,88.58,126.44,93.18,120.76,93.18z"/>
</g>
<path class="st1" d="M135.6,34.49l-14.76,3.47v11.26l14.76-3.47V34.49z M132.01,42.11l-2.69,0.6v2.72l-2.19,0.63V43.2l-2.69,0.6
	V41.6l2.69-0.6v-2.72l2.19-0.63v2.86l2.69-0.6V42.11z"/>
<g>
	<polygon class="st2" points="76.18,124.67 76.18,137.19 79.06,137.19 89.76,137.19 89.76,124.67 82.25,124.67 	"/>
	<polygon class="st2" points="76.18,116.2 76.18,123.29 82.6,123.29 89.76,123.29 89.76,116.2 84.41,116.2 	"/>
	<polygon class="st2" points="150.33,124.67 150.33,137.19 153.2,137.19 163.91,137.19 163.91,124.67 156.4,124.67 	"/>
	<polygon class="st2" points="150.33,116.2 150.33,123.29 156.75,123.29 163.91,123.29 163.91,116.2 158.56,116.2 	"/>
	<polygon class="st2" points="76.18,147.04 76.18,154.13 82.6,154.13 89.76,154.13 89.76,147.04 84.41,147.04 	"/>
	<polygon class="st2" points="76.18,155.51 76.18,168.04 79.06,168.04 89.76,168.04 89.76,155.51 82.25,155.51 	"/>
	<polygon class="st2" points="150.33,155.51 150.33,168.04 153.2,168.04 163.91,168.04 163.91,155.51 156.4,155.51 	"/>
	<polygon class="st2" points="150.33,147.04 150.33,154.13 156.75,154.13 163.91,154.13 163.91,147.04 158.56,147.04 	"/>
	<path class="st2" d="M120.45,158.37v6.38v22.81h14.47v-29.18h-11.87H120.45z M123.78,173.75v1.09h-1.86v-1.09H123.78z"/>
	<path class="st2" d="M104.84,187.55h6.33h8.69V166.2v-7.83h-15.02V187.55z M116.53,173.75h0.26h1.6v1.09h-1.87v-0.44V173.75z"/>
	<polygon class="st2" points="48.71,128.5 48.71,135.58 55.12,135.58 62.28,135.58 62.28,128.5 56.93,128.5 	"/>
	<polygon class="st2" points="48.71,136.97 48.71,149.49 51.58,149.49 62.28,149.49 62.28,136.97 54.77,136.97 	"/>
	<polygon class="st2" points="48.71,167.81 48.71,180.33 51.58,180.33 62.28,180.33 62.28,167.81 54.77,167.81 	"/>
	<polygon class="st2" points="48.71,159.34 48.71,166.43 55.12,166.43 62.28,166.43 62.28,159.34 56.93,159.34 	"/>
	<polygon class="st2" points="29.2,136.97 29.2,149.49 32.07,149.49 42.78,149.49 42.78,136.97 35.26,136.97 	"/>
	<polygon class="st2" points="29.2,128.5 29.2,135.58 35.62,135.58 42.78,135.58 42.78,128.5 37.42,128.5 	"/>
	<polygon class="st2" points="29.2,159.34 29.2,166.43 35.62,166.43 42.78,166.43 42.78,159.34 37.42,159.34 	"/>
	<polygon class="st2" points="29.2,167.81 29.2,180.33 32.07,180.33 42.78,180.33 42.78,167.81 35.26,167.81 	"/>
	<polygon class="st2" points="197.51,136.97 197.51,149.49 200.38,149.49 211.09,149.49 211.09,136.97 203.58,136.97 	"/>
	<polygon class="st2" points="197.51,159.34 197.51,166.43 203.93,166.43 211.09,166.43 211.09,159.34 205.74,159.34 	"/>
	<polygon class="st2" points="197.51,167.81 197.51,180.33 200.38,180.33 211.09,180.33 211.09,167.81 203.58,167.81 	"/>
	<polygon class="st2" points="178.01,136.97 178.01,149.49 180.88,149.49 191.58,149.49 191.58,136.97 184.07,136.97 	"/>
	<polygon class="st2" points="178.01,128.5 178.01,135.58 184.42,135.58 191.58,135.58 191.58,128.5 186.23,128.5 	"/>
	<polygon class="st2" points="178.01,159.34 178.01,166.43 184.42,166.43 191.58,166.43 191.58,159.34 186.23,159.34 	"/>
	<polygon class="st2" points="178.01,167.81 178.01,180.33 180.88,180.33 191.58,180.33 191.58,167.81 184.07,167.81 	"/>
	<polygon class="st2" points="133.81,122.59 133.81,116.15 133.81,115.51 122.91,115.51 106.17,115.51 106.17,116.15 106.17,122.59 
		119.23,122.59 	"/>
	<polygon class="st2" points="133.81,136.5 133.81,123.99 133.81,123.98 118.52,123.98 106.17,123.98 106.17,123.99 106.17,136.5 
		112.02,136.5 	"/>
	<polygon class="st2" points="205.74,128.5 197.51,128.5 197.51,135.58 203.93,135.58 211.09,135.58 211.09,128.5 	"/>
</g>
<g>
	<polygon class="st3" points="133.81,136.5 112.02,136.5 106.17,136.5 106.17,137.88 133.81,137.88 	"/>
	<polygon class="st3" points="76.18,137.19 76.18,138.58 89.76,138.58 89.76,137.19 79.06,137.19 	"/>
	<polygon class="st3" points="150.33,137.19 150.33,138.58 163.91,138.58 163.91,137.19 153.2,137.19 	"/>
	<polygon class="st3" points="76.18,168.04 76.18,169.42 89.76,169.42 89.76,168.04 79.06,168.04 	"/>
	<polygon class="st3" points="150.33,168.04 150.33,169.42 163.91,169.42 163.91,168.04 153.2,168.04 	"/>
	<path class="st3" d="M120.45,156.75h-0.59h-15.02h-0.04h-0.55v32.71h0.55h0.04h15.02h0.59h14.47h0.59v-32.71h-0.59H120.45z
		 M119.86,166.2v21.35h-8.69h-6.33v-29.18h15.02V166.2z M134.92,187.55h-14.47v-22.81v-6.38h2.6h11.87V187.55z"/>
	<polygon class="st3" points="118.39,173.75 116.79,173.75 116.53,173.75 116.53,174.39 116.53,174.84 118.39,174.84 	"/>
	<rect x="121.92" y="173.75" class="st3" width="1.86" height="1.09"/>
	<polygon class="st3" points="178.01,180.33 178.01,181.72 191.58,181.72 191.58,180.33 180.88,180.33 	"/>
	<polygon class="st3" points="48.71,149.49 48.71,150.87 62.28,150.87 62.28,149.49 51.58,149.49 	"/>
	<polygon class="st3" points="48.71,180.33 48.71,181.72 62.28,181.72 62.28,180.33 51.58,180.33 	"/>
	<polygon class="st3" points="29.2,149.49 29.2,150.87 42.78,150.87 42.78,149.49 32.07,149.49 	"/>
	<polygon class="st3" points="29.2,180.33 29.2,181.72 42.78,181.72 42.78,180.33 32.07,180.33 	"/>
	<polygon class="st3" points="197.51,149.49 197.51,150.87 211.09,150.87 211.09,149.49 200.38,149.49 	"/>
	<polygon class="st3" points="197.51,180.33 197.51,181.72 211.09,181.72 211.09,180.33 200.38,180.33 	"/>
	<polygon class="st3" points="178.01,149.49 178.01,150.87 191.58,150.87 191.58,149.49 180.88,149.49 	"/>
	<polygon class="st3" points="133.81,123.98 133.81,122.59 119.23,122.59 106.17,122.59 106.17,123.98 118.52,123.98 	"/>
	<polygon class="st3" points="76.18,123.29 76.18,123.99 76.18,124.67 82.25,124.67 89.76,124.67 89.76,123.99 89.76,123.29 
		82.6,123.29 	"/>
	<polygon class="st3" points="150.33,123.29 150.33,123.99 150.33,124.67 156.4,124.67 163.91,124.67 163.91,123.99 163.91,123.29 
		156.75,123.29 	"/>
	<polygon class="st3" points="76.18,154.13 76.18,155.51 82.25,155.51 89.76,155.51 89.76,154.13 82.6,154.13 	"/>
	<polygon class="st3" points="150.33,154.13 150.33,155.51 156.4,155.51 163.91,155.51 163.91,154.13 156.75,154.13 	"/>
	<polygon class="st3" points="178.01,166.43 178.01,167.81 184.07,167.81 191.58,167.81 191.58,166.43 184.42,166.43 	"/>
	<polygon class="st3" points="48.71,135.58 48.71,136.97 54.77,136.97 62.28,136.97 62.28,135.58 55.12,135.58 	"/>
	<polygon class="st3" points="48.71,166.43 48.71,167.81 54.77,167.81 62.28,167.81 62.28,166.43 55.12,166.43 	"/>
	<polygon class="st3" points="29.2,135.58 29.2,136.97 35.26,136.97 42.78,136.97 42.78,135.58 35.62,135.58 	"/>
	<polygon class="st3" points="29.2,166.43 29.2,167.81 35.26,167.81 42.78,167.81 42.78,166.43 35.62,166.43 	"/>
	<polygon class="st3" points="203.93,135.58 197.51,135.58 197.51,136.97 203.58,136.97 211.09,136.97 211.09,135.58 	"/>
	<polygon class="st3" points="197.51,166.43 197.51,167.81 203.58,167.81 211.09,167.81 211.09,166.43 203.93,166.43 	"/>
	<polygon class="st3" points="178.01,135.58 178.01,136.97 184.07,136.97 191.58,136.97 191.58,135.58 184.42,135.58 	"/>
</g>
<path class="st2" d="M120.76,72.62c-5.68,0-10.28,4.6-10.28,10.28c0,5.68,4.6,10.28,10.28,10.28c5.68,0,10.28-4.6,10.28-10.28
	C131.04,77.22,126.44,72.62,120.76,72.62z M120.76,92.04c-5.04,0-9.13-4.1-9.13-9.13c0-5.04,4.1-9.13,9.13-9.13
	c5.04,0,9.13,4.1,9.13,9.13C129.89,87.94,125.8,92.04,120.76,92.04z"/>
<path class="st2" d="M120.76,74.82c-4.46,0-8.09,3.63-8.09,8.09c0,4.46,3.63,8.09,8.09,8.09c4.46,0,8.09-3.63,8.09-8.09
	C128.85,78.44,125.22,74.82,120.76,74.82z M126.97,82.9c0,0.29-0.23,0.52-0.52,0.52h-5.69c-0.29,0-0.52-0.23-0.52-0.52v-6.2
	c0-0.29,0.23-0.52,0.52-0.52c0.29,0,0.52,0.23,0.52,0.52v5.67h5.17C126.74,82.38,126.97,82.61,126.97,82.9z"/>
<g>
	<path class="st4" d="M120.76,73.77c-5.04,0-9.13,4.1-9.13,9.13c0,5.04,4.1,9.13,9.13,9.13c5.04,0,9.13-4.1,9.13-9.13
		C129.89,77.87,125.8,73.77,120.76,73.77z M120.76,90.99c-4.46,0-8.09-3.63-8.09-8.09c0-4.46,3.63-8.09,8.09-8.09
		c4.46,0,8.09,3.63,8.09,8.09C128.85,87.36,125.22,90.99,120.76,90.99z"/>
	<path class="st4" d="M126.45,82.38h-5.17V76.7c0-0.29-0.23-0.52-0.52-0.52c-0.29,0-0.52,0.23-0.52,0.52v6.2
		c0,0.29,0.23,0.52,0.52,0.52h5.69c0.29,0,0.52-0.23,0.52-0.52C126.97,82.61,126.74,82.38,126.45,82.38z"/>
</g>
<g>
	<path class="st5" d="M170.57,104.96h9.66V93.08l-59.4-36.22v-18.9h-1.51v19.17L61.3,93.08v11.87h8.23H170.57z M64.55,96.38
		L120.29,62l56.68,34.39v3.44H64.55V96.38z"/>
	<path class="st5" d="M163.91,123.99h6.66h48.79h2.54v-7.84h-51.33h-25.42v-7.88c0.32,0.22,0.7,0.36,1.12,0.36
		c1.07,0,1.94-0.87,1.94-1.94s-0.87-1.94-1.94-1.94h-1.12h-1.63h-0.7h-2.33h-1.12c-1.07,0-1.94,0.87-1.94,1.94s0.87,1.94,1.94,1.94
		c0.42,0,0.8-0.13,1.12-0.36v7.88h-6.68v6.45v1.38v0.01h6.68v18h-1.52v1.05h-0.98v0.47h-36.21v-0.47h-0.98v-1.05h-1.52v-18h6.9
		v-0.01v-1.38v-6.45h-6.9v-7.88c0.32,0.22,0.7,0.36,1.12,0.36c1.07,0,1.94-0.87,1.94-1.94s-0.87-1.94-1.94-1.94h-1.12h-1.63h-0.7
		h-2.33h-1.12c-1.07,0-1.94,0.87-1.94,1.94s0.87,1.94,1.94,1.94c0.42,0,0.8-0.13,1.12-0.36v7.88H69.53H18.19v7.84h2.54h48.79h6.66
		v-0.7v-7.09h8.22h5.35v7.09v0.7h4.85v18h-1.52v1.05H92.1v0.47h-1.76v2.71v2.71h3.15c-1.07,0-1.94,0.87-1.94,1.94
		c0,1.07,0.87,1.94,1.94,1.94c0.42,0,0.8-0.13,1.12-0.36v33.72h-1.52v1.05H92.1v2.29H69.53H20.73h-2.54v3.99H221.9v-3.99h-2.54
		h-48.79h-22.91v-2.29h-0.98v-1.05h-1.52v-33.72c0.32,0.22,0.7,0.36,1.12,0.36c1.07,0,1.94-0.87,1.94-1.94
		c0-1.07-0.87-1.94-1.94-1.94h3.15v-2.71v-2.71h-1.76v-0.47h-0.98v-1.05h-1.52v-18h5.18v-0.7v-7.09h8.22h5.35v7.09V123.99z
		 M101.78,189.52v-2.29h-0.98v-1.05h-1.52v-33.72c0.32,0.22,0.7,0.36,1.12,0.36c1.07,0,1.94-0.87,1.94-1.94
		c0-1.07-0.87-1.94-1.94-1.94h38.99c-1.07,0-1.94,0.87-1.94,1.94c0,1.07,0.87,1.94,1.94,1.94c0.42,0,0.8-0.13,1.12-0.36v33.72h-1.52
		v1.05h-0.98v2.29h-17.54H101.78z"/>
</g>
<polygon class="st2" points="129.32,37.65 127.12,38.28 127.12,41 124.43,41.6 124.43,43.8 127.12,43.2 127.12,46.06 129.32,45.43 
	129.32,42.71 132.01,42.11 132.01,39.92 129.32,40.52 "/>
<g>
	<rect class="st6" width="240" height="240"/>
</g>
</svg>
