<?xml version="1.0" encoding="utf-8"?>
<!-- Generator: Adobe Illustrator 23.0.3, SVG Export Plug-In . SVG Version: 6.00 Build 0)  -->
<svg version="1.1" id="Ebene_1" xmlns="http://www.w3.org/2000/svg" xmlns:xlink="http://www.w3.org/1999/xlink" x="0px" y="0px"
	 viewBox="0 0 240 240" style="enable-background:new 0 0 240 240;" xml:space="preserve">
<style type="text/css">
	.st0{display:none;}
	.st1{display:inline;fill:none;}
	.st2{fill:#D50000;}
	.st3{fill:none;}
	.st4{fill:#858B8A;}
	.st5{fill:#E20613;}
	.st6{fill:#ECECEC;}
	.st7{fill:#D9D9D9;}
	.st8{fill:#585858;}
	.st9{fill:#FFFFFF;}
	.st10{fill:#1D1D1B;}
	.st11{fill:#9EA5A3;}
	.st12{fill:#978679;}
	.st13{fill:#3D3D3D;}
</style>
<g class="st0">
	<rect class="st1" width="240" height="240"/>
</g>
<g>
	<g>
		<polygon class="st2" points="123.31,56.74 123.31,50.78 123.31,45.54 87.08,45.54 72.79,45.54 72.79,56.74 48.39,56.74 
			48.39,89.5 72.79,89.5 87.08,89.5 98.25,89.5 123.31,89.5 147.7,89.5 147.7,56.74 		"/>
		<polygon class="st2" points="126.51,42.94 98.17,25.74 70.3,42.93 70.3,44.66 126.51,44.66 		"/>
	</g>
	<g>
		<polygon class="st3" points="70.3,42.93 70.3,44.66 126.51,44.66 126.51,42.94 98.17,25.74 		"/>
		<path class="st4" d="M98.16,22.96L68.67,41.15v5.91h59.46v-5.91L98.16,22.96z M126.51,44.66H70.3v-1.73l27.87-17.19l28.34,17.2
			V44.66z"/>
	</g>
	<polygon class="st5" points="98.44,19.35 105.82,17.62 105.82,11.99 98.44,13.73 	"/>
	<rect x="97.68" y="13.72" class="st4" width="0.75" height="11.5"/>
	<rect x="47.12" y="52.82" class="st4" width="101.86" height="3.92"/>
	<rect x="47.12" y="89.5" class="st4" width="101.86" height="2"/>
	<g>
		<rect x="91.11" y="52.5" class="st6" width="13.82" height="10.5"/>
		<polygon class="st7" points="104.93,62.99 94.03,62.99 99.48,52.5 104.93,52.5 		"/>
		<rect x="91.11" y="62.99" class="st8" width="13.82" height="0.69"/>
	</g>
	<rect x="76.12" y="52.84" class="st6" width="6.79" height="10.5"/>
	<polygon class="st7" points="82.9,63.34 77.55,63.34 80.23,52.84 82.9,52.84 	"/>
	<rect x="76.12" y="63.34" class="st8" width="6.79" height="0.69"/>
	<rect x="113.19" y="52.84" class="st6" width="6.79" height="10.5"/>
	<polygon class="st7" points="119.98,63.34 114.63,63.34 117.3,52.84 119.98,52.84 	"/>
	<rect x="113.19" y="63.34" class="st8" width="6.79" height="0.69"/>
	<rect x="76.12" y="68.26" class="st6" width="6.79" height="10.5"/>
	<polygon class="st7" points="82.9,78.76 77.55,78.76 80.23,68.26 82.9,68.26 	"/>
	<rect x="76.12" y="78.76" class="st8" width="6.79" height="0.69"/>
	<rect x="113.19" y="68.26" class="st6" width="6.79" height="10.5"/>
	<polygon class="st7" points="119.98,78.76 114.63,78.76 117.3,68.26 119.98,68.26 	"/>
	<rect x="113.19" y="78.76" class="st8" width="6.79" height="0.69"/>
	<g>
		<g>
			<rect x="90.42" y="73.93" class="st6" width="15.06" height="14.59"/>
			<polygon class="st7" points="105.48,88.52 93.61,88.52 99.55,73.93 105.48,73.93 			"/>
		</g>
		<rect x="90.42" y="88.52" class="st8" width="15.06" height="0.95"/>
		<rect x="90.42" y="73.12" class="st8" width="15.06" height="0.81"/>
		
			<rect x="97.45" y="81.15" transform="matrix(-1.836970e-16 1 -1 -1.836970e-16 186.9261 -24.334)" class="st8" width="16.35" height="0.3"/>
		
			<rect x="82.12" y="81.15" transform="matrix(-1.836970e-16 1 -1 -1.836970e-16 171.593 -9.0009)" class="st8" width="16.35" height="0.3"/>
		
			<rect x="89.92" y="81.15" transform="matrix(-1.836970e-16 1 -1 -1.836970e-16 179.3965 -16.8044)" class="st8" width="16.35" height="0.3"/>
		<g>
			<rect x="96.29" y="81.62" class="st8" width="0.93" height="0.55"/>
			<rect x="98.98" y="81.62" class="st8" width="0.93" height="0.55"/>
		</g>
	</g>
	<rect x="127.03" y="84.91" class="st8" width="6.79" height="0.69"/>
	<rect x="62.38" y="58.99" class="st6" width="6.79" height="10.5"/>
	<polygon class="st7" points="69.16,69.49 63.81,69.49 66.49,58.99 69.16,58.99 	"/>
	<rect x="62.38" y="69.49" class="st8" width="6.79" height="0.69"/>
	<rect x="62.38" y="74.41" class="st6" width="6.79" height="10.5"/>
	<polygon class="st7" points="69.16,84.91 63.81,84.91 66.49,74.41 69.16,74.41 	"/>
	<rect x="62.38" y="84.91" class="st8" width="6.79" height="0.69"/>
	<rect x="52.62" y="58.99" class="st6" width="6.79" height="10.5"/>
	<polygon class="st7" points="59.41,69.49 54.06,69.49 56.74,58.99 59.41,58.99 	"/>
	<rect x="52.62" y="69.49" class="st8" width="6.79" height="0.69"/>
	<rect x="52.62" y="74.41" class="st6" width="6.79" height="10.5"/>
	<polygon class="st7" points="59.41,84.91 54.06,84.91 56.74,74.41 59.41,74.41 	"/>
	<rect x="52.62" y="84.91" class="st8" width="6.79" height="0.69"/>
	<rect x="136.78" y="58.99" class="st6" width="6.79" height="10.5"/>
	<polygon class="st7" points="143.57,69.49 138.22,69.49 140.89,58.99 143.57,58.99 	"/>
	<rect x="136.78" y="69.49" class="st8" width="6.79" height="0.69"/>
	<rect x="136.78" y="74.41" class="st6" width="6.79" height="10.5"/>
	<polygon class="st7" points="143.57,84.91 138.22,84.91 140.89,74.41 143.57,74.41 	"/>
	<rect x="136.78" y="84.91" class="st8" width="6.79" height="0.69"/>
	<rect x="127.03" y="58.99" class="st6" width="6.79" height="10.5"/>
	<polygon class="st7" points="133.81,69.49 128.46,69.49 131.14,58.99 133.81,58.99 	"/>
	<rect x="127.03" y="74.41" class="st6" width="6.79" height="10.5"/>
	<polygon class="st7" points="133.81,84.91 128.46,84.91 131.14,74.41 133.81,74.41 	"/>
	<rect x="127.03" y="69.49" class="st8" width="6.79" height="0.69"/>
	<g>
		<rect x="91.11" y="56.04" class="st8" width="13.82" height="0.69"/>
	</g>
	<rect x="76.12" y="56.39" class="st8" width="6.79" height="0.69"/>
	<rect x="113.19" y="56.39" class="st8" width="6.79" height="0.69"/>
	<rect x="76.12" y="71.81" class="st8" width="6.79" height="0.69"/>
	<rect x="113.19" y="71.81" class="st8" width="6.79" height="0.69"/>
	<rect x="127.03" y="77.96" class="st8" width="6.79" height="0.69"/>
	<rect x="62.38" y="62.54" class="st8" width="6.79" height="0.69"/>
	<rect x="62.38" y="77.96" class="st8" width="6.79" height="0.69"/>
	<rect x="52.62" y="62.54" class="st8" width="6.79" height="0.69"/>
	<rect x="52.62" y="77.96" class="st8" width="6.79" height="0.69"/>
	<rect x="136.78" y="62.54" class="st8" width="6.79" height="0.69"/>
	<rect x="136.78" y="77.96" class="st8" width="6.79" height="0.69"/>
	<rect x="127.03" y="62.54" class="st8" width="6.79" height="0.69"/>
	<g>
		<path class="st9" d="M103.54,36.19c0-2.84-2.3-5.14-5.14-5.14c-2.84,0-5.14,2.3-5.14,5.14c0,2.84,2.3,5.14,5.14,5.14
			C101.24,41.34,103.54,39.03,103.54,36.19z"/>
		<g>
			<path class="st10" d="M98.4,40.76c-2.52,0-4.57-2.05-4.57-4.57c0-2.52,2.05-4.57,4.57-4.57c2.52,0,4.57,2.05,4.57,4.57
				C102.97,38.71,100.92,40.76,98.4,40.76z M98.4,32.15c-2.23,0-4.04,1.81-4.04,4.04c0,2.23,1.81,4.04,4.04,4.04
				c2.23,0,4.04-1.81,4.04-4.04C102.45,33.97,100.63,32.15,98.4,32.15z"/>
		</g>
		<path class="st10" d="M101.25,35.93h-2.58V33.1c0-0.14-0.12-0.26-0.26-0.26c-0.14,0-0.26,0.12-0.26,0.26v3.1
			c0,0.14,0.12,0.26,0.26,0.26h2.85c0.14,0,0.26-0.12,0.26-0.26S101.39,35.93,101.25,35.93z"/>
	</g>
	<g>
		<g>
			<g>
				<g>
					<rect x="108.27" y="69.21" class="st11" width="2.33" height="19.15"/>
				</g>
				<g>
					<rect x="109.43" y="69.21" class="st4" width="1.16" height="19.15"/>
				</g>
				<rect x="107.02" y="88.36" class="st11" width="4.84" height="1.28"/>
				<g>
					<rect x="110.02" y="88.36" class="st11" width="1.84" height="1.28"/>
				</g>
				<rect x="107.51" y="87.83" class="st11" width="3.85" height="0.79"/>
				<g>
					<rect x="109.6" y="87.83" class="st11" width="1.76" height="0.79"/>
				</g>
				<path class="st11" d="M108.68,70.18c0-0.54-0.43-0.97-0.97-0.97s-0.97,0.43-0.97,0.97c0,0.54,0.43,0.97,0.97,0.97
					S108.68,70.72,108.68,70.18z"/>
				<rect x="107.71" y="69.21" class="st11" width="3.45" height="0.65"/>
				<g>
					<rect x="109.79" y="69.21" class="st11" width="1.37" height="0.65"/>
				</g>
				<g>
					<path class="st11" d="M112.13,70.18c0-0.54-0.43-0.97-0.97-0.97c-0.54,0-0.97,0.43-0.97,0.97c0,0.54,0.43,0.97,0.97,0.97
						C111.69,71.15,112.13,70.72,112.13,70.18z"/>
				</g>
			</g>
		</g>
		<g>
			<g>
				<g>
					<rect x="85.33" y="69.21" class="st11" width="2.33" height="19.15"/>
				</g>
				<g>
					<rect x="86.49" y="69.21" class="st4" width="1.16" height="19.15"/>
				</g>
				<rect x="84.07" y="88.36" class="st11" width="4.84" height="1.28"/>
				<g>
					<rect x="87.08" y="88.36" class="st11" width="1.84" height="1.28"/>
				</g>
				<rect x="84.57" y="87.83" class="st11" width="3.85" height="0.79"/>
				<g>
					<rect x="86.66" y="87.83" class="st11" width="1.76" height="0.79"/>
				</g>
				<path class="st11" d="M85.74,70.18c0-0.54-0.43-0.97-0.97-0.97c-0.54,0-0.97,0.43-0.97,0.97c0,0.54,0.43,0.97,0.97,0.97
					C85.3,71.15,85.74,70.72,85.74,70.18z"/>
				<rect x="84.77" y="69.21" class="st11" width="3.45" height="0.65"/>
				<g>
					<rect x="86.84" y="69.21" class="st11" width="1.37" height="0.65"/>
				</g>
				<g>
					<path class="st11" d="M89.19,70.18c0-0.54-0.43-0.97-0.97-0.97c-0.54,0-0.97,0.43-0.97,0.97c0,0.54,0.43,0.97,0.97,0.97
						C88.75,71.15,89.19,70.72,89.19,70.18z"/>
				</g>
			</g>
		</g>
	</g>
	<g>
		<g>
			<g>
				<g>
					<rect x="108.27" y="47.12" class="st11" width="2.33" height="19.15"/>
				</g>
				<g>
					<rect x="109.43" y="47.12" class="st4" width="1.16" height="19.15"/>
				</g>
				<rect x="107.02" y="66.26" class="st11" width="4.84" height="1.28"/>
				<g>
					<rect x="110.02" y="66.26" class="st11" width="1.84" height="1.28"/>
				</g>
				<rect x="107.51" y="65.74" class="st11" width="3.85" height="0.79"/>
				<g>
					<rect x="109.6" y="65.74" class="st11" width="1.76" height="0.79"/>
				</g>
				<path class="st11" d="M108.68,48.09c0-0.54-0.43-0.97-0.97-0.97s-0.97,0.43-0.97,0.97c0,0.54,0.43,0.97,0.97,0.97
					S108.68,48.62,108.68,48.09z"/>
				<rect x="107.71" y="47.12" class="st11" width="3.45" height="0.65"/>
				<g>
					<rect x="109.79" y="47.12" class="st11" width="1.37" height="0.65"/>
				</g>
				<g>
					<path class="st11" d="M112.13,48.09c0-0.54-0.43-0.97-0.97-0.97c-0.54,0-0.97,0.43-0.97,0.97c0,0.54,0.43,0.97,0.97,0.97
						C111.69,49.06,112.13,48.62,112.13,48.09z"/>
				</g>
			</g>
		</g>
		<g>
			<g>
				<g>
					<rect x="85.33" y="47.12" class="st11" width="2.33" height="19.15"/>
				</g>
				<g>
					<rect x="86.49" y="47.12" class="st4" width="1.16" height="19.15"/>
				</g>
				<rect x="84.07" y="66.26" class="st11" width="4.84" height="1.28"/>
				<g>
					<rect x="87.08" y="66.26" class="st11" width="1.84" height="1.28"/>
				</g>
				<rect x="84.57" y="65.74" class="st11" width="3.85" height="0.79"/>
				<g>
					<rect x="86.66" y="65.74" class="st11" width="1.76" height="0.79"/>
				</g>
				<path class="st11" d="M85.74,48.09c0-0.54-0.43-0.97-0.97-0.97c-0.54,0-0.97,0.43-0.97,0.97c0,0.54,0.43,0.97,0.97,0.97
					C85.3,49.06,85.74,48.62,85.74,48.09z"/>
				<rect x="84.77" y="47.12" class="st11" width="3.45" height="0.65"/>
				<g>
					<rect x="86.84" y="47.12" class="st11" width="1.37" height="0.65"/>
				</g>
				<g>
					<path class="st11" d="M89.19,48.09c0-0.54-0.43-0.97-0.97-0.97c-0.54,0-0.97,0.43-0.97,0.97c0,0.54,0.43,0.97,0.97,0.97
						C88.75,49.06,89.19,48.62,89.19,48.09z"/>
				</g>
			</g>
		</g>
	</g>
	<rect x="83.2" y="66.5" class="st11" width="29.54" height="2.71"/>
	<rect x="83.2" y="67.85" class="st4" width="29.54" height="1.36"/>
	<polygon class="st9" points="101.58,17.77 102.68,17.46 102.68,13.57 101.58,13.88 	"/>
	<polygon class="st9" points="100.24,15.54 100.24,16.64 104.03,15.8 104.03,14.7 	"/>
</g>
<g>
	<g>
		<rect x="112.85" y="111.24" class="st12" width="3.29" height="16.56"/>
		<rect x="101.83" y="111.24" class="st12" width="3.29" height="16.56"/>
		<rect x="90.81" y="111.24" class="st12" width="3.29" height="16.56"/>
		<rect x="79.8" y="111.24" class="st12" width="3.29" height="16.56"/>
		<rect x="145.85" y="111.24" class="st13" width="3.29" height="16.56"/>
		<rect x="134.83" y="111.24" class="st12" width="3.29" height="16.56"/>
		<rect x="123.81" y="111.24" class="st12" width="3.29" height="16.56"/>
		<rect x="68.78" y="111.24" class="st12" width="3.29" height="16.56"/>
		<rect x="57.76" y="111.24" class="st12" width="3.29" height="16.56"/>
		<rect x="46.74" y="111.24" class="st12" width="3.29" height="16.56"/>
		<rect x="35.73" y="111.24" class="st12" width="3.29" height="16.56"/>
		<rect x="24.71" y="111.24" class="st12" width="3.29" height="16.56"/>
		<rect x="14.11" y="111.24" class="st12" width="3.29" height="16.56"/>
		<rect x="3.85" y="111.24" class="st12" width="3.29" height="16.56"/>
	</g>
	<g>
		<rect x="0" y="114.71" class="st13" width="148" height="1.33"/>
		<rect x="0" y="123" class="st13" width="148" height="1.33"/>
	</g>
</g>
<rect x="47" y="131.5" transform="matrix(-1 -1.224647e-16 1.224647e-16 -1 196 274)" class="st7" width="102" height="11"/>
<rect x="47" y="97.5" transform="matrix(-1 -3.564960e-14 3.564960e-14 -1 196 206)" class="st7" width="102" height="11"/>
</svg>
