<?xml version="1.0" encoding="utf-8"?>
<!-- Generator: Adobe Illustrator 23.0.3, SVG Export Plug-In . SVG Version: 6.00 Build 0)  -->
<svg version="1.1" id="Ebene_1" xmlns="http://www.w3.org/2000/svg" xmlns:xlink="http://www.w3.org/1999/xlink" x="0px" y="0px"
	 viewBox="0 0 240 240" style="enable-background:new 0 0 240 240;" xml:space="preserve">
<style type="text/css">
	.st0{fill:none;}
	.st1{fill:#D50000;}
	.st2{fill:#858B8A;}
	.st3{fill:#E20613;}
	.st4{fill:#ECECEC;}
	.st5{fill:#D9D9D9;}
	.st6{fill:#585858;}
	.st7{fill:#FFFFFF;}
	.st8{fill:#1D1D1B;}
	.st9{fill:#9EA5A3;}
	.st10{fill:#978679;}
	.st11{fill:#3D3D3D;}
</style>
<g>
	<rect class="st0" width="240" height="240"/>
</g>
<g>
	<g>
		<polygon class="st1" points="145.31,204.74 145.31,198.78 145.31,193.54 109.08,193.54 94.79,193.54 94.79,204.74 70.39,204.74 
			70.39,237.5 94.79,237.5 109.08,237.5 120.25,237.5 145.31,237.5 169.7,237.5 169.7,204.74 		"/>
		<polygon class="st1" points="148.51,190.94 120.17,173.74 92.3,190.93 92.3,192.66 148.51,192.66 		"/>
	</g>
	<g>
		<polygon class="st0" points="92.3,190.93 92.3,192.66 148.51,192.66 148.51,190.94 120.17,173.74 		"/>
		<path class="st2" d="M120.16,170.96l-29.49,18.19v5.91h59.46v-5.91L120.16,170.96z M148.51,192.66H92.3v-1.73l27.87-17.19
			l28.34,17.2V192.66z"/>
	</g>
	<polygon class="st3" points="120.44,167.35 127.82,165.62 127.82,159.99 120.44,161.73 	"/>
	<rect x="119.68" y="161.72" class="st2" width="0.75" height="11.5"/>
	<rect x="69.12" y="200.82" class="st2" width="101.86" height="3.92"/>
	<rect x="69.12" y="237.5" class="st2" width="101.86" height="2"/>
	<g>
		<rect x="113.11" y="200.5" class="st4" width="13.82" height="10.5"/>
		<polygon class="st5" points="126.93,210.99 116.03,210.99 121.48,200.5 126.93,200.5 		"/>
		<rect x="113.11" y="210.99" class="st6" width="13.82" height="0.69"/>
	</g>
	<rect x="98.12" y="200.84" class="st4" width="6.79" height="10.5"/>
	<polygon class="st5" points="104.9,211.34 99.55,211.34 102.23,200.84 104.9,200.84 	"/>
	<rect x="98.12" y="211.34" class="st6" width="6.79" height="0.69"/>
	<rect x="135.19" y="200.84" class="st4" width="6.79" height="10.5"/>
	<polygon class="st5" points="141.98,211.34 136.63,211.34 139.3,200.84 141.98,200.84 	"/>
	<rect x="135.19" y="211.34" class="st6" width="6.79" height="0.69"/>
	<rect x="98.12" y="216.26" class="st4" width="6.79" height="10.5"/>
	<polygon class="st5" points="104.9,226.76 99.55,226.76 102.23,216.26 104.9,216.26 	"/>
	<rect x="98.12" y="226.76" class="st6" width="6.79" height="0.69"/>
	<rect x="135.19" y="216.26" class="st4" width="6.79" height="10.5"/>
	<polygon class="st5" points="141.98,226.76 136.63,226.76 139.3,216.26 141.98,216.26 	"/>
	<rect x="135.19" y="226.76" class="st6" width="6.79" height="0.69"/>
	<g>
		<g>
			<rect x="112.42" y="221.93" class="st4" width="15.06" height="14.59"/>
			<polygon class="st5" points="127.48,236.52 115.61,236.52 121.55,221.93 127.48,221.93 			"/>
		</g>
		<rect x="112.42" y="236.52" class="st6" width="15.06" height="0.95"/>
		<rect x="112.42" y="221.12" class="st6" width="15.06" height="0.81"/>
		
			<rect x="119.45" y="229.15" transform="matrix(-1.836970e-16 1 -1 -1.836970e-16 356.9261 101.666)" class="st6" width="16.35" height="0.3"/>
		
			<rect x="104.12" y="229.15" transform="matrix(-1.836970e-16 1 -1 -1.836970e-16 341.593 116.9991)" class="st6" width="16.35" height="0.3"/>
		
			<rect x="111.92" y="229.15" transform="matrix(-1.836970e-16 1 -1 -1.836970e-16 349.3965 109.1956)" class="st6" width="16.35" height="0.3"/>
		<g>
			<rect x="118.29" y="229.62" class="st6" width="0.93" height="0.55"/>
			<rect x="120.98" y="229.62" class="st6" width="0.93" height="0.55"/>
		</g>
	</g>
	<rect x="149.03" y="232.91" class="st6" width="6.79" height="0.69"/>
	<rect x="84.38" y="206.99" class="st4" width="6.79" height="10.5"/>
	<polygon class="st5" points="91.16,217.49 85.81,217.49 88.49,206.99 91.16,206.99 	"/>
	<rect x="84.38" y="217.49" class="st6" width="6.79" height="0.69"/>
	<rect x="84.38" y="222.41" class="st4" width="6.79" height="10.5"/>
	<polygon class="st5" points="91.16,232.91 85.81,232.91 88.49,222.41 91.16,222.41 	"/>
	<rect x="84.38" y="232.91" class="st6" width="6.79" height="0.69"/>
	<rect x="74.62" y="206.99" class="st4" width="6.79" height="10.5"/>
	<polygon class="st5" points="81.41,217.49 76.06,217.49 78.74,206.99 81.41,206.99 	"/>
	<rect x="74.62" y="217.49" class="st6" width="6.79" height="0.69"/>
	<rect x="74.62" y="222.41" class="st4" width="6.79" height="10.5"/>
	<polygon class="st5" points="81.41,232.91 76.06,232.91 78.74,222.41 81.41,222.41 	"/>
	<rect x="74.62" y="232.91" class="st6" width="6.79" height="0.69"/>
	<rect x="158.78" y="206.99" class="st4" width="6.79" height="10.5"/>
	<polygon class="st5" points="165.57,217.49 160.22,217.49 162.89,206.99 165.57,206.99 	"/>
	<rect x="158.78" y="217.49" class="st6" width="6.79" height="0.69"/>
	<rect x="158.78" y="222.41" class="st4" width="6.79" height="10.5"/>
	<polygon class="st5" points="165.57,232.91 160.22,232.91 162.89,222.41 165.57,222.41 	"/>
	<rect x="158.78" y="232.91" class="st6" width="6.79" height="0.69"/>
	<rect x="149.03" y="206.99" class="st4" width="6.79" height="10.5"/>
	<polygon class="st5" points="155.81,217.49 150.46,217.49 153.14,206.99 155.81,206.99 	"/>
	<rect x="149.03" y="222.41" class="st4" width="6.79" height="10.5"/>
	<polygon class="st5" points="155.81,232.91 150.46,232.91 153.14,222.41 155.81,222.41 	"/>
	<rect x="149.03" y="217.49" class="st6" width="6.79" height="0.69"/>
	<g>
		<rect x="113.11" y="204.04" class="st6" width="13.82" height="0.69"/>
	</g>
	<rect x="98.12" y="204.39" class="st6" width="6.79" height="0.69"/>
	<rect x="135.19" y="204.39" class="st6" width="6.79" height="0.69"/>
	<rect x="98.12" y="219.81" class="st6" width="6.79" height="0.69"/>
	<rect x="135.19" y="219.81" class="st6" width="6.79" height="0.69"/>
	<rect x="149.03" y="225.96" class="st6" width="6.79" height="0.69"/>
	<rect x="84.38" y="210.54" class="st6" width="6.79" height="0.69"/>
	<rect x="84.38" y="225.96" class="st6" width="6.79" height="0.69"/>
	<rect x="74.62" y="210.54" class="st6" width="6.79" height="0.69"/>
	<rect x="74.62" y="225.96" class="st6" width="6.79" height="0.69"/>
	<rect x="158.78" y="210.54" class="st6" width="6.79" height="0.69"/>
	<rect x="158.78" y="225.96" class="st6" width="6.79" height="0.69"/>
	<rect x="149.03" y="210.54" class="st6" width="6.79" height="0.69"/>
	<g>
		<path class="st7" d="M125.54,184.19c0-2.84-2.3-5.14-5.14-5.14c-2.84,0-5.14,2.3-5.14,5.14c0,2.84,2.3,5.14,5.14,5.14
			C123.24,189.34,125.54,187.03,125.54,184.19z"/>
		<g>
			<path class="st8" d="M120.4,188.76c-2.52,0-4.57-2.05-4.57-4.57c0-2.52,2.05-4.57,4.57-4.57c2.52,0,4.57,2.05,4.57,4.57
				C124.97,186.71,122.92,188.76,120.4,188.76z M120.4,180.15c-2.23,0-4.04,1.81-4.04,4.04c0,2.23,1.81,4.04,4.04,4.04
				c2.23,0,4.04-1.81,4.04-4.04C124.45,181.97,122.63,180.15,120.4,180.15z"/>
		</g>
		<path class="st8" d="M123.25,183.93h-2.58v-2.84c0-0.14-0.12-0.26-0.26-0.26c-0.14,0-0.26,0.12-0.26,0.26v3.1
			c0,0.14,0.12,0.26,0.26,0.26h2.85c0.14,0,0.26-0.12,0.26-0.26C123.51,184.05,123.39,183.93,123.25,183.93z"/>
	</g>
	<g>
		<g>
			<g>
				<g>
					<rect x="130.27" y="217.21" class="st9" width="2.33" height="19.15"/>
				</g>
				<g>
					<rect x="131.43" y="217.21" class="st2" width="1.16" height="19.15"/>
				</g>
				<rect x="129.02" y="236.36" class="st9" width="4.84" height="1.28"/>
				<g>
					<rect x="132.02" y="236.36" class="st9" width="1.84" height="1.28"/>
				</g>
				<rect x="129.51" y="235.83" class="st9" width="3.85" height="0.79"/>
				<g>
					<rect x="131.6" y="235.83" class="st9" width="1.76" height="0.79"/>
				</g>
				<path class="st9" d="M130.68,218.18c0-0.54-0.43-0.97-0.97-0.97s-0.97,0.43-0.97,0.97c0,0.54,0.43,0.97,0.97,0.97
					S130.68,218.72,130.68,218.18z"/>
				<rect x="129.71" y="217.21" class="st9" width="3.45" height="0.65"/>
				<g>
					<rect x="131.79" y="217.21" class="st9" width="1.37" height="0.65"/>
				</g>
				<g>
					<path class="st9" d="M134.13,218.18c0-0.54-0.43-0.97-0.97-0.97c-0.54,0-0.97,0.43-0.97,0.97c0,0.54,0.43,0.97,0.97,0.97
						C133.69,219.15,134.13,218.72,134.13,218.18z"/>
				</g>
			</g>
		</g>
		<g>
			<g>
				<g>
					<rect x="107.33" y="217.21" class="st9" width="2.33" height="19.15"/>
				</g>
				<g>
					<rect x="108.49" y="217.21" class="st2" width="1.16" height="19.15"/>
				</g>
				<rect x="106.07" y="236.36" class="st9" width="4.84" height="1.28"/>
				<g>
					<rect x="109.08" y="236.36" class="st9" width="1.84" height="1.28"/>
				</g>
				<rect x="106.57" y="235.83" class="st9" width="3.85" height="0.79"/>
				<g>
					<rect x="108.66" y="235.83" class="st9" width="1.76" height="0.79"/>
				</g>
				<path class="st9" d="M107.74,218.18c0-0.54-0.43-0.97-0.97-0.97c-0.54,0-0.97,0.43-0.97,0.97c0,0.54,0.43,0.97,0.97,0.97
					C107.3,219.15,107.74,218.72,107.74,218.18z"/>
				<rect x="106.77" y="217.21" class="st9" width="3.45" height="0.65"/>
				<g>
					<rect x="108.84" y="217.21" class="st9" width="1.37" height="0.65"/>
				</g>
				<g>
					<path class="st9" d="M111.19,218.18c0-0.54-0.43-0.97-0.97-0.97c-0.54,0-0.97,0.43-0.97,0.97c0,0.54,0.43,0.97,0.97,0.97
						C110.75,219.15,111.19,218.72,111.19,218.18z"/>
				</g>
			</g>
		</g>
	</g>
	<g>
		<g>
			<g>
				<g>
					<rect x="130.27" y="195.12" class="st9" width="2.33" height="19.15"/>
				</g>
				<g>
					<rect x="131.43" y="195.12" class="st2" width="1.16" height="19.15"/>
				</g>
				<rect x="129.02" y="214.26" class="st9" width="4.84" height="1.28"/>
				<g>
					<rect x="132.02" y="214.26" class="st9" width="1.84" height="1.28"/>
				</g>
				<rect x="129.51" y="213.74" class="st9" width="3.85" height="0.79"/>
				<g>
					<rect x="131.6" y="213.74" class="st9" width="1.76" height="0.79"/>
				</g>
				<path class="st9" d="M130.68,196.09c0-0.54-0.43-0.97-0.97-0.97s-0.97,0.43-0.97,0.97c0,0.54,0.43,0.97,0.97,0.97
					S130.68,196.62,130.68,196.09z"/>
				<rect x="129.71" y="195.12" class="st9" width="3.45" height="0.65"/>
				<g>
					<rect x="131.79" y="195.12" class="st9" width="1.37" height="0.65"/>
				</g>
				<g>
					<path class="st9" d="M134.13,196.09c0-0.54-0.43-0.97-0.97-0.97c-0.54,0-0.97,0.43-0.97,0.97c0,0.54,0.43,0.97,0.97,0.97
						C133.69,197.06,134.13,196.62,134.13,196.09z"/>
				</g>
			</g>
		</g>
		<g>
			<g>
				<g>
					<rect x="107.33" y="195.12" class="st9" width="2.33" height="19.15"/>
				</g>
				<g>
					<rect x="108.49" y="195.12" class="st2" width="1.16" height="19.15"/>
				</g>
				<rect x="106.07" y="214.26" class="st9" width="4.84" height="1.28"/>
				<g>
					<rect x="109.08" y="214.26" class="st9" width="1.84" height="1.28"/>
				</g>
				<rect x="106.57" y="213.74" class="st9" width="3.85" height="0.79"/>
				<g>
					<rect x="108.66" y="213.74" class="st9" width="1.76" height="0.79"/>
				</g>
				<path class="st9" d="M107.74,196.09c0-0.54-0.43-0.97-0.97-0.97c-0.54,0-0.97,0.43-0.97,0.97c0,0.54,0.43,0.97,0.97,0.97
					C107.3,197.06,107.74,196.62,107.74,196.09z"/>
				<rect x="106.77" y="195.12" class="st9" width="3.45" height="0.65"/>
				<g>
					<rect x="108.84" y="195.12" class="st9" width="1.37" height="0.65"/>
				</g>
				<g>
					<path class="st9" d="M111.19,196.09c0-0.54-0.43-0.97-0.97-0.97c-0.54,0-0.97,0.43-0.97,0.97c0,0.54,0.43,0.97,0.97,0.97
						C110.75,197.06,111.19,196.62,111.19,196.09z"/>
				</g>
			</g>
		</g>
	</g>
	<rect x="105.2" y="214.5" class="st9" width="29.54" height="2.71"/>
	<rect x="105.2" y="215.85" class="st2" width="29.54" height="1.36"/>
	<polygon class="st7" points="123.58,165.77 124.68,165.46 124.68,161.57 123.58,161.88 	"/>
	<polygon class="st7" points="122.24,163.54 122.24,164.64 126.03,163.8 126.03,162.7 	"/>
</g>
<g>
	<g>
		<rect x="111.74" y="112.85" class="st10" width="16.56" height="3.29"/>
		<rect x="111.74" y="101.83" class="st10" width="16.56" height="3.29"/>
		<rect x="111.74" y="90.81" class="st10" width="16.56" height="3.29"/>
		<rect x="111.74" y="79.8" class="st10" width="16.56" height="3.29"/>
		<rect x="111.74" y="145.85" class="st11" width="16.56" height="3.29"/>
		<rect x="111.74" y="134.83" class="st10" width="16.56" height="3.29"/>
		<rect x="111.74" y="123.81" class="st10" width="16.56" height="3.29"/>
		<rect x="111.74" y="68.78" class="st10" width="16.56" height="3.29"/>
		<rect x="111.74" y="57.76" class="st10" width="16.56" height="3.29"/>
		<rect x="111.74" y="46.74" class="st10" width="16.56" height="3.29"/>
		<rect x="111.74" y="35.73" class="st10" width="16.56" height="3.29"/>
		<rect x="111.74" y="24.71" class="st10" width="16.56" height="3.29"/>
		<rect x="111.74" y="14.11" class="st10" width="16.56" height="3.29"/>
		<rect x="111.74" y="3.85" class="st10" width="16.56" height="3.29"/>
	</g>
	<g>
		<rect x="115.21" y="0" class="st11" width="1.33" height="148"/>
		<rect x="123.5" y="0" class="st11" width="1.33" height="148"/>
	</g>
</g>
<rect x="86.5" y="92.5" transform="matrix(4.490459e-11 -1 1 4.490459e-11 39.5 235.5)" class="st5" width="102" height="11"/>
<rect x="52.5" y="92.5" transform="matrix(4.489571e-11 -1 1 4.489571e-11 5.5 201.5)" class="st5" width="102" height="11"/>
</svg>
