<?xml version="1.0" encoding="utf-8"?>
<!-- Generator: Adobe Illustrator 23.0.3, SVG Export Plug-In . SVG Version: 6.00 Build 0)  -->
<svg version="1.1" id="Ebene_1" xmlns="http://www.w3.org/2000/svg" xmlns:xlink="http://www.w3.org/1999/xlink" x="0px" y="0px"
	 viewBox="0 0 240 240" style="enable-background:new 0 0 240 240;" xml:space="preserve">
<style type="text/css">
	.st0{fill:none;}
	.st1{fill:#D50000;}
	.st2{fill:#858B8A;}
	.st3{fill:#E20613;}
	.st4{fill:#ECECEC;}
	.st5{fill:#D9D9D9;}
	.st6{fill:#585858;}
	.st7{fill:#FFFFFF;}
	.st8{fill:#1D1D1B;}
	.st9{fill:#9EA5A3;}
	.st10{fill:#978679;}
	.st11{fill:#3D3D3D;}
</style>
<g>
	<rect class="st0" width="240" height="240"/>
</g>
<g>
	<g>
		<polygon class="st1" points="145.31,45.74 145.31,39.78 145.31,34.54 109.08,34.54 94.79,34.54 94.79,45.74 70.39,45.74 
			70.39,78.5 94.79,78.5 109.08,78.5 120.25,78.5 145.31,78.5 169.7,78.5 169.7,45.74 		"/>
		<polygon class="st1" points="148.51,31.94 120.17,14.74 92.3,31.93 92.3,33.66 148.51,33.66 		"/>
	</g>
	<g>
		<polygon class="st0" points="92.3,31.93 92.3,33.66 148.51,33.66 148.51,31.94 120.17,14.74 		"/>
		<path class="st2" d="M120.16,11.96L90.67,30.15v5.91h59.46v-5.91L120.16,11.96z M148.51,33.66H92.3v-1.73l27.87-17.19l28.34,17.2
			V33.66z"/>
	</g>
	<polygon class="st3" points="120.44,8.35 127.82,6.62 127.82,0.99 120.44,2.73 	"/>
	<rect x="119.68" y="2.72" class="st2" width="0.75" height="11.5"/>
	<rect x="69.12" y="41.82" class="st2" width="101.86" height="3.92"/>
	<rect x="69.12" y="78.5" class="st2" width="101.86" height="2"/>
	<g>
		<rect x="113.11" y="41.5" class="st4" width="13.82" height="10.5"/>
		<polygon class="st5" points="126.93,51.99 116.03,51.99 121.48,41.5 126.93,41.5 		"/>
		<rect x="113.11" y="51.99" class="st6" width="13.82" height="0.69"/>
	</g>
	<rect x="98.12" y="41.84" class="st4" width="6.79" height="10.5"/>
	<polygon class="st5" points="104.9,52.34 99.55,52.34 102.23,41.84 104.9,41.84 	"/>
	<rect x="98.12" y="52.34" class="st6" width="6.79" height="0.69"/>
	<rect x="135.19" y="41.84" class="st4" width="6.79" height="10.5"/>
	<polygon class="st5" points="141.98,52.34 136.63,52.34 139.3,41.84 141.98,41.84 	"/>
	<rect x="135.19" y="52.34" class="st6" width="6.79" height="0.69"/>
	<rect x="98.12" y="57.26" class="st4" width="6.79" height="10.5"/>
	<polygon class="st5" points="104.9,67.76 99.55,67.76 102.23,57.26 104.9,57.26 	"/>
	<rect x="98.12" y="67.76" class="st6" width="6.79" height="0.69"/>
	<rect x="135.19" y="57.26" class="st4" width="6.79" height="10.5"/>
	<polygon class="st5" points="141.98,67.76 136.63,67.76 139.3,57.26 141.98,57.26 	"/>
	<rect x="135.19" y="67.76" class="st6" width="6.79" height="0.69"/>
	<g>
		<g>
			<rect x="112.42" y="62.93" class="st4" width="15.06" height="14.59"/>
			<polygon class="st5" points="127.48,77.52 115.61,77.52 121.55,62.93 127.48,62.93 			"/>
		</g>
		<rect x="112.42" y="77.52" class="st6" width="15.06" height="0.95"/>
		<rect x="112.42" y="62.12" class="st6" width="15.06" height="0.81"/>
		
			<rect x="119.45" y="70.15" transform="matrix(-1.836970e-16 1 -1 -1.836970e-16 197.9261 -57.334)" class="st6" width="16.35" height="0.3"/>
		
			<rect x="104.12" y="70.15" transform="matrix(-1.836970e-16 1 -1 -1.836970e-16 182.593 -42.0009)" class="st6" width="16.35" height="0.3"/>
		
			<rect x="111.92" y="70.15" transform="matrix(-1.836970e-16 1 -1 -1.836970e-16 190.3965 -49.8044)" class="st6" width="16.35" height="0.3"/>
		<g>
			<rect x="118.29" y="70.62" class="st6" width="0.93" height="0.55"/>
			<rect x="120.98" y="70.62" class="st6" width="0.93" height="0.55"/>
		</g>
	</g>
	<rect x="149.03" y="73.91" class="st6" width="6.79" height="0.69"/>
	<rect x="84.38" y="47.99" class="st4" width="6.79" height="10.5"/>
	<polygon class="st5" points="91.16,58.49 85.81,58.49 88.49,47.99 91.16,47.99 	"/>
	<rect x="84.38" y="58.49" class="st6" width="6.79" height="0.69"/>
	<rect x="84.38" y="63.41" class="st4" width="6.79" height="10.5"/>
	<polygon class="st5" points="91.16,73.91 85.81,73.91 88.49,63.41 91.16,63.41 	"/>
	<rect x="84.38" y="73.91" class="st6" width="6.79" height="0.69"/>
	<rect x="74.62" y="47.99" class="st4" width="6.79" height="10.5"/>
	<polygon class="st5" points="81.41,58.49 76.06,58.49 78.74,47.99 81.41,47.99 	"/>
	<rect x="74.62" y="58.49" class="st6" width="6.79" height="0.69"/>
	<rect x="74.62" y="63.41" class="st4" width="6.79" height="10.5"/>
	<polygon class="st5" points="81.41,73.91 76.06,73.91 78.74,63.41 81.41,63.41 	"/>
	<rect x="74.62" y="73.91" class="st6" width="6.79" height="0.69"/>
	<rect x="158.78" y="47.99" class="st4" width="6.79" height="10.5"/>
	<polygon class="st5" points="165.57,58.49 160.22,58.49 162.89,47.99 165.57,47.99 	"/>
	<rect x="158.78" y="58.49" class="st6" width="6.79" height="0.69"/>
	<rect x="158.78" y="63.41" class="st4" width="6.79" height="10.5"/>
	<polygon class="st5" points="165.57,73.91 160.22,73.91 162.89,63.41 165.57,63.41 	"/>
	<rect x="158.78" y="73.91" class="st6" width="6.79" height="0.69"/>
	<rect x="149.03" y="47.99" class="st4" width="6.79" height="10.5"/>
	<polygon class="st5" points="155.81,58.49 150.46,58.49 153.14,47.99 155.81,47.99 	"/>
	<rect x="149.03" y="63.41" class="st4" width="6.79" height="10.5"/>
	<polygon class="st5" points="155.81,73.91 150.46,73.91 153.14,63.41 155.81,63.41 	"/>
	<rect x="149.03" y="58.49" class="st6" width="6.79" height="0.69"/>
	<g>
		<rect x="113.11" y="45.04" class="st6" width="13.82" height="0.69"/>
	</g>
	<rect x="98.12" y="45.39" class="st6" width="6.79" height="0.69"/>
	<rect x="135.19" y="45.39" class="st6" width="6.79" height="0.69"/>
	<rect x="98.12" y="60.81" class="st6" width="6.79" height="0.69"/>
	<rect x="135.19" y="60.81" class="st6" width="6.79" height="0.69"/>
	<rect x="149.03" y="66.96" class="st6" width="6.79" height="0.69"/>
	<rect x="84.38" y="51.54" class="st6" width="6.79" height="0.69"/>
	<rect x="84.38" y="66.96" class="st6" width="6.79" height="0.69"/>
	<rect x="74.62" y="51.54" class="st6" width="6.79" height="0.69"/>
	<rect x="74.62" y="66.96" class="st6" width="6.79" height="0.69"/>
	<rect x="158.78" y="51.54" class="st6" width="6.79" height="0.69"/>
	<rect x="158.78" y="66.96" class="st6" width="6.79" height="0.69"/>
	<rect x="149.03" y="51.54" class="st6" width="6.79" height="0.69"/>
	<g>
		<path class="st7" d="M125.54,25.19c0-2.84-2.3-5.14-5.14-5.14c-2.84,0-5.14,2.3-5.14,5.14c0,2.84,2.3,5.14,5.14,5.14
			C123.24,30.34,125.54,28.03,125.54,25.19z"/>
		<g>
			<path class="st8" d="M120.4,29.76c-2.52,0-4.57-2.05-4.57-4.57c0-2.52,2.05-4.57,4.57-4.57c2.52,0,4.57,2.05,4.57,4.57
				C124.97,27.71,122.92,29.76,120.4,29.76z M120.4,21.15c-2.23,0-4.04,1.81-4.04,4.04c0,2.23,1.81,4.04,4.04,4.04
				c2.23,0,4.04-1.81,4.04-4.04C124.45,22.97,122.63,21.15,120.4,21.15z"/>
		</g>
		<path class="st8" d="M123.25,24.93h-2.58V22.1c0-0.14-0.12-0.26-0.26-0.26c-0.14,0-0.26,0.12-0.26,0.26v3.1
			c0,0.14,0.12,0.26,0.26,0.26h2.85c0.14,0,0.26-0.12,0.26-0.26S123.39,24.93,123.25,24.93z"/>
	</g>
	<g>
		<g>
			<g>
				<g>
					<rect x="130.27" y="58.21" class="st9" width="2.33" height="19.15"/>
				</g>
				<g>
					<rect x="131.43" y="58.21" class="st2" width="1.16" height="19.15"/>
				</g>
				<rect x="129.02" y="77.36" class="st9" width="4.84" height="1.28"/>
				<g>
					<rect x="132.02" y="77.36" class="st9" width="1.84" height="1.28"/>
				</g>
				<rect x="129.51" y="76.83" class="st9" width="3.85" height="0.79"/>
				<g>
					<rect x="131.6" y="76.83" class="st9" width="1.76" height="0.79"/>
				</g>
				<path class="st9" d="M130.68,59.18c0-0.54-0.43-0.97-0.97-0.97s-0.97,0.43-0.97,0.97c0,0.54,0.43,0.97,0.97,0.97
					S130.68,59.72,130.68,59.18z"/>
				<rect x="129.71" y="58.21" class="st9" width="3.45" height="0.65"/>
				<g>
					<rect x="131.79" y="58.21" class="st9" width="1.37" height="0.65"/>
				</g>
				<g>
					<path class="st9" d="M134.13,59.18c0-0.54-0.43-0.97-0.97-0.97c-0.54,0-0.97,0.43-0.97,0.97c0,0.54,0.43,0.97,0.97,0.97
						C133.69,60.15,134.13,59.72,134.13,59.18z"/>
				</g>
			</g>
		</g>
		<g>
			<g>
				<g>
					<rect x="107.33" y="58.21" class="st9" width="2.33" height="19.15"/>
				</g>
				<g>
					<rect x="108.49" y="58.21" class="st2" width="1.16" height="19.15"/>
				</g>
				<rect x="106.07" y="77.36" class="st9" width="4.84" height="1.28"/>
				<g>
					<rect x="109.08" y="77.36" class="st9" width="1.84" height="1.28"/>
				</g>
				<rect x="106.57" y="76.83" class="st9" width="3.85" height="0.79"/>
				<g>
					<rect x="108.66" y="76.83" class="st9" width="1.76" height="0.79"/>
				</g>
				<path class="st9" d="M107.74,59.18c0-0.54-0.43-0.97-0.97-0.97c-0.54,0-0.97,0.43-0.97,0.97c0,0.54,0.43,0.97,0.97,0.97
					C107.3,60.15,107.74,59.72,107.74,59.18z"/>
				<rect x="106.77" y="58.21" class="st9" width="3.45" height="0.65"/>
				<g>
					<rect x="108.84" y="58.21" class="st9" width="1.37" height="0.65"/>
				</g>
				<g>
					<path class="st9" d="M111.19,59.18c0-0.54-0.43-0.97-0.97-0.97c-0.54,0-0.97,0.43-0.97,0.97c0,0.54,0.43,0.97,0.97,0.97
						C110.75,60.15,111.19,59.72,111.19,59.18z"/>
				</g>
			</g>
		</g>
	</g>
	<g>
		<g>
			<g>
				<g>
					<rect x="130.27" y="36.12" class="st9" width="2.33" height="19.15"/>
				</g>
				<g>
					<rect x="131.43" y="36.12" class="st2" width="1.16" height="19.15"/>
				</g>
				<rect x="129.02" y="55.26" class="st9" width="4.84" height="1.28"/>
				<g>
					<rect x="132.02" y="55.26" class="st9" width="1.84" height="1.28"/>
				</g>
				<rect x="129.51" y="54.74" class="st9" width="3.85" height="0.79"/>
				<g>
					<rect x="131.6" y="54.74" class="st9" width="1.76" height="0.79"/>
				</g>
				<path class="st9" d="M130.68,37.09c0-0.54-0.43-0.97-0.97-0.97s-0.97,0.43-0.97,0.97c0,0.54,0.43,0.97,0.97,0.97
					S130.68,37.62,130.68,37.09z"/>
				<rect x="129.71" y="36.12" class="st9" width="3.45" height="0.65"/>
				<g>
					<rect x="131.79" y="36.12" class="st9" width="1.37" height="0.65"/>
				</g>
				<g>
					<path class="st9" d="M134.13,37.09c0-0.54-0.43-0.97-0.97-0.97c-0.54,0-0.97,0.43-0.97,0.97c0,0.54,0.43,0.97,0.97,0.97
						C133.69,38.06,134.13,37.62,134.13,37.09z"/>
				</g>
			</g>
		</g>
		<g>
			<g>
				<g>
					<rect x="107.33" y="36.12" class="st9" width="2.33" height="19.15"/>
				</g>
				<g>
					<rect x="108.49" y="36.12" class="st2" width="1.16" height="19.15"/>
				</g>
				<rect x="106.07" y="55.26" class="st9" width="4.84" height="1.28"/>
				<g>
					<rect x="109.08" y="55.26" class="st9" width="1.84" height="1.28"/>
				</g>
				<rect x="106.57" y="54.74" class="st9" width="3.85" height="0.79"/>
				<g>
					<rect x="108.66" y="54.74" class="st9" width="1.76" height="0.79"/>
				</g>
				<path class="st9" d="M107.74,37.09c0-0.54-0.43-0.97-0.97-0.97c-0.54,0-0.97,0.43-0.97,0.97c0,0.54,0.43,0.97,0.97,0.97
					C107.3,38.06,107.74,37.62,107.74,37.09z"/>
				<rect x="106.77" y="36.12" class="st9" width="3.45" height="0.65"/>
				<g>
					<rect x="108.84" y="36.12" class="st9" width="1.37" height="0.65"/>
				</g>
				<g>
					<path class="st9" d="M111.19,37.09c0-0.54-0.43-0.97-0.97-0.97c-0.54,0-0.97,0.43-0.97,0.97c0,0.54,0.43,0.97,0.97,0.97
						C110.75,38.06,111.19,37.62,111.19,37.09z"/>
				</g>
			</g>
		</g>
	</g>
	<rect x="105.2" y="55.5" class="st9" width="29.54" height="2.71"/>
	<rect x="105.2" y="56.85" class="st2" width="29.54" height="1.36"/>
	<polygon class="st7" points="123.58,6.77 124.68,6.46 124.68,2.57 123.58,2.88 	"/>
	<polygon class="st7" points="122.24,4.54 122.24,5.64 126.03,4.8 126.03,3.7 	"/>
</g>
<g>
	<g>
		<rect x="112.2" y="123.87" class="st10" width="16.56" height="3.29"/>
		<rect x="112.2" y="134.88" class="st10" width="16.56" height="3.29"/>
		<rect x="112.2" y="145.9" class="st10" width="16.56" height="3.29"/>
		<rect x="112.2" y="156.92" class="st10" width="16.56" height="3.29"/>
		<rect x="112.2" y="90.87" class="st11" width="16.56" height="3.29"/>
		<rect x="112.2" y="101.88" class="st10" width="16.56" height="3.29"/>
		<rect x="112.2" y="112.9" class="st10" width="16.56" height="3.29"/>
		<rect x="112.2" y="167.93" class="st10" width="16.56" height="3.29"/>
		<rect x="112.2" y="178.95" class="st10" width="16.56" height="3.29"/>
		<rect x="112.2" y="189.97" class="st10" width="16.56" height="3.29"/>
		<rect x="112.2" y="200.99" class="st10" width="16.56" height="3.29"/>
		<rect x="112.2" y="212" class="st10" width="16.56" height="3.29"/>
		<rect x="112.2" y="222.6" class="st10" width="16.56" height="3.29"/>
		<rect x="112.2" y="232.86" class="st10" width="16.56" height="3.29"/>
	</g>
	<g>
		<rect x="123.96" y="92" class="st11" width="1.33" height="148"/>
		<rect x="115.68" y="92" class="st11" width="1.33" height="148"/>
	</g>
</g>
<rect x="52" y="136.5" transform="matrix(-4.490471e-11 1 -1 -4.490471e-11 245 39)" class="st5" width="102" height="11"/>
<rect x="86" y="136.5" transform="matrix(-4.486829e-11 1 -1 -4.486829e-11 279 5)" class="st5" width="102" height="11"/>
</svg>
