<?xml version="1.0" encoding="utf-8"?>
<!-- Generator: Adobe Illustrator 23.0.3, SVG Export Plug-In . SVG Version: 6.00 Build 0)  -->
<svg version="1.1" id="Ebene_1" xmlns="http://www.w3.org/2000/svg" xmlns:xlink="http://www.w3.org/1999/xlink" x="0px" y="0px"
	 viewBox="0 0 240 240" style="enable-background:new 0 0 240 240;" xml:space="preserve">
<style type="text/css">
	.st0{fill:none;}
	.st1{fill:#D50000;}
	.st2{fill:#858B8A;}
	.st3{fill:#E20613;}
	.st4{fill:#ECECEC;}
	.st5{fill:#D9D9D9;}
	.st6{fill:#585858;}
	.st7{fill:#FFFFFF;}
	.st8{fill:#1D1D1B;}
	.st9{fill:#9EA5A3;}
	.st10{fill:#978679;}
	.st11{fill:#3D3D3D;}
</style>
<g>
	<rect class="st0" width="240" height="240"/>
</g>
<g>
	<g>
		<polygon class="st1" points="145.31,56.74 145.31,50.78 145.31,45.54 109.08,45.54 94.79,45.54 94.79,56.74 70.39,56.74 
			70.39,89.5 94.79,89.5 109.08,89.5 120.25,89.5 145.31,89.5 169.7,89.5 169.7,56.74 		"/>
		<polygon class="st1" points="148.51,42.94 120.17,25.74 92.3,42.93 92.3,44.66 148.51,44.66 		"/>
	</g>
	<g>
		<polygon class="st0" points="92.3,42.93 92.3,44.66 148.51,44.66 148.51,42.94 120.17,25.74 		"/>
		<path class="st2" d="M120.16,22.96L90.67,41.15v5.91h59.46v-5.91L120.16,22.96z M148.51,44.66H92.3v-1.73l27.87-17.19l28.34,17.2
			V44.66z"/>
	</g>
	<polygon class="st3" points="120.44,19.35 127.82,17.62 127.82,11.99 120.44,13.73 	"/>
	<rect x="119.68" y="13.72" class="st2" width="0.75" height="11.5"/>
	<rect x="69.12" y="52.82" class="st2" width="101.86" height="3.92"/>
	<rect x="69.12" y="89.5" class="st2" width="101.86" height="2"/>
	<g>
		<rect x="113.11" y="52.5" class="st4" width="13.82" height="10.5"/>
		<polygon class="st5" points="126.93,62.99 116.03,62.99 121.48,52.5 126.93,52.5 		"/>
		<rect x="113.11" y="62.99" class="st6" width="13.82" height="0.69"/>
	</g>
	<rect x="98.12" y="52.84" class="st4" width="6.79" height="10.5"/>
	<polygon class="st5" points="104.9,63.34 99.55,63.34 102.23,52.84 104.9,52.84 	"/>
	<rect x="98.12" y="63.34" class="st6" width="6.79" height="0.69"/>
	<rect x="135.19" y="52.84" class="st4" width="6.79" height="10.5"/>
	<polygon class="st5" points="141.98,63.34 136.63,63.34 139.3,52.84 141.98,52.84 	"/>
	<rect x="135.19" y="63.34" class="st6" width="6.79" height="0.69"/>
	<rect x="98.12" y="68.26" class="st4" width="6.79" height="10.5"/>
	<polygon class="st5" points="104.9,78.76 99.55,78.76 102.23,68.26 104.9,68.26 	"/>
	<rect x="98.12" y="78.76" class="st6" width="6.79" height="0.69"/>
	<rect x="135.19" y="68.26" class="st4" width="6.79" height="10.5"/>
	<polygon class="st5" points="141.98,78.76 136.63,78.76 139.3,68.26 141.98,68.26 	"/>
	<rect x="135.19" y="78.76" class="st6" width="6.79" height="0.69"/>
	<g>
		<g>
			<rect x="112.42" y="73.93" class="st4" width="15.06" height="14.59"/>
			<polygon class="st5" points="127.48,88.52 115.61,88.52 121.55,73.93 127.48,73.93 			"/>
		</g>
		<rect x="112.42" y="88.52" class="st6" width="15.06" height="0.95"/>
		<rect x="112.42" y="73.12" class="st6" width="15.06" height="0.81"/>
		
			<rect x="119.45" y="81.15" transform="matrix(-1.836970e-16 1 -1 -1.836970e-16 208.9261 -46.334)" class="st6" width="16.35" height="0.3"/>
		
			<rect x="104.12" y="81.15" transform="matrix(-1.836970e-16 1 -1 -1.836970e-16 193.593 -31.0009)" class="st6" width="16.35" height="0.3"/>
		
			<rect x="111.92" y="81.15" transform="matrix(-1.836970e-16 1 -1 -1.836970e-16 201.3965 -38.8044)" class="st6" width="16.35" height="0.3"/>
		<g>
			<rect x="118.29" y="81.62" class="st6" width="0.93" height="0.55"/>
			<rect x="120.98" y="81.62" class="st6" width="0.93" height="0.55"/>
		</g>
	</g>
	<rect x="149.03" y="84.91" class="st6" width="6.79" height="0.69"/>
	<rect x="84.38" y="58.99" class="st4" width="6.79" height="10.5"/>
	<polygon class="st5" points="91.16,69.49 85.81,69.49 88.49,58.99 91.16,58.99 	"/>
	<rect x="84.38" y="69.49" class="st6" width="6.79" height="0.69"/>
	<rect x="84.38" y="74.41" class="st4" width="6.79" height="10.5"/>
	<polygon class="st5" points="91.16,84.91 85.81,84.91 88.49,74.41 91.16,74.41 	"/>
	<rect x="84.38" y="84.91" class="st6" width="6.79" height="0.69"/>
	<rect x="74.62" y="58.99" class="st4" width="6.79" height="10.5"/>
	<polygon class="st5" points="81.41,69.49 76.06,69.49 78.74,58.99 81.41,58.99 	"/>
	<rect x="74.62" y="69.49" class="st6" width="6.79" height="0.69"/>
	<rect x="74.62" y="74.41" class="st4" width="6.79" height="10.5"/>
	<polygon class="st5" points="81.41,84.91 76.06,84.91 78.74,74.41 81.41,74.41 	"/>
	<rect x="74.62" y="84.91" class="st6" width="6.79" height="0.69"/>
	<rect x="158.78" y="58.99" class="st4" width="6.79" height="10.5"/>
	<polygon class="st5" points="165.57,69.49 160.22,69.49 162.89,58.99 165.57,58.99 	"/>
	<rect x="158.78" y="69.49" class="st6" width="6.79" height="0.69"/>
	<rect x="158.78" y="74.41" class="st4" width="6.79" height="10.5"/>
	<polygon class="st5" points="165.57,84.91 160.22,84.91 162.89,74.41 165.57,74.41 	"/>
	<rect x="158.78" y="84.91" class="st6" width="6.79" height="0.69"/>
	<rect x="149.03" y="58.99" class="st4" width="6.79" height="10.5"/>
	<polygon class="st5" points="155.81,69.49 150.46,69.49 153.14,58.99 155.81,58.99 	"/>
	<rect x="149.03" y="74.41" class="st4" width="6.79" height="10.5"/>
	<polygon class="st5" points="155.81,84.91 150.46,84.91 153.14,74.41 155.81,74.41 	"/>
	<rect x="149.03" y="69.49" class="st6" width="6.79" height="0.69"/>
	<g>
		<rect x="113.11" y="56.04" class="st6" width="13.82" height="0.69"/>
	</g>
	<rect x="98.12" y="56.39" class="st6" width="6.79" height="0.69"/>
	<rect x="135.19" y="56.39" class="st6" width="6.79" height="0.69"/>
	<rect x="98.12" y="71.81" class="st6" width="6.79" height="0.69"/>
	<rect x="135.19" y="71.81" class="st6" width="6.79" height="0.69"/>
	<rect x="149.03" y="77.96" class="st6" width="6.79" height="0.69"/>
	<rect x="84.38" y="62.54" class="st6" width="6.79" height="0.69"/>
	<rect x="84.38" y="77.96" class="st6" width="6.79" height="0.69"/>
	<rect x="74.62" y="62.54" class="st6" width="6.79" height="0.69"/>
	<rect x="74.62" y="77.96" class="st6" width="6.79" height="0.69"/>
	<rect x="158.78" y="62.54" class="st6" width="6.79" height="0.69"/>
	<rect x="158.78" y="77.96" class="st6" width="6.79" height="0.69"/>
	<rect x="149.03" y="62.54" class="st6" width="6.79" height="0.69"/>
	<g>
		<path class="st7" d="M125.54,36.19c0-2.84-2.3-5.14-5.14-5.14c-2.84,0-5.14,2.3-5.14,5.14c0,2.84,2.3,5.14,5.14,5.14
			C123.24,41.34,125.54,39.03,125.54,36.19z"/>
		<g>
			<path class="st8" d="M120.4,40.76c-2.52,0-4.57-2.05-4.57-4.57c0-2.52,2.05-4.57,4.57-4.57c2.52,0,4.57,2.05,4.57,4.57
				C124.97,38.71,122.92,40.76,120.4,40.76z M120.4,32.15c-2.23,0-4.04,1.81-4.04,4.04c0,2.23,1.81,4.04,4.04,4.04
				c2.23,0,4.04-1.81,4.04-4.04C124.45,33.97,122.63,32.15,120.4,32.15z"/>
		</g>
		<path class="st8" d="M123.25,35.93h-2.58V33.1c0-0.14-0.12-0.26-0.26-0.26c-0.14,0-0.26,0.12-0.26,0.26v3.1
			c0,0.14,0.12,0.26,0.26,0.26h2.85c0.14,0,0.26-0.12,0.26-0.26S123.39,35.93,123.25,35.93z"/>
	</g>
	<g>
		<g>
			<g>
				<g>
					<rect x="130.27" y="69.21" class="st9" width="2.33" height="19.15"/>
				</g>
				<g>
					<rect x="131.43" y="69.21" class="st2" width="1.16" height="19.15"/>
				</g>
				<rect x="129.02" y="88.36" class="st9" width="4.84" height="1.28"/>
				<g>
					<rect x="132.02" y="88.36" class="st9" width="1.84" height="1.28"/>
				</g>
				<rect x="129.51" y="87.83" class="st9" width="3.85" height="0.79"/>
				<g>
					<rect x="131.6" y="87.83" class="st9" width="1.76" height="0.79"/>
				</g>
				<path class="st9" d="M130.68,70.18c0-0.54-0.43-0.97-0.97-0.97s-0.97,0.43-0.97,0.97c0,0.54,0.43,0.97,0.97,0.97
					S130.68,70.72,130.68,70.18z"/>
				<rect x="129.71" y="69.21" class="st9" width="3.45" height="0.65"/>
				<g>
					<rect x="131.79" y="69.21" class="st9" width="1.37" height="0.65"/>
				</g>
				<g>
					<path class="st9" d="M134.13,70.18c0-0.54-0.43-0.97-0.97-0.97c-0.54,0-0.97,0.43-0.97,0.97c0,0.54,0.43,0.97,0.97,0.97
						C133.69,71.15,134.13,70.72,134.13,70.18z"/>
				</g>
			</g>
		</g>
		<g>
			<g>
				<g>
					<rect x="107.33" y="69.21" class="st9" width="2.33" height="19.15"/>
				</g>
				<g>
					<rect x="108.49" y="69.21" class="st2" width="1.16" height="19.15"/>
				</g>
				<rect x="106.07" y="88.36" class="st9" width="4.84" height="1.28"/>
				<g>
					<rect x="109.08" y="88.36" class="st9" width="1.84" height="1.28"/>
				</g>
				<rect x="106.57" y="87.83" class="st9" width="3.85" height="0.79"/>
				<g>
					<rect x="108.66" y="87.83" class="st9" width="1.76" height="0.79"/>
				</g>
				<path class="st9" d="M107.74,70.18c0-0.54-0.43-0.97-0.97-0.97c-0.54,0-0.97,0.43-0.97,0.97c0,0.54,0.43,0.97,0.97,0.97
					C107.3,71.15,107.74,70.72,107.74,70.18z"/>
				<rect x="106.77" y="69.21" class="st9" width="3.45" height="0.65"/>
				<g>
					<rect x="108.84" y="69.21" class="st9" width="1.37" height="0.65"/>
				</g>
				<g>
					<path class="st9" d="M111.19,70.18c0-0.54-0.43-0.97-0.97-0.97c-0.54,0-0.97,0.43-0.97,0.97c0,0.54,0.43,0.97,0.97,0.97
						C110.75,71.15,111.19,70.72,111.19,70.18z"/>
				</g>
			</g>
		</g>
	</g>
	<g>
		<g>
			<g>
				<g>
					<rect x="130.27" y="47.12" class="st9" width="2.33" height="19.15"/>
				</g>
				<g>
					<rect x="131.43" y="47.12" class="st2" width="1.16" height="19.15"/>
				</g>
				<rect x="129.02" y="66.26" class="st9" width="4.84" height="1.28"/>
				<g>
					<rect x="132.02" y="66.26" class="st9" width="1.84" height="1.28"/>
				</g>
				<rect x="129.51" y="65.74" class="st9" width="3.85" height="0.79"/>
				<g>
					<rect x="131.6" y="65.74" class="st9" width="1.76" height="0.79"/>
				</g>
				<path class="st9" d="M130.68,48.09c0-0.54-0.43-0.97-0.97-0.97s-0.97,0.43-0.97,0.97c0,0.54,0.43,0.97,0.97,0.97
					S130.68,48.62,130.68,48.09z"/>
				<rect x="129.71" y="47.12" class="st9" width="3.45" height="0.65"/>
				<g>
					<rect x="131.79" y="47.12" class="st9" width="1.37" height="0.65"/>
				</g>
				<g>
					<path class="st9" d="M134.13,48.09c0-0.54-0.43-0.97-0.97-0.97c-0.54,0-0.97,0.43-0.97,0.97c0,0.54,0.43,0.97,0.97,0.97
						C133.69,49.06,134.13,48.62,134.13,48.09z"/>
				</g>
			</g>
		</g>
		<g>
			<g>
				<g>
					<rect x="107.33" y="47.12" class="st9" width="2.33" height="19.15"/>
				</g>
				<g>
					<rect x="108.49" y="47.12" class="st2" width="1.16" height="19.15"/>
				</g>
				<rect x="106.07" y="66.26" class="st9" width="4.84" height="1.28"/>
				<g>
					<rect x="109.08" y="66.26" class="st9" width="1.84" height="1.28"/>
				</g>
				<rect x="106.57" y="65.74" class="st9" width="3.85" height="0.79"/>
				<g>
					<rect x="108.66" y="65.74" class="st9" width="1.76" height="0.79"/>
				</g>
				<path class="st9" d="M107.74,48.09c0-0.54-0.43-0.97-0.97-0.97c-0.54,0-0.97,0.43-0.97,0.97c0,0.54,0.43,0.97,0.97,0.97
					C107.3,49.06,107.74,48.62,107.74,48.09z"/>
				<rect x="106.77" y="47.12" class="st9" width="3.45" height="0.65"/>
				<g>
					<rect x="108.84" y="47.12" class="st9" width="1.37" height="0.65"/>
				</g>
				<g>
					<path class="st9" d="M111.19,48.09c0-0.54-0.43-0.97-0.97-0.97c-0.54,0-0.97,0.43-0.97,0.97c0,0.54,0.43,0.97,0.97,0.97
						C110.75,49.06,111.19,48.62,111.19,48.09z"/>
				</g>
			</g>
		</g>
	</g>
	<rect x="105.2" y="66.5" class="st9" width="29.54" height="2.71"/>
	<rect x="105.2" y="67.85" class="st2" width="29.54" height="1.36"/>
	<polygon class="st7" points="123.58,17.77 124.68,17.46 124.68,13.57 123.58,13.88 	"/>
	<polygon class="st7" points="122.24,15.54 122.24,16.64 126.03,15.8 126.03,14.7 	"/>
</g>
<rect x="26" y="97.5" class="st5" width="189" height="11"/>
<rect x="26" y="131.5" class="st5" width="189" height="11"/>
<g>
	<g>
		<rect x="3.87" y="111.7" class="st10" width="3.29" height="16.56"/>
		<rect x="14.88" y="111.7" class="st10" width="3.29" height="16.56"/>
		<rect x="25.9" y="111.7" class="st10" width="3.29" height="16.56"/>
		<rect x="36.92" y="111.7" class="st10" width="3.29" height="16.56"/>
		<rect x="47.93" y="111.7" class="st10" width="3.29" height="16.56"/>
		<rect x="58.95" y="111.7" class="st10" width="3.29" height="16.56"/>
		<rect x="69.97" y="111.7" class="st10" width="3.29" height="16.56"/>
		<rect x="80.99" y="111.7" class="st10" width="3.29" height="16.56"/>
		<rect x="92" y="111.7" class="st10" width="3.29" height="16.56"/>
		<rect x="102.6" y="111.7" class="st10" width="3.29" height="16.56"/>
		<rect x="112.86" y="111.7" class="st10" width="3.29" height="16.56"/>
	</g>
	<g>
		<rect y="123.46" class="st11" width="120" height="1.33"/>
		<rect y="115.18" class="st11" width="120" height="1.33"/>
	</g>
</g>
<g>
	<g>
		<rect x="123.87" y="111.7" class="st10" width="3.29" height="16.56"/>
		<rect x="134.88" y="111.7" class="st10" width="3.29" height="16.56"/>
		<rect x="145.9" y="111.7" class="st10" width="3.29" height="16.56"/>
		<rect x="156.92" y="111.7" class="st10" width="3.29" height="16.56"/>
		<rect x="167.93" y="111.7" class="st10" width="3.29" height="16.56"/>
		<rect x="178.95" y="111.7" class="st10" width="3.29" height="16.56"/>
		<rect x="189.97" y="111.7" class="st10" width="3.29" height="16.56"/>
		<rect x="200.99" y="111.7" class="st10" width="3.29" height="16.56"/>
		<rect x="212" y="111.7" class="st10" width="3.29" height="16.56"/>
		<rect x="222.6" y="111.7" class="st10" width="3.29" height="16.56"/>
		<rect x="232.86" y="111.7" class="st10" width="3.29" height="16.56"/>
	</g>
	<g>
		<rect x="120" y="123.46" class="st11" width="120" height="1.33"/>
		<rect x="120" y="115.18" class="st11" width="120" height="1.33"/>
	</g>
</g>
</svg>
