<?xml version="1.0" encoding="UTF-8" standalone="no"?>
<!-- Generator: Adobe Illustrator 23.0.3, SVG Export Plug-In . SVG Version: 6.00 Build 0)  -->

<svg
   xmlns:dc="http://purl.org/dc/elements/1.1/"
   xmlns:cc="http://creativecommons.org/ns#"
   xmlns:rdf="http://www.w3.org/1999/02/22-rdf-syntax-ns#"
   xmlns:svg="http://www.w3.org/2000/svg"
   xmlns="http://www.w3.org/2000/svg"
   xmlns:sodipodi="http://sodipodi.sourceforge.net/DTD/sodipodi-0.dtd"
   xmlns:inkscape="http://www.inkscape.org/namespaces/inkscape"
   version="1.1"
   id="Ebene_1"
   x="0px"
   y="0px"
   viewBox="0 0 240 240"
   style="enable-background:new 0 0 240 240;"
   xml:space="preserve"
   sodipodi:docname="Bahnhof_#d50000_target.svg"
   inkscape:version="0.92.4 (5da689c313, 2019-01-14)"><metadata
   id="metadata165"><rdf:RDF><cc:Work
       rdf:about=""><dc:format>image/svg+xml</dc:format><dc:type
         rdf:resource="http://purl.org/dc/dcmitype/StillImage" /><dc:title /></cc:Work></rdf:RDF></metadata>
    <defs
   id="defs163" />
    <sodipodi:namedview
   pagecolor="#ffffff"
   bordercolor="#666666"
   borderopacity="1"
   objecttolerance="10"
   gridtolerance="10"
   guidetolerance="10"
   inkscape:pageopacity="0"
   inkscape:pageshadow="2"
   inkscape:window-width="1920"
   inkscape:window-height="1017"
   id="namedview161"
   showgrid="false"
   inkscape:zoom="2.7812867"
   inkscape:cx="15.238316"
   inkscape:cy="151.15755"
   inkscape:window-x="-8"
   inkscape:window-y="-8"
   inkscape:window-maximized="1"
   inkscape:current-layer="Ebene_1" />
    <style
   type="text/css"
   id="style2">
	.st0{fill:#D50000;}
	.st1{fill:#E20613;}
	.st2{fill:#FFFFFF;}
	.st3{fill:#585858;}
	.st4{fill:#1D1D1B;}
	.st5{fill:#858B8A;}
	.st6{fill:none;}
</style>
    
    
    
    
    
    
    
    
    
    
    <path
   style="opacity:1;fill:#ffffff;fill-opacity:0.75294118;stroke:none;stroke-width:0.99999988;stroke-opacity:1"
   d="M 68.832877,96.312103 V 112.10904 H 15.176023 v 78.17427 H 237.87601 V 112.10904 H 181.85773 V 96.312103 Z"
   id="rect895"
   inkscape:connector-curvature="0" /><g
   id="g158">
	<rect
   class="st6"
   width="240"
   height="240"
   id="rect156" />
</g>
    <rect
   style="opacity:0.8;fill:#000000;fill-opacity:1;stroke:none;stroke-width:0.99999982;stroke-opacity:1"
   id="rect972"
   width="171.567"
   height="31.060701"
   x="38.270184"
   y="207.08551"
   rx="9.999999"
   ry="9.999999" /><rect
   style="opacity:0.8;fill:#ffffff;fill-opacity:0.75294118;stroke:none;stroke-width:0.99999982;stroke-opacity:1"
   id="rect977"
   width="231.81631"
   height="99.610756"
   x="3.9081924"
   y="101.47476" /><g
   transform="matrix(1.1659089,0,0,1.2204671,-19.986063,-40.046592)"
   id="g16"
   style="fill:#d40000;fill-opacity:0.75294118;stroke-width:0.83831"><path
     inkscape:connector-curvature="0"
     class="st0"
     d="m 146.27,104.75 c 1.07,0 1.94,0.87 1.94,1.94 0,1.07 -0.87,1.94 -1.94,1.94 -0.42,0 -0.8,-0.13 -1.12,-0.36 v 7.88 h 25.42 v -4.08 -7.44 H 69.53 v 11.52 h 25.08 v -7.88 c -0.32,0.22 -0.7,0.36 -1.12,0.36 -1.07,0 -1.94,-0.87 -1.94,-1.94 0,-1.07 0.87,-1.94 1.94,-1.94 h 1.12 2.33 0.7 1.63 1.12 c 1.07,0 1.94,0.87 1.94,1.94 0,1.07 -0.87,1.94 -1.94,1.94 -0.42,0 -0.8,-0.13 -1.12,-0.36 v 7.88 h 6.9 v -0.64 h 16.75 10.9 v 0.64 h 6.68 v -7.88 c -0.32,0.22 -0.7,0.36 -1.12,0.36 -1.07,0 -1.94,-0.87 -1.94,-1.94 0,-1.07 0.87,-1.94 1.94,-1.94 h 1.12 2.33 0.7 1.63 z"
     id="path4"
     style="fill:#d40000;fill-opacity:0.75294118;stroke-width:0.83831" /><path
     inkscape:connector-curvature="0"
     class="st0"
     d="m 89.76,124.67 v 12.52 1.38 H 76.18 v -1.38 -12.52 -0.68 H 69.52 20.73 v 65.53 H 69.52 92.1 v -2.29 h 0.98 v -1.05 h 1.52 v -33.72 c -0.32,0.22 -0.7,0.36 -1.12,0.36 -1.07,0 -1.94,-0.87 -1.94,-1.94 0,-1.07 0.87,-1.94 1.94,-1.94 h -3.15 v -2.71 -2.71 h 1.76 v -0.47 h 0.98 V 142 h 1.52 v -18 h -4.85 v 0.67 z m -46.98,41.76 v 1.38 12.52 1.38 H 29.2 v -1.38 -12.52 -1.38 -7.09 h 8.22 5.35 v 7.09 z m 0,-30.85 v 1.38 12.52 1.38 H 29.2 v -1.38 -12.52 -1.38 -7.09 h 8.22 5.35 v 7.09 z m 19.5,30.85 v 1.38 12.52 1.38 H 48.71 v -1.38 -12.52 -1.38 -7.09 h 8.22 5.35 z m 0,-30.85 v 1.38 12.52 1.38 H 48.71 v -1.38 -12.52 -1.38 -7.09 h 8.22 5.35 z m 27.48,18.55 v 1.38 12.52 1.38 H 76.18 v -1.38 -12.52 -1.38 -7.09 h 8.22 5.35 v 7.09 z"
     id="path6"
     style="fill:#d40000;fill-opacity:0.75294118;stroke-width:0.83831" /><polygon
     class="st0"
     points="140.49,141.99 140.49,123.99 133.81,123.99 133.81,136.5 133.81,137.88 106.17,137.88 106.17,136.5 106.17,123.99 99.27,123.99 99.27,141.99 100.79,141.99 100.79,143.04 101.78,143.04 101.78,143.51 137.98,143.51 137.98,143.04 138.97,143.04 138.97,141.99 "
     id="polygon8"
     style="fill:#d40000;fill-opacity:0.75294118;stroke-width:0.83831" /><path
     inkscape:connector-curvature="0"
     class="st0"
     d="m 170.57,123.99 h -6.66 v 0.68 12.52 1.38 h -13.58 v -1.38 -12.52 -0.68 h -5.18 v 18 h 1.52 v 1.05 h 0.98 v 0.47 h 1.76 v 2.71 2.71 h -3.15 c 1.07,0 1.94,0.87 1.94,1.94 0,1.07 -0.87,1.94 -1.94,1.94 -0.42,0 -0.8,-0.13 -1.12,-0.36 v 33.72 h 1.52 v 1.05 h 0.98 v 2.29 h 22.91 48.79 v -65.53 h -48.77 z m -6.66,30.14 v 1.38 12.52 1.38 h -13.58 v -1.38 -12.52 -1.38 -7.09 h 8.22 5.35 v 7.09 z m 27.67,12.3 v 1.38 12.52 1.38 H 178 v -1.38 -12.52 -1.38 -7.09 h 8.22 5.35 v 7.09 z m 0,-30.85 v 1.38 12.52 1.38 H 178 v -1.38 -12.52 -1.38 -7.09 h 8.22 5.35 v 7.09 z m 19.51,30.85 v 1.38 12.52 1.38 h -13.58 v -1.38 -12.52 -1.38 -7.09 h 8.22 5.35 v 7.09 z m 0,-30.85 v 1.38 12.52 1.38 h -13.58 v -1.38 -12.52 -1.38 -7.09 h 8.22 5.35 v 7.09 z"
     id="path10"
     style="fill:#d40000;fill-opacity:0.75294118;stroke-width:0.83831" /><path
     inkscape:connector-curvature="0"
     class="st0"
     d="m 137.43,150.87 c 0,-1.07 0.87,-1.94 1.94,-1.94 h -38.99 c 1.07,0 1.94,0.87 1.94,1.94 0,1.07 -0.87,1.94 -1.94,1.94 -0.42,0 -0.8,-0.13 -1.12,-0.36 v 33.72 h 1.52 v 1.05 h 0.98 v 2.29 h 18.67 17.54 v -2.29 h 0.98 v -1.05 h 1.52 v -33.72 c -0.32,0.22 -0.7,0.36 -1.12,0.36 -1.05,0.01 -1.92,-0.86 -1.92,-1.94 z m -1.92,38.59 h -0.59 -14.47 -0.59 -15.02 -0.04 -0.55 v -32.71 h 0.55 0.04 15.02 0.59 14.47 0.59 z"
     id="path12"
     style="fill:#d40000;fill-opacity:0.75294118;stroke-width:0.83831" /><path
     inkscape:connector-curvature="0"
     class="st0"
     d="M 176.97,96.4 120.29,62 64.55,96.38 v 3.45 h 112.42 z m -56.21,-3.22 c -5.68,0 -10.28,-4.6 -10.28,-10.28 0,-5.68 4.6,-10.28 10.28,-10.28 5.68,0 10.28,4.6 10.28,10.28 0,5.68 -4.6,10.28 -10.28,10.28 z"
     id="path14"
     style="fill:#d40000;fill-opacity:0.75294118;stroke-width:0.83831" /></g><path
   inkscape:connector-curvature="0"
   class="st1"
   d="M 138.11118,2.0473197 120.90236,6.2823409 V 20.024801 l 17.20882,-4.235021 z m -4.18562,9.2999593 -3.13629,0.73228 v 3.319672 l -2.55334,0.768894 v -3.490537 l -3.1363,0.732281 v -2.685028 l 3.1363,-0.7322802 v -3.31967 l 2.55334,-0.7688952 V 9.394532 l 3.13629,-0.7322803 z"
   id="path18"
   style="fill:#e20613;stroke-width:1" /><g
   transform="matrix(1.1659089,0,0,1.2204671,-19.986063,-40.046592)"
   id="g76"
   style="fill:#ffffff;stroke-width:0.83831"><polygon
     class="st2"
     points="89.76,137.19 89.76,124.67 82.25,124.67 76.18,124.67 76.18,137.19 79.06,137.19 "
     id="polygon20"
     style="fill:#ffffff;stroke-width:0.83831" /><polygon
     class="st2"
     points="89.76,123.29 89.76,116.2 84.41,116.2 76.18,116.2 76.18,123.29 82.6,123.29 "
     id="polygon22"
     style="fill:#ffffff;stroke-width:0.83831" /><polygon
     class="st2"
     points="163.91,137.19 163.91,124.67 156.4,124.67 150.33,124.67 150.33,137.19 153.2,137.19 "
     id="polygon24"
     style="fill:#ffffff;stroke-width:0.83831" /><polygon
     class="st2"
     points="163.91,123.29 163.91,116.2 158.56,116.2 150.33,116.2 150.33,123.29 156.75,123.29 "
     id="polygon26"
     style="fill:#ffffff;stroke-width:0.83831" /><polygon
     class="st2"
     points="89.76,154.13 89.76,147.04 84.41,147.04 76.18,147.04 76.18,154.13 82.6,154.13 "
     id="polygon28"
     style="fill:#ffffff;stroke-width:0.83831" /><polygon
     class="st2"
     points="89.76,168.04 89.76,155.51 82.25,155.51 76.18,155.51 76.18,168.04 79.06,168.04 "
     id="polygon30"
     style="fill:#ffffff;stroke-width:0.83831" /><polygon
     class="st2"
     points="163.91,168.04 163.91,155.51 156.4,155.51 150.33,155.51 150.33,168.04 153.2,168.04 "
     id="polygon32"
     style="fill:#ffffff;stroke-width:0.83831" /><polygon
     class="st2"
     points="163.91,154.13 163.91,147.04 158.56,147.04 150.33,147.04 150.33,154.13 156.75,154.13 "
     id="polygon34"
     style="fill:#ffffff;stroke-width:0.83831" /><path
     inkscape:connector-curvature="0"
     class="st2"
     d="m 120.45,158.37 v 6.38 22.81 h 14.47 v -29.18 h -11.87 -2.6 z m 3.33,15.38 v 1.09 h -1.86 v -1.09 z"
     id="path36"
     style="fill:#ffffff;stroke-width:0.83831" /><path
     inkscape:connector-curvature="0"
     class="st2"
     d="m 104.84,187.55 h 6.33 8.69 v -21.35 -7.83 h -15.02 z m 11.69,-13.8 h 0.26 1.6 v 1.09 h -1.87 v -0.44 -0.65 z"
     id="path38"
     style="fill:#ffffff;stroke-width:0.83831" /><polygon
     class="st2"
     points="62.28,135.58 62.28,128.5 56.93,128.5 48.71,128.5 48.71,135.58 55.12,135.58 "
     id="polygon40"
     style="fill:#ffffff;stroke-width:0.83831" /><polygon
     class="st2"
     points="62.28,149.49 62.28,136.97 54.77,136.97 48.71,136.97 48.71,149.49 51.58,149.49 "
     id="polygon42"
     style="fill:#ffffff;stroke-width:0.83831" /><polygon
     class="st2"
     points="62.28,180.33 62.28,167.81 54.77,167.81 48.71,167.81 48.71,180.33 51.58,180.33 "
     id="polygon44"
     style="fill:#ffffff;stroke-width:0.83831" /><polygon
     class="st2"
     points="62.28,166.43 62.28,159.34 56.93,159.34 48.71,159.34 48.71,166.43 55.12,166.43 "
     id="polygon46"
     style="fill:#ffffff;stroke-width:0.83831" /><polygon
     class="st2"
     points="42.78,149.49 42.78,136.97 35.26,136.97 29.2,136.97 29.2,149.49 32.07,149.49 "
     id="polygon48"
     style="fill:#ffffff;stroke-width:0.83831" /><polygon
     class="st2"
     points="42.78,135.58 42.78,128.5 37.42,128.5 29.2,128.5 29.2,135.58 35.62,135.58 "
     id="polygon50"
     style="fill:#ffffff;stroke-width:0.83831" /><polygon
     class="st2"
     points="42.78,166.43 42.78,159.34 37.42,159.34 29.2,159.34 29.2,166.43 35.62,166.43 "
     id="polygon52"
     style="fill:#ffffff;stroke-width:0.83831" /><polygon
     class="st2"
     points="42.78,180.33 42.78,167.81 35.26,167.81 29.2,167.81 29.2,180.33 32.07,180.33 "
     id="polygon54"
     style="fill:#ffffff;stroke-width:0.83831" /><polygon
     class="st2"
     points="211.09,149.49 211.09,136.97 203.58,136.97 197.51,136.97 197.51,149.49 200.38,149.49 "
     id="polygon56"
     style="fill:#ffffff;stroke-width:0.83831" /><polygon
     class="st2"
     points="211.09,166.43 211.09,159.34 205.74,159.34 197.51,159.34 197.51,166.43 203.93,166.43 "
     id="polygon58"
     style="fill:#ffffff;stroke-width:0.83831" /><polygon
     class="st2"
     points="211.09,180.33 211.09,167.81 203.58,167.81 197.51,167.81 197.51,180.33 200.38,180.33 "
     id="polygon60"
     style="fill:#ffffff;stroke-width:0.83831" /><polygon
     class="st2"
     points="191.58,149.49 191.58,136.97 184.07,136.97 178.01,136.97 178.01,149.49 180.88,149.49 "
     id="polygon62"
     style="fill:#ffffff;stroke-width:0.83831" /><polygon
     class="st2"
     points="191.58,135.58 191.58,128.5 186.23,128.5 178.01,128.5 178.01,135.58 184.42,135.58 "
     id="polygon64"
     style="fill:#ffffff;stroke-width:0.83831" /><polygon
     class="st2"
     points="191.58,166.43 191.58,159.34 186.23,159.34 178.01,159.34 178.01,166.43 184.42,166.43 "
     id="polygon66"
     style="fill:#ffffff;stroke-width:0.83831" /><polygon
     class="st2"
     points="191.58,180.33 191.58,167.81 184.07,167.81 178.01,167.81 178.01,180.33 180.88,180.33 "
     id="polygon68"
     style="fill:#ffffff;stroke-width:0.83831" /><polygon
     class="st2"
     points="119.23,122.59 133.81,122.59 133.81,116.15 133.81,115.51 122.91,115.51 106.17,115.51 106.17,116.15 106.17,122.59 "
     id="polygon70"
     style="fill:#ffffff;stroke-width:0.83831" /><polygon
     class="st2"
     points="112.02,136.5 133.81,136.5 133.81,123.99 133.81,123.98 118.52,123.98 106.17,123.98 106.17,123.99 106.17,136.5 "
     id="polygon72"
     style="fill:#ffffff;stroke-width:0.83831" /><polygon
     class="st2"
     points="203.93,135.58 211.09,135.58 211.09,128.5 205.74,128.5 197.51,128.5 197.51,135.58 "
     id="polygon74"
     style="fill:#ffffff;stroke-width:0.83831" /></g><g
   transform="matrix(1.1659089,0,0,1.2204671,-19.986063,-40.046592)"
   id="g136"
   style="fill:#800000;fill-opacity:0.75294118;stroke-width:0.83831"><polygon
     class="st3"
     points="112.02,136.5 106.17,136.5 106.17,137.88 133.81,137.88 133.81,136.5 "
     id="polygon78"
     style="fill:#800000;fill-opacity:0.75294118;stroke-width:0.83831" /><polygon
     class="st3"
     points="76.18,138.58 89.76,138.58 89.76,137.19 79.06,137.19 76.18,137.19 "
     id="polygon80"
     style="fill:#800000;fill-opacity:0.75294118;stroke-width:0.83831" /><polygon
     class="st3"
     points="150.33,138.58 163.91,138.58 163.91,137.19 153.2,137.19 150.33,137.19 "
     id="polygon82"
     style="fill:#800000;fill-opacity:0.75294118;stroke-width:0.83831" /><polygon
     class="st3"
     points="76.18,169.42 89.76,169.42 89.76,168.04 79.06,168.04 76.18,168.04 "
     id="polygon84"
     style="fill:#800000;fill-opacity:0.75294118;stroke-width:0.83831" /><polygon
     class="st3"
     points="150.33,169.42 163.91,169.42 163.91,168.04 153.2,168.04 150.33,168.04 "
     id="polygon86"
     style="fill:#800000;fill-opacity:0.75294118;stroke-width:0.83831" /><path
     class="st3"
     d="m 120.45,156.75 h -0.59 -15.02 -0.04 -0.55 v 32.71 h 0.55 0.04 15.02 0.59 14.47 0.59 v -32.71 h -0.59 z m -0.59,9.45 v 21.35 h -8.69 -6.33 v -29.18 h 15.02 z m 15.06,21.35 h -14.47 v -22.81 -6.38 h 2.6 11.87 z"
     id="path88"
     style="fill:#800000;fill-opacity:0.75294118;stroke-width:0.83831"
     inkscape:connector-curvature="0" /><polygon
     class="st3"
     points="116.53,174.39 116.53,174.84 118.39,174.84 118.39,173.75 116.79,173.75 116.53,173.75 "
     id="polygon90"
     style="fill:#800000;fill-opacity:0.75294118;stroke-width:0.83831" /><rect
     x="121.92"
     y="173.75"
     class="st3"
     width="1.86"
     height="1.09"
     id="rect92"
     style="fill:#800000;fill-opacity:0.75294118;stroke-width:0.83831" /><polygon
     class="st3"
     points="178.01,181.72 191.58,181.72 191.58,180.33 180.88,180.33 178.01,180.33 "
     id="polygon94"
     style="fill:#800000;fill-opacity:0.75294118;stroke-width:0.83831" /><polygon
     class="st3"
     points="48.71,150.87 62.28,150.87 62.28,149.49 51.58,149.49 48.71,149.49 "
     id="polygon96"
     style="fill:#800000;fill-opacity:0.75294118;stroke-width:0.83831" /><polygon
     class="st3"
     points="48.71,181.72 62.28,181.72 62.28,180.33 51.58,180.33 48.71,180.33 "
     id="polygon98"
     style="fill:#800000;fill-opacity:0.75294118;stroke-width:0.83831" /><polygon
     class="st3"
     points="29.2,150.87 42.78,150.87 42.78,149.49 32.07,149.49 29.2,149.49 "
     id="polygon100"
     style="fill:#800000;fill-opacity:0.75294118;stroke-width:0.83831" /><polygon
     class="st3"
     points="29.2,181.72 42.78,181.72 42.78,180.33 32.07,180.33 29.2,180.33 "
     id="polygon102"
     style="fill:#800000;fill-opacity:0.75294118;stroke-width:0.83831" /><polygon
     class="st3"
     points="197.51,150.87 211.09,150.87 211.09,149.49 200.38,149.49 197.51,149.49 "
     id="polygon104"
     style="fill:#800000;fill-opacity:0.75294118;stroke-width:0.83831" /><polygon
     class="st3"
     points="197.51,181.72 211.09,181.72 211.09,180.33 200.38,180.33 197.51,180.33 "
     id="polygon106"
     style="fill:#800000;fill-opacity:0.75294118;stroke-width:0.83831" /><polygon
     class="st3"
     points="178.01,150.87 191.58,150.87 191.58,149.49 180.88,149.49 178.01,149.49 "
     id="polygon108"
     style="fill:#800000;fill-opacity:0.75294118;stroke-width:0.83831" /><polygon
     class="st3"
     points="106.17,122.59 106.17,123.98 118.52,123.98 133.81,123.98 133.81,122.59 119.23,122.59 "
     id="polygon110"
     style="fill:#800000;fill-opacity:0.75294118;stroke-width:0.83831" /><polygon
     class="st3"
     points="89.76,123.99 89.76,123.29 82.6,123.29 76.18,123.29 76.18,123.99 76.18,124.67 82.25,124.67 89.76,124.67 "
     id="polygon112"
     style="fill:#800000;fill-opacity:0.75294118;stroke-width:0.83831" /><polygon
     class="st3"
     points="163.91,123.99 163.91,123.29 156.75,123.29 150.33,123.29 150.33,123.99 150.33,124.67 156.4,124.67 163.91,124.67 "
     id="polygon114"
     style="fill:#800000;fill-opacity:0.75294118;stroke-width:0.83831" /><polygon
     class="st3"
     points="89.76,155.51 89.76,154.13 82.6,154.13 76.18,154.13 76.18,155.51 82.25,155.51 "
     id="polygon116"
     style="fill:#800000;fill-opacity:0.75294118;stroke-width:0.83831" /><polygon
     class="st3"
     points="163.91,155.51 163.91,154.13 156.75,154.13 150.33,154.13 150.33,155.51 156.4,155.51 "
     id="polygon118"
     style="fill:#800000;fill-opacity:0.75294118;stroke-width:0.83831" /><polygon
     class="st3"
     points="191.58,167.81 191.58,166.43 184.42,166.43 178.01,166.43 178.01,167.81 184.07,167.81 "
     id="polygon120"
     style="fill:#800000;fill-opacity:0.75294118;stroke-width:0.83831" /><polygon
     class="st3"
     points="62.28,136.97 62.28,135.58 55.12,135.58 48.71,135.58 48.71,136.97 54.77,136.97 "
     id="polygon122"
     style="fill:#800000;fill-opacity:0.75294118;stroke-width:0.83831" /><polygon
     class="st3"
     points="62.28,167.81 62.28,166.43 55.12,166.43 48.71,166.43 48.71,167.81 54.77,167.81 "
     id="polygon124"
     style="fill:#800000;fill-opacity:0.75294118;stroke-width:0.83831" /><polygon
     class="st3"
     points="42.78,136.97 42.78,135.58 35.62,135.58 29.2,135.58 29.2,136.97 35.26,136.97 "
     id="polygon126"
     style="fill:#800000;fill-opacity:0.75294118;stroke-width:0.83831" /><polygon
     class="st3"
     points="42.78,167.81 42.78,166.43 35.62,166.43 29.2,166.43 29.2,167.81 35.26,167.81 "
     id="polygon128"
     style="fill:#800000;fill-opacity:0.75294118;stroke-width:0.83831" /><polygon
     class="st3"
     points="203.58,136.97 211.09,136.97 211.09,135.58 203.93,135.58 197.51,135.58 197.51,136.97 "
     id="polygon130"
     style="fill:#800000;fill-opacity:0.75294118;stroke-width:0.83831" /><polygon
     class="st3"
     points="211.09,167.81 211.09,166.43 203.93,166.43 197.51,166.43 197.51,167.81 203.58,167.81 "
     id="polygon132"
     style="fill:#800000;fill-opacity:0.75294118;stroke-width:0.83831" /><polygon
     class="st3"
     points="191.58,136.97 191.58,135.58 184.42,135.58 178.01,135.58 178.01,136.97 184.07,136.97 "
     id="polygon134"
     style="fill:#800000;fill-opacity:0.75294118;stroke-width:0.83831" /></g><path
   inkscape:connector-curvature="0"
   class="st2"
   d="m 120.80909,48.583733 c -6.62237,0 -11.98555,5.614149 -11.98555,12.546402 0,6.932253 5.36318,12.546402 11.98555,12.546402 6.62236,0 11.98554,-5.614149 11.98554,-12.546402 0,-6.932253 -5.36318,-12.546402 -11.98554,-12.546402 z m 0,23.701472 c -5.87618,0 -10.64475,-5.003915 -10.64475,-11.142866 0,-6.151154 4.78023,-11.142865 10.64475,-11.142865 5.87618,0 10.64476,5.003915 10.64476,11.142865 0,6.138951 -4.76858,11.142866 -10.64476,11.142866 z"
   id="path138"
   style="fill:#ffffff;stroke-width:1" /><path
   inkscape:connector-curvature="0"
   class="st2"
   d="m 120.80909,51.26876 c -5.19996,0 -9.43221,4.430296 -9.43221,9.873579 0,5.443284 4.23225,9.87358 9.43221,9.87358 5.19995,0 9.4322,-4.430296 9.4322,-9.87358 0,-5.455488 -4.23225,-9.873579 -9.4322,-9.873579 z m 7.24029,9.861375 c 0,0.353935 -0.26816,0.634642 -0.60627,0.634642 h -6.63402 c -0.33812,0 -0.60628,-0.280707 -0.60628,-0.634642 v -7.566897 c 0,-0.353935 0.26816,-0.634643 0.60628,-0.634643 0.33811,0 0.60627,0.280708 0.60627,0.634643 v 6.92005 h 6.02775 c 0.33811,0.0122 0.60627,0.292911 0.60627,0.646847 z"
   id="path140"
   style="fill:#ffffff;stroke-width:1" /><g
   transform="matrix(1.1659089,0,0,1.2204671,-19.986063,-40.046592)"
   id="g146"
   style="stroke-width:0.83831"><path
     inkscape:connector-curvature="0"
     class="st4"
     d="m 120.76,73.77 c -5.04,0 -9.13,4.1 -9.13,9.13 0,5.04 4.1,9.13 9.13,9.13 5.04,0 9.13,-4.1 9.13,-9.13 0,-5.03 -4.09,-9.13 -9.13,-9.13 z m 0,17.22 c -4.46,0 -8.09,-3.63 -8.09,-8.09 0,-4.46 3.63,-8.09 8.09,-8.09 4.46,0 8.09,3.63 8.09,8.09 0,4.46 -3.63,8.09 -8.09,8.09 z"
     id="path142"
     style="fill:#1d1d1b;stroke-width:0.83831" /><path
     inkscape:connector-curvature="0"
     class="st4"
     d="m 126.45,82.38 h -5.17 V 76.7 c 0,-0.29 -0.23,-0.52 -0.52,-0.52 -0.29,0 -0.52,0.23 -0.52,0.52 v 6.2 c 0,0.29 0.23,0.52 0.52,0.52 h 5.69 c 0.29,0 0.52,-0.23 0.52,-0.52 0,-0.29 -0.23,-0.52 -0.52,-0.52 z"
     id="path144"
     style="fill:#1d1d1b;stroke-width:0.83831" /></g><g
   transform="matrix(1.1659089,0,0,1.2204671,-19.986063,-40.046592)"
   id="g152"
   style="fill:#800000;fill-opacity:0.75294118;stroke-width:0.83831"><path
     inkscape:connector-curvature="0"
     class="st5"
     d="m 170.57,104.96 h 9.66 V 93.08 l -59.4,-36.22 v -18.9 h -1.51 V 57.13 L 61.3,93.08 v 11.87 h 8.23 101.04 z M 64.55,96.38 120.29,62 176.97,96.39 v 3.44 H 64.55 Z"
     id="path148"
     style="fill:#800000;fill-opacity:0.75294118;stroke-width:0.83831" /><path
     inkscape:connector-curvature="0"
     class="st5"
     d="m 163.91,123.99 h 6.66 48.79 2.54 v -7.84 h -51.33 -25.42 v -7.88 c 0.32,0.22 0.7,0.36 1.12,0.36 1.07,0 1.94,-0.87 1.94,-1.94 0,-1.07 -0.87,-1.94 -1.94,-1.94 h -1.12 -1.63 -0.7 -2.33 -1.12 c -1.07,0 -1.94,0.87 -1.94,1.94 0,1.07 0.87,1.94 1.94,1.94 0.42,0 0.8,-0.13 1.12,-0.36 v 7.88 h -6.68 v 6.45 1.38 0.01 h 6.68 v 18 h -1.52 v 1.05 h -0.98 v 0.47 h -36.21 v -0.47 h -0.98 v -1.05 h -1.52 v -18 h 6.9 v -0.01 -1.38 -6.45 h -6.9 v -7.88 c 0.32,0.22 0.7,0.36 1.12,0.36 1.07,0 1.94,-0.87 1.94,-1.94 0,-1.07 -0.87,-1.94 -1.94,-1.94 h -1.12 -1.63 -0.7 -2.33 -1.12 c -1.07,0 -1.94,0.87 -1.94,1.94 0,1.07 0.87,1.94 1.94,1.94 0.42,0 0.8,-0.13 1.12,-0.36 v 7.88 H 69.53 18.19 v 7.84 h 2.54 48.79 6.66 v -0.7 -7.09 h 8.22 5.35 v 7.09 0.7 h 4.85 v 18 h -1.52 v 1.05 H 92.1 v 0.47 h -1.76 v 2.71 2.71 h 3.15 c -1.07,0 -1.94,0.87 -1.94,1.94 0,1.07 0.87,1.94 1.94,1.94 0.42,0 0.8,-0.13 1.12,-0.36 v 33.72 h -1.52 v 1.05 H 92.1 v 2.29 H 69.53 20.73 18.19 v 3.99 H 221.9 v -3.99 h -2.54 -48.79 -22.91 v -2.29 h -0.98 v -1.05 h -1.52 v -33.72 c 0.32,0.22 0.7,0.36 1.12,0.36 1.07,0 1.94,-0.87 1.94,-1.94 0,-1.07 -0.87,-1.94 -1.94,-1.94 h 3.15 v -2.71 -2.71 h -1.76 v -0.47 h -0.98 v -1.05 h -1.52 v -18 h 5.18 v -0.7 -7.09 h 8.22 5.35 v 7.09 0.7 z m -62.13,65.53 v -2.29 h -0.98 v -1.05 h -1.52 v -33.72 c 0.32,0.22 0.7,0.36 1.12,0.36 1.07,0 1.94,-0.87 1.94,-1.94 0,-1.07 -0.87,-1.94 -1.94,-1.94 h 38.99 c -1.07,0 -1.94,0.87 -1.94,1.94 0,1.07 0.87,1.94 1.94,1.94 0.42,0 0.8,-0.13 1.12,-0.36 v 33.72 h -1.52 v 1.05 h -0.98 v 2.29 h -17.54 z"
     id="path150"
     style="fill:#800000;fill-opacity:0.75294118;stroke-width:0.83831" /></g><polygon
   transform="matrix(1.1659089,0,0,1.2204671,-19.986063,-40.046592)"
   class="st2"
   points="127.12,38.28 127.12,41 124.43,41.6 124.43,43.8 127.12,43.2 127.12,46.06 129.32,45.43 129.32,42.71 132.01,42.11 132.01,39.92 129.32,40.52 129.32,37.65 "
   id="polygon154"
   style="fill:#ffffff;stroke-width:0.83831" /></svg>