<?xml version="1.0" encoding="utf-8"?>
<!-- Generator: Adobe Illustrator 23.0.3, SVG Export Plug-In . SVG Version: 6.00 Build 0)  -->
<svg version="1.1" id="Ebene_1" xmlns="http://www.w3.org/2000/svg" xmlns:xlink="http://www.w3.org/1999/xlink" x="0px" y="0px"
	 viewBox="0 0 240 240" style="enable-background:new 0 0 240 240;" xml:space="preserve">
<style type="text/css">
	.st0{fill:none;}
	.st1{fill:#D9D9D9;}
	.st2{fill:#978679;}
	.st3{fill:#3D3D3D;}
	.st4{fill:#FFFFFF;}
	.st5{fill:#D50000;}
	.st6{fill:#858B8A;}
	.st7{fill:#E20613;}
	.st8{fill:#ECECEC;}
	.st9{fill:#585858;}
	.st10{fill:#1D1D1B;}
	.st11{fill:#9EA5A3;}
</style>
<g>
	<rect class="st0" width="240" height="240"/>
</g>
<rect x="110" y="182.5" transform="matrix(1.143782e-06 1 -1 1.143782e-06 324.9999 50.9997)" class="st1" width="54" height="11"/>
<rect x="76" y="182.5" transform="matrix(1.143782e-06 1 -1 1.143782e-06 291 84.9997)" class="st1" width="54" height="11"/>
<g>
	<g>
		<rect x="111.74" y="3.87" class="st2" width="16.56" height="3.29"/>
		<rect x="111.74" y="14.88" class="st2" width="16.56" height="3.29"/>
		<rect x="111.74" y="25.9" class="st2" width="16.56" height="3.29"/>
		<rect x="111.74" y="36.92" class="st2" width="16.56" height="3.29"/>
		<rect x="111.74" y="47.93" class="st2" width="16.56" height="3.29"/>
		<rect x="111.74" y="58.95" class="st2" width="16.56" height="3.29"/>
		<rect x="111.74" y="69.97" class="st2" width="16.56" height="3.29"/>
		<rect x="111.74" y="80.99" class="st2" width="16.56" height="3.29"/>
		<rect x="111.74" y="92" class="st2" width="16.56" height="3.29"/>
		<rect x="111.74" y="102.6" class="st2" width="16.56" height="3.29"/>
		<rect x="111.74" y="112.86" class="st2" width="16.56" height="3.29"/>
	</g>
	<g>
		<rect x="115.21" y="0" class="st3" width="1.33" height="120"/>
		<rect x="123.5" y="0" class="st3" width="1.33" height="120"/>
	</g>
</g>
<g>
	<g>
		<rect x="111.74" y="123.87" class="st2" width="16.56" height="3.29"/>
		<rect x="111.74" y="134.88" class="st2" width="16.56" height="3.29"/>
		<rect x="111.74" y="145.9" class="st2" width="16.56" height="3.29"/>
		<rect x="111.74" y="156.92" class="st2" width="16.56" height="3.29"/>
		<rect x="111.74" y="167.93" class="st2" width="16.56" height="3.29"/>
		<rect x="111.74" y="178.95" class="st2" width="16.56" height="3.29"/>
		<rect x="111.74" y="189.97" class="st2" width="16.56" height="3.29"/>
		<rect x="111.74" y="200.99" class="st2" width="16.56" height="3.29"/>
		<rect x="111.74" y="212" class="st2" width="16.56" height="3.29"/>
		<rect x="111.74" y="222.6" class="st2" width="16.56" height="3.29"/>
		<rect x="111.74" y="232.86" class="st2" width="16.56" height="3.29"/>
	</g>
	<g>
		<rect x="115.21" y="120" class="st3" width="1.33" height="120"/>
		<rect x="123.5" y="120" class="st3" width="1.33" height="120"/>
	</g>
</g>
<rect x="61" y="69" class="st4" width="118" height="92"/>
<g>
	<g>
		<polygon class="st5" points="145.31,119.74 145.31,113.78 145.31,108.54 109.08,108.54 94.79,108.54 94.79,119.74 70.39,119.74 
			70.39,152.5 94.79,152.5 109.08,152.5 120.25,152.5 145.31,152.5 169.7,152.5 169.7,119.74 		"/>
		<polygon class="st5" points="148.51,105.94 120.17,88.74 92.3,105.93 92.3,107.66 148.51,107.66 		"/>
	</g>
	<g>
		<polygon class="st0" points="92.3,105.93 92.3,107.66 148.51,107.66 148.51,105.94 120.17,88.74 		"/>
		<path class="st6" d="M120.16,85.96l-29.49,18.19v5.91h59.46v-5.91L120.16,85.96z M148.51,107.66H92.3v-1.73l27.87-17.19
			l28.34,17.2V107.66z"/>
	</g>
	<polygon class="st7" points="120.44,82.35 127.82,80.62 127.82,74.99 120.44,76.73 	"/>
	<rect x="119.68" y="76.72" class="st6" width="0.75" height="11.5"/>
	<rect x="69.12" y="115.82" class="st6" width="101.86" height="3.92"/>
	<rect x="69.12" y="152.5" class="st6" width="101.86" height="2"/>
	<g>
		<rect x="113.11" y="115.5" class="st8" width="13.82" height="10.5"/>
		<polygon class="st1" points="126.93,125.99 116.03,125.99 121.48,115.5 126.93,115.5 		"/>
		<rect x="113.11" y="125.99" class="st9" width="13.82" height="0.69"/>
	</g>
	<rect x="98.12" y="115.84" class="st8" width="6.79" height="10.5"/>
	<polygon class="st1" points="104.9,126.34 99.55,126.34 102.23,115.84 104.9,115.84 	"/>
	<rect x="98.12" y="126.34" class="st9" width="6.79" height="0.69"/>
	<rect x="135.19" y="115.84" class="st8" width="6.79" height="10.5"/>
	<polygon class="st1" points="141.98,126.34 136.63,126.34 139.3,115.84 141.98,115.84 	"/>
	<rect x="135.19" y="126.34" class="st9" width="6.79" height="0.69"/>
	<rect x="98.12" y="131.26" class="st8" width="6.79" height="10.5"/>
	<polygon class="st1" points="104.9,141.76 99.55,141.76 102.23,131.26 104.9,131.26 	"/>
	<rect x="98.12" y="141.76" class="st9" width="6.79" height="0.69"/>
	<rect x="135.19" y="131.26" class="st8" width="6.79" height="10.5"/>
	<polygon class="st1" points="141.98,141.76 136.63,141.76 139.3,131.26 141.98,131.26 	"/>
	<rect x="135.19" y="141.76" class="st9" width="6.79" height="0.69"/>
	<g>
		<g>
			<rect x="112.42" y="136.93" class="st8" width="15.06" height="14.59"/>
			<polygon class="st1" points="127.48,151.52 115.61,151.52 121.55,136.93 127.48,136.93 			"/>
		</g>
		<rect x="112.42" y="151.52" class="st9" width="15.06" height="0.95"/>
		<rect x="112.42" y="136.12" class="st9" width="15.06" height="0.81"/>
		
			<rect x="119.45" y="144.15" transform="matrix(-1.836970e-16 1 -1 -1.836970e-16 271.9261 16.666)" class="st9" width="16.35" height="0.3"/>
		
			<rect x="104.12" y="144.15" transform="matrix(-1.836970e-16 1 -1 -1.836970e-16 256.593 31.9991)" class="st9" width="16.35" height="0.3"/>
		
			<rect x="111.92" y="144.15" transform="matrix(-1.836970e-16 1 -1 -1.836970e-16 264.3965 24.1956)" class="st9" width="16.35" height="0.3"/>
		<g>
			<rect x="118.29" y="144.62" class="st9" width="0.93" height="0.55"/>
			<rect x="120.98" y="144.62" class="st9" width="0.93" height="0.55"/>
		</g>
	</g>
	<rect x="149.03" y="147.91" class="st9" width="6.79" height="0.69"/>
	<rect x="84.38" y="121.99" class="st8" width="6.79" height="10.5"/>
	<polygon class="st1" points="91.16,132.49 85.81,132.49 88.49,121.99 91.16,121.99 	"/>
	<rect x="84.38" y="132.49" class="st9" width="6.79" height="0.69"/>
	<rect x="84.38" y="137.41" class="st8" width="6.79" height="10.5"/>
	<polygon class="st1" points="91.16,147.91 85.81,147.91 88.49,137.41 91.16,137.41 	"/>
	<rect x="84.38" y="147.91" class="st9" width="6.79" height="0.69"/>
	<rect x="74.62" y="121.99" class="st8" width="6.79" height="10.5"/>
	<polygon class="st1" points="81.41,132.49 76.06,132.49 78.74,121.99 81.41,121.99 	"/>
	<rect x="74.62" y="132.49" class="st9" width="6.79" height="0.69"/>
	<rect x="74.62" y="137.41" class="st8" width="6.79" height="10.5"/>
	<polygon class="st1" points="81.41,147.91 76.06,147.91 78.74,137.41 81.41,137.41 	"/>
	<rect x="74.62" y="147.91" class="st9" width="6.79" height="0.69"/>
	<rect x="158.78" y="121.99" class="st8" width="6.79" height="10.5"/>
	<polygon class="st1" points="165.57,132.49 160.22,132.49 162.89,121.99 165.57,121.99 	"/>
	<rect x="158.78" y="132.49" class="st9" width="6.79" height="0.69"/>
	<rect x="158.78" y="137.41" class="st8" width="6.79" height="10.5"/>
	<polygon class="st1" points="165.57,147.91 160.22,147.91 162.89,137.41 165.57,137.41 	"/>
	<rect x="158.78" y="147.91" class="st9" width="6.79" height="0.69"/>
	<rect x="149.03" y="121.99" class="st8" width="6.79" height="10.5"/>
	<polygon class="st1" points="155.81,132.49 150.46,132.49 153.14,121.99 155.81,121.99 	"/>
	<rect x="149.03" y="137.41" class="st8" width="6.79" height="10.5"/>
	<polygon class="st1" points="155.81,147.91 150.46,147.91 153.14,137.41 155.81,137.41 	"/>
	<rect x="149.03" y="132.49" class="st9" width="6.79" height="0.69"/>
	<g>
		<rect x="113.11" y="119.04" class="st9" width="13.82" height="0.69"/>
	</g>
	<rect x="98.12" y="119.39" class="st9" width="6.79" height="0.69"/>
	<rect x="135.19" y="119.39" class="st9" width="6.79" height="0.69"/>
	<rect x="98.12" y="134.81" class="st9" width="6.79" height="0.69"/>
	<rect x="135.19" y="134.81" class="st9" width="6.79" height="0.69"/>
	<rect x="149.03" y="140.96" class="st9" width="6.79" height="0.69"/>
	<rect x="84.38" y="125.54" class="st9" width="6.79" height="0.69"/>
	<rect x="84.38" y="140.96" class="st9" width="6.79" height="0.69"/>
	<rect x="74.62" y="125.54" class="st9" width="6.79" height="0.69"/>
	<rect x="74.62" y="140.96" class="st9" width="6.79" height="0.69"/>
	<rect x="158.78" y="125.54" class="st9" width="6.79" height="0.69"/>
	<rect x="158.78" y="140.96" class="st9" width="6.79" height="0.69"/>
	<rect x="149.03" y="125.54" class="st9" width="6.79" height="0.69"/>
	<g>
		<path class="st4" d="M125.54,99.19c0-2.84-2.3-5.14-5.14-5.14c-2.84,0-5.14,2.3-5.14,5.14c0,2.84,2.3,5.14,5.14,5.14
			C123.24,104.34,125.54,102.03,125.54,99.19z"/>
		<g>
			<path class="st10" d="M120.4,103.76c-2.52,0-4.57-2.05-4.57-4.57c0-2.52,2.05-4.57,4.57-4.57c2.52,0,4.57,2.05,4.57,4.57
				C124.97,101.71,122.92,103.76,120.4,103.76z M120.4,95.15c-2.23,0-4.04,1.81-4.04,4.04c0,2.23,1.81,4.04,4.04,4.04
				c2.23,0,4.04-1.81,4.04-4.04C124.45,96.97,122.63,95.15,120.4,95.15z"/>
		</g>
		<path class="st10" d="M123.25,98.93h-2.58V96.1c0-0.14-0.12-0.26-0.26-0.26c-0.14,0-0.26,0.12-0.26,0.26v3.1
			c0,0.14,0.12,0.26,0.26,0.26h2.85c0.14,0,0.26-0.12,0.26-0.26C123.51,99.05,123.39,98.93,123.25,98.93z"/>
	</g>
	<g>
		<g>
			<g>
				<g>
					<rect x="130.27" y="132.21" class="st11" width="2.33" height="19.15"/>
				</g>
				<g>
					<rect x="131.43" y="132.21" class="st6" width="1.16" height="19.15"/>
				</g>
				<rect x="129.02" y="151.36" class="st11" width="4.84" height="1.28"/>
				<g>
					<rect x="132.02" y="151.36" class="st11" width="1.84" height="1.28"/>
				</g>
				<rect x="129.51" y="150.83" class="st11" width="3.85" height="0.79"/>
				<g>
					<rect x="131.6" y="150.83" class="st11" width="1.76" height="0.79"/>
				</g>
				<path class="st11" d="M130.68,133.18c0-0.54-0.43-0.97-0.97-0.97s-0.97,0.43-0.97,0.97c0,0.54,0.43,0.97,0.97,0.97
					S130.68,133.72,130.68,133.18z"/>
				<rect x="129.71" y="132.21" class="st11" width="3.45" height="0.65"/>
				<g>
					<rect x="131.79" y="132.21" class="st11" width="1.37" height="0.65"/>
				</g>
				<g>
					<path class="st11" d="M134.13,133.18c0-0.54-0.43-0.97-0.97-0.97c-0.54,0-0.97,0.43-0.97,0.97c0,0.54,0.43,0.97,0.97,0.97
						C133.69,134.15,134.13,133.72,134.13,133.18z"/>
				</g>
			</g>
		</g>
		<g>
			<g>
				<g>
					<rect x="107.33" y="132.21" class="st11" width="2.33" height="19.15"/>
				</g>
				<g>
					<rect x="108.49" y="132.21" class="st6" width="1.16" height="19.15"/>
				</g>
				<rect x="106.07" y="151.36" class="st11" width="4.84" height="1.28"/>
				<g>
					<rect x="109.08" y="151.36" class="st11" width="1.84" height="1.28"/>
				</g>
				<rect x="106.57" y="150.83" class="st11" width="3.85" height="0.79"/>
				<g>
					<rect x="108.66" y="150.83" class="st11" width="1.76" height="0.79"/>
				</g>
				<path class="st11" d="M107.74,133.18c0-0.54-0.43-0.97-0.97-0.97c-0.54,0-0.97,0.43-0.97,0.97c0,0.54,0.43,0.97,0.97,0.97
					C107.3,134.15,107.74,133.72,107.74,133.18z"/>
				<rect x="106.77" y="132.21" class="st11" width="3.45" height="0.65"/>
				<g>
					<rect x="108.84" y="132.21" class="st11" width="1.37" height="0.65"/>
				</g>
				<g>
					<path class="st11" d="M111.19,133.18c0-0.54-0.43-0.97-0.97-0.97c-0.54,0-0.97,0.43-0.97,0.97c0,0.54,0.43,0.97,0.97,0.97
						C110.75,134.15,111.19,133.72,111.19,133.18z"/>
				</g>
			</g>
		</g>
	</g>
	<g>
		<g>
			<g>
				<g>
					<rect x="130.27" y="110.12" class="st11" width="2.33" height="19.15"/>
				</g>
				<g>
					<rect x="131.43" y="110.12" class="st6" width="1.16" height="19.15"/>
				</g>
				<rect x="129.02" y="129.26" class="st11" width="4.84" height="1.28"/>
				<g>
					<rect x="132.02" y="129.26" class="st11" width="1.84" height="1.28"/>
				</g>
				<rect x="129.51" y="128.74" class="st11" width="3.85" height="0.79"/>
				<g>
					<rect x="131.6" y="128.74" class="st11" width="1.76" height="0.79"/>
				</g>
				<path class="st11" d="M130.68,111.09c0-0.54-0.43-0.97-0.97-0.97s-0.97,0.43-0.97,0.97c0,0.54,0.43,0.97,0.97,0.97
					S130.68,111.62,130.68,111.09z"/>
				<rect x="129.71" y="110.12" class="st11" width="3.45" height="0.65"/>
				<g>
					<rect x="131.79" y="110.12" class="st11" width="1.37" height="0.65"/>
				</g>
				<g>
					<path class="st11" d="M134.13,111.09c0-0.54-0.43-0.97-0.97-0.97c-0.54,0-0.97,0.43-0.97,0.97c0,0.54,0.43,0.97,0.97,0.97
						C133.69,112.06,134.13,111.62,134.13,111.09z"/>
				</g>
			</g>
		</g>
		<g>
			<g>
				<g>
					<rect x="107.33" y="110.12" class="st11" width="2.33" height="19.15"/>
				</g>
				<g>
					<rect x="108.49" y="110.12" class="st6" width="1.16" height="19.15"/>
				</g>
				<rect x="106.07" y="129.26" class="st11" width="4.84" height="1.28"/>
				<g>
					<rect x="109.08" y="129.26" class="st11" width="1.84" height="1.28"/>
				</g>
				<rect x="106.57" y="128.74" class="st11" width="3.85" height="0.79"/>
				<g>
					<rect x="108.66" y="128.74" class="st11" width="1.76" height="0.79"/>
				</g>
				<path class="st11" d="M107.74,111.09c0-0.54-0.43-0.97-0.97-0.97c-0.54,0-0.97,0.43-0.97,0.97c0,0.54,0.43,0.97,0.97,0.97
					C107.3,112.06,107.74,111.62,107.74,111.09z"/>
				<rect x="106.77" y="110.12" class="st11" width="3.45" height="0.65"/>
				<g>
					<rect x="108.84" y="110.12" class="st11" width="1.37" height="0.65"/>
				</g>
				<g>
					<path class="st11" d="M111.19,111.09c0-0.54-0.43-0.97-0.97-0.97c-0.54,0-0.97,0.43-0.97,0.97c0,0.54,0.43,0.97,0.97,0.97
						C110.75,112.06,111.19,111.62,111.19,111.09z"/>
				</g>
			</g>
		</g>
	</g>
	<rect x="105.2" y="129.5" class="st11" width="29.54" height="2.71"/>
	<rect x="105.2" y="130.85" class="st6" width="29.54" height="1.36"/>
	<polygon class="st4" points="123.58,80.77 124.68,80.46 124.68,76.57 123.58,76.88 	"/>
	<polygon class="st4" points="122.24,78.54 122.24,79.64 126.03,78.8 126.03,77.7 	"/>
</g>
<rect x="110" y="47.5" transform="matrix(1.143782e-06 1 -1 1.143782e-06 189.9999 -84.0001)" class="st1" width="54" height="11"/>
<rect x="76" y="47.5" transform="matrix(1.143782e-06 1 -1 1.143782e-06 155.9999 -50.0001)" class="st1" width="54" height="11"/>
</svg>
