<?xml version="1.0" encoding="utf-8"?>
<!-- Generator: Adobe Illustrator 23.0.3, SVG Export Plug-In . SVG Version: 6.00 Build 0)  -->
<svg version="1.1" id="Ebene_1" xmlns="http://www.w3.org/2000/svg" xmlns:xlink="http://www.w3.org/1999/xlink" x="0px" y="0px"
	 viewBox="0 0 240 240" style="enable-background:new 0 0 240 240;" xml:space="preserve">
<style type="text/css">
	.st0{fill:none;}
	.st1{fill:#D50000;}
	.st2{fill:#858B8A;}
	.st3{fill:#E20613;}
	.st4{fill:#ECECEC;}
	.st5{fill:#D9D9D9;}
	.st6{fill:#585858;}
	.st7{fill:#FFFFFF;}
	.st8{fill:#1D1D1B;}
	.st9{fill:#9EA5A3;}
	.st10{fill:#978679;}
	.st11{fill:#3D3D3D;}
</style>
<g>
	<rect class="st0" width="240" height="240"/>
</g>
<g>
	<g>
		<polygon class="st1" points="167.31,56.74 167.31,50.78 167.31,45.54 131.08,45.54 116.79,45.54 116.79,56.74 92.39,56.74 
			92.39,89.5 116.79,89.5 131.08,89.5 142.25,89.5 167.31,89.5 191.7,89.5 191.7,56.74 		"/>
		<polygon class="st1" points="170.51,42.94 142.17,25.74 114.3,42.93 114.3,44.66 170.51,44.66 		"/>
	</g>
	<g>
		<polygon class="st0" points="114.3,42.93 114.3,44.66 170.51,44.66 170.51,42.94 142.17,25.74 		"/>
		<path class="st2" d="M142.16,22.96l-29.49,18.19v5.91h59.46v-5.91L142.16,22.96z M170.51,44.66H114.3v-1.73l27.87-17.19
			l28.34,17.2V44.66z"/>
	</g>
	<polygon class="st3" points="142.44,19.35 149.82,17.62 149.82,11.99 142.44,13.73 	"/>
	<rect x="141.68" y="13.72" class="st2" width="0.75" height="11.5"/>
	<rect x="91.12" y="52.82" class="st2" width="101.86" height="3.92"/>
	<rect x="91.12" y="89.5" class="st2" width="101.86" height="2"/>
	<g>
		<rect x="135.11" y="52.5" class="st4" width="13.82" height="10.5"/>
		<polygon class="st5" points="148.93,62.99 138.03,62.99 143.48,52.5 148.93,52.5 		"/>
		<rect x="135.11" y="62.99" class="st6" width="13.82" height="0.69"/>
	</g>
	<rect x="120.12" y="52.84" class="st4" width="6.79" height="10.5"/>
	<polygon class="st5" points="126.9,63.34 121.55,63.34 124.23,52.84 126.9,52.84 	"/>
	<rect x="120.12" y="63.34" class="st6" width="6.79" height="0.69"/>
	<rect x="157.19" y="52.84" class="st4" width="6.79" height="10.5"/>
	<polygon class="st5" points="163.98,63.34 158.63,63.34 161.3,52.84 163.98,52.84 	"/>
	<rect x="157.19" y="63.34" class="st6" width="6.79" height="0.69"/>
	<rect x="120.12" y="68.26" class="st4" width="6.79" height="10.5"/>
	<polygon class="st5" points="126.9,78.76 121.55,78.76 124.23,68.26 126.9,68.26 	"/>
	<rect x="120.12" y="78.76" class="st6" width="6.79" height="0.69"/>
	<rect x="157.19" y="68.26" class="st4" width="6.79" height="10.5"/>
	<polygon class="st5" points="163.98,78.76 158.63,78.76 161.3,68.26 163.98,68.26 	"/>
	<rect x="157.19" y="78.76" class="st6" width="6.79" height="0.69"/>
	<g>
		<g>
			<rect x="134.42" y="73.93" class="st4" width="15.06" height="14.59"/>
			<polygon class="st5" points="149.48,88.52 137.61,88.52 143.55,73.93 149.48,73.93 			"/>
		</g>
		<rect x="134.42" y="88.52" class="st6" width="15.06" height="0.95"/>
		<rect x="134.42" y="73.12" class="st6" width="15.06" height="0.81"/>
		
			<rect x="141.45" y="81.15" transform="matrix(-1.836970e-16 1 -1 -1.836970e-16 230.9261 -68.334)" class="st6" width="16.35" height="0.3"/>
		
			<rect x="126.12" y="81.15" transform="matrix(-1.836970e-16 1 -1 -1.836970e-16 215.593 -53.0009)" class="st6" width="16.35" height="0.3"/>
		
			<rect x="133.92" y="81.15" transform="matrix(-1.836970e-16 1 -1 -1.836970e-16 223.3965 -60.8044)" class="st6" width="16.35" height="0.3"/>
		<g>
			<rect x="140.29" y="81.62" class="st6" width="0.93" height="0.55"/>
			<rect x="142.98" y="81.62" class="st6" width="0.93" height="0.55"/>
		</g>
	</g>
	<rect x="171.03" y="84.91" class="st6" width="6.79" height="0.69"/>
	<rect x="106.38" y="58.99" class="st4" width="6.79" height="10.5"/>
	<polygon class="st5" points="113.16,69.49 107.81,69.49 110.49,58.99 113.16,58.99 	"/>
	<rect x="106.38" y="69.49" class="st6" width="6.79" height="0.69"/>
	<rect x="106.38" y="74.41" class="st4" width="6.79" height="10.5"/>
	<polygon class="st5" points="113.16,84.91 107.81,84.91 110.49,74.41 113.16,74.41 	"/>
	<rect x="106.38" y="84.91" class="st6" width="6.79" height="0.69"/>
	<rect x="96.62" y="58.99" class="st4" width="6.79" height="10.5"/>
	<polygon class="st5" points="103.41,69.49 98.06,69.49 100.74,58.99 103.41,58.99 	"/>
	<rect x="96.62" y="69.49" class="st6" width="6.79" height="0.69"/>
	<rect x="96.62" y="74.41" class="st4" width="6.79" height="10.5"/>
	<polygon class="st5" points="103.41,84.91 98.06,84.91 100.74,74.41 103.41,74.41 	"/>
	<rect x="96.62" y="84.91" class="st6" width="6.79" height="0.69"/>
	<rect x="180.78" y="58.99" class="st4" width="6.79" height="10.5"/>
	<polygon class="st5" points="187.57,69.49 182.22,69.49 184.89,58.99 187.57,58.99 	"/>
	<rect x="180.78" y="69.49" class="st6" width="6.79" height="0.69"/>
	<rect x="180.78" y="74.41" class="st4" width="6.79" height="10.5"/>
	<polygon class="st5" points="187.57,84.91 182.22,84.91 184.89,74.41 187.57,74.41 	"/>
	<rect x="180.78" y="84.91" class="st6" width="6.79" height="0.69"/>
	<rect x="171.03" y="58.99" class="st4" width="6.79" height="10.5"/>
	<polygon class="st5" points="177.81,69.49 172.46,69.49 175.14,58.99 177.81,58.99 	"/>
	<rect x="171.03" y="74.41" class="st4" width="6.79" height="10.5"/>
	<polygon class="st5" points="177.81,84.91 172.46,84.91 175.14,74.41 177.81,74.41 	"/>
	<rect x="171.03" y="69.49" class="st6" width="6.79" height="0.69"/>
	<g>
		<rect x="135.11" y="56.04" class="st6" width="13.82" height="0.69"/>
	</g>
	<rect x="120.12" y="56.39" class="st6" width="6.79" height="0.69"/>
	<rect x="157.19" y="56.39" class="st6" width="6.79" height="0.69"/>
	<rect x="120.12" y="71.81" class="st6" width="6.79" height="0.69"/>
	<rect x="157.19" y="71.81" class="st6" width="6.79" height="0.69"/>
	<rect x="171.03" y="77.96" class="st6" width="6.79" height="0.69"/>
	<rect x="106.38" y="62.54" class="st6" width="6.79" height="0.69"/>
	<rect x="106.38" y="77.96" class="st6" width="6.79" height="0.69"/>
	<rect x="96.62" y="62.54" class="st6" width="6.79" height="0.69"/>
	<rect x="96.62" y="77.96" class="st6" width="6.79" height="0.69"/>
	<rect x="180.78" y="62.54" class="st6" width="6.79" height="0.69"/>
	<rect x="180.78" y="77.96" class="st6" width="6.79" height="0.69"/>
	<rect x="171.03" y="62.54" class="st6" width="6.79" height="0.69"/>
	<g>
		<path class="st7" d="M147.54,36.19c0-2.84-2.3-5.14-5.14-5.14c-2.84,0-5.14,2.3-5.14,5.14c0,2.84,2.3,5.14,5.14,5.14
			C145.24,41.34,147.54,39.03,147.54,36.19z"/>
		<g>
			<path class="st8" d="M142.4,40.76c-2.52,0-4.57-2.05-4.57-4.57c0-2.52,2.05-4.57,4.57-4.57c2.52,0,4.57,2.05,4.57,4.57
				C146.97,38.71,144.92,40.76,142.4,40.76z M142.4,32.15c-2.23,0-4.04,1.81-4.04,4.04c0,2.23,1.81,4.04,4.04,4.04
				c2.23,0,4.04-1.81,4.04-4.04C146.45,33.97,144.63,32.15,142.4,32.15z"/>
		</g>
		<path class="st8" d="M145.25,35.93h-2.58V33.1c0-0.14-0.12-0.26-0.26-0.26c-0.14,0-0.26,0.12-0.26,0.26v3.1
			c0,0.14,0.12,0.26,0.26,0.26h2.85c0.14,0,0.26-0.12,0.26-0.26S145.39,35.93,145.25,35.93z"/>
	</g>
	<g>
		<g>
			<g>
				<g>
					<rect x="152.27" y="69.21" class="st9" width="2.33" height="19.15"/>
				</g>
				<g>
					<rect x="153.43" y="69.21" class="st2" width="1.16" height="19.15"/>
				</g>
				<rect x="151.02" y="88.36" class="st9" width="4.84" height="1.28"/>
				<g>
					<rect x="154.02" y="88.36" class="st9" width="1.84" height="1.28"/>
				</g>
				<rect x="151.51" y="87.83" class="st9" width="3.85" height="0.79"/>
				<g>
					<rect x="153.6" y="87.83" class="st9" width="1.76" height="0.79"/>
				</g>
				<path class="st9" d="M152.68,70.18c0-0.54-0.43-0.97-0.97-0.97s-0.97,0.43-0.97,0.97c0,0.54,0.43,0.97,0.97,0.97
					S152.68,70.72,152.68,70.18z"/>
				<rect x="151.71" y="69.21" class="st9" width="3.45" height="0.65"/>
				<g>
					<rect x="153.79" y="69.21" class="st9" width="1.37" height="0.65"/>
				</g>
				<g>
					<path class="st9" d="M156.13,70.18c0-0.54-0.43-0.97-0.97-0.97c-0.54,0-0.97,0.43-0.97,0.97c0,0.54,0.43,0.97,0.97,0.97
						C155.69,71.15,156.13,70.72,156.13,70.18z"/>
				</g>
			</g>
		</g>
		<g>
			<g>
				<g>
					<rect x="129.33" y="69.21" class="st9" width="2.33" height="19.15"/>
				</g>
				<g>
					<rect x="130.49" y="69.21" class="st2" width="1.16" height="19.15"/>
				</g>
				<rect x="128.07" y="88.36" class="st9" width="4.84" height="1.28"/>
				<g>
					<rect x="131.08" y="88.36" class="st9" width="1.84" height="1.28"/>
				</g>
				<rect x="128.57" y="87.83" class="st9" width="3.85" height="0.79"/>
				<g>
					<rect x="130.66" y="87.83" class="st9" width="1.76" height="0.79"/>
				</g>
				<path class="st9" d="M129.74,70.18c0-0.54-0.43-0.97-0.97-0.97s-0.97,0.43-0.97,0.97c0,0.54,0.43,0.97,0.97,0.97
					S129.74,70.72,129.74,70.18z"/>
				<rect x="128.77" y="69.21" class="st9" width="3.45" height="0.65"/>
				<g>
					<rect x="130.84" y="69.21" class="st9" width="1.37" height="0.65"/>
				</g>
				<g>
					<path class="st9" d="M133.19,70.18c0-0.54-0.43-0.97-0.97-0.97c-0.54,0-0.97,0.43-0.97,0.97c0,0.54,0.43,0.97,0.97,0.97
						C132.75,71.15,133.19,70.72,133.19,70.18z"/>
				</g>
			</g>
		</g>
	</g>
	<g>
		<g>
			<g>
				<g>
					<rect x="152.27" y="47.12" class="st9" width="2.33" height="19.15"/>
				</g>
				<g>
					<rect x="153.43" y="47.12" class="st2" width="1.16" height="19.15"/>
				</g>
				<rect x="151.02" y="66.26" class="st9" width="4.84" height="1.28"/>
				<g>
					<rect x="154.02" y="66.26" class="st9" width="1.84" height="1.28"/>
				</g>
				<rect x="151.51" y="65.74" class="st9" width="3.85" height="0.79"/>
				<g>
					<rect x="153.6" y="65.74" class="st9" width="1.76" height="0.79"/>
				</g>
				<path class="st9" d="M152.68,48.09c0-0.54-0.43-0.97-0.97-0.97s-0.97,0.43-0.97,0.97c0,0.54,0.43,0.97,0.97,0.97
					S152.68,48.62,152.68,48.09z"/>
				<rect x="151.71" y="47.12" class="st9" width="3.45" height="0.65"/>
				<g>
					<rect x="153.79" y="47.12" class="st9" width="1.37" height="0.65"/>
				</g>
				<g>
					<path class="st9" d="M156.13,48.09c0-0.54-0.43-0.97-0.97-0.97c-0.54,0-0.97,0.43-0.97,0.97c0,0.54,0.43,0.97,0.97,0.97
						C155.69,49.06,156.13,48.62,156.13,48.09z"/>
				</g>
			</g>
		</g>
		<g>
			<g>
				<g>
					<rect x="129.33" y="47.12" class="st9" width="2.33" height="19.15"/>
				</g>
				<g>
					<rect x="130.49" y="47.12" class="st2" width="1.16" height="19.15"/>
				</g>
				<rect x="128.07" y="66.26" class="st9" width="4.84" height="1.28"/>
				<g>
					<rect x="131.08" y="66.26" class="st9" width="1.84" height="1.28"/>
				</g>
				<rect x="128.57" y="65.74" class="st9" width="3.85" height="0.79"/>
				<g>
					<rect x="130.66" y="65.74" class="st9" width="1.76" height="0.79"/>
				</g>
				<path class="st9" d="M129.74,48.09c0-0.54-0.43-0.97-0.97-0.97s-0.97,0.43-0.97,0.97c0,0.54,0.43,0.97,0.97,0.97
					S129.74,48.62,129.74,48.09z"/>
				<rect x="128.77" y="47.12" class="st9" width="3.45" height="0.65"/>
				<g>
					<rect x="130.84" y="47.12" class="st9" width="1.37" height="0.65"/>
				</g>
				<g>
					<path class="st9" d="M133.19,48.09c0-0.54-0.43-0.97-0.97-0.97c-0.54,0-0.97,0.43-0.97,0.97c0,0.54,0.43,0.97,0.97,0.97
						C132.75,49.06,133.19,48.62,133.19,48.09z"/>
				</g>
			</g>
		</g>
	</g>
	<rect x="127.2" y="66.5" class="st9" width="29.54" height="2.71"/>
	<rect x="127.2" y="67.85" class="st2" width="29.54" height="1.36"/>
	<polygon class="st7" points="145.58,17.77 146.68,17.46 146.68,13.57 145.58,13.88 	"/>
	<polygon class="st7" points="144.24,15.54 144.24,16.64 148.03,15.8 148.03,14.7 	"/>
</g>
<g>
	<g>
		<rect x="123.87" y="111.24" class="st10" width="3.29" height="16.56"/>
		<rect x="134.88" y="111.24" class="st10" width="3.29" height="16.56"/>
		<rect x="145.9" y="111.24" class="st10" width="3.29" height="16.56"/>
		<rect x="156.92" y="111.24" class="st10" width="3.29" height="16.56"/>
		<rect x="90.87" y="111.24" class="st11" width="3.29" height="16.56"/>
		<rect x="101.88" y="111.24" class="st10" width="3.29" height="16.56"/>
		<rect x="112.9" y="111.24" class="st10" width="3.29" height="16.56"/>
		<rect x="167.93" y="111.24" class="st10" width="3.29" height="16.56"/>
		<rect x="178.95" y="111.24" class="st10" width="3.29" height="16.56"/>
		<rect x="189.97" y="111.24" class="st10" width="3.29" height="16.56"/>
		<rect x="200.99" y="111.24" class="st10" width="3.29" height="16.56"/>
		<rect x="212" y="111.24" class="st10" width="3.29" height="16.56"/>
		<rect x="222.6" y="111.24" class="st10" width="3.29" height="16.56"/>
		<rect x="232.86" y="111.24" class="st10" width="3.29" height="16.56"/>
	</g>
	<g>
		<rect x="92" y="114.71" class="st11" width="148" height="1.33"/>
		<rect x="92" y="123" class="st11" width="148" height="1.33"/>
	</g>
</g>
<rect x="91" y="131.5" class="st5" width="102" height="11"/>
<rect x="91" y="97.5" class="st5" width="102" height="11"/>
</svg>
