<?xml version="1.0" encoding="utf-8"?>
<!-- Generator: Adobe Illustrator 23.0.3, SVG Export Plug-In . SVG Version: 6.00 Build 0)  -->
<svg version="1.1" id="Ebene_1" xmlns="http://www.w3.org/2000/svg" xmlns:xlink="http://www.w3.org/1999/xlink" x="0px" y="0px"
	 viewBox="0 0 240 240" style="enable-background:new 0 0 240 240;" xml:space="preserve">
<style type="text/css">
	.st0{fill:none;}
	.st1{fill:#84544C;}
	.st2{fill:#617D8A;}
	.st3{fill:#5F7172;}
	.st4{fill:#9EA9A8;}
	.st5{fill:#B27D6B;}
	.st6{fill:#FABF2C;}
	.st7{fill:#EF7F1E;}
	.st8{fill:#AEBDC4;}
	.st9{fill:#8FA3AD;}
	.st10{fill:#CBE5E9;}
	.st11{fill:#DEEDEE;}
	.st12{fill:#E2CFCB;}
	.st13{fill:#936357;}
	.st14{fill:#ABB8BB;}
	.st15{fill:#E1DDDD;}
</style>
<g>
	<rect x="0" class="st0" width="240" height="240"/>
</g>
<g>
	<path class="st0" d="M19.14,130.69v6.42h1.31v2.46c0.84,0.42,1.55,1.06,2.05,1.84c0.02,0.04,0.04,0.08,0.07,0.11
		c0.1,0.16,0.19,0.32,0.27,0.49c0.04,0.09,0.07,0.18,0.11,0.28c0.05,0.13,0.11,0.26,0.15,0.39c0.05,0.15,0.08,0.31,0.11,0.47
		c0.02,0.08,0.04,0.16,0.05,0.24c0.04,0.25,0.06,0.5,0.06,0.76v0.01v1.45h0.88v1.14H23.3v4.37h1.48h1.52v1.52v17.38h1.41v3.46h3.32
		v-0.69v-42.09H19.14z"/>
	<path class="st0" d="M225.37,162.8c0,2.85-2.31,5.16-5.16,5.16c-2.83,0-5.15-2.31-5.15-5.16v-10.16h-1.48v17.38h13.26v-17.38h-1.48
		V162.8z"/>
	<path class="st0" d="M10.01,170.02v-17.38v-1.52h1.52h1.48v-4.37h-0.88v-1.14h0.88v-1.45c0-2.02,1.17-3.74,2.86-4.59v-2.46h1.45
		v-6.42H5.78v42.79h2.81v-3.46H10.01z"/>
	<polygon class="st0" points="107.49,113.84 94.67,113.84 94.67,116.71 99.05,116.71 99.05,121.86 107.49,121.86 	"/>
	<path class="st0" d="M220.99,137.11h1.52v2.46c1.69,0.85,2.86,2.58,2.86,4.59v1.45h0.88v1.14h-0.88v4.37h1.48h1.52v1.52v17.38h1.41
		v3.46h2.81v-42.79h-11.6V137.11z"/>
	<path class="st0" d="M23.3,162.81c0,2.13-1.3,3.96-3.15,4.74c-0.62,0.26-1.3,0.41-2.01,0.41v0c-2.84-0.01-5.14-2.31-5.14-5.15
		v-10.16h-1.48v17.38h13.26v-17.38H23.3V162.81L23.3,162.81z"/>
	<path class="st0" d="M212.08,170.02v-17.38v-1.52h1.52h1.48v-4.37h-0.88v-1.14h0.88v-1.45c0-1.42,0.58-2.71,1.51-3.65
		c0.39-0.39,0.86-0.7,1.36-0.95v-2.46h1.24v-6.42h-11.84v42.09v0.69h3.32v-3.46H212.08z"/>
	<rect x="116.86" y="113.84" class="st0" width="6.7" height="8.02"/>
	<path class="st0" d="M40.47,121.86v-5.14h1.98v-5.6h-22.4v7.41c1.75,0.72,2.98,2.44,2.98,4.45v0.99h1.21v1.2h4.56v-3.32H40.47z"/>
	<path class="st0" d="M209.58,125.17h4.5v-1.2h1.21v-0.99c0-2.01,1.23-3.73,2.98-4.45v-7.41h-22.4v5.6h4.09v5.14h9.63V125.17z"/>
	<polygon class="st0" points="141.38,116.71 145.76,116.71 145.76,113.84 132.93,113.84 132.93,121.86 141.38,121.86 	"/>
	<rect x="232.6" y="130.69" class="st1" width="1.36" height="42.79"/>
	<rect x="4.42" y="130.69" class="st1" width="1.36" height="42.79"/>
	<rect x="17.32" y="130.69" class="st2" width="1.82" height="6.42"/>
	<path class="st2" d="M20.05,118.52v-7.41h22.4v5.6h0.91h1.82h0.91v-9.24H16.41v11.04c0.56-0.22,1.16-0.35,1.8-0.35
		C18.86,118.16,19.48,118.29,20.05,118.52z"/>
	<path class="st3" d="M15.87,137.11v2.46c0.69-0.34,1.46-0.56,2.28-0.56v0c0.71,0,1.39,0.15,2.01,0.41c0.1,0.04,0.19,0.1,0.29,0.15
		v-2.46h-1.31h-1.82H15.87z"/>
	<path class="st4" d="M18.15,167.96v-15.31h-5.14v10.16C13.01,165.65,15.31,167.95,18.15,167.96z"/>
	<path class="st4" d="M23.3,162.81L23.3,162.81c0,2.13-1.3,3.96-3.15,4.74C22.01,166.77,23.3,164.94,23.3,162.81z"/>
	<rect x="13.01" y="146.75" class="st4" width="5.14" height="4.37"/>
	<path class="st4" d="M18.15,139.01c-0.82,0-1.59,0.21-2.28,0.56c-1.69,0.84-2.86,2.57-2.86,4.59v1.45h5.14V139.01z"/>
	<path class="st4" d="M23.3,144.16c0-0.26-0.02-0.51-0.06-0.76C23.28,143.65,23.3,143.91,23.3,144.16L23.3,144.16z"/>
	<polygon class="st3" points="26.3,170.02 26.3,152.64 26.3,151.13 24.78,151.13 23.3,151.13 23.3,152.64 24.78,152.64 
		24.78,170.02 11.53,170.02 11.53,152.64 13.01,152.64 18.15,152.64 18.15,151.13 13.01,151.13 11.53,151.13 10.01,151.13 
		10.01,152.64 10.01,170.02 8.59,170.02 8.59,173.48 27.72,173.48 27.72,170.02 	"/>
	<rect x="23.3" y="145.61" class="st3" width="0.88" height="1.14"/>
	<polygon class="st3" points="18.15,145.61 13.01,145.61 12.13,145.61 12.13,146.75 13.01,146.75 18.15,146.75 	"/>
	<polygon class="st5" points="27.72,173.48 8.59,173.48 5.78,173.48 4.42,173.48 2.38,173.48 2.38,179 31.04,179 31.04,173.48 	"/>
	<polygon class="st6" points="17.32,130.69 19.14,130.69 31.04,130.69 31.04,127.93 28.8,127.93 28.8,126.09 28.8,125.17 
		24.24,125.17 23.03,125.17 13.39,125.17 12.18,125.17 2.38,125.17 2.38,130.69 4.42,130.69 5.78,130.69 	"/>
	<path class="st6" d="M23.03,122.98c0-2.01-1.23-3.73-2.98-4.45c-0.57-0.23-1.19-0.37-1.84-0.37c-0.64,0-1.24,0.13-1.8,0.35
		c-1.77,0.71-3.02,2.44-3.02,4.47v0.99h9.64V122.98z"/>
	<polygon class="st7" points="23.03,125.17 24.24,125.17 24.24,123.97 23.03,123.97 13.39,123.97 12.18,123.97 12.18,125.17 
		13.39,125.17 	"/>
	<polygon class="st8" points="69.76,65.56 59.99,65.56 53.37,116.71 69.76,116.71 	"/>
	<polygon class="st9" points="69.76,116.71 86.15,116.71 79.53,65.56 69.76,65.56 	"/>
	<polygon class="st6" points="43.36,116.71 42.45,116.71 40.47,116.71 40.47,121.86 99.05,121.86 99.05,116.71 94.67,116.71 
		91.03,116.71 86.15,116.71 69.76,116.71 53.37,116.71 46.09,116.71 45.18,116.71 	"/>
	<polygon class="st2" points="79.53,65.56 80.96,65.56 80.96,60.45 58.56,60.45 58.56,65.56 59.99,65.56 69.76,65.56 	"/>
	<polygon class="st8" points="170.66,65.56 160.89,65.56 154.27,116.71 170.66,116.71 	"/>
	<polygon class="st9" points="170.66,116.71 187.05,116.71 180.43,65.56 170.66,65.56 	"/>
	<polygon class="st6" points="141.38,116.71 141.38,121.86 199.95,121.86 199.95,116.71 195.86,116.71 194.95,116.71 193.14,116.71 
		192.23,116.71 187.05,116.71 170.66,116.71 154.27,116.71 149.4,116.71 145.76,116.71 	"/>
	<polygon class="st2" points="180.43,65.56 181.86,65.56 181.86,60.45 159.46,60.45 159.46,65.56 160.89,65.56 170.66,65.56 	"/>
	<path class="st5" d="M207.34,127.93H31.04v2.76v42.09h46.61v-18.64h-0.66l-0.68-0.72v-1.99h22.54l0.68,0.99v1.72H97.5v18.64h45.52
		v-18.64h-0.66l-0.68-0.72v-1.99h22.54h0v0l0.68,0.99v1.72h-2.03v18.64h44.47v-42.09V127.93z M52.66,162.17H41.28v-12.73h11.38
		V162.17z M52.66,144.89H41.28v-12.73h11.38V144.89z M68.59,162.17H57.21v-12.73h11.38V162.17z M68.59,144.89H57.21v-12.73h11.38
		V144.89z M85.3,144.89H73.92v-12.73H85.3V144.89z M101.23,144.89H89.85v-12.73h11.38V144.89z M117.94,162.17h-11.38v-12.73h11.38
		V162.17z M117.94,144.89h-11.38v-12.73h11.38V144.89z M133.87,162.17h-11.38v-12.73h11.38V162.17z M133.87,144.89h-11.38v-12.73
		h11.38V144.89z M151.01,144.89h-11.38v-12.73h11.38V144.89z M166.94,144.89h-11.38v-12.73h11.38V144.89z M184.08,162.17H172.7
		v-12.73h11.38V162.17z M184.08,144.89H172.7v-12.73h11.38V144.89z M200.01,162.17h-11.38v-12.73h11.38V162.17z M200.01,144.89
		h-11.38v-12.73h11.38V144.89z"/>
	<polygon class="st1" points="207.34,172.79 162.87,172.79 162.27,172.79 153.17,172.79 152.71,172.79 143.62,172.79 143.02,172.79 
		97.5,172.79 96.9,172.79 87.8,172.79 87.35,172.79 78.25,172.79 77.65,172.79 31.04,172.79 31.04,173.48 31.04,179 40.47,179 
		99.05,179 141.38,179 199.95,179 207.34,179 207.34,173.48 	"/>
	<polygon class="st10" points="41.28,144.89 52.66,132.16 41.28,132.16 	"/>
	<polygon class="st10" points="57.21,144.89 68.59,132.16 57.21,132.16 	"/>
	<polygon class="st10" points="41.28,162.17 52.66,149.44 41.28,149.44 	"/>
	<polygon class="st10" points="57.21,162.17 68.59,149.44 57.21,149.44 	"/>
	<polygon class="st10" points="73.92,144.89 85.3,132.16 73.92,132.16 	"/>
	<polygon class="st10" points="89.85,144.89 101.23,132.16 89.85,132.16 	"/>
	<polygon class="st10" points="139.63,144.89 151.01,132.16 139.63,132.16 	"/>
	<polygon class="st10" points="155.56,144.89 166.94,132.16 155.56,132.16 	"/>
	<polygon class="st10" points="106.56,144.89 117.94,132.16 106.56,132.16 	"/>
	<polygon class="st10" points="122.49,144.89 133.87,132.16 122.49,132.16 	"/>
	<polygon class="st10" points="106.56,162.17 117.94,149.44 106.56,149.44 	"/>
	<polygon class="st10" points="122.49,162.17 133.87,149.44 122.49,149.44 	"/>
	<polygon class="st10" points="172.7,144.89 184.08,132.16 172.7,132.16 	"/>
	<polygon class="st10" points="188.63,144.89 200.01,132.16 188.63,132.16 	"/>
	<polygon class="st10" points="172.7,162.17 184.08,149.44 172.7,149.44 	"/>
	<polygon class="st10" points="188.63,162.17 200.01,149.44 188.63,149.44 	"/>
	<polygon class="st11" points="52.66,144.89 52.66,132.16 41.28,144.89 	"/>
	<polygon class="st11" points="68.59,144.89 68.59,132.16 57.21,144.89 	"/>
	<polygon class="st11" points="52.66,162.17 52.66,149.44 41.28,162.17 	"/>
	<polygon class="st11" points="68.59,162.17 68.59,149.44 57.21,162.17 	"/>
	<polygon class="st11" points="85.3,144.89 85.3,132.16 73.92,144.89 	"/>
	<polygon class="st11" points="101.23,144.89 101.23,132.16 89.85,144.89 	"/>
	<polygon class="st11" points="151.01,144.89 151.01,132.16 139.63,144.89 	"/>
	<polygon class="st11" points="166.94,144.89 166.94,132.16 155.56,144.89 	"/>
	<polygon class="st11" points="117.94,144.89 117.94,132.16 106.56,144.89 	"/>
	<polygon class="st11" points="133.87,144.89 133.87,132.16 122.49,144.89 	"/>
	<polygon class="st11" points="117.94,162.17 117.94,149.44 106.56,162.17 	"/>
	<polygon class="st11" points="133.87,162.17 133.87,149.44 122.49,162.17 	"/>
	<polygon class="st11" points="184.08,144.89 184.08,132.16 172.7,144.89 	"/>
	<polygon class="st11" points="200.01,144.89 200.01,132.16 188.63,144.89 	"/>
	<polygon class="st11" points="184.08,162.17 184.08,149.44 172.7,162.17 	"/>
	<polygon class="st11" points="200.01,162.17 200.01,149.44 188.63,162.17 	"/>
	<rect x="219.18" y="130.69" class="st2" width="1.82" height="6.42"/>
	<path class="st2" d="M194.95,116.71h0.91v-5.6h22.4v7.41c0.57-0.24,1.19-0.37,1.84-0.37h0c0.64,0,1.24,0.13,1.79,0.35v-11.04
		h-29.68v9.24h0.91H194.95z"/>
	<path class="st3" d="M217.93,137.11v2.46c0.69-0.34,1.46-0.56,2.28-0.56c0.83,0,1.6,0.21,2.29,0.56v-2.46h-1.52h-1.82H217.93z"/>
	<path class="st4" d="M220.22,167.96v-15.32h-5.15v10.16C215.07,165.65,217.38,167.96,220.22,167.96z"/>
	<rect x="215.07" y="146.75" class="st4" width="5.15" height="4.37"/>
	<path class="st4" d="M220.22,139.01c-0.83,0-1.59,0.21-2.28,0.56c-0.5,0.25-0.96,0.56-1.36,0.95c-0.92,0.94-1.51,2.23-1.51,3.65
		v1.45h5.15V139.01z"/>
	<path class="st3" d="M228.37,170.02v-17.38v-1.52h-1.52h-1.48h-5.16h-5.15h-1.48h-1.52v1.52v17.38h-1.41v3.46h19.12v-3.46H228.37z
		 M226.85,170.02h-13.26v-17.38h1.48h5.15h5.16h1.48V170.02z"/>
	<polygon class="st5" points="229.78,173.48 210.66,173.48 207.34,173.48 207.34,179 236,179 236,173.48 233.96,173.48 
		232.6,173.48 	"/>
	<polygon class="st6" points="215.29,125.17 214.08,125.17 209.58,125.17 209.58,126.09 209.58,127.93 207.34,127.93 207.34,130.69 
		219.18,130.69 220.99,130.69 232.6,130.69 233.96,130.69 236,130.69 236,125.17 226.14,125.17 224.93,125.17 	"/>
	<polygon class="st2" points="145.76,113.84 145.76,116.71 149.4,116.71 149.4,110.2 132.93,110.2 132.93,113.84 	"/>
	<polygon class="st2" points="94.67,113.84 107.49,113.84 107.49,110.2 91.03,110.2 91.03,116.71 94.67,116.71 	"/>
	<rect x="116.86" y="110.2" class="st2" width="6.7" height="3.64"/>
	<polygon class="st7" points="107.49,121.86 116.86,121.86 116.86,113.84 116.86,110.2 116.86,106.79 107.49,106.79 107.49,110.2 
		107.49,113.84 	"/>
	<polygon class="st7" points="123.56,121.86 132.93,121.86 132.93,113.84 132.93,110.2 132.93,106.79 123.56,106.79 123.56,110.2 
		123.56,113.84 	"/>
	<rect x="28.8" y="126.09" class="st6" width="2.24" height="1.84"/>
	<rect x="28.8" y="126.09" class="st12" width="2.24" height="1.84"/>
	<rect x="31.04" y="126.09" class="st5" width="176.3" height="1.84"/>
	<rect x="31.04" y="126.09" class="st12" width="176.3" height="1.84"/>
	<rect x="207.34" y="126.09" class="st6" width="2.24" height="1.84"/>
	<rect x="207.34" y="126.09" class="st12" width="2.24" height="1.84"/>
	<polygon class="st13" points="207.34,126.09 209.58,126.09 209.58,125.17 209.58,121.86 199.95,121.86 141.38,121.86 
		132.93,121.86 123.56,121.86 116.86,121.86 107.49,121.86 99.05,121.86 40.47,121.86 28.8,121.86 28.8,125.17 28.8,126.09 
		31.04,126.09 	"/>
	<path class="st6" d="M220.11,118.16c-0.65,0-1.27,0.13-1.84,0.37c-1.75,0.72-2.98,2.44-2.98,4.45v0.99h9.64v-0.99
		c0-2.03-1.25-3.76-3.03-4.47C221.35,118.29,220.74,118.16,220.11,118.16L220.11,118.16z"/>
	<polygon class="st7" points="214.08,123.97 214.08,125.17 215.29,125.17 224.93,125.17 226.14,125.17 226.14,123.97 224.93,123.97 
		215.29,123.97 	"/>
	<rect x="77.65" y="154.14" class="st2" width="0.6" height="18.64"/>
	<rect x="96.9" y="154.14" class="st2" width="0.6" height="18.64"/>
	<rect x="87.8" y="154.14" class="st8" width="9.1" height="18.64"/>
	<rect x="78.25" y="154.14" class="st8" width="9.1" height="18.64"/>
	<rect x="87.35" y="154.14" class="st2" width="0.45" height="18.64"/>
	<rect x="76.3" y="151.43" class="st6" width="22.54" height="1.99"/>
	<polygon class="st14" points="87.35,154.14 87.8,154.14 96.9,154.14 97.5,154.14 99.52,154.14 99.52,152.42 98.84,151.43 
		98.84,153.42 76.3,153.42 76.99,154.14 77.65,154.14 78.25,154.14 	"/>
	<rect x="143.02" y="154.14" class="st2" width="0.6" height="18.64"/>
	<rect x="162.27" y="154.14" class="st2" width="0.6" height="18.64"/>
	<rect x="143.62" y="154.14" class="st8" width="9.1" height="18.64"/>
	<rect x="153.17" y="154.14" class="st8" width="9.1" height="18.64"/>
	<rect x="152.71" y="154.14" class="st2" width="0.45" height="18.64"/>
	<polygon class="st6" points="164.21,151.43 164.21,151.43 164.21,151.43 	"/>
	<rect x="141.67" y="151.43" class="st6" width="22.54" height="1.99"/>
	<polygon class="st14" points="152.71,154.14 153.17,154.14 162.27,154.14 162.87,154.14 164.89,154.14 164.89,152.42 
		164.21,151.43 164.21,151.43 164.21,153.42 141.67,153.42 142.35,154.14 143.02,154.14 143.62,154.14 	"/>
	<path class="st4" d="M225.37,162.8v-10.16h-5.16v15.32C223.06,167.96,225.37,165.65,225.37,162.8z"/>
	<path class="st15" d="M225.37,162.8v-10.16h-5.16v15.32C223.06,167.96,225.37,165.65,225.37,162.8z"/>
	<rect x="220.22" y="146.75" class="st4" width="5.16" height="4.37"/>
	<rect x="220.22" y="146.75" class="st15" width="5.16" height="4.37"/>
	<path class="st4" d="M220.22,145.61h5.16v-1.45c0-2.02-1.17-3.75-2.86-4.59c-0.69-0.35-1.47-0.56-2.29-0.56V145.61z"/>
	<path class="st15" d="M220.22,145.61h5.16v-1.45c0-2.02-1.17-3.75-2.86-4.59c-0.69-0.35-1.47-0.56-2.29-0.56V145.61z"/>
	<path class="st15" d="M20.16,167.55c-0.62,0.26-1.29,0.4-2,0.4c0,0-0.01,0-0.01,0v0C18.86,167.96,19.54,167.82,20.16,167.55z"/>
	<path class="st3" d="M20.16,139.42c-0.62-0.26-1.3-0.41-2.01-0.41v0c0,0,0.01,0,0.01,0C18.86,139.01,19.54,139.16,20.16,139.42z"/>
	<path class="st15" d="M20.16,139.42c-0.62-0.26-1.3-0.41-2.01-0.41v0c0,0,0.01,0,0.01,0C18.86,139.01,19.54,139.16,20.16,139.42z"
		/>
	<path class="st4" d="M18.15,167.96C18.15,167.96,18.15,167.96,18.15,167.96c0.72,0,1.39-0.14,2.01-0.4
		c1.85-0.78,3.15-2.62,3.15-4.75v-10.16h-5.16V167.96z"/>
	<path class="st15" d="M18.15,167.96C18.15,167.96,18.15,167.96,18.15,167.96c0.72,0,1.39-0.14,2.01-0.4
		c1.85-0.78,3.15-2.62,3.15-4.75v-10.16h-5.16V167.96z"/>
	<path class="st4" d="M18.16,139.01C18.15,139.01,18.15,139.01,18.16,139.01l-0.01,6.6h5.16v-1.45c0-0.26-0.02-0.52-0.06-0.77
		c-0.01-0.08-0.04-0.16-0.05-0.24c-0.03-0.16-0.06-0.32-0.11-0.47c-0.04-0.13-0.1-0.26-0.15-0.39c-0.04-0.09-0.07-0.19-0.11-0.28
		c-0.08-0.17-0.17-0.33-0.27-0.49c-0.02-0.04-0.04-0.08-0.07-0.11c-0.5-0.79-1.21-1.42-2.05-1.84c-0.1-0.05-0.19-0.11-0.29-0.15
		C19.54,139.16,18.86,139.01,18.16,139.01z"/>
	<path class="st15" d="M18.16,139.01C18.15,139.01,18.15,139.01,18.16,139.01l-0.01,6.6h5.16v-1.45c0-0.26-0.02-0.52-0.06-0.77
		c-0.01-0.08-0.04-0.16-0.05-0.24c-0.03-0.16-0.06-0.32-0.11-0.47c-0.04-0.13-0.1-0.26-0.15-0.39c-0.04-0.09-0.07-0.19-0.11-0.28
		c-0.08-0.17-0.17-0.33-0.27-0.49c-0.02-0.04-0.04-0.08-0.07-0.11c-0.5-0.79-1.21-1.42-2.05-1.84c-0.1-0.05-0.19-0.11-0.29-0.15
		C19.54,139.16,18.86,139.01,18.16,139.01z"/>
	<rect x="18.15" y="146.75" class="st4" width="5.16" height="4.37"/>
	<rect x="18.15" y="146.75" class="st15" width="5.16" height="4.37"/>
	<rect x="18.15" y="151.13" class="st3" width="5.16" height="1.52"/>
	<rect x="18.15" y="151.13" class="st15" width="5.16" height="1.52"/>
	<rect x="18.15" y="145.61" class="st3" width="5.16" height="1.14"/>
	<rect x="18.15" y="145.61" class="st15" width="5.16" height="1.14"/>
	<polygon class="st3" points="215.07,145.61 214.19,145.61 214.19,146.75 215.07,146.75 220.22,146.75 225.37,146.75 226.25,146.75 
		226.25,145.61 225.37,145.61 220.22,145.61 	"/>
	<polygon class="st6" points="117.4,106.79 117.4,104.81 106.95,104.81 106.95,106.79 107.49,106.79 116.86,106.79 	"/>
	<polygon class="st6" points="133.47,106.79 133.47,104.81 123.02,104.81 123.02,106.79 123.56,106.79 132.93,106.79 	"/>
</g>
</svg>
