<?xml version="1.0" encoding="utf-8"?>
<!-- Generator: Adobe Illustrator 23.0.3, SVG Export Plug-In . SVG Version: 6.00 Build 0)  -->
<svg version="1.1" id="Ebene_1" xmlns="http://www.w3.org/2000/svg" xmlns:xlink="http://www.w3.org/1999/xlink" x="0px" y="0px"
	 viewBox="0 0 240 240" style="enable-background:new 0 0 240 240;" xml:space="preserve">
<style type="text/css">
	.st0{fill:none;}
	.st1{fill:#D6E0DF;}
	.st2{fill:#9EA5A3;}
	.st3{fill:#E9F4F2;}
	.st4{fill:#CCD6D4;}
	.st5{fill:#69B9E8;}
	.st6{fill:#68B0E2;}
	.st7{fill:#303F4E;}
</style>
<g>
	<rect x="0" class="st0" width="240" height="240"/>
</g>
<g>
	<path class="st1" d="M121.38,26.85h6.11v29.13v1.58h-7.54v11.18h1.43h6.11V178h-7.44v7.1h31.36v3.94h-2.76v33.9h28.76V110.65v-8.95
		V70.99h-17.55v-8.95V28.65c0-9.19-7.45-16.65-16.65-16.65h-10.05h-13.2v14.85H121.38z M154.31,100.01V76.05h9.39h6.11v23.96v1.58
		h-15.5V100.01z M154.31,135.21v-23.96h9.39h6.11v23.96v1.58h-15.5V135.21z M154.31,170.42v-23.96h9.39h6.11v23.96V172h-15.5V170.42
		z M154.31,205.62v-23.96h9.39h6.11v23.96v1.58h-15.5V205.62z M133.16,55.98V26.85h9.39h6.11v29.13v1.58h-15.5V55.98z
		 M133.16,100.01V76.05h9.39h6.11v23.96v1.58h-15.5V100.01z M133.16,135.21v-23.96h9.39h6.11v23.96v1.58h-15.5V135.21z
		 M133.16,170.42v-23.96h9.39h6.11v23.96V172h-15.5V170.42z"/>
	<polygon class="st2" points="233.1,110.65 236,110.65 236,101.7 177.41,101.7 177.41,110.65 	"/>
	<polygon class="st2" points="62.08,101.7 3.49,101.7 3.49,110.65 6.39,110.65 62.08,110.65 	"/>
	<polygon class="st2" points="177.41,70.99 181.39,70.99 181.39,62.04 159.86,62.04 159.86,70.99 	"/>
	<polygon class="st2" points="79.64,62.04 58.1,62.04 58.1,70.99 62.08,70.99 79.64,70.99 	"/>
	<path class="st3" d="M62.08,110.65H6.39v112.29h55.69V110.65z M31.55,212.45v1.58h-15.5v-1.58v-23.96h9.39h6.11V212.45z
		 M31.55,177.25v1.58h-15.5v-1.58v-23.96h9.39h6.11V177.25z M31.55,142.05v1.58h-15.5v-1.58v-23.96h9.39h6.11V142.05z M53.82,212.45
		v1.58h-15.5v-1.58v-23.96h9.39h6.11V212.45z M53.82,177.25v1.58h-15.5v-1.58v-23.96h9.39h6.11V177.25z M53.82,142.05v1.58h-15.5
		v-1.58v-23.96h9.39h6.11V142.05z"/>
	<path class="st4" d="M177.41,110.65v112.29h55.69V110.65H177.41z M201.4,212.45v1.58h-15.5v-1.58v-23.96h9.39h6.11V212.45z
		 M201.4,177.25v1.58h-15.5v-1.58v-23.96h9.39h6.11V177.25z M201.4,142.05v1.58h-15.5v-1.58v-23.96h9.39h6.11V142.05z
		 M223.66,212.45v1.58h-15.5v-1.58v-23.96h9.39h6.11V212.45z M223.66,177.25v1.58h-15.5v-1.58v-23.96h9.39h6.11V177.25z
		 M223.66,142.05v1.58h-15.5v-1.58v-23.96h9.39h6.11V142.05z"/>
	<polygon class="st2" points="148.65,222.93 148.65,189.04 145.37,189.04 145.37,222.93 120.2,222.93 120.05,222.93 94.12,222.93 
		94.12,189.04 90.84,189.04 90.84,222.93 62.08,222.93 6.39,222.93 3.49,222.93 3.49,227.49 236,227.49 236,222.93 233.1,222.93 
		177.41,222.93 	"/>
	<path class="st3" d="M62.08,222.93h28.76v-33.9h-3.66v-3.94h30.66h2.21V178h-4.78H112V68.74h7.96V57.56H112v-1.58V26.85h7.96V12
		H96.28c-9.19,0-16.65,7.45-16.65,16.65v33.39v8.95H62.08v30.71v8.95V222.93z M90.84,55.98V26.85h9.39h6.11v29.13v1.58h-15.5V55.98z
		 M90.84,100.01V76.05h9.39h6.11v23.96v1.58h-15.5V100.01z M90.84,135.21v-23.96h9.39h6.11v23.96v1.58h-15.5V135.21z M90.84,170.42
		v-23.96h9.39h6.11v23.96V172h-15.5V170.42z M69.68,100.01V76.05h9.39h6.11v23.96v1.58h-15.5V100.01z M69.68,135.21v-23.96h9.39
		h6.11v23.96v1.58h-15.5V135.21z M69.68,170.42v-23.96h9.39h6.11v23.96V172h-15.5V170.42z M69.68,205.62v-23.96h9.39h6.11v23.96
		v1.58h-15.5V205.62z"/>
	<polygon class="st3" points="119.68,222.87 100.89,222.87 100.84,222.87 100.16,222.87 100.16,190.9 100.84,190.9 100.89,190.9 
		119.68,190.9 120.05,190.9 120.05,189.04 117.84,189.04 94.12,189.04 94.12,222.93 120.05,222.93 120.05,222.87 	"/>
	<polygon class="st1" points="120.05,190.9 120.42,190.9 138.52,190.9 139.26,190.9 139.26,222.87 138.52,222.87 120.42,222.87 
		120.05,222.87 120.05,222.93 120.2,222.93 145.37,222.93 145.37,189.04 120.05,189.04 	"/>
	<polygon class="st5" points="79.07,76.05 69.68,76.05 69.68,100.01 72.96,100.01 	"/>
	<polygon class="st6" points="85.18,100.01 85.18,76.05 79.07,76.05 72.96,100.01 	"/>
	<polygon class="st7" points="85.18,100.01 72.96,100.01 69.68,100.01 69.68,101.59 85.18,101.59 	"/>
	<polygon class="st5" points="100.23,76.05 90.84,76.05 90.84,100.01 94.12,100.01 	"/>
	<polygon class="st6" points="106.34,100.01 106.34,76.05 100.23,76.05 94.12,100.01 	"/>
	<polygon class="st7" points="106.34,100.01 94.12,100.01 90.84,100.01 90.84,101.59 106.34,101.59 	"/>
	<polygon class="st5" points="119.96,68.74 112,68.74 112,178 115.28,178 121.38,68.74 	"/>
	<polygon class="st6" points="127.49,68.74 121.38,68.74 115.28,178 120.05,178 127.49,178 	"/>
	<polygon class="st5" points="142.54,76.05 133.16,76.05 133.16,100.01 136.43,100.01 	"/>
	<polygon class="st6" points="148.65,100.01 148.65,76.05 142.54,76.05 136.43,100.01 	"/>
	<polygon class="st7" points="148.65,100.01 136.43,100.01 133.16,100.01 133.16,101.59 148.65,101.59 	"/>
	<polygon class="st5" points="100.23,26.85 90.84,26.85 90.84,55.98 94.12,55.98 	"/>
	<polygon class="st6" points="106.34,55.98 106.34,26.85 100.23,26.85 94.12,55.98 	"/>
	<polygon class="st7" points="106.34,55.98 94.12,55.98 90.84,55.98 90.84,57.56 106.34,57.56 	"/>
	<polygon class="st5" points="121.38,26.85 119.96,26.85 112,26.85 112,55.98 115.28,55.98 	"/>
	<polygon class="st6" points="127.49,55.98 127.49,26.85 121.38,26.85 115.28,55.98 	"/>
	<polygon class="st5" points="142.54,26.85 133.16,26.85 133.16,55.98 136.43,55.98 	"/>
	<polygon class="st6" points="148.65,55.98 148.65,26.85 142.54,26.85 136.43,55.98 	"/>
	<polygon class="st7" points="148.65,55.98 136.43,55.98 133.16,55.98 133.16,57.56 148.65,57.56 	"/>
	<polygon class="st7" points="127.49,55.98 115.28,55.98 112,55.98 112,57.56 119.96,57.56 127.49,57.56 	"/>
	<polygon class="st5" points="163.7,76.05 154.31,76.05 154.31,100.01 157.59,100.01 	"/>
	<polygon class="st6" points="169.81,100.01 169.81,76.05 163.7,76.05 157.59,100.01 	"/>
	<polygon class="st7" points="169.81,100.01 157.59,100.01 154.31,100.01 154.31,101.59 169.81,101.59 	"/>
	<polygon class="st5" points="79.07,111.25 69.68,111.25 69.68,135.21 72.96,135.21 	"/>
	<polygon class="st6" points="85.18,135.21 85.18,111.25 79.07,111.25 72.96,135.21 	"/>
	<polygon class="st7" points="85.18,135.21 72.96,135.21 69.68,135.21 69.68,136.79 85.18,136.79 	"/>
	<polygon class="st5" points="100.23,111.25 90.84,111.25 90.84,135.21 94.12,135.21 	"/>
	<polygon class="st6" points="106.34,135.21 106.34,111.25 100.23,111.25 94.12,135.21 	"/>
	<polygon class="st7" points="106.34,135.21 94.12,135.21 90.84,135.21 90.84,136.79 106.34,136.79 	"/>
	<polygon class="st5" points="142.54,111.25 133.16,111.25 133.16,135.21 136.43,135.21 	"/>
	<polygon class="st6" points="148.65,135.21 148.65,111.25 142.54,111.25 136.43,135.21 	"/>
	<polygon class="st7" points="148.65,135.21 136.43,135.21 133.16,135.21 133.16,136.79 148.65,136.79 	"/>
	<polygon class="st5" points="163.7,111.25 154.31,111.25 154.31,135.21 157.59,135.21 	"/>
	<polygon class="st6" points="169.81,135.21 169.81,111.25 163.7,111.25 157.59,135.21 	"/>
	<polygon class="st7" points="169.81,135.21 157.59,135.21 154.31,135.21 154.31,136.79 169.81,136.79 	"/>
	<polygon class="st5" points="79.07,146.46 69.68,146.46 69.68,170.42 72.96,170.42 	"/>
	<polygon class="st6" points="85.18,170.42 85.18,146.46 79.07,146.46 72.96,170.42 	"/>
	<polygon class="st7" points="85.18,170.42 72.96,170.42 69.68,170.42 69.68,172 85.18,172 	"/>
	<polygon class="st5" points="100.23,146.46 90.84,146.46 90.84,170.42 94.12,170.42 	"/>
	<polygon class="st6" points="106.34,170.42 106.34,146.46 100.23,146.46 94.12,170.42 	"/>
	<polygon class="st7" points="106.34,170.42 94.12,170.42 90.84,170.42 90.84,172 106.34,172 	"/>
	<polygon class="st5" points="142.54,146.46 133.16,146.46 133.16,170.42 136.43,170.42 	"/>
	<polygon class="st6" points="148.65,170.42 148.65,146.46 142.54,146.46 136.43,170.42 	"/>
	<polygon class="st7" points="148.65,170.42 136.43,170.42 133.16,170.42 133.16,172 148.65,172 	"/>
	<polygon class="st5" points="163.7,146.46 154.31,146.46 154.31,170.42 157.59,170.42 	"/>
	<polygon class="st6" points="169.81,170.42 169.81,146.46 163.7,146.46 157.59,170.42 	"/>
	<polygon class="st7" points="169.81,170.42 157.59,170.42 154.31,170.42 154.31,172 169.81,172 	"/>
	<polygon class="st5" points="79.07,181.66 69.68,181.66 69.68,205.62 72.96,205.62 	"/>
	<polygon class="st6" points="85.18,205.62 85.18,181.66 79.07,181.66 72.96,205.62 	"/>
	<polygon class="st7" points="85.18,205.62 72.96,205.62 69.68,205.62 69.68,207.2 85.18,207.2 	"/>
	<polygon class="st5" points="100.89,221 108.81,221 115.51,208.14 115.51,207.51 115.84,207.51 119.68,200.13 119.68,192.48 
		100.89,192.48 	"/>
	<polygon class="st5" points="120.42,192.48 120.42,198.71 123.67,192.48 	"/>
	<polygon class="st6" points="117.84,207.51 117.84,208.57 115.51,208.57 115.51,208.14 108.81,221 119.68,221 119.68,200.13 
		115.84,207.51 	"/>
	<path class="st6" d="M138.52,192.48h-14.86l-3.25,6.24V221h18.1V192.48z M124.59,208.57h-2.33v-1.07h2.33V208.57z"/>
	<path class="st7" d="M100.89,190.9h-0.05h-0.68v31.97h0.68h0.05h18.79h0.37h0.37h18.1h0.74V190.9h-0.74h-18.1h-0.37h-0.37H100.89z
		 M119.68,200.13V221h-10.87h-7.92v-28.53h18.79V200.13z M120.42,198.71v-6.24h3.25h14.86V221h-18.1V198.71z"/>
	<polygon class="st5" points="163.7,181.66 154.31,181.66 154.31,205.62 157.59,205.62 	"/>
	<polygon class="st6" points="169.81,205.62 169.81,181.66 163.7,181.66 157.59,205.62 	"/>
	<polygon class="st7" points="169.81,205.62 157.59,205.62 154.31,205.62 154.31,207.2 169.81,207.2 	"/>
	<polygon class="st7" points="117.84,208.57 117.84,207.51 115.84,207.51 115.51,207.51 115.51,208.14 115.51,208.57 	"/>
	<rect x="122.26" y="207.51" class="st7" width="2.33" height="1.07"/>
	<polygon class="st7" points="185.9,212.45 185.9,214.03 201.4,214.03 201.4,212.45 189.18,212.45 	"/>
	<polygon class="st5" points="47.71,118.08 38.32,118.08 38.32,142.05 41.6,142.05 	"/>
	<polygon class="st6" points="41.6,142.05 53.82,142.05 53.82,118.08 47.71,118.08 	"/>
	<polygon class="st7" points="38.32,142.05 38.32,143.63 53.82,143.63 53.82,142.05 41.6,142.05 	"/>
	<polygon class="st5" points="47.71,153.29 38.32,153.29 38.32,177.25 41.6,177.25 	"/>
	<polygon class="st6" points="41.6,177.25 53.82,177.25 53.82,153.29 47.71,153.29 	"/>
	<polygon class="st7" points="38.32,177.25 38.32,178.83 53.82,178.83 53.82,177.25 41.6,177.25 	"/>
	<polygon class="st5" points="47.71,188.49 38.32,188.49 38.32,212.45 41.6,212.45 	"/>
	<polygon class="st6" points="41.6,212.45 53.82,212.45 53.82,188.49 47.71,188.49 	"/>
	<polygon class="st7" points="38.32,212.45 38.32,214.03 53.82,214.03 53.82,212.45 41.6,212.45 	"/>
	<polygon class="st5" points="25.44,118.08 16.06,118.08 16.06,142.05 19.33,142.05 	"/>
	<polygon class="st6" points="19.33,142.05 31.55,142.05 31.55,118.08 25.44,118.08 	"/>
	<polygon class="st7" points="16.06,142.05 16.06,143.63 31.55,143.63 31.55,142.05 19.33,142.05 	"/>
	<polygon class="st5" points="25.44,153.29 16.06,153.29 16.06,177.25 19.33,177.25 	"/>
	<polygon class="st6" points="19.33,177.25 31.55,177.25 31.55,153.29 25.44,153.29 	"/>
	<polygon class="st7" points="16.06,177.25 16.06,178.83 31.55,178.83 31.55,177.25 19.33,177.25 	"/>
	<polygon class="st5" points="25.44,188.49 16.06,188.49 16.06,212.45 19.33,212.45 	"/>
	<polygon class="st6" points="19.33,212.45 31.55,212.45 31.55,188.49 25.44,188.49 	"/>
	<polygon class="st7" points="16.06,212.45 16.06,214.03 31.55,214.03 31.55,212.45 19.33,212.45 	"/>
	<polygon class="st5" points="217.55,118.08 208.16,118.08 208.16,142.05 211.44,142.05 	"/>
	<polygon class="st6" points="211.44,142.05 223.66,142.05 223.66,118.08 217.55,118.08 	"/>
	<polygon class="st7" points="208.16,142.05 208.16,143.63 223.66,143.63 223.66,142.05 211.44,142.05 	"/>
	<polygon class="st5" points="217.55,153.29 208.16,153.29 208.16,177.25 211.44,177.25 	"/>
	<polygon class="st6" points="211.44,177.25 223.66,177.25 223.66,153.29 217.55,153.29 	"/>
	<polygon class="st7" points="208.16,177.25 208.16,178.83 223.66,178.83 223.66,177.25 211.44,177.25 	"/>
	<polygon class="st5" points="217.55,188.49 208.16,188.49 208.16,212.45 211.44,212.45 	"/>
	<polygon class="st6" points="211.44,212.45 223.66,212.45 223.66,188.49 217.55,188.49 	"/>
	<polygon class="st7" points="208.16,212.45 208.16,214.03 223.66,214.03 223.66,212.45 211.44,212.45 	"/>
	<polygon class="st5" points="195.29,118.08 185.9,118.08 185.9,142.05 189.18,142.05 	"/>
	<polygon class="st6" points="189.18,142.05 201.4,142.05 201.4,118.08 195.29,118.08 	"/>
	<polygon class="st7" points="185.9,142.05 185.9,143.63 201.4,143.63 201.4,142.05 189.18,142.05 	"/>
	<polygon class="st5" points="195.29,153.29 185.9,153.29 185.9,177.25 189.18,177.25 	"/>
	<polygon class="st6" points="189.18,177.25 201.4,177.25 201.4,153.29 195.29,153.29 	"/>
	<polygon class="st7" points="185.9,177.25 185.9,178.83 201.4,178.83 201.4,177.25 189.18,177.25 	"/>
	<polygon class="st5" points="195.29,188.49 185.9,188.49 185.9,212.45 189.18,212.45 	"/>
	<polygon class="st6" points="189.18,212.45 201.4,212.45 201.4,188.49 195.29,188.49 	"/>
	<polygon class="st1" points="117.84,185.1 87.18,185.1 87.18,189.04 90.84,189.04 94.12,189.04 117.84,189.04 	"/>
	<polygon class="st2" points="151.41,185.1 120.05,185.1 117.84,185.1 117.84,189.04 120.05,189.04 145.37,189.04 148.65,189.04 
		151.41,189.04 	"/>
</g>
</svg>
