<?xml version="1.0" encoding="utf-8"?>
<!-- Generator: Adobe Illustrator 23.0.3, SVG Export Plug-In . SVG Version: 6.00 Build 0)  -->
<svg version="1.1" id="Ebene_1" xmlns="http://www.w3.org/2000/svg" xmlns:xlink="http://www.w3.org/1999/xlink" x="0px" y="0px"
	 viewBox="0 0 240 240" style="enable-background:new 0 0 240 240;" xml:space="preserve">
<style type="text/css">
	.st0{fill:none;}
	.st1{fill:#8FA3AD;}
	.st2{fill:#FBBD1D;}
	.st3{fill:#617D8A;}
	.st4{fill:#92C7ED;}
	.st5{fill:#D8DADA;}
	.st6{fill:#CBE5E9;}
	.st7{fill:#D9EDEF;}
	.st8{fill:#6FB0E1;}
	.st9{fill:#6E878D;}
	.st10{fill:#546E7B;}
	.st11{fill:#465A64;}
	.st12{fill:#549ED6;}
	.st13{fill:#FABF2C;}
	.st14{fill:#4D6569;}
	.st15{fill:#B8D3D7;}
	.st16{fill:#5E787C;}
</style>
<g>
	<rect x="0" class="st0" width="240" height="240"/>
</g>
<g>
	<polygon class="st0" points="108.23,105.63 102.48,105.63 103.03,110.32 108.23,110.32 	"/>
	<rect x="184.34" y="119.21" class="st0" width="3.73" height="13.47"/>
	<rect x="184.34" y="133.25" class="st0" width="3.73" height="13.76"/>
	<polygon class="st0" points="198.34,136.92 212.82,136.92 212.82,140.7 215.39,140.7 215.39,135.38 198.34,135.38 	"/>
	<rect x="184.34" y="147.58" class="st0" width="3.73" height="8.86"/>
	<rect x="109.8" y="105.63" class="st0" width="1.82" height="4.69"/>
	<rect x="43.74" y="73.5" class="st1" width="11.78" height="7.74"/>
	<polygon class="st1" points="55.51,96.37 55.51,88.27 43.74,88.27 43.74,91.2 49.81,96.37 	"/>
	<rect x="43.74" y="66.46" class="st2" width="11.78" height="7.03"/>
	<rect x="43.74" y="81.23" class="st2" width="11.78" height="7.03"/>
	<polygon class="st2" points="55.51,101.24 55.51,96.37 49.81,96.37 	"/>
	<rect x="116.28" y="114.33" class="st1" width="7.13" height="0"/>
	<rect x="111.63" y="88.27" class="st1" width="11.78" height="8.11"/>
	<polygon class="st1" points="123.4,104.62 123.4,103.41 111.63,103.41 111.63,104.62 114.99,104.62 	"/>
	<rect x="111.63" y="73.5" class="st1" width="11.78" height="7.74"/>
	<polygon class="st1" points="118.53,110.32 116.97,110.32 116.97,105.63 115.13,105.63 111.63,105.63 111.63,110.32 115.74,110.32 
		123.4,110.32 123.4,105.63 118.53,105.63 	"/>
	<rect x="111.63" y="66.46" class="st2" width="11.78" height="7.03"/>
	<rect x="111.63" y="81.23" class="st2" width="11.78" height="7.03"/>
	<rect x="111.63" y="96.37" class="st2" width="11.78" height="7.03"/>
	<polygon class="st3" points="115.13,105.63 116.97,105.63 116.97,110.32 118.53,110.32 118.53,105.63 123.4,105.63 125.69,105.63 
		125.69,110.32 127.26,110.32 127.26,105.63 134.42,105.63 134.42,110.32 135.98,110.32 135.98,105.63 143.15,105.63 143.15,110.32 
		144.71,110.32 144.71,105.63 151.88,105.63 151.88,110.32 153.44,110.32 153.44,105.63 160.6,105.63 160.6,110.32 162.17,110.32 
		162.17,105.63 169.33,105.63 169.33,110.32 170.89,110.32 170.89,105.63 178.06,105.63 178.06,110.32 179.62,110.32 179.62,105.63 
		186.79,105.63 186.79,110.32 188.35,110.32 188.35,105.11 188.35,105.11 188.35,104.62 123.4,104.62 114.99,104.62 	"/>
	<polygon class="st3" points="116.28,114.33 123.4,114.33 188.35,114.33 188.35,110.32 123.4,110.32 115.74,110.32 	"/>
	<path class="st4" d="M117.25,121.67h10.56v0.86v3.27H117.8l0.88,6.62l23.11,6.92v1.11l2.14,0.68v4.37l-2.14-0.87v21.86h42.55v-4.59
		v-0.57v-4.9v-8.86V147v-13.76v-0.57v-13.47v-0.57v-2.2h-67.78L117.25,121.67z M151.6,121.67h18.05v0.86v3.27h-17.2h-0.86V121.67z
		 M130.68,121.67h18.05v0.86v3.27h-17.2h-0.86V121.67z"/>
	<polygon class="st5" points="116.56,116.44 184.34,116.44 184.34,114.33 123.4,114.33 116.28,114.33 	"/>
	<polygon class="st6" points="152.46,122.53 152.46,125.6 165.9,122.53 	"/>
	<polygon class="st7" points="152.46,125.6 152.46,125.8 169.65,125.8 169.65,122.53 165.9,122.53 	"/>
	<polygon class="st6" points="152.46,122.53 165.9,122.53 169.65,121.67 151.6,121.67 151.6,125.8 152.46,125.6 	"/>
	<polygon class="st5" points="152.46,122.53 165.9,122.53 169.65,121.67 151.6,121.67 151.6,125.8 152.46,125.6 	"/>
	<polygon class="st7" points="152.46,125.6 151.6,125.8 152.46,125.8 	"/>
	<polygon class="st5" points="152.46,125.6 151.6,125.8 152.46,125.8 	"/>
	<polygon class="st7" points="169.65,122.53 169.65,121.67 165.9,122.53 	"/>
	<polygon class="st5" points="169.65,122.53 169.65,121.67 165.9,122.53 	"/>
	<polygon class="st8" points="141.79,179.25 141.79,185.03 143.93,185.03 143.93,189.99 141.28,189.99 141.28,189.99 184.34,189.99 
		184.34,179.25 	"/>
	<polygon class="st8" points="141.79,166.49 141.79,177.24 184.34,177.24 184.34,176.24 184.34,175.66 184.34,166.49 	"/>
	<rect x="141.79" y="177.24" class="st4" width="42.55" height="2.01"/>
	<polygon class="st6" points="131.54,122.53 131.54,125.6 144.97,122.53 	"/>
	<polygon class="st6" points="124.05,122.53 117.37,122.53 117.56,124.01 	"/>
	<polygon class="st7" points="131.54,125.6 131.54,125.8 148.73,125.8 148.73,122.53 144.97,122.53 	"/>
	<polygon class="st7" points="117.56,124.01 117.8,125.8 127.81,125.8 127.81,122.53 124.05,122.53 	"/>
	<polygon class="st6" points="124.05,122.53 127.81,121.67 117.25,121.67 117.37,122.53 	"/>
	<polygon class="st5" points="124.05,122.53 127.81,121.67 117.25,121.67 117.37,122.53 	"/>
	<polygon class="st7" points="127.81,122.53 127.81,121.67 124.05,122.53 	"/>
	<polygon class="st5" points="127.81,122.53 127.81,121.67 124.05,122.53 	"/>
	<polygon class="st6" points="131.54,122.53 144.97,122.53 148.73,121.67 130.68,121.67 130.68,125.8 131.54,125.6 	"/>
	<polygon class="st5" points="131.54,122.53 144.97,122.53 148.73,121.67 130.68,121.67 130.68,125.8 131.54,125.6 	"/>
	<polygon class="st7" points="148.73,122.53 148.73,121.67 144.97,122.53 	"/>
	<polygon class="st5" points="148.73,122.53 148.73,121.67 144.97,122.53 	"/>
	<polygon class="st7" points="131.54,125.6 130.68,125.8 131.54,125.8 	"/>
	<polygon class="st5" points="131.54,125.6 130.68,125.8 131.54,125.8 	"/>
	<rect x="103.5" y="114.33" class="st5" width="8.13" height="0"/>
	
		<rect x="111.63" y="114.33" transform="matrix(0.9919 -0.1272 0.1272 0.9919 -13.6138 15.4188)" class="st1" width="4.65" height="0"/>
	
		<rect x="111.63" y="114.33" transform="matrix(0.9919 -0.1272 0.1272 0.9919 -13.6138 15.4188)" class="st5" width="4.65" height="0"/>
	<polygon class="st3" points="108.23,105.63 108.23,110.32 103.03,110.32 103.5,114.33 111.63,114.33 116.28,114.33 115.74,110.32 
		111.63,110.32 109.8,110.32 109.8,105.63 111.63,105.63 115.13,105.63 114.99,104.62 111.63,104.62 102.36,104.62 102.48,105.63 	
		"/>
	<polygon class="st5" points="108.23,105.63 108.23,110.32 103.03,110.32 103.5,114.33 111.63,114.33 116.28,114.33 115.74,110.32 
		111.63,110.32 109.8,110.32 109.8,105.63 111.63,105.63 115.13,105.63 114.99,104.62 111.63,104.62 102.36,104.62 102.48,105.63 	
		"/>
	<polygon class="st4" points="110.62,125.8 109.76,125.8 109.76,121.67 117.25,121.67 116.56,116.44 103.75,116.44 105.15,128.36 
		118.68,132.42 117.8,125.8 	"/>
	<polygon class="st5" points="110.62,125.8 109.76,125.8 109.76,121.67 117.25,121.67 116.56,116.44 103.75,116.44 105.15,128.36 
		118.68,132.42 117.8,125.8 	"/>
	<polygon class="st4" points="141.79,144.64 143.93,145.5 143.93,141.13 141.79,140.45 141.79,142.93 140.28,142.48 140.28,144.49 
		140.28,166.49 141.79,166.49 	"/>
	<polygon class="st5" points="141.79,144.64 143.93,145.5 143.93,141.13 141.79,140.45 141.79,142.93 140.28,142.48 140.28,144.49 
		140.28,166.49 141.79,166.49 	"/>
	<polygon class="st5" points="116.28,114.33 111.63,114.33 103.5,114.33 103.75,116.44 116.56,116.44 	"/>
	<polygon class="st5" points="116.28,114.33 111.63,114.33 103.5,114.33 103.75,116.44 116.56,116.44 	"/>
	<rect x="140.28" y="166.49" class="st8" width="1.51" height="10.75"/>
	<rect x="140.28" y="166.49" class="st5" width="1.51" height="10.75"/>
	<polygon class="st8" points="140.28,183.69 141.28,183.69 141.28,189.99 143.93,189.99 143.93,185.03 141.79,185.03 141.79,179.25 
		140.28,179.25 	"/>
	<polygon class="st5" points="140.28,183.69 141.28,183.69 141.28,189.99 143.93,189.99 143.93,185.03 141.79,185.03 141.79,179.25 
		140.28,179.25 	"/>
	<rect x="140.28" y="177.24" class="st4" width="1.51" height="2.01"/>
	<rect x="140.28" y="177.24" class="st5" width="1.51" height="2.01"/>
	<polygon class="st6" points="117.37,122.53 110.62,122.53 110.62,125.6 117.56,124.01 	"/>
	<polygon class="st5" points="117.37,122.53 110.62,122.53 110.62,125.6 117.56,124.01 	"/>
	<polygon class="st7" points="110.62,125.6 110.62,125.8 117.8,125.8 117.56,124.01 	"/>
	<polygon class="st5" points="110.62,125.6 110.62,125.8 117.8,125.8 117.56,124.01 	"/>
	<polygon class="st6" points="109.76,125.8 110.62,125.6 110.62,122.53 117.37,122.53 117.25,121.67 109.76,121.67 	"/>
	<polygon class="st5" points="109.76,125.8 110.62,125.6 110.62,122.53 117.37,122.53 117.25,121.67 109.76,121.67 	"/>
	<polygon class="st5" points="109.76,125.8 110.62,125.6 110.62,122.53 117.37,122.53 117.25,121.67 109.76,121.67 	"/>
	<polygon class="st7" points="109.76,125.8 110.62,125.8 110.62,125.6 	"/>
	<polygon class="st5" points="109.76,125.8 110.62,125.8 110.62,125.6 	"/>
	<polygon class="st5" points="109.76,125.8 110.62,125.8 110.62,125.6 	"/>
	<path class="st2" d="M227.23,156.44h-25.74h-8.85v12.33h6.31v8.88h-6.31v12.33H235v-33.55H227.23z M213.95,177.66h-8.55v-8.88h8.55
		V177.66z M228.94,177.66h-8.55v-8.88h8.55V177.66z"/>
	<polygon class="st9" points="198.42,169.35 198.42,177.08 192.64,177.08 192.64,177.66 198.95,177.66 198.95,168.77 192.64,168.77 
		192.64,169.35 	"/>
	<polygon class="st6" points="192.64,169.35 192.64,175.32 198.42,169.35 	"/>
	<path class="st9" d="M205.39,177.66h8.55v-8.88h-8.55V177.66z M205.92,169.35h7.5v7.74h-7.5V169.35z"/>
	<polygon class="st6" points="205.92,169.35 205.92,177.08 213.42,169.35 	"/>
	<path class="st9" d="M220.38,177.66h8.55v-8.88h-8.55V177.66z M220.91,169.35h7.5v7.74h-7.5V169.35z"/>
	<polygon class="st6" points="220.91,169.35 220.91,177.08 228.41,169.35 	"/>
	<polygon class="st7" points="198.42,169.35 192.64,175.32 192.64,177.08 198.42,177.08 	"/>
	<polygon class="st7" points="213.42,169.35 205.92,177.08 213.42,177.08 	"/>
	<polygon class="st7" points="228.41,169.35 220.91,177.08 228.41,177.08 	"/>
	<polygon class="st5" points="184.34,175.66 188.06,175.66 188.06,161.91 184.34,161.91 184.34,166.49 	"/>
	<rect x="184.34" y="156.44" class="st5" width="3.73" height="4.9"/>
	<polygon class="st5" points="184.34,176.24 184.34,177.24 184.34,179.25 184.34,189.99 188.06,189.99 188.06,176.24 	"/>
	<polygon class="st5" points="192.64,177.08 192.64,175.32 192.64,169.35 192.64,168.77 192.64,156.44 188.64,156.44 188.64,189.99 
		192.64,189.99 192.64,177.66 	"/>
	<polygon class="st10" points="83.58,121.9 83.58,56.33 70.45,56.33 64.3,108.73 77.65,120.12 	"/>
	<polygon class="st11" points="83.58,121.9 105.15,128.36 103.75,116.44 103.5,114.33 103.5,114.33 103.03,110.32 102.48,105.63 
		102.36,104.62 96.69,56.33 83.58,56.33 	"/>
	<path class="st12" d="M108.52,183.69v-25.36h17.03v25.36h3.63h11.11v-4.44v-2.01v-10.75v-22.01l-64.3-19.27l-0.28-0.24L26.87,83.34
		v38.32h-0.01v62.02h78.03H108.52z M108.52,150.01h17.03v7.43h-17.03V150.01z M45.9,177.81h-9.27v-8.88h9.27V177.81z M45.9,161.48
		h-9.27v-8.88h9.27V161.48z M45.9,145.14h-9.27v-8.88h9.27V145.14z M62.14,177.81h-9.27v-8.88h9.27V177.81z M62.14,161.48h-9.27
		v-8.88h9.27V161.48z M62.14,145.14h-9.27v-8.88h9.27V145.14z M78.38,177.81h-9.27v-8.88h9.27V177.81z M78.38,161.48h-9.27v-8.88
		h9.27V161.48z M78.38,145.14h-9.27v-8.88h9.27V145.14z M94.62,177.81h-9.27v-8.88h9.27V177.81z M94.62,161.48h-9.27v-8.88h9.27
		V161.48z M94.62,145.14h-9.27v-8.88h9.27V145.14z"/>
	<polygon class="st10" points="16.99,143.57 26.86,143.57 26.86,132.1 5.52,132.1 5.52,182.94 16.99,182.94 	"/>
	<polygon class="st3" points="188.64,118.63 184.34,118.63 184.34,119.21 188.06,119.21 188.06,132.68 184.34,132.68 184.34,133.25 
		188.06,133.25 188.06,147 184.34,147 184.34,147.58 188.06,147.58 188.06,156.44 188.06,161.33 184.34,161.33 184.34,161.91 
		188.06,161.91 188.06,175.66 184.34,175.66 184.34,176.24 188.06,176.24 188.06,189.99 188.64,189.99 188.64,156.44 	"/>
	<path class="st9" d="M36.64,177.81h9.27v-8.88h-9.27V177.81z M37.21,169.5h8.12v7.74h-8.12V169.5z"/>
	<polygon class="st6" points="37.21,169.5 37.21,177.24 45.33,169.5 	"/>
	<path class="st9" d="M52.88,177.81h9.27v-8.88h-9.27V177.81z M53.45,169.5h8.12v7.74h-8.12V169.5z"/>
	<polygon class="st6" points="53.45,169.5 53.45,177.24 61.57,169.5 	"/>
	<path class="st9" d="M69.12,177.81h9.27v-8.88h-9.27V177.81z M69.69,169.5h8.12v7.74h-8.12V169.5z"/>
	<polygon class="st6" points="69.69,169.5 69.69,177.24 77.81,169.5 	"/>
	<path class="st9" d="M85.36,177.81h9.27v-8.88h-9.27V177.81z M85.93,169.5h8.12v7.74h-8.12V169.5z"/>
	<polygon class="st6" points="85.93,169.5 85.93,177.24 94.05,169.5 	"/>
	<path class="st9" d="M36.64,161.48h9.27v-8.88h-9.27V161.48z M37.21,153.17h8.12v7.74h-8.12V153.17z"/>
	<polygon class="st6" points="37.21,153.17 37.21,160.9 45.33,153.17 	"/>
	<path class="st9" d="M52.88,161.48h9.27v-8.88h-9.27V161.48z M53.45,153.17h8.12v7.74h-8.12V153.17z"/>
	<polygon class="st6" points="53.45,153.17 53.45,160.9 61.57,153.17 	"/>
	<path class="st9" d="M69.12,161.48h9.27v-8.88h-9.27V161.48z M69.69,153.17h8.12v7.74h-8.12V153.17z"/>
	<polygon class="st6" points="69.69,153.17 69.69,160.9 77.81,153.17 	"/>
	<path class="st9" d="M85.36,161.48h9.27v-8.88h-9.27V161.48z M85.93,153.17h8.12v7.74h-8.12V153.17z"/>
	<polygon class="st6" points="85.93,153.17 85.93,160.9 94.05,153.17 	"/>
	<path class="st9" d="M36.64,145.14h9.27v-8.88h-9.27V145.14z M37.21,136.83h8.12v7.74h-8.12V136.83z"/>
	<polygon class="st6" points="37.21,136.83 37.21,144.57 45.33,136.83 	"/>
	<path class="st9" d="M52.88,145.14h9.27v-8.88h-9.27V145.14z M53.45,136.83h8.12v7.74h-8.12V136.83z"/>
	<polygon class="st6" points="53.45,136.83 53.45,144.57 61.57,136.83 	"/>
	<path class="st9" d="M69.12,145.14h9.27v-8.88h-9.27V145.14z M69.69,136.83h8.12v7.74h-8.12V136.83z"/>
	<polygon class="st6" points="69.69,136.83 69.69,144.57 77.81,136.83 	"/>
	<path class="st9" d="M85.36,145.14h9.27v-8.88h-9.27V145.14z M85.93,136.83h8.12v7.74h-8.12V136.83z"/>
	<polygon class="st6" points="85.93,136.83 85.93,144.57 94.05,136.83 	"/>
	<polygon class="st13" points="141.28,183.69 140.28,183.69 129.17,183.69 129.17,186.84 131.32,186.84 131.32,189.99 
		140.28,189.99 141.28,189.99 141.28,189.99 	"/>
	<polygon class="st13" points="104.89,186.84 104.89,183.69 26.87,183.69 25.86,183.69 25.86,189.99 26.87,189.99 95.07,189.99 
		102.74,189.99 102.74,186.84 	"/>
	<polygon class="st14" points="108.52,158.32 108.52,183.69 109.42,183.69 109.42,159.53 109.42,159.53 116.82,159.53 
		117.24,159.53 124.64,159.53 124.64,159.53 124.64,160.68 124.64,183.69 125.54,183.69 125.54,158.32 	"/>
	<rect x="110.57" y="160.68" class="st1" width="6.25" height="23.01"/>
	<rect x="117.24" y="160.68" class="st1" width="7.4" height="23.01"/>
	<path class="st14" d="M125.54,150.01h-17.03v7.43h17.03V150.01z M124.64,152.16v4.28h-14.07h-1.15v-5.42h15.22V152.16z"/>
	<polygon class="st6" points="110.57,152.16 110.57,156.03 121.42,152.16 	"/>
	<polygon class="st7" points="45.33,169.5 37.21,177.24 45.33,177.24 	"/>
	<polygon class="st7" points="61.57,169.5 53.45,177.24 61.57,177.24 	"/>
	<polygon class="st7" points="77.81,169.5 69.69,177.24 77.81,177.24 	"/>
	<polygon class="st7" points="94.05,169.5 85.93,177.24 94.05,177.24 	"/>
	<polygon class="st7" points="45.33,153.17 37.21,160.9 45.33,160.9 	"/>
	<polygon class="st7" points="61.57,153.17 53.45,160.9 61.57,160.9 	"/>
	<polygon class="st7" points="77.81,153.17 69.69,160.9 77.81,160.9 	"/>
	<polygon class="st7" points="94.05,153.17 85.93,160.9 94.05,160.9 	"/>
	<polygon class="st7" points="45.33,136.83 37.21,144.57 45.33,144.57 	"/>
	<polygon class="st7" points="61.57,136.83 53.45,144.57 61.57,144.57 	"/>
	<polygon class="st7" points="77.81,136.83 69.69,144.57 77.81,144.57 	"/>
	<polygon class="st7" points="94.05,136.83 85.93,144.57 94.05,144.57 	"/>
	<polygon class="st7" points="110.57,156.03 110.57,156.44 124.64,156.44 124.64,152.16 121.42,152.16 	"/>
	<rect x="109.42" y="159.53" class="st14" width="7.4" height="0"/>
	<rect x="109.42" y="159.53" class="st5" width="7.4" height="0"/>
	<rect x="117.24" y="159.53" class="st14" width="7.4" height="0"/>
	<rect x="117.24" y="159.53" class="st5" width="7.4" height="0"/>
	<rect x="117.24" y="159.53" class="st1" width="7.4" height="1.15"/>
	<rect x="117.24" y="159.53" class="st5" width="7.4" height="1.15"/>
	<polygon class="st1" points="116.82,160.68 116.82,159.53 109.42,159.53 109.42,183.69 110.57,183.69 110.57,160.68 	"/>
	<polygon class="st5" points="116.82,160.68 116.82,159.53 109.42,159.53 109.42,183.69 110.57,183.69 110.57,160.68 	"/>
	<polygon class="st15" points="109.42,156.44 110.57,156.44 110.57,156.03 110.57,152.16 121.42,152.16 124.64,152.16 
		124.64,151.02 109.42,151.02 	"/>
	<polygon class="st3" points="129.17,186.84 129.17,183.69 125.54,183.69 124.64,183.69 117.24,183.69 116.82,183.69 110.57,183.69 
		109.42,183.69 108.52,183.69 104.89,183.69 104.89,186.84 102.74,186.84 102.74,189.99 131.32,189.99 131.32,186.84 	"/>
	<polygon class="st4" points="96.69,56.33 98.14,56.33 98.14,49.88 69.01,49.88 69.01,56.33 70.45,56.33 83.58,56.33 	"/>
	<polygon class="st12" points="75.97,125.22 140.28,144.49 140.28,142.48 75.97,123.21 75.7,122.97 26.87,81.34 26.87,83.34 
		75.7,124.98 	"/>
	<polygon class="st5" points="75.97,125.22 140.28,144.49 140.28,142.48 75.97,123.21 75.7,122.97 26.87,81.34 26.87,83.34 
		75.7,124.98 	"/>
	<polygon class="st13" points="75.97,123.21 140.28,142.48 141.79,142.93 141.79,140.45 141.79,139.34 118.68,132.42 105.15,128.36 
		83.58,121.9 77.65,120.12 64.3,108.73 55.51,101.24 49.81,96.37 43.74,91.2 25.99,76.06 25.86,76.2 25.86,80.47 26.87,81.34 
		75.7,122.97 	"/>
	<polygon class="st16" points="117.24,159.53 117.24,159.53 116.82,159.53 116.82,159.53 116.82,160.68 116.82,183.69 
		117.24,183.69 117.24,160.68 	"/>
	<path class="st10" d="M219.36,148.57h-10c-4.35,0-7.87,3.52-7.87,7.87h25.74C227.23,152.09,223.71,148.57,219.36,148.57z"/>
	<path class="st11" d="M219.7,148.57v-7.87h-2.92v-6.72h-19.85v2.94h-3.97v19.51h1.4v-18.11h2.57v18.11h1.4v-18.11h13.08v2.37h-2.4
		v7.87h0.34h10H219.7z M215.39,140.7h-2.57v-3.78h-14.48v-1.54h17.05V140.7z"/>
	<polygon class="st13" points="5.52,182.94 3,182.94 3,189.99 5.52,189.99 16.99,189.99 19.05,189.99 19.05,182.94 16.99,182.94 	
		"/>
</g>
</svg>
