<?xml version="1.0" encoding="utf-8"?>
<!-- Generator: Adobe Illustrator 23.0.3, SVG Export Plug-In . SVG Version: 6.00 Build 0)  -->
<svg version="1.1" id="Ebene_1" xmlns="http://www.w3.org/2000/svg" xmlns:xlink="http://www.w3.org/1999/xlink" x="0px" y="0px"
	 viewBox="0 0 240 240" style="enable-background:new 0 0 240 240;" xml:space="preserve">
<style type="text/css">
	.st0{fill:none;}
	.st1{fill:#617D8A;}
	.st2{fill:#546E7B;}
	.st3{fill:#424242;}
	.st4{fill:#549ED6;}
	.st5{fill:#D6DDE1;}
	.st6{fill:#92C7ED;}
	.st7{fill:#6FB0E1;}
	.st8{fill:#FBBD1D;}
	.st9{fill:#E2F1FC;}
	.st10{fill:#CBE5E9;}
	.st11{fill:#D9EDEF;}
</style>
<g>
	<rect x="0" class="st0" width="240" height="240"/>
</g>
<g>
	<polygon class="st0" points="172.47,87.77 172.47,85.02 176.4,85.02 176.4,80.75 159.11,80.75 159.11,94.28 162.87,94.28 
		162.87,97.02 161.66,97.02 161.66,101.57 168.89,101.57 168.89,87.77 	"/>
	<polygon class="st1" points="145.95,101.57 145.95,101.57 142.51,62.46 142.51,62.46 	"/>
	<polygon class="st1" points="123.55,62.46 104.45,62.46 98.85,126.09 123.55,126.09 	"/>
	<polygon class="st1" points="51.34,88.79 51.57,96.69 51.96,110.13 52.42,126.09 52.88,141.79 52.88,141.79 54.42,141.79 
		54.42,149.66 59.5,149.66 59.5,126.09 66.39,126.09 66.39,62.46 47.29,62.46 45.88,78.5 51.04,78.5 	"/>
	<path class="st1" d="M59.5,184.35v-29.13h-52v29.13h29.07l0,0h29.82v0H59.5z M47.42,175.76H19.58v-5.47h27.84V175.76z
		 M47.42,163.73H19.58v-5.47h27.84V163.73z"/>
	<rect x="66.39" y="184.35" class="st2" width="0.27" height="0"/>
	<polygon class="st2" points="66.39,126.09 90.96,126.09 85.36,62.46 66.39,62.46 	"/>
	<polygon class="st2" points="127.14,184.35 123.55,184.35 123.55,184.35 153.23,184.35 153.23,184.35 129.05,184.35 	"/>
	<polygon class="st2" points="123.55,62.46 123.55,126.09 127.14,126.09 127.14,107.76 127.14,105.35 125.17,105.35 125.17,101.57 
		145.95,101.57 142.51,62.46 	"/>
	<polygon class="st3" points="142.51,62.46 142.51,62.46 145.03,62.46 145.03,55.94 101.93,55.94 101.93,62.46 104.45,62.46 
		123.55,62.46 	"/>
	<path class="st4" d="M127.14,176v-49.9h-3.59h-24.7h-7.89H66.39H59.5v23.57v3.39v2.16v29.13h6.89h0.27v-30h-1.8v-1.28v-2.12v-1.28
		h56.91v1.28v2.12v1.28h-1.8v30h3.57h3.59V176z M86.7,145.73H66.66v-3.94H86.7V145.73z M86.7,137.07H66.66v-3.94H86.7V137.07z
		 M119.98,145.73H99.94v-3.94h20.04V145.73z M119.98,137.07H99.94v-3.94h20.04V137.07z"/>
	<rect x="7.5" y="153.06" class="st1" width="52" height="2.16"/>
	<rect x="7.5" y="153.06" class="st5" width="52" height="2.16"/>
	<path class="st6" d="M127.14,126.09l1.91,3.79V176h104.99v-68.24h-106.9V126.09z M135.94,110.66h89.29v6.47h-89.29V110.66z
		 M135.94,119.64h89.29v6.47h-89.29V119.64z M135.94,128.62h89.29v6.47h-89.29V128.62z M135.94,137.6h89.29v6.47h-89.29V137.6z
		 M135.94,146.58h89.29v6.47h-89.29V146.58z M135.94,155.56h89.29v6.47h-89.29V155.56z M135.94,164.54h89.29v6.47h-89.29V164.54z"/>
	<rect x="127.14" y="105.35" class="st6" width="106.9" height="2.41"/>
	<rect x="127.14" y="105.35" class="st5" width="106.9" height="2.41"/>
	<polygon class="st7" points="129.05,184.35 153.23,184.35 153.23,184.35 234.03,184.35 234.03,176 129.05,176 	"/>
	<polygon class="st3" points="228.28,101.57 168.89,101.57 161.66,101.57 151.31,101.57 145.95,101.57 145.95,101.57 125.17,101.57 
		125.17,105.35 127.14,105.35 234.03,105.35 236,105.35 236,101.57 	"/>
	<polygon class="st8" points="30.65,141.79 30.19,126.09 13.46,126.09 13,141.79 13,141.79 30.65,141.79 	"/>
	<polygon class="st8" points="28.81,78.5 14.84,78.5 14.54,88.79 29.11,88.79 	"/>
	<polygon class="st8" points="29.34,96.69 14.31,96.69 13.92,110.13 29.73,110.13 	"/>
	<polygon class="st2" points="30.88,149.66 32.19,149.66 32.19,141.79 30.65,141.79 13,141.79 11.46,141.79 11.46,149.66 
		12.77,149.66 	"/>
	<polygon class="st8" points="51.04,78.5 45.88,78.5 37.07,78.5 36.77,88.79 51.34,88.79 	"/>
	<polygon class="st8" points="52.88,141.79 52.42,126.09 35.69,126.09 35.23,141.79 35.23,141.79 52.88,141.79 	"/>
	<polygon class="st8" points="51.57,96.69 36.54,96.69 36.15,110.13 51.96,110.13 	"/>
	<polygon class="st2" points="53.11,149.66 54.42,149.66 54.42,141.79 52.88,141.79 35.23,141.79 33.69,141.79 33.69,149.66 
		35.01,149.66 	"/>
	<polygon class="st3" points="85.36,62.46 87.88,62.46 87.88,55.94 44.78,55.94 44.78,62.46 47.29,62.46 66.39,62.46 	"/>
	<polygon class="st9" points="29.11,88.79 14.54,88.79 14.31,96.69 29.34,96.69 	"/>
	<polygon class="st9" points="51.34,88.79 36.77,88.79 36.54,96.69 51.57,96.69 	"/>
	<polygon class="st9" points="29.73,110.13 13.92,110.13 13.46,126.09 30.19,126.09 	"/>
	<polygon class="st9" points="51.96,110.13 36.15,110.13 35.69,126.09 52.42,126.09 	"/>
	<polygon class="st3" points="66.66,154.35 66.66,184.35 66.66,184.35 96.08,184.35 119.98,184.35 119.98,184.35 119.98,154.35 	"/>
	<polygon class="st5" points="121.78,154.35 121.78,153.07 119.98,153.07 66.66,153.07 64.86,153.07 64.86,154.35 66.66,154.35 
		119.98,154.35 	"/>
	<polygon class="st8" points="119.98,153.07 121.78,153.07 121.78,150.95 121.78,149.66 64.86,149.66 64.86,150.95 64.86,153.07 
		66.66,153.07 	"/>
	<polygon class="st10" points="135.94,110.66 135.94,117.14 225.23,110.66 	"/>
	<polygon class="st10" points="135.94,119.64 135.94,126.12 225.23,119.64 	"/>
	<polygon class="st10" points="135.94,128.62 135.94,135.1 225.23,128.62 	"/>
	<polygon class="st10" points="135.94,137.6 135.94,144.08 225.23,137.6 	"/>
	<polygon class="st10" points="135.94,146.58 135.94,153.06 225.23,146.58 	"/>
	<polygon class="st10" points="135.94,164.54 135.94,171.02 225.23,164.54 	"/>
	<polygon class="st10" points="135.94,155.56 135.94,162.04 225.23,155.56 	"/>
	<polygon class="st11" points="225.23,110.66 135.94,117.14 225.23,117.14 	"/>
	<polygon class="st11" points="225.23,119.64 135.94,126.12 225.23,126.12 	"/>
	<polygon class="st11" points="225.23,128.62 135.94,135.1 225.23,135.1 	"/>
	<polygon class="st11" points="225.23,137.6 135.94,144.08 225.23,144.08 	"/>
	<polygon class="st11" points="225.23,146.58 135.94,153.06 225.23,153.06 	"/>
	<polygon class="st11" points="225.23,164.54 135.94,171.02 225.23,171.02 	"/>
	<polygon class="st11" points="225.23,155.56 135.94,162.04 225.23,162.04 	"/>
	<polygon class="st10" points="66.66,145.73 86.7,141.79 66.66,141.79 	"/>
	<polygon class="st10" points="66.66,137.07 86.7,133.13 66.66,133.13 	"/>
	<polygon class="st10" points="99.94,145.73 119.98,141.79 99.94,141.79 	"/>
	<polygon class="st10" points="99.94,137.07 119.98,133.13 99.94,133.13 	"/>
	<polygon class="st11" points="86.7,145.73 86.7,141.79 66.66,145.73 	"/>
	<polygon class="st11" points="86.7,137.07 86.7,133.13 66.66,137.07 	"/>
	<polygon class="st10" points="19.58,175.76 47.42,170.29 19.58,170.29 	"/>
	<polygon class="st10" points="19.58,163.73 47.42,158.26 19.58,158.26 	"/>
	<polygon class="st11" points="47.42,175.76 47.42,170.29 19.58,175.76 	"/>
	<polygon class="st11" points="47.42,163.73 47.42,158.26 19.58,163.73 	"/>
	<polygon class="st11" points="119.98,145.73 119.98,141.79 99.94,145.73 	"/>
	<polygon class="st11" points="119.98,137.07 119.98,133.13 99.94,137.07 	"/>
	<polygon class="st4" points="176.4,87.77 172.47,87.77 168.89,87.77 168.89,101.57 228.28,101.57 228.28,87.77 185.25,87.77 
		181.42,87.77 	"/>
	<rect x="151.31" y="97.02" class="st4" width="10.35" height="4.55"/>
	<polygon class="st8" points="162.87,97.02 162.87,94.28 159.11,94.28 159.11,94.67 154.1,94.67 154.1,94.28 150.09,94.28 
		150.09,97.02 151.31,97.02 161.66,97.02 	"/>
	<polygon class="st3" points="159.11,94.67 159.11,94.28 159.11,80.75 176.4,80.75 176.4,85.02 181.42,85.02 181.42,75.74 
		154.1,75.74 154.1,94.28 154.1,94.67 	"/>
	<polygon class="st8" points="172.47,85.02 172.47,87.77 176.4,87.77 181.42,87.77 185.25,87.77 185.25,85.02 181.42,85.02 
		176.4,85.02 	"/>
	<polygon class="st5" points="127.14,184.35 129.05,184.35 129.05,176 129.05,129.88 127.14,126.09 127.14,176 	"/>
	<polygon class="st3" points="59.5,149.66 54.42,149.66 53.11,149.66 35.01,149.66 33.69,149.66 32.19,149.66 30.88,149.66 
		12.77,149.66 11.46,149.66 7.5,149.66 6,149.66 6,153.06 7.5,153.06 59.5,153.06 	"/>
</g>
</svg>
