<?xml version="1.0" encoding="utf-8"?>
<!-- Generator: Adobe Illustrator 23.0.3, SVG Export Plug-In . SVG Version: 6.00 Build 0)  -->
<svg version="1.1" id="Ebene_1" xmlns="http://www.w3.org/2000/svg" xmlns:xlink="http://www.w3.org/1999/xlink" x="0px" y="0px"
	 viewBox="0 0 240 240" style="enable-background:new 0 0 240 240;" xml:space="preserve">
<style type="text/css">
	.st0{fill:none;}
	.st1{fill:#85A0A7;}
	.st2{fill:#EF7F1E;}
	.st3{fill:#FABF2C;}
	.st4{fill:#AEBDC4;}
	.st5{fill:#8FA3AD;}
	.st6{fill:#009587;}
	.st7{fill:#4EB5AB;}
	.st8{fill:#CBE5E9;}
	.st9{fill:#20A599;}
	.st10{fill:#617D8A;}
	.st11{fill:#DEEDEE;}
	.st12{fill:#D6DDE1;}
</style>
<g>
	<rect x="0" class="st0" width="240" height="240"/>
</g>
<g>
	<rect x="180.02" y="125.83" class="st0" width="17.43" height="4.5"/>
	<path class="st0" d="M218.43,149.38h1.93v-15.17h-19.03v7.64h2.63v5.95c4.5,1.27,8.22,4.37,10.32,8.45
		c1.25-0.88,2.64-1.55,4.15-1.97V149.38z"/>
	<path class="st1" d="M218.43,149.38v4.9c1.2-0.34,2.46-0.53,3.76-0.53h0.09c1.28,0.01,2.51,0.2,3.68,0.53v-4.9h-1.72h-3.88H218.43z
		"/>
	<rect x="216.15" y="174.04" class="st2" width="6.13" height="10.51"/>
	<path class="st2" d="M222.28,153.75h-0.09c-1.31,0-2.56,0.19-3.76,0.53c-1.5,0.43-2.9,1.1-4.15,1.97c1.16,2.25,1.83,4.78,1.86,7.48
		h6.14V153.75z"/>
	<rect x="216.15" y="167.99" class="st2" width="6.13" height="1.81"/>
	<path class="st3" d="M235.99,167.99L235.99,167.99l0.01-0.43c0-0.8-0.08-1.57-0.21-2.33c0.13,0.76,0.2,1.53,0.2,2.33V167.99z"/>
	<path class="st3" d="M216.14,163.74c0,0.06,0.01,0.12,0.01,0.18v4.07h6.13v-4.25H216.14z"/>
	<rect x="235.99" y="169.79" class="st3" width="0.01" height="4.25"/>
	<rect x="216.15" y="169.79" class="st3" width="6.13" height="4.25"/>
	<polygon class="st4" points="95.26,148.36 95.26,107.64 103.76,107.64 103.76,62.71 85.89,62.71 75.45,132.57 78.64,132.57 	"/>
	<polygon class="st5" points="103.76,107.64 128.34,107.64 121.62,62.71 103.76,62.71 	"/>
	<polygon class="st2" points="20.27,113.46 11.48,113.46 11.48,122.67 20.27,128.77 	"/>
	<polygon class="st2" points="40.03,113.46 31.24,113.46 31.24,122.67 40.03,128.77 	"/>
	<polygon class="st2" points="60.28,113.46 51.49,113.46 51.49,122.67 60.28,128.77 	"/>
	<path class="st6" d="M180.02,125.83h-3.76v-3.88h3.76v-14.31h-51.68h-24.58h-8.49v40.72v27.7v8.5h84.76v-50.35v-3.88V125.83z
		 M159.09,113.51h19.94v7.48h-19.94V113.51z M116.19,147.02H96.26v-7.48h19.94V147.02z M116.19,134.01H96.26v-7.48h19.94V134.01z
		 M116.19,120.99H96.26v-7.48h19.94V120.99z M137.14,147.02H117.2v-7.48h19.94V147.02z M137.14,134.01H117.2v-7.48h19.94V134.01z
		 M137.14,120.99H117.2v-7.48h19.94V120.99z M158.09,147.02h-19.94v-7.48h19.94V147.02z M158.09,134.01h-19.94v-7.48h19.94V134.01z
		 M158.09,120.99h-19.94v-7.48h19.94V120.99z M179.03,147.02h-19.94v-7.48h19.94V147.02z M179.03,134.01h-19.94v-7.48h19.94V134.01z
		"/>
	<path class="st7" d="M95.26,148.36l-16.62-15.79h-3.2h-9.68l-5.48-3.8l-8.79-6.1l-5.48-3.8v13.71h-0.5l-5.48-3.8l-8.79-6.1
		l-5.48-3.8v13.71l-5.48-3.8l-8.79-6.1L6,118.86v13.71v43.49h89.26V148.36z M28.02,162.82H7v-7.48h21.02V162.82z M50.1,162.82H29.08
		v-7.48H50.1V162.82z M72.18,162.82H51.16v-7.48h21.02V162.82z M94.26,162.82H73.24v-7.48h21.02V162.82z"/>
	<polygon class="st8" points="7,162.82 28.02,155.34 7,155.34 	"/>
	<polygon class="st8" points="29.08,162.82 50.1,155.34 29.08,155.34 	"/>
	<polygon class="st8" points="51.16,162.82 72.18,155.34 51.16,155.34 	"/>
	<polygon class="st8" points="73.24,162.82 94.26,155.34 73.24,155.34 	"/>
	<rect x="6" y="176.06" class="st9" width="89.26" height="8.5"/>
	<path class="st1" d="M199.39,147.16c1.59,0,3.11,0.24,4.57,0.65v-5.95h-2.63h-3.88h-2.63v5.97c1.33-0.38,2.72-0.61,4.16-0.65
		C199.11,147.16,199.25,147.16,199.39,147.16z"/>
	<path class="st7" d="M198.98,147.17c-1.44,0.03-2.83,0.27-4.16,0.65c-7.03,1.99-12.19,8.43-12.19,16.1v9.58h16.35V147.17z"/>
	<rect x="182.64" y="180.47" class="st7" width="16.35" height="4.09"/>
	<polygon class="st10" points="201.33,134.21 220.36,134.21 220.36,149.38 224.24,149.38 224.24,130.33 201.33,130.33 
		201.33,121.96 180.02,121.96 176.26,121.96 176.26,125.83 180.02,125.83 197.45,125.83 197.45,130.33 180.02,130.33 180.02,134.21 
		197.45,134.21 197.45,141.85 201.33,141.85 	"/>
	<polygon class="st8" points="96.26,134.01 116.19,126.53 96.26,126.53 	"/>
	<polygon class="st8" points="117.2,134.01 137.14,126.53 117.2,126.53 	"/>
	<polygon class="st8" points="138.15,134.01 158.09,126.53 138.15,126.53 	"/>
	<polygon class="st8" points="159.09,134.01 179.03,126.53 159.09,126.53 	"/>
	<polygon class="st8" points="96.26,147.02 116.19,139.55 96.26,139.55 	"/>
	<polygon class="st8" points="117.2,147.02 137.14,139.55 117.2,139.55 	"/>
	<polygon class="st8" points="138.15,147.02 158.09,139.55 138.15,139.55 	"/>
	<polygon class="st8" points="159.09,147.02 179.03,139.55 159.09,139.55 	"/>
	<polygon class="st8" points="96.26,120.99 116.19,113.51 96.26,113.51 	"/>
	<polygon class="st8" points="117.2,120.99 137.14,113.51 117.2,113.51 	"/>
	<polygon class="st8" points="138.15,120.99 158.09,113.51 138.15,113.51 	"/>
	<polygon class="st8" points="159.09,113.51 159.09,120.99 179.03,113.51 	"/>
	<polygon class="st11" points="28.02,162.82 28.02,155.34 7,162.82 	"/>
	<polygon class="st11" points="50.1,162.82 50.1,155.34 29.08,162.82 	"/>
	<polygon class="st11" points="72.18,162.82 72.18,155.34 51.16,162.82 	"/>
	<polygon class="st11" points="94.26,162.82 94.26,155.34 73.24,162.82 	"/>
	<polygon class="st11" points="116.19,134.01 116.19,126.53 96.26,134.01 	"/>
	<polygon class="st11" points="137.14,134.01 137.14,126.53 117.2,134.01 	"/>
	<polygon class="st11" points="158.09,134.01 158.09,126.53 138.15,134.01 	"/>
	<polygon class="st11" points="179.03,134.01 179.03,126.53 159.09,134.01 	"/>
	<polygon class="st11" points="116.19,147.02 116.19,139.55 96.26,147.02 	"/>
	<polygon class="st11" points="137.14,147.02 137.14,139.55 117.2,147.02 	"/>
	<polygon class="st11" points="158.09,147.02 158.09,139.55 138.15,147.02 	"/>
	<polygon class="st11" points="179.03,147.02 179.03,139.55 159.09,147.02 	"/>
	<polygon class="st11" points="116.19,120.99 116.19,113.51 96.26,120.99 	"/>
	<polygon class="st11" points="137.14,120.99 137.14,113.51 117.2,120.99 	"/>
	<polygon class="st11" points="158.09,120.99 158.09,113.51 138.15,120.99 	"/>
	<polygon class="st11" points="179.03,113.51 159.09,120.99 179.03,120.99 	"/>
	<polygon class="st10" points="121.62,62.71 123.08,62.71 121.53,56.54 85.96,56.54 84.41,62.71 85.89,62.71 103.76,62.71 	"/>
	<polygon class="st3" points="198.98,173.5 182.64,173.5 182.63,173.5 182.63,180.47 182.64,180.47 198.98,180.47 	"/>
	<path class="st7" d="M216.15,169.79v-1.81v-4.07c0-0.06-0.01-0.12-0.01-0.18c-0.03-2.7-0.7-5.23-1.86-7.48
		c-2.1-4.08-5.83-7.18-10.32-8.45c-1.45-0.41-2.98-0.65-4.57-0.65c-0.14,0-0.28,0-0.41,0.01v26.32h17.17v6.97h-17.17v4.09h9.41h7.76
		v-10.51V169.79z"/>
	<path class="st12" d="M216.15,169.79v-1.81v-4.07c0-0.06-0.01-0.12-0.01-0.18c-0.03-2.7-0.7-5.23-1.86-7.48
		c-2.1-4.08-5.83-7.18-10.32-8.45c-1.45-0.41-2.98-0.65-4.57-0.65c-0.14,0-0.28,0-0.41,0.01v26.32h17.17v6.97h-17.17v4.09h9.41h7.76
		v-10.51V169.79z"/>
	<rect x="198.98" y="173.5" class="st3" width="17.17" height="6.97"/>
	<rect x="198.98" y="173.5" class="st12" width="17.17" height="6.97"/>
	<rect x="222.28" y="174.04" class="st2" width="13.71" height="10.51"/>
	<rect x="222.28" y="174.04" class="st12" width="13.71" height="10.51"/>
	<rect x="222.28" y="167.99" class="st2" width="13.71" height="1.81"/>
	<rect x="222.28" y="167.99" class="st12" width="13.71" height="1.81"/>
	<path class="st2" d="M222.28,163.74h13.18c0.14,0.49,0.25,0.98,0.33,1.49c-0.08-0.5-0.19-1-0.33-1.49
		c-1.31-4.57-4.93-8.16-9.51-9.46c-1.17-0.33-2.4-0.52-3.68-0.53V163.74z"/>
	<path class="st12" d="M222.28,163.74h13.18c0.14,0.49,0.25,0.98,0.33,1.49c-0.08-0.5-0.19-1-0.33-1.49
		c-1.31-4.57-4.93-8.16-9.51-9.46c-1.17-0.33-2.4-0.52-3.68-0.53V163.74z"/>
	<path class="st3" d="M222.28,163.74v4.25h13.71v-0.43c0-0.79-0.07-1.57-0.2-2.33c-0.09-0.51-0.19-1.01-0.33-1.49H222.28z"/>
	<path class="st12" d="M222.28,163.74v4.25h13.71v-0.43c0-0.79-0.07-1.57-0.2-2.33c-0.09-0.51-0.19-1.01-0.33-1.49H222.28z"/>
	<rect x="222.28" y="169.79" class="st3" width="13.71" height="4.25"/>
	<rect x="222.28" y="169.79" class="st12" width="13.71" height="4.25"/>
</g>
</svg>
