<?xml version="1.0" encoding="utf-8"?>
<!-- Generator: Adobe Illustrator 23.0.3, SVG Export Plug-In . SVG Version: 6.00 Build 0)  -->
<svg version="1.1" id="Ebene_1" xmlns="http://www.w3.org/2000/svg" xmlns:xlink="http://www.w3.org/1999/xlink" x="0px" y="0px"
	 viewBox="0 0 240 240" style="enable-background:new 0 0 240 240;" xml:space="preserve">
<style type="text/css">
	.st0{fill:none;}
	.st1{fill:#465A64;}
	.st2{fill:#AEBDC4;}
	.st3{fill:#EF7F1E;}
	.st4{fill:#8FA3AD;}
	.st5{fill:#B27D6B;}
	.st6{fill:#D6DDE1;}
	.st7{fill:#84544C;}
	.st8{fill:#CBE5E9;}
	.st9{fill:#D9EDEF;}
</style>
<g>
	<rect x="0" class="st0" width="240" height="240"/>
</g>
<g>
	<polygon class="st0" points="108.03,100.29 93.4,100.29 100.69,107.63 	"/>
	<polygon class="st0" points="124.09,100.29 109.63,100.29 116.91,107.6 	"/>
	<polygon class="st0" points="115.91,108.17 108.83,101.06 101.72,108.17 	"/>
	<polygon class="st0" points="91.81,100.29 77.32,100.29 84.59,107.55 	"/>
	<polygon class="st0" points="99.67,108.17 92.6,101.06 85.54,108.17 	"/>
	<polygon class="st0" points="126.02,100.29 132.56,106.65 133.03,100.29 	"/>
	<polygon class="st0" points="69.63,113.07 71.3,135.91 77.92,135.91 77.92,127.6 123.8,127.6 123.8,135.91 130.42,135.91 
		132.09,113.07 	"/>
	<polygon class="st0" points="68.69,100.29 69.16,106.71 75.58,100.29 	"/>
	<polygon class="st0" points="125.05,100.89 117.9,108.17 132.45,108.17 132.46,108.09 	"/>
	<polygon class="st0" points="83.63,108.17 76.45,100.98 69.27,108.17 	"/>
	<path class="st1" d="M75.58,100.29l-6.42,6.42l0.47,6.36h62.46l0.36-4.9H117.9l7.14-7.27l7.41,7.2l0.11-1.44l-6.55-6.36h7.01
		l0.18-2.45H68.51l0.18,2.45H75.58z M124.09,100.29l-7.18,7.31l-7.28-7.31H124.09z M115.91,108.17h-14.19l7.11-7.11L115.91,108.17z
		 M108.03,100.29l-7.34,7.34l-7.3-7.34H108.03z M99.67,108.17H85.54l7.06-7.11L99.67,108.17z M91.81,100.29l-7.22,7.26l-7.27-7.26
		H91.81z M83.63,108.17H69.27l7.18-7.18L83.63,108.17z"/>
	<polygon class="st2" points="132.56,106.65 132.46,108.09 132.45,108.17 132.09,113.07 130.42,135.91 140.26,135.91 140.26,144.44 
		144.07,144.44 156.28,144.44 156.28,68.3 135.37,68.3 133.21,97.84 133.03,100.29 	"/>
	<polygon class="st3" points="45.44,68.3 66.35,68.3 66.35,68.3 69.53,68.3 69.53,62.26 21.35,62.26 21.35,68.3 24.53,68.3 
		24.53,68.3 	"/>
	<polygon class="st2" points="45.44,68.3 24.53,68.3 24.53,68.3 18.95,144.44 45.44,144.44 	"/>
	<polygon class="st4" points="45.44,68.3 45.44,144.44 61.46,144.44 61.46,135.91 71.3,135.91 69.63,113.07 69.16,106.71 
		68.69,100.29 68.51,97.84 66.35,68.3 66.35,68.3 	"/>
	<path class="st5" d="M229.46,144.44v-33.82h-11.58h-11.84H200h-11.84h-3.95l2.91,33.82H229.46z M207.72,119.02h8.87v5.54h-8.87
		V119.02z M207.72,131.48h8.87v5.54h-8.87V131.48z M189.45,119.02h8.87v5.54h-8.87V119.02z M189.45,131.48h8.87v5.54h-8.87V131.48z"
		/>
	<polygon class="st6" points="187.12,144.44 184.22,110.62 180.3,110.62 182.78,144.44 	"/>
	<polygon class="st4" points="156.28,68.3 156.28,144.44 182.78,144.44 180.3,110.62 177.2,68.3 177.2,68.3 	"/>
	<polygon class="st3" points="177.2,68.3 177.2,68.3 180.37,68.3 180.37,62.26 132.19,62.26 132.19,68.3 135.37,68.3 156.28,68.3 	
		"/>
	<path class="st7" d="M229.46,144.44h-42.34h-4.35h-26.49h-12.21v33.45h12.21h20.3h8.64H190h39.46H236v-33.45H229.46z
		 M154.43,168.31h-8.87v-11.07h8.87V168.31z M172.7,168.31h-8.87v-11.07h8.87V168.31z M190.96,168.31h-8.87v-11.07h8.87V168.31z
		 M209.23,168.31h-8.87v-11.07h8.87V168.31z M227.5,168.31h-8.87v-11.07h8.87V168.31z"/>
	<path class="st7" d="M45.44,144.44H18.95H4v33.45h12.49h28.94h16.02v-33.45H45.44z M19.62,168.31h-8.87v-11.07h8.87V168.31z
		 M37.89,168.31h-8.87v-11.07h8.87V168.31z M56.16,168.31h-8.87v-11.07h8.87V168.31z"/>
	<rect x="140.26" y="144.44" class="st6" width="3.81" height="33.45"/>
	<path class="st3" d="M140.26,135.91h-9.84h-6.61v-8.31H77.92v8.31H71.3h-9.84v8.53v33.45h12.92h52.96h12.92v-33.45V135.91z
		 M83.17,133.93h35.38v3.96H83.17V133.93z M70.87,144.25h59.99v3.96H70.87V144.25z M77.89,168.31h-8.87v-11.07h8.87V168.31z
		 M96.16,168.31h-8.87v-11.07h8.87V168.31z M114.43,168.31h-8.87v-11.07h8.87V168.31z M132.69,168.31h-8.87v-11.07h8.87V168.31z"/>
	<rect x="188.16" y="89.4" class="st1" width="11.84" height="21.22"/>
	<rect x="206.05" y="89.4" class="st1" width="11.84" height="21.22"/>
	<polygon class="st8" points="10.75,168.31 19.62,157.23 10.75,157.23 	"/>
	<polygon class="st8" points="29.02,168.31 37.89,157.23 29.02,157.23 	"/>
	<polygon class="st8" points="47.29,168.31 56.16,157.23 47.29,157.23 	"/>
	<polygon class="st8" points="69.02,168.31 77.89,157.23 69.02,157.23 	"/>
	<polygon class="st8" points="163.82,168.31 172.7,157.23 163.82,157.23 	"/>
	<polygon class="st8" points="182.09,168.31 190.96,157.23 182.09,157.23 	"/>
	<polygon class="st8" points="200.36,168.31 209.23,157.23 200.36,157.23 	"/>
	<polygon class="st8" points="218.63,168.31 227.5,157.23 218.63,157.23 	"/>
	<polygon class="st8" points="189.45,119.02 189.45,124.56 198.32,119.02 	"/>
	<polygon class="st8" points="207.72,119.02 207.72,124.56 216.59,119.02 	"/>
	<polygon class="st8" points="189.45,131.48 189.45,137.02 198.32,131.48 	"/>
	<polygon class="st8" points="207.72,131.48 207.72,137.02 216.59,131.48 	"/>
	<polygon class="st9" points="198.32,119.02 189.45,124.56 198.32,124.56 	"/>
	<polygon class="st9" points="216.59,119.02 207.72,124.56 216.59,124.56 	"/>
	<polygon class="st9" points="198.32,131.48 189.45,137.02 198.32,137.02 	"/>
	<polygon class="st9" points="216.59,131.48 207.72,137.02 216.59,137.02 	"/>
	<polygon class="st8" points="87.29,168.31 96.16,157.23 87.29,157.23 	"/>
	<polygon class="st8" points="105.55,168.31 114.43,157.23 105.55,157.23 	"/>
	<polygon class="st8" points="123.82,168.31 132.69,157.23 123.82,157.23 	"/>
	<polygon class="st8" points="145.56,168.31 154.43,157.23 145.56,157.23 	"/>
	<polygon class="st9" points="19.62,168.31 19.62,157.23 10.75,168.31 	"/>
	<polygon class="st9" points="37.89,168.31 37.89,157.23 29.02,168.31 	"/>
	<polygon class="st9" points="56.16,168.31 56.16,157.23 47.29,168.31 	"/>
	<polygon class="st9" points="77.89,168.31 77.89,157.23 69.02,168.31 	"/>
	<polygon class="st9" points="172.7,168.31 172.7,157.23 163.82,168.31 	"/>
	<polygon class="st9" points="190.96,168.31 190.96,157.23 182.09,168.31 	"/>
	<polygon class="st9" points="209.23,168.31 209.23,157.23 200.36,168.31 	"/>
	<polygon class="st9" points="227.5,168.31 227.5,157.23 218.63,168.31 	"/>
	<polygon class="st9" points="96.16,168.31 96.16,157.23 87.29,168.31 	"/>
	<polygon class="st9" points="114.43,168.31 114.43,157.23 105.55,168.31 	"/>
	<polygon class="st9" points="132.69,168.31 132.69,157.23 123.82,168.31 	"/>
	<polygon class="st9" points="154.43,168.31 154.43,157.23 145.56,168.31 	"/>
	<polygon class="st8" points="70.87,144.25 70.87,148.21 130.85,144.25 	"/>
	<polygon class="st8" points="83.17,133.93 83.17,137.89 118.55,133.93 	"/>
	<polygon class="st9" points="130.85,144.25 70.87,148.21 130.85,148.21 	"/>
	<polygon class="st9" points="118.55,133.93 83.17,137.89 118.55,137.89 	"/>
</g>
</svg>
