<?xml version="1.0" encoding="utf-8"?>
<!-- Generator: Adobe Illustrator 23.0.3, SVG Export Plug-In . SVG Version: 6.00 Build 0)  -->
<svg version="1.1" id="Ebene_1" xmlns="http://www.w3.org/2000/svg" xmlns:xlink="http://www.w3.org/1999/xlink" x="0px" y="0px"
	 viewBox="0 0 240 240" style="enable-background:new 0 0 240 240;" xml:space="preserve">
<style type="text/css">
	.st0{fill:none;}
	.st1{fill:#B86416;}
	.st2{fill:#9EA5A3;}
	.st3{fill:#CE7C11;}
	.st4{fill:#69B9E8;}
	.st5{fill:#68B0E2;}
	.st6{fill:#303F4E;}
	.st7{fill:#D1D1D1;}
</style>
<g>
	<rect x="0" class="st0" width="240" height="240"/>
</g>
<g>
	<path class="st1" d="M119.56,20.93h6.55v31.25v1.7h-8.08v11.99h1.53h6.55V183h-7.98v7.72h33.64v4.22h-2.96v36.37h30.85V68.29
		h-18.83v-9.6V22.86c0-9.86-8-17.86-17.86-17.86h-10.79h-14.16v15.93H119.56z M154.89,99.42V73.71h10.07h6.55v25.71v1.7h-16.62
		V99.42z M154.89,137.19v-25.71h10.07h6.55v25.71v1.7h-16.62V137.19z M154.89,174.96v-25.71h10.07h6.55v25.71v1.7h-16.62V174.96z
		 M154.89,212.73v-25.71h10.07h6.55v25.71v1.7h-16.62V212.73z M132.19,52.18V20.93h10.07h6.55v31.25v1.7h-16.62V52.18z
		 M132.19,99.42V73.71h10.07h6.55v25.71v1.7h-16.62V99.42z M132.19,137.19v-25.71h10.07h6.55v25.71v1.7h-16.62V137.19z
		 M132.19,174.96v-25.71h10.07h6.55v25.71v1.7h-16.62V174.96z"/>
	<polygon class="st2" points="179.67,68.29 183.94,68.29 183.94,58.69 160.84,58.69 160.84,68.29 	"/>
	<polygon class="st2" points="74.77,58.69 51.67,58.69 51.67,68.29 55.94,68.29 74.77,68.29 	"/>
	<polygon class="st2" points="179.67,231.31 148.82,231.31 148.82,194.94 145.3,194.94 145.3,231.31 118.13,231.31 90.31,231.31 
		90.31,194.94 86.79,194.94 86.79,231.31 55.94,231.31 43.61,231.31 43.61,236.19 192,236.19 192,231.31 	"/>
	<path class="st3" d="M86.79,194.94h-3.93v-4.22h32.9h2.37V183h-5.12h-3.52V65.87h8.54V53.88h-8.54v-1.7V20.93h8.54V5h-25.4
		c-9.86,0-17.86,8-17.86,17.86v35.83v9.6H55.94v163.02h30.85V194.94z M86.79,52.18V20.93h10.07h6.55v31.25v1.7H86.79V52.18z
		 M86.79,99.42V73.71h10.07h6.55v25.71v1.7H86.79V99.42z M86.79,137.19v-25.71h10.07h6.55v25.71v1.7H86.79V137.19z M86.79,174.96
		v-25.71h10.07h6.55v25.71v1.7H86.79V174.96z M80.72,212.73v1.7H64.09v-1.7v-25.71h10.07h6.55V212.73z M80.72,174.96v1.7H64.09v-1.7
		v-25.71h10.07h6.55V174.96z M80.72,137.19v1.7H64.09v-1.7v-25.71h10.07h6.55V137.19z M80.72,99.42v1.7H64.09v-1.7V73.71h10.07h6.55
		V99.42z"/>
	<polygon class="st3" points="117.74,231.23 97.58,231.23 97.52,231.23 96.79,231.23 96.79,196.93 97.52,196.93 97.58,196.93 
		117.74,196.93 118.13,196.93 118.13,194.94 115.76,194.94 90.31,194.94 90.31,231.31 118.13,231.31 118.13,231.23 	"/>
	<polygon class="st1" points="118.13,196.93 118.53,196.93 137.95,196.93 138.74,196.93 138.74,231.23 137.95,231.23 118.53,231.23 
		118.13,231.23 118.13,231.31 145.3,231.31 145.3,194.94 118.13,194.94 	"/>
	<polygon class="st4" points="74.16,73.71 64.09,73.71 64.09,99.42 67.61,99.42 	"/>
	<polygon class="st5" points="67.61,99.42 80.72,99.42 80.72,73.71 74.16,73.71 	"/>
	<polygon class="st6" points="64.09,99.42 64.09,101.12 80.72,101.12 80.72,99.42 67.61,99.42 	"/>
	<polygon class="st4" points="96.86,73.71 86.79,73.71 86.79,99.42 90.31,99.42 	"/>
	<polygon class="st5" points="103.42,99.42 103.42,73.71 96.86,73.71 90.31,99.42 	"/>
	<polygon class="st6" points="103.42,99.42 90.31,99.42 86.79,99.42 86.79,101.12 103.42,101.12 	"/>
	<polygon class="st4" points="118.03,65.87 109.49,65.87 109.49,183 113.01,183 119.56,65.87 	"/>
	<polygon class="st5" points="126.12,65.87 119.56,65.87 113.01,183 118.13,183 126.12,183 	"/>
	<polygon class="st4" points="142.26,73.71 132.19,73.71 132.19,99.42 135.71,99.42 	"/>
	<polygon class="st5" points="148.82,99.42 148.82,73.71 142.26,73.71 135.71,99.42 	"/>
	<polygon class="st6" points="148.82,99.42 135.71,99.42 132.19,99.42 132.19,101.12 148.82,101.12 	"/>
	<polygon class="st4" points="96.86,20.93 86.79,20.93 86.79,52.18 90.31,52.18 	"/>
	<polygon class="st5" points="103.42,52.18 103.42,20.93 96.86,20.93 90.31,52.18 	"/>
	<polygon class="st6" points="103.42,52.18 90.31,52.18 86.79,52.18 86.79,53.88 103.42,53.88 	"/>
	<polygon class="st4" points="119.56,20.93 118.03,20.93 109.49,20.93 109.49,52.18 113.01,52.18 	"/>
	<polygon class="st5" points="126.12,52.18 126.12,20.93 119.56,20.93 113.01,52.18 	"/>
	<polygon class="st4" points="142.26,20.93 132.19,20.93 132.19,52.18 135.71,52.18 	"/>
	<polygon class="st5" points="148.82,52.18 148.82,20.93 142.26,20.93 135.71,52.18 	"/>
	<polygon class="st6" points="148.82,52.18 135.71,52.18 132.19,52.18 132.19,53.88 148.82,53.88 	"/>
	<polygon class="st6" points="126.12,52.18 113.01,52.18 109.49,52.18 109.49,53.88 118.03,53.88 126.12,53.88 	"/>
	<polygon class="st4" points="164.96,73.71 154.89,73.71 154.89,99.42 158.41,99.42 	"/>
	<polygon class="st5" points="171.52,99.42 171.52,73.71 164.96,73.71 158.41,99.42 	"/>
	<polygon class="st6" points="171.52,99.42 158.41,99.42 154.89,99.42 154.89,101.12 171.52,101.12 	"/>
	<polygon class="st4" points="74.16,111.48 64.09,111.48 64.09,137.19 67.61,137.19 	"/>
	<polygon class="st5" points="67.61,137.19 80.72,137.19 80.72,111.48 74.16,111.48 	"/>
	<polygon class="st6" points="64.09,137.19 64.09,138.89 80.72,138.89 80.72,137.19 67.61,137.19 	"/>
	<polygon class="st4" points="96.86,111.48 86.79,111.48 86.79,137.19 90.31,137.19 	"/>
	<polygon class="st5" points="103.42,137.19 103.42,111.48 96.86,111.48 90.31,137.19 	"/>
	<polygon class="st6" points="103.42,137.19 90.31,137.19 86.79,137.19 86.79,138.89 103.42,138.89 	"/>
	<polygon class="st4" points="142.26,111.48 132.19,111.48 132.19,137.19 135.71,137.19 	"/>
	<polygon class="st5" points="148.82,137.19 148.82,111.48 142.26,111.48 135.71,137.19 	"/>
	<polygon class="st6" points="148.82,137.19 135.71,137.19 132.19,137.19 132.19,138.89 148.82,138.89 	"/>
	<polygon class="st4" points="164.96,111.48 154.89,111.48 154.89,137.19 158.41,137.19 	"/>
	<polygon class="st5" points="171.52,137.19 171.52,111.48 164.96,111.48 158.41,137.19 	"/>
	<polygon class="st6" points="171.52,137.19 158.41,137.19 154.89,137.19 154.89,138.89 171.52,138.89 	"/>
	<polygon class="st4" points="74.16,149.25 64.09,149.25 64.09,174.96 67.61,174.96 	"/>
	<polygon class="st5" points="67.61,174.96 80.72,174.96 80.72,149.25 74.16,149.25 	"/>
	<polygon class="st6" points="64.09,174.96 64.09,176.66 80.72,176.66 80.72,174.96 67.61,174.96 	"/>
	<polygon class="st4" points="96.86,149.25 86.79,149.25 86.79,174.96 90.31,174.96 	"/>
	<polygon class="st5" points="103.42,174.96 103.42,149.25 96.86,149.25 90.31,174.96 	"/>
	<polygon class="st6" points="103.42,174.96 90.31,174.96 86.79,174.96 86.79,176.66 103.42,176.66 	"/>
	<polygon class="st4" points="142.26,149.25 132.19,149.25 132.19,174.96 135.71,174.96 	"/>
	<polygon class="st5" points="148.82,174.96 148.82,149.25 142.26,149.25 135.71,174.96 	"/>
	<polygon class="st6" points="148.82,174.96 135.71,174.96 132.19,174.96 132.19,176.66 148.82,176.66 	"/>
	<polygon class="st4" points="164.96,149.25 154.89,149.25 154.89,174.96 158.41,174.96 	"/>
	<polygon class="st5" points="171.52,174.96 171.52,149.25 164.96,149.25 158.41,174.96 	"/>
	<polygon class="st6" points="171.52,174.96 158.41,174.96 154.89,174.96 154.89,176.66 171.52,176.66 	"/>
	<polygon class="st4" points="74.16,187.02 64.09,187.02 64.09,212.73 67.61,212.73 	"/>
	<polygon class="st5" points="67.61,212.73 80.72,212.73 80.72,187.02 74.16,187.02 	"/>
	<polygon class="st6" points="64.09,212.73 64.09,214.43 80.72,214.43 80.72,212.73 67.61,212.73 	"/>
	<polygon class="st4" points="97.58,229.24 106.07,229.24 113.26,215.43 113.26,214.76 113.61,214.76 117.74,206.84 117.74,198.63 
		97.58,198.63 	"/>
	<polygon class="st4" points="118.53,198.63 118.53,205.32 122.01,198.63 	"/>
	<polygon class="st5" points="115.76,214.76 115.76,215.9 113.26,215.9 113.26,215.43 106.07,229.24 117.74,229.24 117.74,206.84 
		113.61,214.76 	"/>
	<path class="st5" d="M137.95,198.63h-15.94l-3.48,6.69v23.92h19.42V198.63z M123,215.9h-2.5v-1.14h2.5V215.9z"/>
	<path class="st6" d="M97.58,196.93h-0.06h-0.74v34.3h0.74h0.06h20.16h0.4h0.4h19.42h0.79v-34.3h-0.79h-19.42h-0.4h-0.4H97.58z
		 M117.74,206.84v22.4h-11.66h-8.49v-30.61h20.16V206.84z M118.53,205.32v-6.69h3.48h15.94v30.61h-19.42V205.32z"/>
	<polygon class="st4" points="164.96,187.02 154.89,187.02 154.89,212.73 158.41,212.73 	"/>
	<polygon class="st5" points="171.52,212.73 171.52,187.02 164.96,187.02 158.41,212.73 	"/>
	<polygon class="st6" points="171.52,212.73 158.41,212.73 154.89,212.73 154.89,214.43 171.52,214.43 	"/>
	<polygon class="st6" points="115.76,215.9 115.76,214.76 113.61,214.76 113.26,214.76 113.26,215.43 113.26,215.9 	"/>
	<rect x="120.5" y="214.76" class="st6" width="2.5" height="1.14"/>
	<polygon class="st7" points="115.76,190.72 82.87,190.72 82.87,194.94 86.79,194.94 90.31,194.94 115.76,194.94 	"/>
	<polygon class="st2" points="151.78,190.72 118.13,190.72 115.76,190.72 115.76,194.94 118.13,194.94 145.3,194.94 148.82,194.94 
		151.78,194.94 	"/>
</g>
</svg>
