<?xml version="1.0" encoding="utf-8"?>
<!-- Generator: Adobe Illustrator 23.0.3, SVG Export Plug-In . SVG Version: 6.00 Build 0)  -->
<svg version="1.1" id="Ebene_1" xmlns="http://www.w3.org/2000/svg" xmlns:xlink="http://www.w3.org/1999/xlink" x="0px" y="0px"
	 viewBox="0 0 240 240" style="enable-background:new 0 0 240 240;" xml:space="preserve">
<style type="text/css">
	.st0{fill:none;}
	.st1{fill:#F9B637;}
	.st2{fill:#CD9B2B;}
	.st3{fill:#FBF7E1;}
	.st4{fill:#E0E0E0;}
	.st5{fill:#9098A5;}
	.st6{fill:#69B9E8;}
	.st7{fill:#68B0E2;}
	.st8{fill:#CE7817;}
	.st9{fill:#333331;}
	.st10{fill:#303F4E;}
	.st11{fill:#C9C8C8;}
	.st12{fill:#C6C5C5;}
</style>
<g>
	<rect x="0" class="st0" width="240" height="240"/>
</g>
<g>
	<polygon class="st0" points="16.02,90.67 119.43,33.12 222.84,90.67 119.47,33 	"/>
	<path class="st1" d="M119.43,96.94H41.67v46.35h77.76V96.94z M79.27,133.97H53.62v-30.49h25.65V133.97z M114.84,133.97H89.2v-30.49
		h25.65V133.97z"/>
	<path class="st1" d="M79.69,211.86h5.25v-1.31v-4.29h5.33v-1.31v-4.29h3.14v-38.1h1.78h24.24v-13.69H41.67v51.78h-20.9v16.8h20.9
		h38.02v-1.31V211.86z M79.27,193.22H53.62v-30.49h25.65V193.22z"/>
	<path class="st2" d="M119.43,143.3h77.76V96.94h-77.76V143.3z M160.35,103.49H186v30.49h-25.65V103.49z M124.77,103.49h25.65v30.49
		h-25.65V103.49z"/>
	<polygon class="st3" points="41.67,143.3 41.67,147.42 197.19,147.42 197.19,143.3 119.43,143.3 	"/>
	<path class="st2" d="M41.67,148.88h77.76v13.69h24.17h1.78v38.1h3.21v4.29v1.31h5.33v4.29v1.31h5.25v4.29v1.31h38.02h20.9v-16.8
		h-20.9v-51.78v-1.45H41.67V148.88z M160.85,162.73h25.65v30.49h-25.65V162.73z"/>
	<polygon class="st4" points="20.77,96.94 41.67,96.94 119.43,96.94 197.19,96.94 218.1,96.94 218.1,92.24 20.77,92.24 	"/>
	<path class="st4" d="M16.02,90.67h4.75H218.1h4.75L119.43,33.12L16.02,90.67z M119.57,86.28H32.93l86.5-48.14l86.5,48.14H119.57z"
		/>
	<polygon class="st1" points="32.93,86.28 119.57,86.28 119.43,38.14 	"/>
	<polygon class="st2" points="119.57,86.28 205.93,86.28 119.43,38.14 	"/>
	<rect x="20.77" y="90.67" class="st5" width="197.33" height="1.57"/>
	<path class="st4" d="M53.62,133.97h25.65v-30.49H53.62V133.97z M66.95,110.8v-5.82h1.86h8.82v12.6H66.95V110.8z M66.95,118.75
		h10.69v13.78H66.95V118.75z M55.26,104.98h10.51v9.52v3.08h-0.99h-9.52V104.98z M55.26,118.75h9.14h1.36v13.78h-5.77h-4.73V118.75z
		"/>
	<polygon class="st6" points="64.4,118.75 55.26,118.75 55.26,132.53 59.99,132.53 	"/>
	<polygon class="st6" points="66.95,104.98 66.95,110.8 68.81,104.98 	"/>
	<polygon class="st6" points="65.76,114.49 65.76,104.98 55.26,104.98 55.26,117.57 64.78,117.57 	"/>
	<rect x="66.95" y="118.75" class="st7" width="10.69" height="13.78"/>
	<polygon class="st7" points="65.76,132.53 65.76,118.75 64.4,118.75 59.99,132.53 	"/>
	<polygon class="st7" points="65.76,117.57 65.76,114.49 64.78,117.57 	"/>
	<polygon class="st7" points="77.63,104.98 68.81,104.98 66.95,110.8 66.95,117.57 77.63,117.57 	"/>
	<path class="st4" d="M89.2,133.97h25.65v-30.49H89.2V133.97z M102.52,110.8v-5.82h1.86h8.82v12.6h-10.69V110.8z M102.52,118.75
		h10.69v13.78h-10.69V118.75z M90.83,104.98h10.51v9.52v3.08h-0.99h-9.52V104.98z M90.83,118.75h9.14h1.36v13.78h-5.78h-4.73V118.75
		z"/>
	<polygon class="st6" points="102.52,104.98 102.52,110.8 104.39,104.98 	"/>
	<polygon class="st6" points="99.98,118.75 90.83,118.75 90.83,132.53 95.57,132.53 	"/>
	<polygon class="st6" points="101.34,114.49 101.34,104.98 90.83,104.98 90.83,117.57 100.35,117.57 	"/>
	<polygon class="st7" points="101.34,132.53 101.34,118.75 99.98,118.75 95.57,132.53 	"/>
	<polygon class="st7" points="101.34,117.57 101.34,114.49 100.35,117.57 	"/>
	<rect x="102.52" y="118.75" class="st7" width="10.69" height="13.78"/>
	<polygon class="st7" points="113.21,104.98 104.39,104.98 102.52,110.8 102.52,117.57 113.21,117.57 	"/>
	<path class="st4" d="M150.42,103.49h-25.65v30.49h25.65V103.49z M136.92,132.53h-5.77h-4.73v-13.78h9.14h1.36V132.53z
		 M136.92,114.49v3.08h-0.99h-9.52v-12.6h10.51V114.49z M148.79,132.53H138.1v-13.78h10.68V132.53z M148.79,117.57H138.1v-6.77
		v-5.82h1.86h8.82V117.57z"/>
	<polygon class="st6" points="126.41,118.75 126.41,132.53 131.14,132.53 135.55,118.75 	"/>
	<polygon class="st6" points="126.41,117.57 135.93,117.57 136.92,114.49 136.92,104.98 126.41,104.98 	"/>
	<polygon class="st6" points="138.1,104.98 138.1,110.8 139.96,104.98 	"/>
	<polygon class="st7" points="138.1,110.8 138.1,117.57 148.79,117.57 148.79,104.98 139.96,104.98 	"/>
	<polygon class="st7" points="131.14,132.53 136.92,132.53 136.92,118.75 135.55,118.75 	"/>
	<polygon class="st7" points="136.92,117.57 136.92,114.49 135.93,117.57 	"/>
	<rect x="138.1" y="118.75" class="st7" width="10.68" height="13.78"/>
	<path class="st4" d="M186,103.49h-25.65v30.49H186V103.49z M172.49,132.53h-5.78h-4.73v-13.78h9.14h1.36V132.53z M172.49,114.49
		v3.08h-0.99h-9.52v-12.6h10.51V114.49z M184.36,132.53h-10.69v-13.78h10.69V132.53z M184.36,117.57h-10.69v-6.77v-5.82h1.86h8.82
		V117.57z"/>
	<polygon class="st6" points="161.99,117.57 171.51,117.57 172.49,114.49 172.49,104.98 161.99,104.98 	"/>
	<polygon class="st6" points="161.99,118.75 161.99,132.53 166.72,132.53 171.13,118.75 	"/>
	<polygon class="st6" points="173.68,104.98 173.68,110.8 175.54,104.98 	"/>
	<polygon class="st7" points="172.49,117.57 172.49,114.49 171.51,117.57 	"/>
	<rect x="173.68" y="118.75" class="st7" width="10.69" height="13.78"/>
	<polygon class="st7" points="166.72,132.53 172.49,132.53 172.49,118.75 171.13,118.75 	"/>
	<polygon class="st7" points="173.68,110.8 173.68,117.57 184.36,117.57 184.36,104.98 175.54,104.98 	"/>
	<path class="st4" d="M53.62,193.22h25.65v-30.49H53.62V193.22z M66.95,170.04v-5.82h1.86h8.82v12.59H66.95V170.04z M66.95,178
		h10.69v13.78H66.95V178z M55.26,164.22h10.51v9.52v3.08h-0.99h-9.52V164.22z M55.26,178h9.14h1.36v13.78h-5.77h-4.73V178z"/>
	<polygon class="st6" points="66.95,164.22 66.95,170.04 68.81,164.22 	"/>
	<polygon class="st6" points="65.76,173.74 65.76,164.22 55.26,164.22 55.26,176.82 64.78,176.82 	"/>
	<polygon class="st6" points="64.4,178 55.26,178 55.26,191.78 59.99,191.78 	"/>
	<polygon class="st7" points="65.76,176.82 65.76,173.74 64.78,176.82 	"/>
	<rect x="66.95" y="178" class="st7" width="10.69" height="13.78"/>
	<polygon class="st7" points="77.63,164.22 68.81,164.22 66.95,170.04 66.95,176.82 77.63,176.82 	"/>
	<polygon class="st7" points="65.76,191.78 65.76,178 64.4,178 59.99,191.78 	"/>
	<path class="st4" d="M186.5,162.73h-25.65v30.49h25.65V162.73z M173,191.78h-5.77h-4.73V178h9.14H173V191.78z M173,173.74v3.08
		h-0.99h-9.52v-12.59H173V173.74z M184.87,191.78h-10.69V178h10.69V191.78z M184.87,176.82h-10.69v-6.77v-5.82h1.86h8.82V176.82z"/>
	<polygon class="st6" points="162.49,176.82 172.01,176.82 173,173.74 173,164.22 162.49,164.22 	"/>
	<polygon class="st6" points="162.49,178 162.49,191.78 167.22,191.78 171.63,178 	"/>
	<polygon class="st6" points="174.18,164.22 174.18,170.04 176.04,164.22 	"/>
	<polygon class="st7" points="174.18,170.04 174.18,176.82 184.87,176.82 184.87,164.22 176.04,164.22 	"/>
	<rect x="174.18" y="178" class="st7" width="10.69" height="13.78"/>
	<polygon class="st7" points="167.22,191.78 173,191.78 173,178 171.63,178 	"/>
	<polygon class="st7" points="173,176.82 173,173.74 172.01,176.82 	"/>
	<path class="st8" d="M95.19,200.66h18.85h5.36v-35.84h0.95v35.84h23.26v-36.07H95.19V200.66z M133.33,166.58h5.04h3.28v7.99h-6.56
		h-1.76V166.58z M133.33,176.65h5.04h3.28v7.99h-6.56h-1.76V176.65z M122.71,166.58h5.04h3.28v7.99h-6.56h-1.76V166.58z
		 M122.71,176.65h5.04h3.28v7.99h-6.56h-1.76V176.65z M122.71,186.1h3v1.37h-3V186.1z M117.04,187.47h-3v-1.37h3V187.47z
		 M108.71,166.58h5.04h3.28v7.99h-6.56h-1.76V166.58z M108.71,176.65h5.04h3.28v7.99h-6.56h-1.76V176.65z M98.09,166.58h5.04h3.28
		v7.99h-6.57h-1.76V166.58z M98.09,176.65h5.04h3.28v7.99h-6.57h-1.76V176.65z"/>
	<polygon class="st6" points="103.13,166.58 98.09,166.58 98.09,174.57 99.85,174.57 	"/>
	<polygon class="st7" points="106.42,174.57 106.42,166.58 103.13,166.58 99.85,174.57 	"/>
	<polygon class="st6" points="113.75,166.58 108.71,166.58 108.71,174.57 110.47,174.57 	"/>
	<polygon class="st7" points="117.03,174.57 117.03,166.58 113.75,166.58 110.47,174.57 	"/>
	<polygon class="st6" points="103.13,176.65 98.09,176.65 98.09,184.64 99.85,184.64 	"/>
	<polygon class="st7" points="106.42,184.64 106.42,176.65 103.13,176.65 99.85,184.64 	"/>
	<polygon class="st6" points="113.75,176.65 108.71,176.65 108.71,184.64 110.47,184.64 	"/>
	<polygon class="st7" points="117.03,184.64 117.03,176.65 113.75,176.65 110.47,184.64 	"/>
	<polygon class="st6" points="127.75,166.58 122.71,166.58 122.71,174.57 124.47,174.57 	"/>
	<polygon class="st7" points="131.04,174.57 131.04,166.58 127.75,166.58 124.47,174.57 	"/>
	<polygon class="st6" points="138.37,166.58 133.33,166.58 133.33,174.57 135.09,174.57 	"/>
	<polygon class="st7" points="141.65,174.57 141.65,166.58 138.37,166.58 135.09,174.57 	"/>
	<polygon class="st6" points="127.75,176.65 122.71,176.65 122.71,184.64 124.47,184.64 	"/>
	<polygon class="st7" points="131.04,184.64 131.04,176.65 127.75,176.65 124.47,184.64 	"/>
	<polygon class="st6" points="138.37,176.65 133.33,176.65 133.33,184.64 135.09,184.64 	"/>
	<polygon class="st7" points="141.65,184.64 141.65,176.65 138.37,176.65 135.09,184.64 	"/>
	<path class="st4" d="M93.41,162.56v38.1h-3.14v4.29h58.33v-4.29h-3.21v-38.1h-1.78h-24.17H95.19H93.41z M143.61,164.59v36.07
		h-23.26h-0.95h-5.36H95.19v-36.07H143.61z"/>
	<rect x="119.4" y="164.83" class="st9" width="0.95" height="35.84"/>
	<rect x="114.04" y="186.1" class="st10" width="3" height="1.37"/>
	<rect x="122.71" y="186.1" class="st10" width="3" height="1.37"/>
	<rect x="90.27" y="204.95" class="st11" width="58.33" height="1.31"/>
	<polygon class="st4" points="84.94,206.26 84.94,210.55 153.93,210.55 153.93,206.26 148.6,206.26 90.27,206.26 	"/>
	<polygon class="st11" points="84.94,211.86 90.27,211.86 148.6,211.86 153.93,211.86 153.93,210.55 84.94,210.55 	"/>
	<polygon class="st4" points="90.27,211.86 84.94,211.86 79.69,211.86 79.69,216.15 90.27,216.15 148.6,216.15 159.17,216.15 
		159.17,211.86 153.93,211.86 148.6,211.86 	"/>
	<polygon class="st11" points="148.6,216.15 90.27,216.15 79.69,216.15 79.69,217.46 90.27,217.46 114.04,217.46 119.43,217.46 
		148.6,217.46 159.17,217.46 159.17,216.15 	"/>
	<polygon class="st12" points="119.4,23 11.76,83 16.02,90.67 119.47,33 222.84,90.67 227,82.94 	"/>
</g>
</svg>
