<?xml version="1.0" encoding="utf-8"?>
<!-- Generator: Adobe Illustrator 23.0.3, SVG Export Plug-In . SVG Version: 6.00 Build 0)  -->
<svg version="1.1" id="Ebene_1" xmlns="http://www.w3.org/2000/svg" xmlns:xlink="http://www.w3.org/1999/xlink" x="0px" y="0px"
	 viewBox="0 0 240 240" style="enable-background:new 0 0 240 240;" xml:space="preserve">
<style type="text/css">
	.st0{fill:none;}
	.st1{fill:#4D90B9;}
	.st2{fill:#DD4717;}
	.st3{fill:#FBBC25;}
	.st4{fill:#C9C8C8;}
	.st5{fill:#69B9E8;}
	.st6{fill:#68B0E2;}
	.st7{fill:#E0E0E0;}
	.st8{fill:#547FAB;}
	.st9{fill:#FAFBF3;}
	.st10{fill:#484747;}
</style>
<g>
	<rect x="0" class="st0" width="240" height="240"/>
</g>
<g>
	<path class="st0" d="M82.93,118.02v-7.93c-1.16-0.07-2.08-1.02-2.08-2.2v-0.69c0-1.22,0.99-2.21,2.21-2.21h62.24
		c-1.04-1.14-1.68-2.65-1.68-4.31c0-3.53,2.86-6.39,6.39-6.39h12.2v-2.8h-58.29H58.15h-9.96v2.8h12.09c3.53,0,6.39,2.86,6.39,6.39
		c0,3.53-2.86,6.39-6.39,6.39H48.19v58.47h4.07v-31.11h17.61v31.11h1.18v4.98h13.14v-52.5H82.93z"/>
	<path class="st1" d="M134.9,125.07h11.34v9.35h2.26v-9.35h13.71v-7.05H84.19v52.5h2.26v-32.03h14.08h14.69v32.03h2.26v-45.45H134.9
		z M115.21,136.23h-14.13H86.44v-11.16h17.43h11.34V136.23z"/>
	<path class="st1" d="M170.3,125.07h6.97v40.47h2.26v-27.05h14.08h14.69v32.03h2.26v-45.45v-7.05H170.3V125.07z M179.53,125.07
		h17.43h11.34v11.16h-14.13h-14.65V125.07z"/>
	<path class="st2" d="M170.3,110.11v7.91h40.26h0.81v-7.93c-0.04,0-0.09,0.01-0.13,0.01H170.3z"/>
	<path class="st2" d="M82.93,110.09v7.93h1.25h78.02v-7.91H83.06C83.02,110.11,82.98,110.09,82.93,110.09z"/>
	<path class="st3" d="M145.3,104.98H83.06c-1.22,0-2.21,0.99-2.21,2.21v0.69c0,1.18,0.92,2.13,2.08,2.2c0.04,0,0.09,0.01,0.13,0.01
		h79.14v-3.04h-12.2C148.14,107.06,146.47,106.26,145.3,104.98z"/>
	<path class="st3" d="M211.24,110.11c0.05,0,0.09-0.01,0.13-0.01c1.16-0.07,2.08-1.02,2.08-2.2v-0.69c0-1.22-0.99-2.21-2.21-2.21
		H170.3v5.12H211.24z"/>
	<polygon class="st4" points="210.56,170.52 208.3,170.52 208.3,170.55 186.49,170.55 186.49,167.02 186.49,165.54 179.53,165.54 
		177.27,165.54 170.3,165.54 170.3,125.07 170.3,118.02 170.3,110.11 170.3,104.98 170.3,91.48 166.25,91.48 166.25,169.69 
		162.21,169.69 162.21,165.54 158.3,165.54 140.7,165.54 139.9,165.54 139.9,170.55 123.56,170.55 117.47,170.55 117.47,170.52 
		115.21,170.52 115.21,170.55 92.53,170.55 86.44,170.55 86.44,170.52 84.19,170.52 71.04,170.52 71.04,165.54 69.86,165.54 
		52.25,165.54 48.19,165.54 48.19,107.06 47.51,107.06 47.51,94.28 48.19,94.28 48.19,91.48 44.14,91.48 44.14,169.69 40.09,169.69 
		40.09,165.54 36.25,165.54 18.64,165.54 17.23,165.54 17.23,170.52 7.03,170.52 7.03,175.92 232,175.92 232,170.52 	"/>
	<polygon class="st5" points="86.44,125.07 86.44,136.23 101.09,136.23 103.87,125.07 	"/>
	<polygon class="st5" points="86.44,138.49 86.44,170.52 86.44,170.55 92.53,170.55 100.52,138.49 	"/>
	<polygon class="st6" points="101.09,136.23 115.21,136.23 115.21,125.07 103.87,125.07 	"/>
	<polygon class="st6" points="100.52,138.49 92.53,170.55 115.21,170.55 115.21,170.52 115.21,138.49 	"/>
	<polygon class="st5" points="117.47,125.07 117.47,170.52 117.47,170.55 123.56,170.55 134.9,125.07 	"/>
	<polygon class="st6" points="146.24,134.42 146.24,125.07 134.9,125.07 123.56,170.55 139.9,170.55 139.9,165.54 140.7,165.54 
		140.7,134.42 	"/>
	<polygon class="st5" points="148.5,134.42 158.3,134.42 158.3,155.64 162.21,140 162.21,125.07 148.5,125.07 	"/>
	<polygon class="st6" points="158.3,155.64 158.3,165.54 162.21,165.54 162.21,140 	"/>
	<rect x="170.3" y="125.07" class="st6" width="6.97" height="40.47"/>
	<polygon class="st5" points="196.96,125.07 179.53,125.07 179.53,136.23 194.17,136.23 	"/>
	<polygon class="st5" points="179.53,138.49 179.53,165.54 186.49,165.54 186.49,167.02 193.61,138.49 	"/>
	<polygon class="st6" points="208.3,136.23 208.3,125.07 196.96,125.07 194.17,136.23 	"/>
	<polygon class="st6" points="193.61,138.49 186.49,167.02 186.49,170.55 208.3,170.55 208.3,170.52 208.3,138.49 	"/>
	<polygon class="st7" points="44.14,169.69 44.14,91.48 40.09,91.48 40.09,94.28 40.72,94.28 40.72,107.06 40.09,107.06 
		40.09,165.54 40.09,169.69 	"/>
	<polygon class="st7" points="162.21,94.28 162.77,94.28 162.77,107.06 162.21,107.06 162.21,110.11 162.21,118.02 162.21,125.07 
		162.21,140 162.21,165.54 162.21,169.69 166.25,169.69 166.25,91.48 162.21,91.48 	"/>
	<path class="st2" d="M195.26,80.25V71.6c0-3.09-2.51-5.6-5.6-5.6h-72.62l-7.34,14.25H195.26z"/>
	<path class="st2" d="M103.92,91.48h58.29h4.05h4.05h19.36c3.09,0,5.6-2.51,5.6-5.6V83.6h-87.29L103.92,91.48z"/>
	<path class="st2" d="M71.28,66H12.63c-3.09,0-5.6,2.51-5.6,5.6v8.65h56.9L71.28,66z"/>
	<path class="st2" d="M48.19,91.48h9.96l4.06-7.88H7.03v2.28c0,3.09,2.51,5.6,5.6,5.6h27.46h4.05H48.19z"/>
	<path class="st3" d="M58.15,91.48h45.77l4.06-7.88h87.29v-3.35H109.7L117.05,66H71.28l-7.34,14.25H7.03v3.35h55.18L58.15,91.48z
		 M98.14,69.94c0,0,5.56,6.87,5.56,9.94c0,3.07-2.49,5.56-5.56,5.56c-3.07,0-5.56-2.49-5.56-5.56
		C92.58,76.81,98.14,69.94,98.14,69.94z"/>
	<path class="st2" d="M98.14,85.44c3.07,0,5.56-2.49,5.56-5.56c0-3.07-5.56-9.94-5.56-9.94s-5.56,6.87-5.56,9.94
		C92.58,82.95,95.07,85.44,98.14,85.44z"/>
	<path class="st8" d="M52.25,134.42v31.11h17.61v-31.11H52.25z M68.19,141.85H53.92v-5.4h14.27V141.85z"/>
	<path class="st9" d="M53.92,141.85h14.27v-5.4H53.92V141.85z M59.58,137.33h1.46v3.64h-1.46V137.33z M57.11,137.33h1.46v3.64h-1.46
		V137.33z M54.65,137.33h1.46v3.64h-1.46V137.33z"/>
	<rect x="54.65" y="137.33" class="st10" width="1.46" height="3.64"/>
	<rect x="57.11" y="137.33" class="st10" width="1.46" height="3.64"/>
	<rect x="59.58" y="137.33" class="st10" width="1.46" height="3.64"/>
	<path class="st8" d="M158.3,134.42h-9.8h-2.26h-5.55v31.11h17.61v-9.89V134.42z M156.64,141.85h-14.27v-5.4h14.27V141.85z"/>
	<path class="st9" d="M142.36,141.85h14.27v-5.4h-14.27V141.85z M148.02,137.33h1.46v3.64h-1.46V137.33z M145.56,137.33h1.46v3.64
		h-1.46V137.33z M143.09,137.33h1.46v3.64h-1.46V137.33z"/>
	<rect x="143.09" y="137.33" class="st10" width="1.46" height="3.64"/>
	<rect x="145.56" y="137.33" class="st10" width="1.46" height="3.64"/>
	<rect x="148.02" y="137.33" class="st10" width="1.46" height="3.64"/>
	<path class="st8" d="M36.25,134.42H18.64v31.11h17.61V134.42z M34.58,141.85H20.31v-5.4h14.27V141.85z"/>
	<path class="st9" d="M20.31,141.85h14.27v-5.4H20.31V141.85z M25.97,137.33h1.46v3.64h-1.46V137.33z M23.5,137.33h1.46v3.64H23.5
		V137.33z M21.04,137.33h1.46v3.64h-1.46V137.33z"/>
	<rect x="21.04" y="137.33" class="st10" width="1.46" height="3.64"/>
	<rect x="23.5" y="137.33" class="st10" width="1.46" height="3.64"/>
	<rect x="25.97" y="137.33" class="st10" width="1.46" height="3.64"/>
	<path class="st2" d="M66.67,100.67c0-3.53-2.86-6.39-6.39-6.39H48.19h-0.67v12.79h0.67h12.09
		C63.81,107.06,66.67,104.2,66.67,100.67z M55.16,100.67c0-2.44,1.98-4.42,4.42-4.42c2.44,0,4.42,1.98,4.42,4.42
		c0,2.44-1.98,4.42-4.42,4.42C57.14,105.09,55.16,103.11,55.16,100.67z"/>
	<path class="st2" d="M40.72,94.28h-0.63H27.95c-3.53,0-6.39,2.86-6.39,6.39c0,3.53,2.86,6.39,6.39,6.39h12.14h0.63V94.28z
		 M28.16,105.09c-2.44,0-4.42-1.98-4.42-4.42c0-2.44,1.98-4.42,4.42-4.42c2.44,0,4.42,1.98,4.42,4.42
		C32.58,103.11,30.6,105.09,28.16,105.09z"/>
	<path class="st2" d="M143.61,100.67c0,1.66,0.64,3.18,1.68,4.31c1.17,1.28,2.84,2.08,4.71,2.08h12.2h0.57V94.28h-0.57h-12.2
		C146.48,94.28,143.61,97.14,143.61,100.67z M154.7,100.67c0,2.44-1.98,4.42-4.42,4.42c-2.44,0-4.42-1.98-4.42-4.42
		c0-2.44,1.98-4.42,4.42-4.42C152.73,96.25,154.7,98.23,154.7,100.67z"/>
	<path class="st3" d="M28.16,96.25c-2.44,0-4.42,1.98-4.42,4.42c0,2.44,1.98,4.42,4.42,4.42c2.44,0,4.42-1.98,4.42-4.42
		C32.58,98.23,30.6,96.25,28.16,96.25z"/>
	<path class="st3" d="M63.99,100.67c0-2.44-1.98-4.42-4.42-4.42c-2.44,0-4.42,1.98-4.42,4.42c0,2.44,1.98,4.42,4.42,4.42
		C62.02,105.09,63.99,103.11,63.99,100.67z"/>
	<path class="st3" d="M145.87,100.67c0,2.44,1.98,4.42,4.42,4.42c2.44,0,4.42-1.98,4.42-4.42c0-2.44-1.98-4.42-4.42-4.42
		C147.85,96.25,145.87,98.23,145.87,100.67z"/>
</g>
</svg>
