<?xml version="1.0" encoding="utf-8"?>
<!-- Generator: Adobe Illustrator 23.0.3, SVG Export Plug-In . SVG Version: 6.00 Build 0)  -->
<svg version="1.1" id="Ebene_1" xmlns="http://www.w3.org/2000/svg" xmlns:xlink="http://www.w3.org/1999/xlink" x="0px" y="0px"
	 viewBox="0 0 240 240" style="enable-background:new 0 0 240 240;" xml:space="preserve">
<style type="text/css">
	.st0{fill:none;}
	.st1{fill:#465A64;}
	.st2{fill:#FBBD1D;}
	.st3{fill:#4EB5AB;}
	.st4{fill:#009587;}
	.st5{fill:#EF7F1E;}
	.st6{fill:#20A599;}
	.st7{fill:#CBE5E9;}
	.st8{fill:#D9EDEF;}
	.st9{fill:#6E878D;}
	.st10{fill:#D6DDE1;}
</style>
<g>
	<rect x="0" class="st0" width="240" height="240"/>
</g>
<g>
	<polygon class="st0" points="231.32,138.05 234.35,138.05 234.35,128.37 231.32,128.37 231.32,135.37 	"/>
	<polygon class="st0" points="231.32,72.46 231.32,76.3 234.35,76.3 234.35,67.94 231.32,67.94 231.32,69.53 	"/>
	<rect x="231.32" y="138.66" class="st0" width="3.03" height="9.68"/>
	<polygon class="st0" points="231.32,85.63 231.32,86.59 234.35,86.59 234.35,76.91 231.32,76.91 231.32,82.7 	"/>
	<polygon class="st0" points="231.32,164.64 231.32,168.93 234.35,168.93 234.35,159.25 231.32,159.25 231.32,161.71 	"/>
	<polygon class="st0" points="231.32,177.81 231.32,179.22 234.35,179.22 234.35,169.54 231.32,169.54 231.32,174.88 	"/>
	<polygon class="st0" points="231.32,189.51 234.35,189.51 234.35,179.83 231.32,179.83 231.32,188.05 	"/>
	<polygon class="st0" points="231.32,111.96 231.32,117.47 234.35,117.47 234.35,107.78 231.32,107.78 231.32,109.04 	"/>
	<polygon class="st0" points="231.32,158.64 234.35,158.64 234.35,148.95 231.32,148.95 231.32,151.47 	"/>
	<polygon class="st0" points="231.32,96.88 234.35,96.88 234.35,87.2 231.32,87.2 231.32,95.87 	"/>
	<polygon class="st0" points="231.32,125.13 231.32,127.76 234.35,127.76 234.35,118.08 231.32,118.08 231.32,122.2 	"/>
	<polygon class="st0" points="137.98,118.48 141.38,118.48 141.38,114.71 111.8,114.71 111.8,125.56 78.11,125.56 78.11,130.97 
		137.98,130.97 	"/>
	<path class="st0" d="M59.1,117.79h-0.63v-3.2h0.63v-3.85h7.11V92.84H30.78v7.13c3.17,0.74,5.54,3.58,5.54,6.98v0.65
		c9.63,3.28,16.55,12.39,16.55,23.13v0.25h6.22V117.79z"/>
	<polygon class="st0" points="231.32,107.18 234.35,107.18 234.35,97.49 231.32,97.49 231.32,98.8 	"/>
	<path class="st1" d="M29.15,99.78c0.56,0,1.1,0.07,1.63,0.19v-7.13H66.2v17.89h4.69V88.16H26.09v11.82
		c0.52-0.12,1.07-0.19,1.63-0.19H29.15z"/>
	<path class="st2" d="M36.32,107.6v-0.65c0-3.4-2.37-6.24-5.54-6.98c-0.52-0.12-1.07-0.19-1.63-0.19h-1.43
		c-0.56,0-1.1,0.07-1.63,0.19c-3.17,0.74-5.54,3.58-5.54,6.98v0.65c2.47-0.84,5.12-1.31,7.88-1.31
		C31.2,106.29,33.85,106.75,36.32,107.6z"/>
	<rect x="4" y="175.58" class="st3" width="48.87" height="5.86"/>
	<path class="st3" d="M49.26,130.97h3.62v-0.25c0-10.73-6.93-19.85-16.55-23.13c-2.48-0.84-5.13-1.31-7.89-1.31
		c-2.76,0-5.41,0.46-7.88,1.31C10.93,110.88,4,119.99,4,130.73v5.85h45.26V130.97z"/>
	<polygon class="st3" points="52.87,189.4 4,189.4 4,199.03 52.87,199.03 52.87,199.03 52.87,199.03 	"/>
	<rect x="4" y="144.54" class="st3" width="45.26" height="5.86"/>
	<rect x="4" y="136.57" class="st4" width="45.26" height="7.97"/>
	<rect x="4" y="181.43" class="st4" width="48.87" height="7.97"/>
	<polygon class="st4" points="52.87,155.52 49.26,155.52 49.26,150.4 4,150.4 4,175.58 52.87,175.58 	"/>
	<polygon class="st1" points="111.8,125.56 111.8,114.71 141.38,114.71 141.38,118.48 146.07,118.48 146.07,110.03 107.11,110.03 
		107.11,120.87 78.11,120.87 78.11,125.56 	"/>
	<path class="st2" d="M137.98,155.52H52.87v20.05v5.86v7.97v9.62h0h85.11v-4.37V155.52z M127.28,182.87h-63.7v-22.75h63.7V182.87z"
		/>
	<polygon class="st5" points="78.11,130.97 70.89,130.97 66.2,130.97 59.1,130.97 52.87,130.97 49.26,130.97 49.26,136.57 
		49.26,144.54 49.26,150.4 49.26,155.52 52.87,155.52 137.98,155.52 137.98,130.97 	"/>
	<path class="st3" d="M137.98,118.48v12.49v24.55v39.13h75.44v-76.17h-7.26h-14.7h-4.31h-14.7h-4.31h-14.7h-7.38h-4.69H137.98z
		 M189.87,129.23h15.42V136h-15.42V129.23z M189.87,138.99h15.42v6.78h-15.42V138.99z M189.87,148.75h15.42v6.78h-15.42V148.75z
		 M189.87,158.38h15.42v6.78h-15.42V158.38z M189.87,168.14h15.42v6.78h-15.42V168.14z M189.87,177.9h15.42v6.78h-15.42V177.9z
		 M168,129.23h15.42V136H168V129.23z M168,138.99h15.42v6.78H168V138.99z M168,148.75h15.42v6.78H168V148.75z M168,158.38h15.42
		v6.78H168V158.38z M168,168.14h15.42v6.78H168V168.14z M168,177.9h15.42v6.78H168V177.9z M146.12,129.23h15.42V136h-15.42V129.23z
		 M146.12,138.99h15.42v6.78h-15.42V138.99z M146.12,148.75h15.42v6.78h-15.42V148.75z M146.12,158.38h15.42v6.78h-15.42V158.38z
		 M146.12,168.14h15.42v6.78h-15.42V168.14z M146.12,177.9h15.42v6.78h-15.42V177.9z"/>
	<rect x="137.98" y="194.66" class="st6" width="75.44" height="4.37"/>
	<polygon class="st1" points="217.3,164.64 217.3,174.88 231.32,174.88 231.32,169.54 231.32,169.54 231.32,168.93 231.32,168.93 
		231.32,164.64 	"/>
	<polygon class="st1" points="217.3,177.81 217.3,188.05 231.32,188.05 231.32,179.83 231.32,179.83 231.32,179.22 231.32,179.22 
		231.32,177.81 	"/>
	<polygon class="st1" points="231.32,76.91 231.32,76.91 231.32,76.3 231.32,76.3 231.32,72.46 213.42,72.46 213.42,82.7 
		231.32,82.7 	"/>
	<polygon class="st1" points="231.32,67.94 231.1,67.94 231.1,67.33 231.32,67.33 231.32,61.18 231.32,61.18 213.42,61.18 
		213.42,69.53 231.32,69.53 	"/>
	<polygon class="st1" points="217.3,151.47 217.3,161.71 231.32,161.71 231.32,159.25 231.32,159.25 231.32,158.64 231.32,158.64 
		231.32,151.47 	"/>
	<polygon class="st1" points="217.3,125.13 217.3,135.37 231.32,135.37 231.32,128.37 231.32,128.37 231.32,127.76 231.32,127.76 
		231.32,125.13 	"/>
	<polygon class="st1" points="231.32,122.2 231.32,118.08 231.32,118.08 231.32,117.47 231.32,117.47 231.32,111.96 213.42,111.96 
		213.42,118.48 215.93,122.2 	"/>
	<polygon class="st1" points="231.32,87.2 231.32,87.2 231.32,86.59 231.32,86.59 231.32,85.63 213.42,85.63 213.42,95.87 
		231.32,95.87 	"/>
	<polygon class="st1" points="231.32,107.78 231.32,107.78 231.32,107.18 231.32,107.18 231.32,98.8 213.42,98.8 213.42,109.04 
		231.32,109.04 	"/>
	<polygon class="st1" points="217.3,148.54 231.32,148.54 231.32,148.35 231.32,148.35 231.32,138.66 231.32,138.66 231.32,138.3 
		217.3,138.3 	"/>
	<polygon class="st1" points="217.3,199.03 213.42,199.03 213.42,199.03 231.32,199.03 231.32,190.98 217.3,190.98 	"/>
	<path class="st5" d="M63.58,182.87h63.7v-22.75h-63.7V182.87z M65.01,161.55h60.83v19.88H65.01V161.55z"/>
	<polygon class="st7" points="65.01,161.55 65.01,181.43 125.84,161.55 	"/>
	<polygon class="st8" points="125.84,161.55 65.01,181.43 125.84,181.43 	"/>
	<polygon class="st9" points="231.32,67.33 231.1,67.33 231.1,67.94 231.32,67.94 234.35,67.94 234.35,76.3 231.32,76.3 
		231.32,76.3 231.32,76.91 231.32,76.91 234.35,76.91 234.35,86.59 231.32,86.59 231.32,86.59 231.32,87.2 231.32,87.2 234.35,87.2 
		234.35,96.88 231.32,96.88 231.32,97.49 234.35,97.49 234.35,107.18 231.32,107.18 231.32,107.18 231.32,107.78 231.32,107.78 
		234.35,107.78 234.35,117.47 231.32,117.47 231.32,117.47 231.32,118.08 231.32,118.08 234.35,118.08 234.35,127.76 231.32,127.76 
		231.32,127.76 231.32,128.37 231.32,128.37 234.35,128.37 234.35,138.05 231.32,138.05 231.32,138.3 231.32,138.3 231.32,138.66 
		231.32,138.66 234.35,138.66 234.35,148.35 231.32,148.35 231.32,148.35 231.32,148.54 231.32,148.54 231.32,148.95 234.35,148.95 
		234.35,158.64 231.32,158.64 231.32,158.64 231.32,159.25 231.32,159.25 234.35,159.25 234.35,168.93 231.32,168.93 231.32,168.93 
		231.32,169.54 231.32,169.54 234.35,169.54 234.35,179.22 231.32,179.22 231.32,179.22 231.32,179.83 231.32,179.83 234.35,179.83 
		234.35,189.51 231.32,189.51 231.32,190.12 234.35,190.12 234.35,199.03 235,199.03 235,67.33 	"/>
	<polygon class="st2" points="168.15,115.6 166.1,115.6 155.5,115.6 153.45,115.6 153.45,118.48 168.15,118.48 	"/>
	<polygon class="st2" points="187.15,115.6 185.1,115.6 174.5,115.6 172.45,115.6 172.45,118.48 187.15,118.48 	"/>
	<polygon class="st2" points="206.16,115.6 204.11,115.6 193.51,115.6 191.46,115.6 191.46,118.48 206.16,118.48 	"/>
	<polygon class="st4" points="163.86,99.78 157.73,99.78 155.5,115.6 166.1,115.6 	"/>
	<polygon class="st4" points="182.87,99.78 176.74,99.78 174.5,115.6 185.1,115.6 	"/>
	<polygon class="st4" points="201.87,99.78 195.75,99.78 193.51,115.6 204.11,115.6 	"/>
	<polygon class="st7" points="146.12,129.23 146.12,136 161.53,129.23 	"/>
	<polygon class="st7" points="168,129.23 168,136 183.41,129.23 	"/>
	<polygon class="st7" points="189.87,129.23 189.87,136 205.29,129.23 	"/>
	<polygon class="st7" points="146.12,138.99 146.12,145.76 161.53,138.99 	"/>
	<polygon class="st7" points="168,138.99 168,145.76 183.41,138.99 	"/>
	<polygon class="st7" points="189.87,138.99 189.87,145.76 205.29,138.99 	"/>
	<polygon class="st7" points="146.12,148.75 146.12,155.52 161.53,148.75 	"/>
	<polygon class="st7" points="168,148.75 168,155.52 183.41,148.75 	"/>
	<polygon class="st7" points="189.87,148.75 189.87,155.52 205.29,148.75 	"/>
	<polygon class="st8" points="161.53,129.23 146.12,136 161.53,136 	"/>
	<polygon class="st8" points="183.41,129.23 168,136 183.41,136 	"/>
	<polygon class="st8" points="205.29,129.23 189.87,136 205.29,136 	"/>
	<polygon class="st8" points="161.53,138.99 146.12,145.76 161.53,145.76 	"/>
	<polygon class="st8" points="183.41,138.99 168,145.76 183.41,145.76 	"/>
	<polygon class="st8" points="205.29,138.99 189.87,145.76 205.29,145.76 	"/>
	<polygon class="st8" points="161.53,148.75 146.12,155.52 161.53,155.52 	"/>
	<polygon class="st8" points="183.41,148.75 168,155.52 183.41,155.52 	"/>
	<polygon class="st8" points="205.29,148.75 189.87,155.52 205.29,155.52 	"/>
	<polygon class="st7" points="146.12,158.38 146.12,165.16 161.53,158.38 	"/>
	<polygon class="st7" points="168,158.38 168,165.16 183.41,158.38 	"/>
	<polygon class="st7" points="189.87,158.38 189.87,165.16 205.29,158.38 	"/>
	<polygon class="st7" points="146.12,168.14 146.12,174.92 161.53,168.14 	"/>
	<polygon class="st7" points="168,168.14 168,174.92 183.41,168.14 	"/>
	<polygon class="st7" points="189.87,168.14 189.87,174.92 205.29,168.14 	"/>
	<polygon class="st7" points="146.12,177.9 146.12,184.68 161.53,177.9 	"/>
	<polygon class="st7" points="168,177.9 168,184.68 183.41,177.9 	"/>
	<polygon class="st7" points="189.87,177.9 189.87,184.68 205.29,177.9 	"/>
	<polygon class="st8" points="161.53,158.38 146.12,165.16 161.53,165.16 	"/>
	<polygon class="st8" points="183.41,158.38 168,165.16 183.41,165.16 	"/>
	<polygon class="st8" points="205.29,158.38 189.87,165.16 205.29,165.16 	"/>
	<polygon class="st8" points="161.53,168.14 146.12,174.92 161.53,174.92 	"/>
	<polygon class="st8" points="183.41,168.14 168,174.92 183.41,174.92 	"/>
	<polygon class="st8" points="205.29,168.14 189.87,174.92 205.29,174.92 	"/>
	<polygon class="st8" points="161.53,177.9 146.12,184.68 161.53,184.68 	"/>
	<polygon class="st8" points="183.41,177.9 168,184.68 183.41,184.68 	"/>
	<polygon class="st8" points="205.29,177.9 189.87,184.68 205.29,184.68 	"/>
	<polygon class="st2" points="59.1,110.74 59.1,114.59 78.11,114.59 78.11,110.74 70.89,110.74 66.2,110.74 	"/>
	<polygon class="st2" points="59.1,130.97 66.2,130.97 70.89,130.97 78.11,130.97 78.11,125.56 78.11,120.87 78.11,117.79 
		59.1,117.79 	"/>
	<polygon class="st1" points="233.05,40.97 211.7,40.97 213.42,47.71 231.32,47.71 	"/>
	<polygon class="st3" points="233.05,54.44 231.32,47.71 213.42,47.71 211.7,54.44 213.42,61.18 213.42,61.18 231.32,61.18 	"/>
	<polygon class="st5" points="58.46,114.59 58.46,117.79 59.1,117.79 78.11,117.79 78.74,117.79 78.74,114.59 78.11,114.59 
		59.1,114.59 	"/>
	<rect x="213.42" y="69.53" class="st3" width="17.9" height="2.93"/>
	<rect x="213.42" y="82.7" class="st3" width="17.9" height="2.93"/>
	<polygon class="st3" points="231.32,97.49 231.32,96.88 231.32,95.87 213.42,95.87 213.42,98.8 231.32,98.8 	"/>
	<rect x="213.42" y="109.04" class="st3" width="17.9" height="2.93"/>
	<polygon class="st3" points="231.32,122.2 215.93,122.2 217.3,124.23 217.3,125.13 231.32,125.13 	"/>
	<polygon class="st3" points="217.3,135.37 217.3,138.3 231.32,138.3 231.32,138.3 231.32,138.05 231.32,135.37 	"/>
	<polygon class="st3" points="217.3,151.47 231.32,151.47 231.32,148.95 231.32,148.54 231.32,148.54 217.3,148.54 	"/>
	<rect x="217.3" y="161.71" class="st3" width="14.02" height="2.93"/>
	<rect x="217.3" y="174.88" class="st3" width="14.02" height="2.93"/>
	<polygon class="st3" points="231.32,188.05 217.3,188.05 217.3,190.98 231.32,190.98 231.32,190.12 231.32,189.51 	"/>
	<polygon class="st10" points="217.3,190.98 217.3,188.05 217.3,177.81 217.3,174.88 217.3,164.64 217.3,161.71 217.3,151.47 
		217.3,148.54 217.3,138.3 217.3,135.37 217.3,125.13 217.3,124.23 215.93,122.2 213.42,118.48 213.42,118.48 213.42,194.66 
		213.42,199.03 213.42,199.03 217.3,199.03 	"/>
</g>
</svg>
