<?xml version="1.0" encoding="utf-8"?>
<!-- Generator: Adobe Illustrator 23.0.3, SVG Export Plug-In . SVG Version: 6.00 Build 0)  -->
<svg version="1.1" id="Ebene_1" xmlns="http://www.w3.org/2000/svg" xmlns:xlink="http://www.w3.org/1999/xlink" x="0px" y="0px"
	 viewBox="0 0 240 240" style="enable-background:new 0 0 240 240;" xml:space="preserve">
<style type="text/css">
	.st0{fill:none;}
	.st1{fill:#617D8A;}
	.st2{fill:#FBBD1D;}
	.st3{fill:#84544C;}
	.st4{fill:#446368;}
	.st5{fill:#AEBDC4;}
	.st6{fill:#8FA3AD;}
	.st7{fill:#EF7F1E;}
	.st8{fill:#D6DDE1;}
	.st9{fill:#CBE5E9;}
	.st10{fill:#D9EDEF;}
	.st11{fill:#B27D6B;}
</style>
<g>
	<rect x="0" class="st0" width="240" height="240"/>
</g>
<g>
	<polygon class="st0" points="197.94,118.8 196.33,111.53 193.87,115.21 	"/>
	<polygon class="st0" points="198.07,111.7 199.77,119.41 199.77,113.2 	"/>
	<polygon class="st0" points="186.52,126.85 186.52,130.78 189.46,130.78 189.46,138.32 192.13,138.32 192.13,126.85 	"/>
	<polygon class="st0" points="173.67,90.11 173.67,97.03 177.05,93.11 	"/>
	<polygon class="st0" points="173.67,99.55 173.67,123.24 180.34,123.24 180.34,130.78 182.1,130.78 182.1,122.43 196.55,122.43 
		196.55,138.32 199.77,138.32 199.77,122.64 	"/>
	<polygon class="st0" points="178.52,101.62 177.62,94.99 174.77,98.3 	"/>
	<polygon class="st0" points="183.2,98.55 179.31,95.1 180.19,101.61 	"/>
	<polygon class="st0" points="139.48,109.3 139.48,112.68 139.48,115.7 142.64,115.7 142.64,109.3 	"/>
	<polygon class="st0" points="184.75,107.14 183.79,100.31 180.65,103.51 	"/>
	<polygon class="st0" points="191.57,113.18 189.76,105.53 186.86,109 	"/>
	<polygon class="st0" points="195.65,109.56 191.56,105.95 193.27,113.13 	"/>
	<polygon class="st0" points="189.09,103.75 185.51,100.58 186.4,106.96 	"/>
	<polygon class="st0" points="135.19,105.82 142.64,109.3 142.64,105.82 	"/>
	<polygon class="st1" points="47.01,86.45 47.01,80.93 33.84,80.93 33.84,84.99 35.58,86.45 	"/>
	<rect x="33.84" y="69.19" class="st1" width="13.17" height="5.53"/>
	<polygon class="st1" points="47.01,96.05 47.01,92.67 42.98,92.67 	"/>
	<polygon class="st1" points="22.86,86.45 22.86,80.93 9.69,80.93 9.69,84.99 11.43,86.45 	"/>
	<polygon class="st1" points="22.86,96.05 22.86,92.67 18.83,92.67 	"/>
	<rect x="9.69" y="69.19" class="st1" width="13.17" height="5.53"/>
	<rect x="9.69" y="62.97" class="st2" width="13.17" height="6.22"/>
	<rect x="9.69" y="74.71" class="st2" width="13.17" height="6.22"/>
	<polygon class="st2" points="18.83,92.67 22.86,92.67 22.86,86.45 11.43,86.45 	"/>
	<rect x="33.84" y="62.97" class="st2" width="13.17" height="6.22"/>
	<rect x="33.84" y="74.71" class="st2" width="13.17" height="6.22"/>
	<polygon class="st2" points="42.98,92.67 47.01,92.67 47.01,86.45 35.58,86.45 	"/>
	<path class="st3" d="M40.78,163.34v-50.67v-3.37h-3.16l15-7.09v-1.55H52.5l-5.49-4.61l-4.03-3.38l-7.4-6.22l-1.75-1.47l-5.49-4.61
		v20.29l-5.49-4.61l-4.03-3.38l-7.4-6.22l-1.75-1.47L4.2,80.38v20.29V177h36.58v-12.87V163.34z M35.66,167.98H11.21v-7.39h24.45
		V167.98z M35.66,153.73H11.21v-7.39h24.45V153.73z"/>
	<path class="st4" d="M177.05,93.11l-3.39,3.93v2.51l26.1,23.09v-3.23l-1.7-7.71l1.7,1.5v-2.21l-26.1-23.09v2.21L177.05,93.11z
		 M197.94,118.8l-4.07-3.6l2.46-3.68L197.94,118.8z M195.65,109.56l-2.39,3.56l-1.7-7.18L195.65,109.56z M191.57,113.18l-4.72-4.17
		l2.91-3.47L191.57,113.18z M189.09,103.75l-2.68,3.21l-0.9-6.38L189.09,103.75z M184.75,107.14l-4.1-3.63l3.14-3.2L184.75,107.14z
		 M183.2,98.55l-3.01,3.07l-0.88-6.51L183.2,98.55z M178.52,101.62l-3.75-3.32l2.85-3.31L178.52,101.62z"/>
	<polygon class="st4" points="182.1,122.43 182.1,130.78 186.52,130.78 186.52,126.85 192.13,126.85 192.13,138.32 196.55,138.32 
		196.55,122.43 	"/>
	<polygon class="st5" points="155.07,115.7 158.15,115.7 158.15,81.82 142.64,81.82 142.64,101.4 155.07,101.4 	"/>
	<polygon class="st5" points="142.64,105.82 142.64,109.3 142.64,115.7 145.84,115.7 150.65,115.7 150.65,105.82 	"/>
	<polygon class="st6" points="158.15,115.7 170.4,115.7 170.4,123.24 173.67,123.24 173.67,99.55 173.67,97.03 173.67,90.11 
		173.67,87.9 173.67,81.82 158.15,81.82 	"/>
	<polygon class="st1" points="173.67,81.82 175.64,81.82 175.64,76.65 140.66,76.65 140.66,81.82 142.64,81.82 158.15,81.82 	"/>
	<polygon class="st1" points="222.16,101.29 225.07,101.29 225.07,96.12 196.86,96.12 196.86,101.29 199.77,101.29 210.96,101.29 	
		"/>
	<polygon class="st5" points="199.77,119.41 199.77,122.64 199.77,138.32 210.96,138.32 210.96,101.29 199.77,101.29 199.77,110.99 
		199.77,113.2 	"/>
	<rect x="210.96" y="101.29" class="st6" width="11.2" height="37.03"/>
	<path class="st3" d="M222.16,138.32h-11.2h-11.2h-3.22h-4.42h-2.67v-7.54h-2.94h-4.42h-1.75v-7.54h-6.67h-3.27v-7.54h-12.24h-3.08
		h-4.42h-4.81V177H236v-38.68H222.16z M226.67,167.98h-77.92v-7.39h77.92V167.98z M226.67,153.73h-77.92v-7.39h77.92V153.73z"/>
	<path class="st7" d="M40.78,112.68v50.67h98.38V115.7h0.32v-3.02H40.78z M62.43,149.77H51.38v-26.86h11.05V149.77z M78.55,149.77
		H67.49v-26.86h11.05V149.77z M95.65,149.77H84.6v-26.86h11.05V149.77z M110.78,149.77H99.73v-26.86h11.05V149.77z M126.9,149.77
		h-11.05v-26.86h11.05V149.77z"/>
	<rect x="40.78" y="109.3" class="st7" width="98.7" height="3.37"/>
	<rect x="40.78" y="109.3" class="st8" width="98.7" height="3.37"/>
	<polygon class="st4" points="142.64,105.82 150.65,105.82 150.65,115.7 155.07,115.7 155.07,101.4 142.64,101.4 125.75,101.4 
		135.19,105.82 	"/>
	<polygon class="st2" points="40.78,109.3 139.48,109.3 142.64,109.3 135.19,105.82 125.75,101.4 89.89,84.6 52.62,102.21 
		37.62,109.3 	"/>
	<polygon class="st9" points="51.38,149.77 62.43,122.92 51.38,122.92 	"/>
	<polygon class="st9" points="67.49,149.77 78.55,122.92 67.49,122.92 	"/>
	<polygon class="st9" points="84.6,149.77 95.65,122.92 84.6,122.92 	"/>
	<polygon class="st9" points="99.73,149.77 110.78,122.92 99.73,122.92 	"/>
	<polygon class="st9" points="115.85,149.77 126.9,122.92 115.85,122.92 	"/>
	<polygon class="st9" points="148.75,153.73 226.67,146.35 148.75,146.35 	"/>
	<polygon class="st9" points="148.75,167.98 226.67,160.6 148.75,160.6 	"/>
	<polygon class="st9" points="11.21,153.73 35.66,146.35 11.21,146.35 	"/>
	<polygon class="st9" points="11.21,167.98 35.66,160.6 11.21,160.6 	"/>
	<polygon class="st10" points="62.43,149.77 62.43,122.92 51.38,149.77 	"/>
	<polygon class="st10" points="78.55,149.77 78.55,122.92 67.49,149.77 	"/>
	<polygon class="st10" points="95.65,149.77 95.65,122.92 84.6,149.77 	"/>
	<polygon class="st10" points="110.78,149.77 110.78,122.92 99.73,149.77 	"/>
	<polygon class="st10" points="126.9,149.77 126.9,122.92 115.85,149.77 	"/>
	<polygon class="st10" points="226.67,153.73 226.67,146.35 148.75,153.73 	"/>
	<polygon class="st10" points="226.67,167.98 226.67,160.6 148.75,167.98 	"/>
	<polygon class="st10" points="35.66,153.73 35.66,146.35 11.21,153.73 	"/>
	<polygon class="st10" points="35.66,167.98 35.66,160.6 11.21,167.98 	"/>
	<path class="st11" d="M139.16,163.34H40.78v0.79V177v0h98.7v0h-0.32V163.34z M52.52,176.21H41.59v-5.67h10.92V176.21z M52.52,169.8
		H41.59v-5.67h10.92V169.8z M64.82,176.21H53.9v-5.67h10.92V176.21z M64.82,169.8H53.9v-5.67h10.92V169.8z M77.13,176.21H66.21
		v-5.67h10.92V176.21z M77.13,169.8H66.21v-5.67h10.92V169.8z M89.44,176.21H78.51v-5.67h10.92V176.21z M89.44,169.8H78.51v-5.67
		h10.92V169.8z M101.74,176.21H90.82v-5.67h10.92V176.21z M101.74,169.8H90.82v-5.67h10.92V169.8z M114.05,176.21h-10.92v-5.67
		h10.92V176.21z M114.05,169.8h-10.92v-5.67h10.92V169.8z M126.35,176.21h-10.92v-5.67h10.92V176.21z M126.35,169.8h-10.92v-5.67
		h10.92V169.8z M138.66,176.21h-10.92v-5.67h10.92V176.21z M138.66,169.8h-10.92v-5.67h10.92V169.8z"/>
	<rect x="41.59" y="164.13" class="st3" width="10.92" height="5.67"/>
	<rect x="41.59" y="170.54" class="st3" width="10.92" height="5.67"/>
	<rect x="53.9" y="164.13" class="st3" width="10.92" height="5.67"/>
	<rect x="53.9" y="170.54" class="st3" width="10.92" height="5.67"/>
	<rect x="66.21" y="164.13" class="st3" width="10.92" height="5.67"/>
	<rect x="66.21" y="170.54" class="st3" width="10.92" height="5.67"/>
	<rect x="78.51" y="164.13" class="st3" width="10.92" height="5.67"/>
	<rect x="78.51" y="170.54" class="st3" width="10.92" height="5.67"/>
	<rect x="90.82" y="164.13" class="st3" width="10.92" height="5.67"/>
	<rect x="90.82" y="170.54" class="st3" width="10.92" height="5.67"/>
	<rect x="103.12" y="164.13" class="st3" width="10.92" height="5.67"/>
	<rect x="103.12" y="170.54" class="st3" width="10.92" height="5.67"/>
	<rect x="115.43" y="164.13" class="st3" width="10.92" height="5.67"/>
	<rect x="115.43" y="170.54" class="st3" width="10.92" height="5.67"/>
	<rect x="127.74" y="164.13" class="st3" width="10.92" height="5.67"/>
	<rect x="127.74" y="170.54" class="st3" width="10.92" height="5.67"/>
	<polygon class="st3" points="142.64,115.7 139.48,115.7 139.48,163.34 139.48,164.13 139.48,177 145.84,177 145.84,115.7 	"/>
	<polygon class="st8" points="142.64,115.7 139.48,115.7 139.48,163.34 139.48,164.13 139.48,177 145.84,177 145.84,115.7 	"/>
	<rect x="139.16" y="115.7" class="st7" width="0.32" height="47.65"/>
	<rect x="139.16" y="115.7" class="st8" width="0.32" height="47.65"/>
	<polygon class="st11" points="139.48,163.34 139.16,163.34 139.16,177 139.48,177 139.48,164.13 	"/>
	<polygon class="st8" points="139.48,163.34 139.16,163.34 139.16,177 139.48,177 139.48,164.13 	"/>
</g>
</svg>
