<?xml version="1.0" encoding="utf-8"?>
<!-- Generator: Adobe Illustrator 23.0.3, SVG Export Plug-In . SVG Version: 6.00 Build 0)  -->
<svg version="1.1" id="Ebene_1" xmlns="http://www.w3.org/2000/svg" xmlns:xlink="http://www.w3.org/1999/xlink" x="0px" y="0px"
	 viewBox="0 0 240 240" style="enable-background:new 0 0 240 240;" xml:space="preserve">
<style type="text/css">
	.st0{fill:none;}
	.st1{fill:#575C64;}
	.st2{fill:#6F7580;}
	.st3{fill:#B3B3B2;}
	.st4{fill:#D0CFD0;}
	.st5{fill:#54C3F0;}
	.st6{fill:#4CB3E6;}
	.st7{fill:#303F4E;}
</style>
<g>
	<rect x="0" class="st0" width="240" height="240"/>
</g>
<g>
	<polygon class="st1" points="200.19,193.44 200.19,211 222.04,211 222.04,193.44 208.85,193.44 201.62,193.44 	"/>
	<path class="st2" d="M49.09,89.01c0,1.63-1.02,3.01-2.45,3.56v40.9H74.3V92.13c-0.62,0.44-1.38,0.71-2.2,0.71
		c-2.11,0-3.82-1.71-3.82-3.82c0-2.11,1.71-3.82,3.82-3.82h2.2h2.36v-0.18H46.64v0.44C48.07,86.01,49.09,87.39,49.09,89.01z
		 M68.82,94.54v32.19v2.12H48v-2.12V94.54h12.61H68.82z"/>
	<path class="st2" d="M89.5,89.01c0,1.63-1.02,3.01-2.45,3.56v40.9h67.28V92.13c-0.62,0.44-1.38,0.71-2.2,0.71
		c-2.11,0-3.82-1.71-3.82-3.82c0-2.11,1.71-3.82,3.82-3.82h2.2h2.36v-0.18H87.05v0.44C88.48,86.01,89.5,87.39,89.5,89.01z
		 M123.66,126.73V94.54h12.61h8.2v32.19v2.12h-20.81V126.73z M93.34,126.73V94.54h12.61h8.2v32.19v2.12H93.34V126.73z"/>
	<polygon class="st2" points="151.32,188.4 151.32,186.34 154.33,186.34 154.33,137.78 87.05,137.78 87.05,188.4 88.41,188.4 
		88.41,193.44 92.64,193.44 92.64,153.61 93.56,153.61 93.63,153.61 118.86,153.61 119.86,153.61 144.17,153.61 145.16,153.61 
		145.16,193.44 149.39,193.44 149.39,188.4 	"/>
	<path class="st2" d="M167.08,85.45c1.43,0.55,2.45,1.93,2.45,3.56c0,1.63-1.02,3.01-2.45,3.56v40.9h27.66V92.13
		c-0.62,0.44-1.38,0.71-2.2,0.71c-2.11,0-3.82-1.71-3.82-3.82c0-2.11,1.71-3.82,3.82-3.82h2.2h4.59h0.86v-0.18h-33.11V85.45z
		 M189.25,94.54v32.19v2.12h-20.81v-2.12V94.54h12.61H189.25z"/>
	<path class="st2" d="M77.36,205.15h5.49v-1.37v-4.48h5.57v-1.37v-4.48h-1.36h-5.87h-4.52h-7.3v-5.04h1.94v-2.06h3v-48.55H46.64
		v50.62H48v5.04h-1.36h-5.87h-4.52h-7.3H15.76V211h21.85h39.74v-1.37V205.15z M68.82,180.28v2.12H48v-2.12V148.1h12.61h8.21V180.28z
		"/>
	<path class="st2" d="M189.79,193.44v-5.04h1.94v-2.06h3v-48.55h-27.66v50.62h1.36v5.04h-1.36h-5.87h-4.52h-7.3v4.48v1.37h5.57v4.48
		v1.37h5.49v4.48V211h39.75v-17.56H189.79z M189.25,180.28v2.12h-20.81v-2.12V148.1h12.61h8.2V180.28z"/>
	<path class="st1" d="M39.86,85.19h3.2h2.2c0.49,0,0.95,0.1,1.37,0.26v-0.44H36.25v0.18h2.23H39.86z"/>
	<path class="st1" d="M78.89,85.19h1.39h3.2h2.2c0.49,0,0.95,0.1,1.37,0.26v-0.44H76.66v0.18H78.89z"/>
	<path class="st1" d="M83.47,92.13v94.21h3v2.06h0.57v-50.62h67.28v-4.32H87.05v-40.9c-0.43,0.17-0.89,0.26-1.37,0.26
		C84.85,92.84,84.1,92.57,83.47,92.13z"/>
	<path class="st1" d="M163.5,92.13v94.21h3v2.06h0.57v-50.62h27.66v-4.32h-27.66v-40.9c-0.43,0.17-0.89,0.26-1.37,0.26
		C164.88,92.84,164.12,92.57,163.5,92.13z"/>
	<path class="st1" d="M158.91,85.19h1.39h3.2h2.2c0.49,0,0.95,0.1,1.37,0.26v-0.44h-10.39v0.18H158.91z"/>
	<path class="st1" d="M46.64,133.47v-40.9c-0.43,0.17-0.89,0.26-1.37,0.26c-0.82,0-1.58-0.26-2.2-0.71v94.21h3v2.06h0.57v-50.62
		H74.3v-4.32H46.64z"/>
	<polygon class="st3" points="15.76,85.01 36.25,85.01 46.64,85.01 76.66,85.01 87.05,85.01 156.68,85.01 167.08,85.01 
		200.19,85.01 222.04,85.01 222.04,80.09 15.76,80.09 	"/>
	<path class="st4" d="M118.9,29L10.8,78.46h4.96h206.28H227L118.9,29z M123.66,73.87H37.61l81.29-40l81.29,40H123.66z"/>
	<polygon class="st2" points="37.61,73.87 123.66,73.87 118.9,33.86 	"/>
	<polygon class="st1" points="123.66,73.87 200.19,73.87 118.9,33.86 	"/>
	<rect x="15.76" y="78.46" class="st2" width="206.28" height="1.64"/>
	<polygon class="st5" points="181.05,148.1 168.44,148.1 168.44,180.28 172.84,180.28 	"/>
	<polygon class="st6" points="172.84,180.28 189.25,180.28 189.25,148.1 181.05,148.1 	"/>
	<polygon class="st7" points="168.44,180.28 168.44,182.41 189.25,182.41 189.25,180.28 172.84,180.28 	"/>
	<polygon class="st5" points="60.61,148.1 48,148.1 48,180.28 52.41,180.28 	"/>
	<polygon class="st6" points="52.41,180.28 68.82,180.28 68.82,148.1 60.61,148.1 	"/>
	<polygon class="st7" points="48,180.28 48,182.41 68.82,182.41 68.82,180.28 52.41,180.28 	"/>
	<polygon class="st5" points="168.44,126.73 172.84,126.73 181.05,94.54 168.44,94.54 	"/>
	<polygon class="st6" points="189.25,126.73 189.25,94.54 181.05,94.54 172.84,126.73 	"/>
	<polygon class="st7" points="168.44,126.73 168.44,128.85 189.25,128.85 189.25,126.73 172.84,126.73 	"/>
	<polygon class="st5" points="136.27,94.54 123.66,94.54 123.66,126.73 128.07,126.73 	"/>
	<polygon class="st6" points="144.48,126.73 144.48,94.54 136.27,94.54 128.07,126.73 	"/>
	<polygon class="st7" points="144.48,126.73 128.07,126.73 123.66,126.73 123.66,128.85 144.48,128.85 	"/>
	<polygon class="st5" points="105.94,94.54 93.34,94.54 93.34,126.73 97.74,126.73 	"/>
	<polygon class="st6" points="114.15,126.73 114.15,94.54 105.94,94.54 97.74,126.73 	"/>
	<polygon class="st7" points="114.15,126.73 97.74,126.73 93.34,126.73 93.34,128.85 114.15,128.85 	"/>
	<polygon class="st5" points="48,126.73 52.41,126.73 60.61,94.54 48,94.54 	"/>
	<polygon class="st6" points="68.82,126.73 68.82,94.54 60.61,94.54 52.41,126.73 	"/>
	<polygon class="st7" points="48,126.73 48,128.85 68.82,128.85 68.82,126.73 52.41,126.73 	"/>
	<polygon class="st5" points="119.86,155.73 119.86,164.11 124.22,155.73 	"/>
	<polygon class="st5" points="113.26,175.92 113.7,175.92 118.86,166.01 118.86,155.73 93.63,155.73 93.63,193.44 104.58,193.44 
		113.26,176.77 	"/>
	<path class="st6" d="M124.22,155.73l-4.36,8.37v29.33h24.31v-37.7H124.22z M125.46,177.35h-3.13v-1.43h3.13V177.35z"/>
	<polygon class="st6" points="113.7,175.92 116.39,175.92 116.39,177.35 113.26,177.35 113.26,176.77 104.58,193.44 113.26,193.44 
		118.86,193.44 118.86,166.01 	"/>
	<polygon class="st7" points="93.63,155.73 118.86,155.73 118.86,166.01 118.86,193.44 119.86,193.44 119.86,164.11 119.86,155.73 
		124.22,155.73 144.17,155.73 144.17,193.44 145.16,193.44 145.16,153.61 144.17,153.61 119.86,153.61 118.86,153.61 93.63,153.61 
		93.56,153.61 92.64,153.61 92.64,193.44 93.63,193.44 	"/>
	<polygon class="st7" points="113.26,176.77 113.26,177.35 116.39,177.35 116.39,175.92 113.7,175.92 113.26,175.92 	"/>
	<rect x="122.32" y="175.92" class="st7" width="3.13" height="1.43"/>
	<path class="st4" d="M38.48,87.76h-3.19c0.14,0.39,0.23,0.81,0.23,1.25c0,1.29-0.64,2.42-1.62,3.12v94.21h4.59V87.76z"/>
	<polygon class="st4" points="40.77,193.44 40.77,189.43 39.12,189.43 39.12,186.34 38.48,186.34 33.89,186.34 30.89,186.34 
		30.89,188.4 28.95,188.4 28.95,193.44 36.25,193.44 	"/>
	<path class="st3" d="M46.07,186.34h-3V92.13c0.62,0.44,1.38,0.71,2.2,0.71c0.49,0,0.95-0.1,1.37-0.26
		c1.43-0.55,2.45-1.93,2.45-3.56c0-1.63-1.02-3.01-2.45-3.56c-0.43-0.17-0.89-0.26-1.37-0.26h-2.2h-3.2v2.57h-1.39v98.57h0.64v3.1
		h1.65v4h5.87H48v-5.04h-1.36h-0.57V186.34z"/>
	<path class="st4" d="M35.51,89.01c0-0.44-0.09-0.86-0.23-1.25h3.19h1.39v-2.57h-1.39h-2.23h-2.36h-2.2c-2.11,0-3.82,1.71-3.82,3.82
		c0,2.11,1.71,3.82,3.82,3.82c0.82,0,1.58-0.26,2.2-0.71C34.87,91.44,35.51,90.3,35.51,89.01z"/>
	<path class="st4" d="M78.89,87.76h-3.19c0.14,0.39,0.23,0.81,0.23,1.25c0,1.29-0.64,2.42-1.62,3.12v41.34v4.32v48.55h4.59V87.76z"
		/>
	<polygon class="st4" points="79.53,189.43 79.53,186.34 78.89,186.34 74.3,186.34 71.3,186.34 71.3,188.4 69.36,188.4 
		69.36,193.44 76.66,193.44 81.18,193.44 81.18,189.43 	"/>
	<path class="st3" d="M87.05,188.4h-0.57v-2.06h-3V92.13c0.62,0.44,1.38,0.71,2.2,0.71c0.49,0,0.95-0.1,1.37-0.26
		c1.43-0.55,2.45-1.93,2.45-3.56c0-1.63-1.02-3.01-2.45-3.56c-0.43-0.17-0.89-0.26-1.37-0.26h-2.2h-3.2v2.57h-1.39v98.57h0.64v3.1
		h1.65v4h5.87h1.36v-5.04H87.05z"/>
	<path class="st4" d="M75.92,89.01c0-0.44-0.09-0.86-0.23-1.25h3.19h1.39v-2.57h-1.39h-2.23H74.3h-2.2c-2.11,0-3.82,1.71-3.82,3.82
		c0,2.11,1.71,3.82,3.82,3.82c0.82,0,1.58-0.26,2.2-0.71C75.28,91.44,75.92,90.3,75.92,89.01z"/>
	<path class="st4" d="M154.33,186.34h4.59V87.76h-3.19c0.14,0.39,0.23,0.81,0.23,1.25c0,1.29-0.64,2.42-1.62,3.12v41.34v4.32V186.34
		z"/>
	<polygon class="st4" points="159.56,189.43 159.56,186.34 158.91,186.34 154.33,186.34 151.32,186.34 151.32,188.4 149.39,188.4 
		149.39,193.44 156.68,193.44 161.21,193.44 161.21,189.43 	"/>
	<path class="st4" d="M155.95,89.01c0-0.44-0.09-0.86-0.23-1.25h3.19h1.39v-2.57h-1.39h-2.23h-2.36h-2.2
		c-2.11,0-3.82,1.71-3.82,3.82c0,2.11,1.71,3.82,3.82,3.82c0.82,0,1.58-0.26,2.2-0.71C155.3,91.44,155.95,90.3,155.95,89.01z"/>
	<path class="st3" d="M163.5,85.19h-3.2v2.57h-1.39v98.57h0.64v3.1h1.65v4h5.87h1.36v-5.04h-1.36h-0.57v-2.06h-3V92.13
		c0.62,0.44,1.38,0.71,2.2,0.71c0.49,0,0.95-0.1,1.37-0.26c1.43-0.55,2.45-1.93,2.45-3.56c0-1.63-1.02-3.01-2.45-3.56
		c-0.43-0.17-0.89-0.26-1.37-0.26H163.5z"/>
	<path class="st4" d="M194.73,186.34h4.59V87.76h-3.19c0.14,0.39,0.23,0.81,0.23,1.25c0,1.29-0.64,2.42-1.62,3.12v41.34v4.32V186.34
		z"/>
	<path class="st3" d="M199.32,87.76v98.57h0.64v3.1h1.65v4h7.23v-5.04h-1.94v-2.06h-3V92.13c0.62,0.44,1.38,0.71,2.2,0.71
		c2.11,0,3.82-1.71,3.82-3.82c0-2.11-1.71-3.82-3.82-3.82h-2.2h-3.2v2.57H199.32z"/>
	<polygon class="st4" points="191.73,186.34 191.73,188.4 189.79,188.4 189.79,193.44 200.19,193.44 201.62,193.44 201.62,189.43 
		199.96,189.43 199.96,186.34 199.32,186.34 194.73,186.34 	"/>
	<path class="st4" d="M194.73,85.19h-2.2c-2.11,0-3.82,1.71-3.82,3.82c0,2.11,1.71,3.82,3.82,3.82c0.82,0,1.58-0.26,2.2-0.71
		c0.98-0.69,1.62-1.83,1.62-3.12c0-0.44-0.09-0.86-0.23-1.25h3.19h1.39v-2.57h-0.52h-0.86H194.73z"/>
	<polygon class="st4" points="144.17,193.44 119.86,193.44 118.86,193.44 113.26,193.44 104.58,193.44 93.63,193.44 92.64,193.44 
		88.41,193.44 88.41,197.92 149.39,197.92 149.39,193.44 145.16,193.44 	"/>
	<rect x="88.41" y="197.92" class="st3" width="60.97" height="1.37"/>
	<polygon class="st4" points="82.84,199.29 82.84,203.77 154.96,203.77 154.96,199.29 149.39,199.29 88.41,199.29 	"/>
	<polygon class="st3" points="82.84,205.15 88.41,205.15 149.39,205.15 154.96,205.15 154.96,203.77 82.84,203.77 	"/>
	<polygon class="st4" points="88.41,205.15 82.84,205.15 77.36,205.15 77.36,209.63 88.41,209.63 149.39,209.63 160.44,209.63 
		160.44,205.15 154.96,205.15 149.39,205.15 	"/>
	<polygon class="st3" points="149.39,209.63 88.41,209.63 77.36,209.63 77.36,211 88.41,211 113.26,211 149.39,211 160.44,211 
		160.44,209.63 	"/>
</g>
</svg>
