<?xml version="1.0" encoding="utf-8"?>
<!-- Generator: Adobe Illustrator 23.0.3, SVG Export Plug-In . SVG Version: 6.00 Build 0)  -->
<svg version="1.1" id="Ebene_1" xmlns="http://www.w3.org/2000/svg" xmlns:xlink="http://www.w3.org/1999/xlink" x="0px" y="0px"
	 viewBox="0 0 240 240" style="enable-background:new 0 0 240 240;" xml:space="preserve">
<style type="text/css">
	.st0{fill:none;}
	.st1{fill:#303F4E;}
	.st2{fill:#E9F4F2;}
	.st3{fill:#D0D9D7;}
	.st4{fill:#F5FAFA;}
	.st5{fill:#69B9E8;}
	.st6{fill:#68B0E2;}
</style>
<g>
	<rect x="0" class="st0" width="240" height="240"/>
</g>
<g>
	<polygon class="st1" points="46.43,83.48 46.43,69.46 5.43,69.46 5.43,84.87 9.68,84.87 9.68,83.48 	"/>
	<polygon class="st1" points="229.32,83.48 229.32,84.87 233.57,84.87 233.57,69.46 192.57,69.46 192.57,83.48 	"/>
	<path class="st2" d="M46.43,83.48H9.68v1.39v134.36h36.75V83.48z M38.12,211v2H18.48v-2v-30.37h11.89h7.74V211z M38.12,166.39v2
		H18.48v-2v-30.37h11.89h7.74V166.39z M38.12,121.78v2H18.48v-2V91.41h11.89h7.74V121.78z"/>
	<path class="st3" d="M192.57,83.48v135.75h36.75V84.87v-1.39H192.57z M221.53,211v2h-19.64v-2v-30.37h11.89h7.74V211z
		 M221.53,166.39v2h-19.64v-2v-30.37h11.89h7.74V166.39z M221.53,121.78v2h-19.64v-2V91.41h11.89h7.74V121.78z"/>
	<polygon class="st1" points="229.32,219.23 192.57,219.23 120.08,219.23 119.89,219.23 46.43,219.23 9.68,219.23 3,219.23 3,225 
		236,225 236,219.23 	"/>
	<path class="st4" d="M46.43,219.23h73.46v-0.08h-0.47H95.61h-0.07h-0.87v-40.52h0.87h0.07h23.81h0.47v-10.24h-10.21v-2v-30.37
		h10.21v-12.24h-10.21v-2V91.41h10.21V79.17h-10.21v-2V46.8h10.21V32.47H46.43v36.99v14.03V219.23z M82.87,77.16V46.8h11.9h7.74
		v30.37v2H82.87V77.16z M82.87,121.78V91.41h11.9h7.74v30.37v2H82.87V121.78z M82.87,166.39v-30.37h11.9h7.74v30.37v2H82.87V166.39z
		 M56.06,77.16V46.8h11.9h7.74v30.37v2H56.06V77.16z M56.06,121.78V91.41h11.9h7.74v30.37v2H56.06V121.78z M56.06,166.39v-30.37
		h11.9h7.74v30.37v2H56.06V166.39z M56.06,211v-30.37h11.9h7.74V211v2H56.06V211z"/>
	<path class="st2" d="M119.89,46.8h1.69h7.74v30.37v2h-9.43v12.24h1.69h7.74v30.37v2h-9.43v12.24h1.69h7.74v30.37v2h-9.43v10.24
		h0.47h22.94h0.94v40.52h-0.94h-22.94h-0.47v0.08h0.19h72.49V83.48V69.46V32.47h-72.68V46.8z M163.3,77.16V46.8h11.9h7.74v30.37v2
		H163.3V77.16z M163.3,121.78V91.41h11.9h7.74v30.37v2H163.3V121.78z M163.3,166.39v-30.37h11.9h7.74v30.37v2H163.3V166.39z
		 M163.3,211v-30.37h11.9h7.74V211v2H163.3V211z M136.49,77.16V46.8h11.89h7.74v30.37v2h-19.64V77.16z M136.49,121.78V91.41h11.89
		h7.74v30.37v2h-19.64V121.78z M136.49,166.39v-30.37h11.89h7.74v30.37v2h-19.64V166.39z"/>
	<polygon class="st5" points="67.96,46.8 56.06,46.8 56.06,77.16 60.21,77.16 	"/>
	<polygon class="st6" points="75.7,77.16 75.7,46.8 67.96,46.8 60.21,77.16 	"/>
	<polygon class="st1" points="75.7,77.16 60.21,77.16 56.06,77.16 56.06,79.17 75.7,79.17 	"/>
	<polygon class="st5" points="94.77,46.8 82.87,46.8 82.87,77.16 87.02,77.16 	"/>
	<polygon class="st6" points="102.51,77.16 102.51,46.8 94.77,46.8 87.02,77.16 	"/>
	<polygon class="st1" points="102.51,77.16 87.02,77.16 82.87,77.16 82.87,79.17 102.51,79.17 	"/>
	<polygon class="st5" points="121.58,46.8 119.89,46.8 109.68,46.8 109.68,77.16 113.84,77.16 	"/>
	<polygon class="st6" points="129.32,77.16 129.32,46.8 121.58,46.8 113.84,77.16 	"/>
	<polygon class="st1" points="129.32,77.16 113.84,77.16 109.68,77.16 109.68,79.17 119.89,79.17 129.32,79.17 	"/>
	<polygon class="st5" points="148.39,46.8 136.49,46.8 136.49,77.16 140.65,77.16 	"/>
	<polygon class="st6" points="156.13,77.16 156.13,46.8 148.39,46.8 140.65,77.16 	"/>
	<polygon class="st1" points="156.13,77.16 140.65,77.16 136.49,77.16 136.49,79.17 156.13,79.17 	"/>
	<polygon class="st5" points="175.2,46.8 163.3,46.8 163.3,77.16 167.46,77.16 	"/>
	<polygon class="st6" points="182.94,77.16 182.94,46.8 175.2,46.8 167.46,77.16 	"/>
	<polygon class="st1" points="182.94,77.16 167.46,77.16 163.3,77.16 163.3,79.17 182.94,79.17 	"/>
	<polygon class="st5" points="67.96,91.41 56.06,91.41 56.06,121.78 60.21,121.78 	"/>
	<polygon class="st6" points="75.7,121.78 75.7,91.41 67.96,91.41 60.21,121.78 	"/>
	<polygon class="st1" points="75.7,121.78 60.21,121.78 56.06,121.78 56.06,123.78 75.7,123.78 	"/>
	<polygon class="st5" points="94.77,91.41 82.87,91.41 82.87,121.78 87.02,121.78 	"/>
	<polygon class="st6" points="102.51,121.78 102.51,91.41 94.77,91.41 87.02,121.78 	"/>
	<polygon class="st1" points="102.51,121.78 87.02,121.78 82.87,121.78 82.87,123.78 102.51,123.78 	"/>
	<polygon class="st5" points="121.58,91.41 119.89,91.41 109.68,91.41 109.68,121.78 113.84,121.78 	"/>
	<polygon class="st6" points="129.32,121.78 129.32,91.41 121.58,91.41 113.84,121.78 	"/>
	<polygon class="st1" points="129.32,121.78 113.84,121.78 109.68,121.78 109.68,123.78 119.89,123.78 129.32,123.78 	"/>
	<polygon class="st5" points="148.39,91.41 136.49,91.41 136.49,121.78 140.65,121.78 	"/>
	<polygon class="st6" points="156.13,121.78 156.13,91.41 148.39,91.41 140.65,121.78 	"/>
	<polygon class="st1" points="156.13,121.78 140.65,121.78 136.49,121.78 136.49,123.78 156.13,123.78 	"/>
	<polygon class="st5" points="175.2,91.41 163.3,91.41 163.3,121.78 167.46,121.78 	"/>
	<polygon class="st6" points="182.94,121.78 182.94,91.41 175.2,91.41 167.46,121.78 	"/>
	<polygon class="st1" points="182.94,121.78 167.46,121.78 163.3,121.78 163.3,123.78 182.94,123.78 	"/>
	<polygon class="st5" points="67.96,136.02 56.06,136.02 56.06,166.39 60.21,166.39 	"/>
	<polygon class="st6" points="75.7,166.39 75.7,136.02 67.96,136.02 60.21,166.39 	"/>
	<polygon class="st1" points="75.7,166.39 60.21,166.39 56.06,166.39 56.06,168.39 75.7,168.39 	"/>
	<polygon class="st5" points="94.77,136.02 82.87,136.02 82.87,166.39 87.02,166.39 	"/>
	<polygon class="st6" points="102.51,166.39 102.51,136.02 94.77,136.02 87.02,166.39 	"/>
	<polygon class="st1" points="102.51,166.39 87.02,166.39 82.87,166.39 82.87,168.39 102.51,168.39 	"/>
	<polygon class="st5" points="121.58,136.02 119.89,136.02 109.68,136.02 109.68,166.39 113.84,166.39 	"/>
	<polygon class="st6" points="129.32,166.39 129.32,136.02 121.58,136.02 113.84,166.39 	"/>
	<polygon class="st1" points="129.32,166.39 113.84,166.39 109.68,166.39 109.68,168.39 119.89,168.39 129.32,168.39 	"/>
	<polygon class="st5" points="148.39,136.02 136.49,136.02 136.49,166.39 140.65,166.39 	"/>
	<polygon class="st6" points="156.13,166.39 156.13,136.02 148.39,136.02 140.65,166.39 	"/>
	<polygon class="st1" points="156.13,166.39 140.65,166.39 136.49,166.39 136.49,168.39 156.13,168.39 	"/>
	<polygon class="st5" points="175.2,136.02 163.3,136.02 163.3,166.39 167.46,166.39 	"/>
	<polygon class="st6" points="182.94,166.39 182.94,136.02 175.2,136.02 167.46,166.39 	"/>
	<polygon class="st1" points="182.94,166.39 167.46,166.39 163.3,166.39 163.3,168.39 182.94,168.39 	"/>
	<polygon class="st5" points="67.96,180.63 56.06,180.63 56.06,211 60.21,211 	"/>
	<polygon class="st6" points="75.7,211 75.7,180.63 67.96,180.63 60.21,211 	"/>
	<polygon class="st1" points="75.7,211 60.21,211 56.06,211 56.06,213 75.7,213 	"/>
	<polygon class="st5" points="95.61,216.78 105.64,216.78 114.13,200.48 114.13,199.68 114.55,199.68 119.42,190.33 119.42,180.63 
		95.61,180.63 	"/>
	<polygon class="st5" points="120.36,180.63 120.36,188.53 124.47,180.63 	"/>
	<polygon class="st6" points="117.09,199.68 117.09,201.03 114.13,201.03 114.13,200.48 105.64,216.78 119.42,216.78 119.42,190.33 
		114.55,199.68 	"/>
	<path class="st6" d="M143.29,180.63h-18.83l-4.11,7.9v28.25h22.94V180.63z M125.64,201.03h-2.96v-1.35h2.96V201.03z"/>
	<path class="st1" d="M143.29,219.14h0.94v-40.52h-0.94h-22.94h-0.47h-0.47H95.61h-0.07h-0.87v40.52h0.87h0.07h23.81h0.47h0.47
		H143.29z M120.36,188.53v-7.9h4.11h18.83v36.15h-22.94V188.53z M119.42,190.33v26.45h-13.77H95.61v-36.15h23.81V190.33z"/>
	<polygon class="st5" points="175.2,180.63 163.3,180.63 163.3,211 167.46,211 	"/>
	<polygon class="st6" points="182.94,211 182.94,180.63 175.2,180.63 167.46,211 	"/>
	<polygon class="st1" points="182.94,211 167.46,211 163.3,211 163.3,213 182.94,213 	"/>
	<polygon class="st1" points="117.09,201.03 117.09,199.68 114.55,199.68 114.13,199.68 114.13,200.48 114.13,201.03 	"/>
	<rect x="122.68" y="199.68" class="st1" width="2.96" height="1.35"/>
	<polygon class="st5" points="213.78,91.41 201.89,91.41 201.89,121.78 206.04,121.78 	"/>
	<polygon class="st6" points="206.04,121.78 221.53,121.78 221.53,91.41 213.78,91.41 	"/>
	<polygon class="st1" points="201.89,121.78 201.89,123.78 221.53,123.78 221.53,121.78 206.04,121.78 	"/>
	<polygon class="st5" points="213.78,136.02 201.89,136.02 201.89,166.39 206.04,166.39 	"/>
	<polygon class="st6" points="206.04,166.39 221.53,166.39 221.53,136.02 213.78,136.02 	"/>
	<polygon class="st1" points="201.89,166.39 201.89,168.39 221.53,168.39 221.53,166.39 206.04,166.39 	"/>
	<polygon class="st5" points="213.78,180.63 201.89,180.63 201.89,211 206.04,211 	"/>
	<polygon class="st6" points="206.04,211 221.53,211 221.53,180.63 213.78,180.63 	"/>
	<polygon class="st1" points="201.89,211 201.89,213 221.53,213 221.53,211 206.04,211 	"/>
	<polygon class="st5" points="30.38,91.41 18.48,91.41 18.48,121.78 22.63,121.78 	"/>
	<polygon class="st6" points="22.63,121.78 38.12,121.78 38.12,91.41 30.38,91.41 	"/>
	<polygon class="st1" points="18.48,121.78 18.48,123.78 38.12,123.78 38.12,121.78 22.63,121.78 	"/>
	<polygon class="st5" points="30.38,136.02 18.48,136.02 18.48,166.39 22.63,166.39 	"/>
	<polygon class="st6" points="22.63,166.39 38.12,166.39 38.12,136.02 30.38,136.02 	"/>
	<polygon class="st1" points="18.48,166.39 18.48,168.39 38.12,168.39 38.12,166.39 22.63,166.39 	"/>
	<polygon class="st5" points="30.38,180.63 18.48,180.63 18.48,211 22.63,211 	"/>
	<polygon class="st6" points="22.63,211 38.12,211 38.12,180.63 30.38,180.63 	"/>
	<polygon class="st1" points="18.48,211 18.48,213 38.12,213 38.12,211 22.63,211 	"/>
	<polygon class="st1" points="192.57,32.47 197.74,32.47 197.74,17.05 41.26,17.05 41.26,32.47 46.43,32.47 119.89,32.47 	"/>
</g>
</svg>
