<?xml version="1.0" encoding="utf-8"?>
<!-- Generator: Adobe Illustrator 23.0.3, SVG Export Plug-In . SVG Version: 6.00 Build 0)  -->
<svg version="1.1" id="Ebene_1" xmlns="http://www.w3.org/2000/svg" xmlns:xlink="http://www.w3.org/1999/xlink" x="0px" y="0px"
	 viewBox="0 0 240 240" style="enable-background:new 0 0 240 240;" xml:space="preserve">
<style type="text/css">
	.st0{fill:none;}
	.st1{fill:#546E7B;}
	.st2{fill:#465A64;}
	.st3{fill:#AEBDC4;}
	.st4{fill:#92C7ED;}
	.st5{fill:#D6DDE1;}
	.st6{fill:#549ED6;}
	.st7{fill:#FABF2C;}
	.st8{fill:#CBE5E9;}
	.st9{fill:#D9EDEF;}
	.st10{fill:#EDB52A;}
	.st11{fill:#4E9AD4;}
</style>
<g>
	<rect x="0" class="st0" width="240" height="240"/>
</g>
<g>
	<rect x="13.71" y="132.64" class="st0" width="3.71" height="8.04"/>
	<rect x="3.95" y="132.64" class="st0" width="3.71" height="8.04"/>
	<rect x="18.59" y="132.64" class="st0" width="3.71" height="8.04"/>
	<rect x="8.83" y="132.64" class="st0" width="3.71" height="8.04"/>
	<path class="st0" d="M202.03,101.44v-5.76h3.92v-7.88h-41.28v27.48h3.92v5.7c2.99,1.01,5.68,2.69,7.86,4.87
		c3.67,3.67,5.94,8.75,5.94,14.36v13.25h5.83v-32.79C188.22,111.73,194.01,104.15,202.03,101.44z"/>
	<polygon class="st1" points="76.06,55.22 56.22,55.22 49.36,97.9 76.06,97.9 	"/>
	<polygon class="st2" points="76.06,97.9 89.12,97.9 89.12,104.15 86.19,104.15 86.19,106.27 86.19,130.84 103.11,130.84 
		105.38,116.72 95.49,55.22 76.06,55.22 	"/>
	<rect x="96.7" y="132.64" class="st2" width="3.71" height="8.04"/>
	<rect x="86.94" y="132.64" class="st2" width="3.71" height="8.04"/>
	<rect x="91.82" y="132.64" class="st2" width="3.71" height="8.04"/>
	<polygon class="st2" points="101.58,132.64 101.58,140.32 102.82,132.64 	"/>
	<polygon class="st3" points="95.49,55.22 96.48,55.22 96.48,49.89 55.23,49.89 55.23,55.22 56.22,55.22 76.06,55.22 	"/>
	<rect x="117.64" y="143.26" class="st1" width="17.46" height="10.2"/>
	<polygon class="st1" points="106.46,130.84 106.46,131.05 106.46,132.64 106.46,140.69 106.46,144.28 103.38,144.28 103.38,146.34 
		103.38,153.45 109.49,153.45 112.5,153.45 112.5,138.12 135.11,138.12 135.11,55.22 115.26,55.22 105.38,116.72 103.11,130.84 	"/>
	<polygon class="st1" points="105.3,132.64 102.82,132.64 101.58,140.32 101.58,140.69 105.3,140.69 	"/>
	<rect x="135.11" y="143.26" class="st2" width="6.7" height="10.2"/>
	<path class="st2" d="M135.11,138.12h6.8c0.82-8.02,6.31-14.65,13.7-17.15v-5.7h3.92V86.29l-5-31.07h-19.43V138.12z"/>
	<polygon class="st3" points="154.53,55.22 155.52,55.22 155.52,49.89 114.27,49.89 114.27,55.22 115.26,55.22 135.11,55.22 	"/>
	<rect x="33.24" y="132.64" class="st4" width="3.71" height="8.04"/>
	<rect x="22.3" y="132.64" class="st4" width="0.01" height="8.04"/>
	<rect x="23.47" y="132.64" class="st4" width="3.71" height="8.04"/>
	<rect x="28.35" y="132.64" class="st4" width="3.71" height="8.04"/>
	<rect x="38.12" y="132.64" class="st4" width="3.71" height="8.04"/>
	<path class="st4" d="M86.19,106.27H22.3v24.58h63.89V106.27z M50.6,126.83h-7.28v-6.94h7.28V126.83z M50.6,115.27h-7.28v-6.94h7.28
		V115.27z M65.17,126.83h-7.28v-6.94h7.28V126.83z M65.17,115.27h-7.28v-6.94h7.28V115.27z"/>
	<rect x="47.88" y="132.64" class="st4" width="3.71" height="8.04"/>
	<rect x="62.53" y="132.64" class="st4" width="3.71" height="8.04"/>
	<rect x="43" y="132.64" class="st4" width="3.71" height="8.04"/>
	<rect x="67.41" y="132.64" class="st4" width="3.71" height="8.04"/>
	<rect x="72.29" y="132.64" class="st4" width="3.71" height="8.04"/>
	<rect x="57.65" y="132.64" class="st4" width="3.71" height="8.04"/>
	<rect x="52.76" y="132.64" class="st4" width="3.71" height="8.04"/>
	<rect x="82.05" y="132.64" class="st4" width="3.71" height="8.04"/>
	<rect x="77.17" y="132.64" class="st4" width="3.71" height="8.04"/>
	<rect x="22.3" y="104.15" class="st4" width="63.89" height="2.12"/>
	<rect x="22.3" y="104.15" class="st5" width="63.89" height="2.12"/>
	<path class="st6" d="M103.38,146.34H5.86V189h97.52v-35.55V146.34z M36.42,178.18h-7.28v-6.94h7.28V178.18z M36.42,162.04h-7.28
		v-6.94h7.28V162.04z M50.98,178.18H43.7v-6.94h7.28V178.18z M50.98,162.04H43.7v-6.94h7.28V162.04z M65.54,178.18h-7.28v-6.94h7.28
		V178.18z M65.54,162.04h-7.28v-6.94h7.28V162.04z M80.11,178.18h-7.28v-6.94h7.28V178.18z M80.11,162.04h-7.28v-6.94h7.28V162.04z"
		/>
	<path class="st4" d="M228.82,153.45L228.82,153.45l-20.3,0h-20.3v0h-5.83v0h-20.3h-20.3v0h-6.7h-17.46h-5.14h-3.02V189H236v-35.55
		H228.82z M227.27,179.3H112.1v-5.71h115.17V179.3z M227.27,168.87H112.1v-5.71h115.17V168.87z"/>
	<rect x="103.38" y="153.45" class="st5" width="6.11" height="35.55"/>
	<rect x="5.86" y="144.28" class="st6" width="97.52" height="2.06"/>
	<rect x="5.86" y="144.28" class="st5" width="97.52" height="2.06"/>
	<path class="st7" d="M106.46,144.28v-3.6v-8.04v-1.59v-0.21h-3.36H86.19H22.3H2.78v0.21v1.59v8.04v3.6h3.08h97.52H106.46z
		 M3.95,140.69v-8.04h3.71v8.04H3.95z M8.83,140.69v-8.04h3.71v8.04H8.83z M13.71,140.69v-8.04h3.71v8.04H13.71z M22.3,140.69h-3.71
		v-8.04h3.71h0.01L22.3,140.69L22.3,140.69z M23.47,140.69v-8.04h3.71v8.04H23.47z M28.35,140.69v-8.04h3.71v8.04H28.35z
		 M33.24,140.69v-8.04h3.71v8.04H33.24z M38.12,140.69v-8.04h3.71v8.04H38.12z M43,140.69v-8.04h3.71v8.04H43z M47.88,140.69v-8.04
		h3.71v8.04H47.88z M52.76,140.69v-8.04h3.71v8.04H52.76z M57.65,140.69v-8.04h3.71v8.04H57.65z M62.53,140.69v-8.04h3.71v8.04
		H62.53z M67.41,140.69v-8.04h3.71v8.04H67.41z M72.29,140.69v-8.04h3.71v8.04H72.29z M77.17,140.69v-8.04h3.71v8.04H77.17z
		 M82.05,140.69v-8.04h3.71v8.04H82.05z M86.94,140.69v-8.04h3.71v8.04H86.94z M91.82,140.69v-8.04h3.71v8.04H91.82z M96.7,140.69
		v-8.04h3.71v8.04H96.7z M101.58,140.32v-7.68h1.23h2.48v8.04h-3.71V140.32z"/>
	<polygon class="st8" points="29.14,178.18 36.42,171.24 29.14,171.24 	"/>
	<polygon class="st8" points="43.7,178.18 50.98,171.24 43.7,171.24 	"/>
	<polygon class="st8" points="58.26,178.18 65.54,171.24 58.26,171.24 	"/>
	<polygon class="st8" points="72.82,178.18 80.11,171.24 72.82,171.24 	"/>
	<polygon class="st8" points="29.14,162.04 36.42,155.1 29.14,155.1 	"/>
	<polygon class="st8" points="43.7,162.04 50.98,155.1 43.7,155.1 	"/>
	<polygon class="st8" points="58.26,162.04 65.54,155.1 58.26,155.1 	"/>
	<polygon class="st8" points="72.82,162.04 80.11,155.1 72.82,155.1 	"/>
	<polygon class="st8" points="43.32,115.27 50.6,108.33 43.32,108.33 	"/>
	<polygon class="st8" points="57.88,115.27 65.17,108.33 57.88,108.33 	"/>
	<polygon class="st8" points="43.32,126.83 50.6,119.89 43.32,119.89 	"/>
	<polygon class="st8" points="57.88,126.83 65.17,119.89 57.88,119.89 	"/>
	<path class="st3" d="M135.11,143.26h6.7v-3.06c0-0.7,0.04-1.4,0.11-2.08h-6.8h-22.6v15.33h5.14v-10.2H135.11z"/>
	<polygon class="st7" points="89.12,104.15 89.12,97.9 76.06,97.9 49.36,97.9 19.37,97.9 19.37,104.15 22.3,104.15 86.19,104.15 	
		"/>
	<path class="st4" d="M168.59,120.97v-5.7h-3.92h-5.14h-3.92v5.7c2.04-0.69,4.22-1.08,6.49-1.08
		C164.37,119.89,166.55,120.28,168.59,120.97z"/>
	<path class="st7" d="M155.61,120.97c-7.39,2.5-12.88,9.13-13.7,17.15c-0.07,0.68-0.11,1.38-0.11,2.08v3.06v10.2v0h20.3v-33.57
		C159.83,119.89,157.65,120.28,155.61,120.97z"/>
	<polygon class="st3" points="164.67,115.27 164.67,87.79 205.95,87.79 205.95,95.67 211.09,95.67 211.09,82.65 159.53,82.65 
		159.53,86.29 159.53,115.27 	"/>
	<polygon class="st8" points="112.1,168.87 227.27,163.16 112.1,163.16 	"/>
	<polygon class="st8" points="112.1,179.3 227.27,173.59 112.1,173.59 	"/>
	<polygon class="st9" points="36.42,178.18 36.42,171.24 29.14,178.18 	"/>
	<polygon class="st9" points="50.98,178.18 50.98,171.24 43.7,178.18 	"/>
	<polygon class="st9" points="65.54,178.18 65.54,171.24 58.26,178.18 	"/>
	<polygon class="st9" points="80.11,178.18 80.11,171.24 72.82,178.18 	"/>
	<polygon class="st9" points="36.42,162.04 36.42,155.1 29.14,162.04 	"/>
	<polygon class="st9" points="50.98,162.04 50.98,155.1 43.7,162.04 	"/>
	<polygon class="st9" points="65.54,162.04 65.54,155.1 58.26,162.04 	"/>
	<polygon class="st9" points="80.11,162.04 80.11,155.1 72.82,162.04 	"/>
	<polygon class="st9" points="50.6,115.27 50.6,108.33 43.32,115.27 	"/>
	<polygon class="st9" points="65.17,115.27 65.17,108.33 57.88,115.27 	"/>
	<polygon class="st9" points="50.6,126.83 50.6,119.89 43.32,126.83 	"/>
	<polygon class="st9" points="65.17,126.83 65.17,119.89 57.88,126.83 	"/>
	<polygon class="st9" points="227.27,168.87 227.27,163.16 112.1,168.87 	"/>
	<polygon class="st9" points="227.27,179.3 227.27,173.59 112.1,179.3 	"/>
	<path class="st4" d="M202.03,95.67v5.76c2.04-0.69,4.22-1.08,6.49-1.08c2.27,0,4.45,0.39,6.49,1.08v-5.77h-3.92h-5.14H202.03z"/>
	<path class="st6" d="M202.03,101.44c-8.02,2.71-13.8,10.29-13.8,19.23v32.79v0h20.3v-53.1
		C206.25,100.36,204.07,100.75,202.03,101.44z"/>
	<path class="st10" d="M176.46,125.84c-2.18-2.18-4.87-3.86-7.86-4.87c-2.04-0.69-4.22-1.08-6.49-1.08v33.57h20.3v0V140.2
		C182.4,134.59,180.13,129.51,176.46,125.84z"/>
	<path class="st11" d="M208.52,153.45h20.3v0v-32.79c0-5.61-2.27-10.68-5.94-14.36c-2.18-2.18-4.87-3.86-7.86-4.87
		c-2.04-0.69-4.22-1.08-6.49-1.08V153.45z"/>
</g>
</svg>
