<?xml version="1.0" encoding="utf-8"?>
<!-- Generator: Adobe Illustrator 23.0.3, SVG Export Plug-In . SVG Version: 6.00 Build 0)  -->
<svg version="1.1" id="Ebene_1" xmlns="http://www.w3.org/2000/svg" xmlns:xlink="http://www.w3.org/1999/xlink" x="0px" y="0px"
	 viewBox="0 0 240 240" style="enable-background:new 0 0 240 240;" xml:space="preserve">
<style type="text/css">
	.st0{fill:none;}
	.st1{fill:#D77E2E;}
	.st2{fill:#59A8B2;}
	.st3{fill:#498B94;}
	.st4{fill:#69B9E8;}
	.st5{fill:#68B0E2;}
	.st6{fill:#FFFDFD;}
	.st7{fill:#DAE4E2;}
	.st8{fill:#D2DAD9;}
	.st9{fill:#303F4E;}
	.st10{fill:#FFCE01;}
	.st11{fill:#E52C22;}
	.st12{fill:#A22016;}
	.st13{fill:#F2913E;}
	.st14{fill:#671C40;}
	.st15{fill:#391C38;}
	.st16{fill:#F2B601;}
</style>
<g>
	<rect x="0" class="st0" width="240" height="240"/>
</g>
<g>
	<polygon class="st1" points="47.38,202.12 41.54,202.12 41.54,210 196.1,210 196.1,202.12 188.14,202.12 135.82,202.12 	"/>
	<path class="st2" d="M135.82,134.41h-7.86H47.38v67.71h88.44V134.41z M123.26,142.96v1.17v0.19v41.28v1.37v1.37H59.87v-1.37v-1.37
		v-41.28v-1.37v-1.37h63.39V142.96z"/>
	<path class="st3" d="M135.82,202.12h52.32v-67.71h-52.32V202.12z M141.8,141.59h38.63v5.08h-2.5V202h-1.28h-8.82h-16.89h-5.62
		h-0.64h-0.64v-55.33h-2.25V141.59z"/>
	<path class="st2" d="M135.82,112.32v-4.42h-3.99h-2.45h-24.03h-2.45H78.87h-2.45H52.39v-2.33v-22.2c-1.15,0.78-2.75,1.34-4.52,1.34
		c-0.16,0-0.32-0.01-0.48-0.02v27.63h80.58H135.82z"/>
	<polygon class="st2" points="52.1,63.72 135.82,63.72 135.82,58.66 106.26,58.66 47.38,58.66 47.38,73.02 52.1,66.78 	"/>
	<polygon class="st3" points="135.82,63.72 182.92,63.72 182.92,66.78 188.14,73.69 188.14,58.66 135.82,58.66 	"/>
	<path class="st3" d="M182.34,83.17v22.41v2.33h-24.03v0h-2.45h-20.04v4.42h52.32V84.65c-0.33,0.04-0.66,0.06-1,0.06
		C185.22,84.71,183.5,84.05,182.34,83.17z"/>
	<polygon class="st4" points="98.36,144.32 61.23,144.32 61.23,185.6 73.69,185.6 	"/>
	<polygon class="st5" points="121.89,185.6 121.89,144.32 98.36,144.32 73.69,185.6 	"/>
	<path class="st6" d="M59.87,142.96v1.37v41.28v1.37v1.37h63.39v-1.37v-1.37v-41.28v-0.19v-1.17v-1.37H59.87V142.96z M61.23,144.32
		h37.13h23.53v41.28h-48.2H61.23V144.32z"/>
	<path class="st4" d="M63.19,84.28c-0.81,0.27-1.71,0.43-2.66,0.43c-3.49,0-6.32-2.16-6.32-3.95c0,0.88-0.69,1.85-1.81,2.61v22.2
		h5.08L63.19,84.28z"/>
	<path class="st5" d="M66.86,80.76c0,1.3-1.51,2.79-3.67,3.51l-5.72,21.3h18.95V84.07c-0.95,0.4-2.05,0.65-3.23,0.65
		C69.69,84.71,66.86,82.55,66.86,80.76z"/>
	<path class="st4" d="M85.85,84.71c-3.49,0-6.32-2.16-6.32-3.95c0,0.51-0.24,1.06-0.66,1.57v23.24h5.08l5.87-21.86
		C88.73,84.31,87.35,84.71,85.85,84.71z"/>
	<path class="st5" d="M92.18,80.76c0,1.02-0.93,2.16-2.37,2.95l-5.87,21.86h18.95V83.46c-1.14,0.73-2.69,1.25-4.39,1.25
		C95.02,84.71,92.18,82.55,92.18,80.76z"/>
	<path class="st4" d="M111.17,84.71c-2.62,0-4.86-1.21-5.83-2.57v23.44h5.08l6.16-22.95C115.48,83.78,113.47,84.71,111.17,84.71z"/>
	<path class="st5" d="M117.51,80.76c0,0.61-0.34,1.27-0.92,1.86l-6.16,22.95h18.95V82.5c-1.08,1.21-3.16,2.21-5.54,2.21
		C120.34,84.71,117.51,82.55,117.51,80.76z"/>
	<path class="st4" d="M142.83,80.76c0,1.79-2.85,3.95-6.34,3.95c-1.85,0-3.51-0.61-4.67-1.45v22.31h5.08l6.33-23.58
		C142.98,81.58,142.83,81.16,142.83,80.76z"/>
	<path class="st5" d="M149.16,84.71c-2.71,0-5.02-1.3-5.92-2.72l-6.33,23.58h18.95V81.92c-0.23-0.39-0.36-0.78-0.36-1.15
		C155.49,82.55,152.65,84.71,149.16,84.71z"/>
	<path class="st6" d="M158.31,107.9L158.31,107.9l24.03,0v-2.33h-18.95h-5.08V83.94c-1.13-0.52-1.99-1.26-2.45-2.03v23.66h-18.95
		h-5.08V83.27c-1.03-0.74-1.66-1.66-1.66-2.5c0,0.57-0.29,1.17-0.79,1.74v23.08h-18.95h-5.08V82.14c-0.32-0.45-0.5-0.93-0.5-1.37
		c0,0.92-0.75,1.93-1.95,2.7v22.11H83.95h-5.08V82.33c-0.54,0.67-1.4,1.29-2.45,1.73v21.51H57.47h-5.08v2.33h24.03h2.45h24.03h2.45
		h24.03h2.45h3.99h20.04H158.31z"/>
	<path class="st4" d="M168.16,80.76c0,1.79-2.85,3.95-6.34,3.95c-1.3,0-2.51-0.3-3.51-0.77v21.63h5.08l6.06-22.59
		C168.64,82.3,168.16,81.5,168.16,80.76z"/>
	<path class="st5" d="M174.48,84.71c-2.05,0-3.87-0.75-5.03-1.72l-6.06,22.59h18.95V83.17c-0.94-0.72-1.52-1.6-1.52-2.4
		C180.82,82.55,177.97,84.71,174.48,84.71z"/>
	<path class="st7" d="M152.55,170.14V154h10.13l1.12-4.59h-18.47V202h5.62l7.79-31.86H152.55z M152.55,177.27h-4.04v-1.84h4.04
		V177.27z"/>
	<polygon class="st8" points="163.8,149.41 162.68,154 168.9,154 168.9,170.14 158.73,170.14 150.95,202 167.83,202 176.66,202 
		176.66,149.41 	"/>
	<polygon class="st1" points="176.66,146.67 145.33,146.67 144.79,146.67 144.05,146.67 144.05,202 144.69,202 145.33,202 
		145.33,149.41 163.8,149.41 176.66,149.41 176.66,202 177.93,202 177.93,146.67 177.44,146.67 	"/>
	<rect x="148.51" y="175.42" class="st9" width="4.04" height="1.84"/>
	<polygon class="st10" points="144.79,146.67 145.33,146.67 176.66,146.67 177.44,146.67 177.93,146.67 180.43,146.67 
		180.43,141.59 141.8,141.59 141.8,146.67 144.05,146.67 	"/>
	<polygon class="st5" points="152.55,170.14 158.73,170.14 168.9,170.14 168.9,154 162.68,154 152.55,154 	"/>
	<polygon class="st11" points="116.13,31 51.34,31 34.59,58.66 47.38,58.66 106.26,58.66 	"/>
	<polygon class="st12" points="135.82,58.66 188.14,58.66 203,58.66 186.25,31 116.13,31 106.26,58.66 	"/>
	<polygon class="st13" points="127.96,112.32 47.38,112.32 41.54,112.32 41.54,134.41 47.38,134.41 127.96,134.41 	"/>
	<polygon class="st1" points="135.82,112.32 127.96,112.32 127.96,134.41 135.82,134.41 188.14,134.41 196.1,134.41 196.1,112.32 
		188.14,112.32 	"/>
	<polygon class="st14" points="63,66.78 52.1,66.78 47.38,73.02 41.54,80.76 54.2,80.76 	"/>
	<path class="st15" d="M52.39,83.38c1.12-0.76,1.81-1.73,1.81-2.61H41.54c0,1.71,2.58,3.74,5.85,3.93c0.16,0.01,0.32,0.02,0.48,0.02
		C49.63,84.71,51.23,84.16,52.39,83.38z"/>
	<polygon class="st11" points="73.9,66.78 63,66.78 54.2,80.76 66.86,80.76 	"/>
	<path class="st12" d="M60.52,84.71c0.95,0,1.85-0.16,2.66-0.43c2.16-0.72,3.67-2.21,3.67-3.51H54.2
		C54.2,82.55,57.03,84.71,60.52,84.71z"/>
	<polygon class="st14" points="84.8,66.78 73.9,66.78 66.86,80.76 79.52,80.76 	"/>
	<path class="st15" d="M66.86,80.76c0,1.79,2.83,3.95,6.32,3.95c1.18,0,2.28-0.25,3.23-0.65c1.05-0.44,1.91-1.06,2.45-1.73
		c0.42-0.51,0.66-1.06,0.66-1.57H66.86z"/>
	<polygon class="st11" points="92.18,80.76 95.71,66.78 84.8,66.78 79.52,80.76 	"/>
	<path class="st12" d="M85.85,84.71c1.5,0,2.88-0.4,3.97-1c1.44-0.79,2.37-1.93,2.37-2.95H79.52
		C79.52,82.55,82.36,84.71,85.85,84.71z"/>
	<polygon class="st14" points="95.71,66.78 92.18,80.76 104.85,80.76 106.61,66.78 	"/>
	<path class="st15" d="M98.51,84.71c1.7,0,3.25-0.51,4.39-1.25c1.2-0.77,1.95-1.78,1.95-2.7H92.18
		C92.18,82.55,95.02,84.71,98.51,84.71z"/>
	<polygon class="st11" points="117.51,66.78 106.61,66.78 104.85,80.76 117.51,80.76 	"/>
	<path class="st12" d="M111.17,84.71c2.3,0,4.31-0.93,5.42-2.08c0.58-0.6,0.92-1.25,0.92-1.86h-12.66c0,0.45,0.18,0.92,0.5,1.37
		C106.31,83.5,108.56,84.71,111.17,84.71z"/>
	<polygon class="st14" points="117.51,66.78 117.51,80.76 130.17,80.76 128.41,66.78 	"/>
	<path class="st15" d="M123.83,84.71c2.38,0,4.46-1,5.54-2.21c0.5-0.56,0.79-1.17,0.79-1.74h-12.66
		C117.51,82.55,120.34,84.71,123.83,84.71z"/>
	<polygon class="st11" points="139.31,66.78 128.41,66.78 130.17,80.76 142.83,80.76 	"/>
	<path class="st12" d="M142.83,80.76h-12.66c0,0.84,0.63,1.76,1.66,2.5c1.16,0.84,2.82,1.45,4.67,1.45
		C139.99,84.71,142.83,82.55,142.83,80.76z"/>
	<polygon class="st14" points="155.49,80.76 150.21,66.78 139.31,66.78 142.83,80.76 	"/>
	<path class="st15" d="M143.24,81.99c0.9,1.42,3.21,2.72,5.92,2.72c3.49,0,6.34-2.16,6.34-3.95h-12.66
		C142.83,81.16,142.98,81.58,143.24,81.99z"/>
	<polygon class="st11" points="168.16,80.76 161.12,66.78 150.21,66.78 155.49,80.76 	"/>
	<path class="st12" d="M168.16,80.76h-12.66c0,0.38,0.13,0.77,0.36,1.15c0.46,0.77,1.32,1.5,2.45,2.03
		c1.01,0.47,2.21,0.77,3.51,0.77C165.31,84.71,168.16,82.55,168.16,80.76z"/>
	<polygon class="st14" points="168.16,80.76 180.82,80.76 172.02,66.78 161.12,66.78 	"/>
	<path class="st15" d="M169.45,82.99c1.16,0.98,2.98,1.72,5.03,1.72c3.49,0,6.34-2.16,6.34-3.95h-12.66
		C168.16,81.5,168.64,82.3,169.45,82.99z"/>
	<polygon class="st11" points="172.02,66.78 180.82,80.76 193.48,80.76 188.14,73.69 182.92,66.78 	"/>
	<path class="st12" d="M182.34,83.17c1.16,0.89,2.88,1.55,4.81,1.55c0.34,0,0.67-0.03,1-0.06c3.02-0.36,5.34-2.27,5.34-3.88h-12.66
		C180.82,81.57,181.39,82.44,182.34,83.17z"/>
	<polygon class="st16" points="84.8,66.78 95.71,66.78 106.61,66.78 117.51,66.78 128.41,66.78 139.31,66.78 150.21,66.78 
		161.12,66.78 172.02,66.78 182.92,66.78 182.92,63.72 135.82,63.72 52.1,63.72 52.1,66.78 63,66.78 73.9,66.78 	"/>
</g>
</svg>
