<?xml version="1.0" encoding="utf-8"?>
<!-- Generator: Adobe Illustrator 23.0.3, SVG Export Plug-In . SVG Version: 6.00 Build 0)  -->
<svg version="1.1" id="Ebene_1" xmlns="http://www.w3.org/2000/svg" xmlns:xlink="http://www.w3.org/1999/xlink" x="0px" y="0px"
	 viewBox="0 0 240 240" style="enable-background:new 0 0 240 240;" xml:space="preserve">
<style type="text/css">
	.st0{fill:none;}
	.st1{fill:#303F4E;}
	.st2{fill:#273542;}
	.st3{fill:#D97059;}
	.st4{fill:#B9604C;}
	.st5{fill:#69B9E8;}
	.st6{fill:#68B0E2;}
	.st7{fill:#DAE4E2;}
	.st8{fill:#D2DAD9;}
	.st9{fill:#FBBC0B;}
	.st10{fill:#F5FAFA;}
	.st11{fill:#9D5242;}
</style>
<g>
	<rect x="0" class="st0" width="240" height="240"/>
</g>
<g>
	<polygon class="st1" points="45.9,211.3 41.06,211.3 41.06,217.82 196,217.82 196,211.3 191.17,211.3 119.02,211.3 	"/>
	<path class="st1" d="M94.49,134.65c0-3.24,0.64-6.32,1.81-9.14H45.9h-4.83v22.87h4.83h52.92C96.1,144.49,94.49,139.76,94.49,134.65
		z"/>
	<path class="st2" d="M142.49,134.65c0,5.11-1.6,9.84-4.32,13.73h53H196v-22.87h-4.83h-50.48
		C141.85,128.33,142.49,131.41,142.49,134.65z"/>
	<path class="st3" d="M119.02,211.2h-0.53h-15.55H91.61h-0.04h-0.04h-0.98v-45.75h-2.06v-4.2h30.53v-2.61
		c-0.18,0-0.35,0.01-0.53,0.01c-8.15,0-15.34-4.06-19.68-10.27H45.9v62.91h73.12V211.2z M78.99,202v2.26H56.81V202v-34.29h13.43
		h8.74V202z"/>
	<path class="st4" d="M119.02,158.64v2.61h29.55v4.2h-2.06v45.75h-1.02h-0.04h-25.9h-0.53v0.1h72.14v-62.91h-53
		C133.92,154.45,126.95,158.47,119.02,158.64z M158.07,202v-34.29h13.43h8.74V202v2.26h-22.17V202z"/>
	<path class="st3" d="M99.86,119.53H81.97h-2.33H56.81v-2.26V82.97v-2.33h62.21v-6.61h-13.05H45.9v51.48h50.4
		C97.2,123.34,98.4,121.32,99.86,119.53z"/>
	<path class="st4" d="M119.02,74.04v6.61h61.26v2.33v34.29v2.26h-22.83h-2.33h-18.01c1.46,1.8,2.67,3.81,3.56,5.99h50.48V74.04
		H119.02z"/>
	<polygon class="st5" points="70.25,167.71 56.81,167.71 56.81,202 61.5,202 	"/>
	<polygon class="st6" points="61.5,202 78.99,202 78.99,167.71 70.25,167.71 	"/>
	<polygon class="st1" points="56.81,202 56.81,204.27 78.99,204.27 78.99,202 61.5,202 	"/>
	<polygon class="st5" points="171.51,167.71 158.07,167.71 158.07,202 162.76,202 	"/>
	<polygon class="st6" points="180.25,202 180.25,167.71 171.51,167.71 162.76,202 	"/>
	<polygon class="st1" points="180.25,202 162.76,202 158.07,202 158.07,204.27 180.25,204.27 	"/>
	<polygon class="st5" points="70.64,82.97 56.81,82.97 56.81,117.26 61.64,117.26 	"/>
	<polygon class="st6" points="79.65,117.26 79.65,82.97 70.64,82.97 61.64,117.26 	"/>
	<path class="st1" d="M56.81,82.97h13.83h9v34.29h-18h-4.83v2.26h22.83h2.33h17.89c0.65-0.8,1.35-1.55,2.1-2.26H86.8h-4.83V82.97
		H95.8h9v31.97c0.75-0.52,1.52-1,2.33-1.43V82.97h13.83h9v30.6c0.81,0.44,1.58,0.93,2.33,1.45V82.97h13.83h9v34.29h-18h-2.1
		c0.75,0.71,1.45,1.46,2.1,2.26h18.01h2.33h22.83v-2.26h-18h-4.83V82.97h13.83h9v-2.33h-61.26H56.81V82.97z"/>
	<polygon class="st5" points="81.97,82.97 81.97,117.26 86.8,117.26 95.8,82.97 	"/>
	<path class="st6" d="M104.81,82.97h-9l-9,34.29h15.16c0.89-0.84,1.84-1.62,2.84-2.32V82.97z"/>
	<path class="st5" d="M120.96,82.97h-13.83v30.54c1.99-1.07,4.15-1.87,6.43-2.35L120.96,82.97z"/>
	<path class="st6" d="M118.49,110.65c4.16,0,8.06,1.06,11.47,2.92v-30.6h-9l-7.4,28.19C115.16,110.83,116.8,110.65,118.49,110.65z"
		/>
	<path class="st5" d="M137.12,117.26l9-34.29h-13.83v32.05c0.97,0.68,1.88,1.43,2.73,2.24H137.12z"/>
	<polygon class="st6" points="155.12,117.26 155.12,82.97 146.12,82.97 137.12,117.26 	"/>
	<polygon class="st5" points="157.45,82.97 157.45,117.26 162.28,117.26 171.28,82.97 	"/>
	<polygon class="st6" points="162.28,117.26 180.28,117.26 180.28,82.97 171.28,82.97 	"/>
	<path class="st7" d="M112.52,190.75v-1.53h1.16l4.81-9.84v-11.67H91.61v43.49h11.33l10-20.45H112.52z M111.54,184.86H98.01v-13.35
		h13.52V184.86z"/>
	<polygon class="st7" points="119.55,167.71 119.55,177.22 124.2,167.71 	"/>
	<polygon class="st8" points="113.68,189.23 115.86,189.23 115.86,190.75 112.93,190.75 102.94,211.2 118.49,211.2 118.49,179.38 	
		"/>
	<path class="st8" d="M124.2,167.71l-4.65,9.51v33.99h25.9v-43.49H124.2z M125.52,190.75h-3.34v-1.53h3.34V190.75z M139.04,184.86
		h-13.52v-13.35h13.52V184.86z"/>
	<polygon class="st1" points="112.52,190.75 112.93,190.75 115.86,190.75 115.86,189.23 113.68,189.23 112.52,189.23 	"/>
	<rect x="122.18" y="189.23" class="st1" width="3.34" height="1.53"/>
	<polygon class="st1" points="88.49,165.45 90.55,165.45 90.55,211.2 91.53,211.2 91.57,211.2 91.61,211.2 91.61,167.71 
		118.49,167.71 118.49,179.38 118.49,211.2 119.02,211.2 119.55,211.2 119.55,177.22 119.55,167.71 124.2,167.71 145.45,167.71 
		145.45,211.2 145.49,211.2 146.51,211.2 146.51,165.45 148.58,165.45 148.58,161.25 119.02,161.25 88.49,161.25 	"/>
	<rect x="98.01" y="171.51" class="st5" width="13.52" height="13.35"/>
	<rect x="125.52" y="171.51" class="st6" width="13.52" height="13.35"/>
	<path class="st9" d="M132.29,115.02c-0.75-0.53-1.52-1.02-2.33-1.45c-3.41-1.86-7.32-2.92-11.47-2.92c-1.69,0-3.34,0.18-4.93,0.51
		c-2.28,0.48-4.44,1.27-6.43,2.35c-0.81,0.43-1.58,0.91-2.33,1.43c-1.01,0.7-1.96,1.48-2.84,2.32c-0.75,0.71-1.45,1.46-2.1,2.26
		c-1.46,1.8-2.67,3.81-3.56,5.99c-1.16,2.82-1.81,5.9-1.81,9.14c0,5.11,1.6,9.84,4.32,13.73c4.34,6.2,11.53,10.27,19.68,10.27
		c0.18,0,0.35-0.01,0.53-0.01c7.93-0.17,14.9-4.18,19.15-10.25c2.72-3.89,4.32-8.62,4.32-13.73c0-3.24-0.64-6.32-1.81-9.14
		c-0.9-2.17-2.1-4.19-3.56-5.99c-0.65-0.8-1.35-1.55-2.1-2.26C134.17,116.45,133.26,115.7,132.29,115.02z M138.59,134.65
		c0,11.1-9,20.1-20.1,20.1s-20.1-9-20.1-20.1c0-11.1,9-20.1,20.1-20.1S138.59,123.55,138.59,134.65z"/>
	<path class="st10" d="M118.49,114.56c-11.1,0-20.1,9-20.1,20.1c0,11.1,9,20.1,20.1,20.1s20.1-9,20.1-20.1
		C138.59,123.55,129.59,114.56,118.49,114.56z M124.53,136.58l3.73,11.49l-9.77-7.1l-9.77,7.1l3.73-11.49l-9.77-7.1h12.08
		l3.73-11.49l3.73,11.49h12.08L124.53,136.58z"/>
	<polygon class="st1" points="115.86,51.16 45.9,51.16 41.06,51.16 41.06,74.04 45.9,74.04 105.97,74.04 	"/>
	<polygon class="st11" points="191.17,51.16 178.95,33.73 118.55,22 58.12,33.73 45.9,51.16 115.86,51.16 	"/>
	<polygon class="st2" points="105.97,74.04 119.02,74.04 191.17,74.04 196,74.04 196,51.16 191.17,51.16 115.86,51.16 	"/>
	<polygon class="st9" points="118.49,117.99 114.76,129.48 102.68,129.48 112.45,136.58 108.72,148.07 118.49,140.97 128.26,148.07 
		124.53,136.58 134.3,129.48 122.23,129.48 	"/>
</g>
</svg>
