<?xml version="1.0" encoding="utf-8"?>
<!-- Generator: Adobe Illustrator 23.0.3, SVG Export Plug-In . SVG Version: 6.00 Build 0)  -->
<svg version="1.1" id="Ebene_1" xmlns="http://www.w3.org/2000/svg" xmlns:xlink="http://www.w3.org/1999/xlink" x="0px" y="0px"
	 viewBox="0 0 240 240" style="enable-background:new 0 0 240 240;" xml:space="preserve">
<style type="text/css">
	.st0{fill:none;}
	.st1{fill:#7F4338;}
	.st2{fill:#9D5245;}
	.st3{fill:#F2EEE4;}
	.st4{fill:#D9D9CE;}
	.st5{fill:#7C7869;}
	.st6{fill:#626054;}
	.st7{fill:#CB945D;}
	.st8{fill:#B17C42;}
	.st9{fill:#E0B07F;}
	.st10{fill:#D0CBC3;}
	.st11{fill:#A9A69E;}
	.st12{fill:#B6B8BB;}
	.st13{fill:#EBEEF3;}
	.st14{fill:#737C38;}
	.st15{fill:#97A338;}
</style>
<g>
	<rect x="0" class="st0" width="240" height="240"/>
</g>
<g>
	<polygon class="st1" points="45.3,101.05 30.96,111.39 45.3,111.39 45.3,108.08 	"/>
	<polygon class="st1" points="192.91,108.08 192.91,111.39 207.25,111.39 192.91,101.05 	"/>
	<path class="st2" d="M68.16,45.44H89.5v0.15v0.27H90c0.7,0,1.26-0.57,1.26-1.26v-5.78c0-0.7-0.57-1.26-1.26-1.26H67.66
		c-0.7,0-1.26,0.57-1.26,1.26v5.78c0,0.7,0.57,1.26,1.26,1.26h0.5v-0.27V45.44z"/>
	<polygon class="st3" points="89.5,47.44 68.16,47.44 68.16,74.56 89.5,59.16 	"/>
	<polygon class="st4" points="89.5,45.86 89.5,45.59 89.5,45.44 68.16,45.44 68.16,45.59 68.16,45.86 68.16,47.44 89.5,47.44 	"/>
	<path class="st5" d="M75.6,197.49H126v-1.65h1.2v-4.71v-0.36v-1.16h1.28v-4.69v-1.28H80.91c0.49,1.24,0.76,2.59,0.76,4.01
		C81.68,191.95,79.2,195.67,75.6,197.49z"/>
	<path class="st5" d="M173.2,189.61h1.28v1.16v0.36v4.71h1.2v1.65h12.26c-2.75-1.39-4.83-3.88-5.66-6.9c0,0-0.01-0.01-0.01-0.01
		c-0.02-0.06-0.02-0.12-0.04-0.18c-0.09-0.34-0.16-0.69-0.21-1.04c-0.02-0.11-0.04-0.23-0.05-0.34c-0.06-0.45-0.09-0.9-0.09-1.37
		c0-1.42,0.28-2.76,0.76-4.01h-9.44v1.28V189.61z"/>
	<path class="st5" d="M62.25,194.81c-1.36,1.13-2.91,2.04-4.59,2.68h8.01C64.36,196.82,63.2,195.91,62.25,194.81z"/>
	<path class="st5" d="M45.3,197.13v0.36h0.87C45.87,197.38,45.58,197.26,45.3,197.13z"/>
	<path class="st6" d="M75.6,197.49c-1,0.5-2.08,0.86-3.22,1.04l-2.54,3.86h-3.76l1.64-4.11c-0.72-0.2-1.41-0.46-2.06-0.79h-8.01
		c-0.64,0.25-1.3,0.45-1.98,0.61l-0.97,4.28l-4.89-0.01l-0.74-4.08c-1.01-0.18-1.99-0.45-2.92-0.81H45.3v4.9H126v-4.9H75.6z"/>
	<path class="st6" d="M187.95,197.49h-12.26h0v4.9h14.96v-3.95C189.7,198.24,188.79,197.91,187.95,197.49z"/>
	<path class="st3" d="M192.91,108.08l-73.8-53.23L45.3,108.08v3.3v56.37c2.02-0.91,4.26-1.43,6.62-1.43c0.57,0,1.13,0.03,1.69,0.09
		c0.13,0.01,0.26,0.04,0.4,0.06c0.42,0.05,0.84,0.11,1.25,0.2c0.13,0.03,0.26,0.07,0.39,0.1c0.41,0.1,0.81,0.2,1.2,0.32
		c0.13,0.04,0.25,0.09,0.37,0.14c0.39,0.13,0.77,0.28,1.15,0.44c0.02,0.01,0.05,0.02,0.07,0.03c0.1,0.05,0.19,0.09,0.29,0.13
		c0.11,0.05,0.21,0.11,0.31,0.17c0.32,0.16,0.64,0.32,0.95,0.5c0.09,0.05,0.19,0.1,0.28,0.15c0.05,0.03,0.09,0.07,0.14,0.11
		c3.12,1.94,5.52,4.9,6.74,8.42c1.1-0.37,2.27-0.58,3.5-0.58c0.39,0,0.78,0.02,1.16,0.06c0.09,0.01,0.18,0.03,0.27,0.04
		c0.29,0.04,0.58,0.08,0.86,0.14c0.09,0.02,0.18,0.05,0.27,0.07c0.28,0.07,0.55,0.14,0.82,0.22c0.09,0.03,0.17,0.06,0.25,0.09
		c0.27,0.09,0.53,0.19,0.78,0.3c0.02,0.01,0.03,0.01,0.05,0.02c0.07,0.03,0.13,0.06,0.2,0.09c0.07,0.03,0.14,0.08,0.21,0.11
		c0.22,0.11,0.44,0.22,0.65,0.35c0.06,0.04,0.13,0.06,0.19,0.1c0.03,0.02,0.05,0.04,0.08,0.06c2.02,1.25,3.61,3.13,4.48,5.38h47.57
		v-0.25v-71.96h44.71v71.96v0.25h9.44c1.61-4.11,5.6-7.03,10.28-7.03v-65.21V108.08z M108.14,113.09v44.96H67.19v-44.96v-1.67h40.95
		V113.09z M130.16,72.63v22.22h-22.11V72.63v-1.39h22.11V72.63z"/>
	<polygon class="st4" points="119.11,47.82 45.3,101.05 45.3,108.08 119.11,54.85 192.91,108.08 192.91,101.05 	"/>
	<polygon class="st2" points="119.11,47.82 192.91,101.05 207.25,111.39 212,104.8 122.01,39.9 119.11,37.81 116.2,39.9 89.5,59.16 
		68.16,74.56 26.21,104.8 30.96,111.39 45.3,101.05 	"/>
	<polygon class="st7" points="132.22,115.68 169.46,115.68 169.46,183.38 173.2,183.38 173.2,111.41 128.49,111.41 128.49,183.38 
		132.22,183.38 	"/>
	<path class="st8" d="M132.22,115.68v67.7h37.24v-67.7H132.22z M168.21,182.13h-34.74v-65.2h34.74V182.13z"/>
	<path class="st7" d="M133.47,182.13h34.74v-65.2h-34.74V182.13z M150.02,175.75h-11.68v-16.09h11.68V175.75z M151.66,122.04h11.68
		v16.09h-11.68V122.04z M151.66,140.85h11.68v16.1h-11.68V140.85z M151.66,159.66h11.68v16.09h-11.68V159.66z M138.34,122.04h11.68
		v16.09h-11.68V122.04z M133.97,144.4c0-0.59,0.48-1.08,1.08-1.08h1.4c0.59,0,1.08,0.48,1.08,1.08v0.95h0.81v-4.51h11.68v16.1
		h-11.68v-9.43h-0.81v0.47v4.49c0,0.59-0.48,1.08-1.08,1.08h-1.4c-0.59,0-1.08-0.48-1.08-1.08V144.4z"/>
	<polygon class="st9" points="162.92,175.17 152.09,175.17 152.09,160.24 151.66,159.66 151.66,175.75 163.35,175.75 	"/>
	<polygon class="st8" points="162.92,160.24 162.92,175.17 162.92,175.17 163.35,175.75 163.35,159.66 151.66,159.66 152.09,160.24 
			"/>
	<polygon class="st7" points="162.92,160.24 152.09,160.24 152.09,175.17 162.92,175.17 162.92,175.17 	"/>
	<polygon class="st9" points="138.76,175.17 138.76,160.24 138.34,159.66 138.34,175.75 150.02,175.75 149.6,175.17 	"/>
	<polygon class="st8" points="138.76,160.24 149.6,160.24 149.6,175.17 150.02,175.75 150.02,159.66 138.34,159.66 	"/>
	<rect x="138.76" y="160.24" class="st7" width="10.83" height="14.93"/>
	<polygon class="st9" points="162.92,156.36 152.09,156.36 152.09,141.43 151.66,140.85 151.66,156.94 163.35,156.94 	"/>
	<polygon class="st8" points="152.09,141.43 162.92,141.43 162.92,156.36 162.92,156.36 163.35,156.94 163.35,140.85 151.66,140.85 
		152.09,141.43 	"/>
	<polygon class="st7" points="162.92,141.43 152.09,141.43 152.09,141.43 152.09,156.36 162.92,156.36 162.92,156.36 	"/>
	<polygon class="st9" points="138.76,156.36 138.76,147.51 138.34,147.51 138.34,156.94 150.02,156.94 149.6,156.36 	"/>
	<polygon class="st9" points="138.76,141.43 138.34,140.85 138.34,145.36 138.76,145.36 	"/>
	<polygon class="st8" points="149.6,141.43 149.6,156.36 149.6,156.36 150.02,156.94 150.02,140.85 138.34,140.85 138.76,141.43 	
		"/>
	<path class="st7" d="M149.6,156.36L149.6,156.36l0-14.93h-10.83v3.93h1.51c0.36,0,0.65,0.29,0.65,0.65v0.85
		c0,0.36-0.29,0.65-0.65,0.65h-1.51v8.85H149.6z"/>
	<polygon class="st9" points="162.92,137.55 152.09,137.55 152.09,122.62 151.66,122.04 151.66,138.13 163.35,138.13 	"/>
	<polygon class="st8" points="162.92,122.62 162.92,137.55 162.92,137.55 163.35,138.13 163.35,122.04 151.66,122.04 152.09,122.62 
			"/>
	<polygon class="st7" points="162.92,122.62 152.09,122.62 152.09,137.55 162.92,137.55 162.92,137.55 	"/>
	<polygon class="st9" points="149.6,137.55 138.76,137.55 138.76,122.62 138.34,122.04 138.34,138.13 150.02,138.13 	"/>
	<polygon class="st8" points="149.6,122.62 149.6,137.55 150.02,138.13 150.02,122.04 138.34,122.04 138.76,122.62 	"/>
	<rect x="138.76" y="122.62" class="st7" width="10.83" height="14.93"/>
	<path class="st3" d="M135.05,153.55h1.4c0.59,0,1.08-0.48,1.08-1.08v-4.49h-2.44c-0.36,0-0.65-0.29-0.65-0.65v-0.85
		c0-0.24,0.13-0.43,0.32-0.55c0,0.03-0.01,0.05-0.01,0.07v0.85c0,0.36,0.29,0.65,0.65,0.65h2.14h0.81h0.42h1.51
		c0.36,0,0.65-0.29,0.65-0.65v-0.85c0-0.36-0.29-0.65-0.65-0.65h-1.51h-0.42h-0.81v-0.95c0-0.59-0.48-1.08-1.08-1.08h-1.4
		c-0.59,0-1.08,0.48-1.08,1.08v8.07C133.97,153.07,134.45,153.55,135.05,153.55z M135.31,150.24h0.88v1.75h-0.88V150.24z"/>
	<path class="st10" d="M134.74,146.86v-0.85c0-0.03,0.01-0.05,0.01-0.07c-0.19,0.11-0.32,0.31-0.32,0.55v0.85
		c0,0.36,0.29,0.65,0.65,0.65h2.44v-0.47h-2.14C135.03,147.51,134.74,147.22,134.74,146.86z"/>
	<rect x="135.31" y="150.24" class="st11" width="0.88" height="1.75"/>
	<path class="st8" d="M67.19,113.09v44.96h40.95v-44.96v-1.67H67.19V113.09z M69.07,152.73v-9.65v-4.56v-3.26v-12.36v-1.47v-8.33
		h37.19v8.33v1.47v0.78v3.26v4.56v9.65v15.23H88.49h-1.65H69.07V152.73z"/>
	<polygon class="st7" points="86.84,123.66 86.84,126.93 86.84,131.49 86.84,141.14 86.84,156.38 88.49,156.38 88.49,152.73 
		88.49,143.07 88.49,138.51 88.49,135.25 88.49,122.88 106.26,122.88 106.26,121.41 88.49,121.41 86.84,121.41 69.07,121.41 
		69.07,122.88 86.84,122.88 	"/>
	<path class="st8" d="M108.05,72.63v22.22h22.11V72.63v-1.39h-22.11V72.63z M109.31,82.5h0.13v-0.54V79.1v-1.35v-0.97v-4.16h9.06
		h1.22h9.06v0.73l0,0v0.97l0,0v1.35l0,0v2.86l0,0v3.96v1.22v0.55l0,0v0.97l0,0v1.35l0,0v2.86l0,0v4.03h-9.06h-1.22h-9.06v-0.6v-2.86
		v-1.35v-0.97v-3.97h-0.13V82.5z"/>
	<polygon class="st7" points="118.5,83.72 118.5,84.27 118.5,85.23 118.5,86.58 118.5,89.44 118.5,93.47 119.72,93.47 119.72,92.86 
		119.72,90.01 119.72,88.66 119.72,87.69 119.72,83.72 128.77,83.72 128.77,82.5 119.72,82.5 119.72,81.96 119.72,79.1 
		119.72,77.75 119.72,76.79 119.72,72.63 118.5,72.63 118.5,73.36 118.5,74.33 118.5,75.68 118.5,78.53 118.5,82.5 109.44,82.5 
		109.31,82.5 109.31,83.72 109.44,83.72 	"/>
	<rect x="128.49" y="184.91" class="st12" width="44.71" height="4.69"/>
	<polygon class="st13" points="173.2,184.91 173.2,183.63 173.2,183.38 169.46,183.38 132.22,183.38 128.49,183.38 128.49,183.63 
		128.49,184.91 	"/>
	<rect x="127.2" y="191.13" class="st12" width="47.28" height="4.71"/>
	<polygon class="st13" points="174.48,190.77 174.48,189.61 173.2,189.61 128.49,189.61 127.2,189.61 127.2,190.77 127.2,191.13 
		174.48,191.13 	"/>
	<rect x="126" y="197.49" class="st12" width="49.68" height="4.9"/>
	<polygon class="st13" points="174.48,195.83 127.2,195.83 126,195.83 126,197.49 175.68,197.49 175.68,197.49 175.68,195.83 	"/>
	<path class="st8" d="M49.09,198.3l0.74,4.08l4.89,0.01l0.97-4.28c-1.21,0.29-2.47,0.46-3.77,0.46
		C50.95,198.56,50.01,198.46,49.09,198.3z"/>
	<path class="st14" d="M35.79,182.44C35.79,182.44,35.79,182.44,35.79,182.44c0-3.41,1.06-6.57,2.86-9.17
		C36.85,175.87,35.79,179.03,35.79,182.44z"/>
	<path class="st14" d="M49.09,198.3c0.92,0.16,1.86,0.26,2.83,0.26c1.3,0,2.56-0.17,3.77-0.46c0.68-0.16,1.34-0.37,1.98-0.61
		c1.68-0.64,3.23-1.55,4.59-2.68c0.95,1.11,2.11,2.02,3.42,2.68c0.65,0.33,1.34,0.59,2.06,0.79c0.93,0.25,1.9,0.4,2.91,0.4
		c0.59,0,1.17-0.06,1.74-0.15c1.14-0.18,2.23-0.54,3.22-1.04c3.6-1.82,6.07-5.54,6.07-9.85c0-1.42-0.28-2.76-0.76-4.01
		c-0.88-2.24-2.46-4.12-4.48-5.38c3.05,2.18,2.99,7.04,2.89,9.86c-0.12,3.13-4.06,2.67-5.56,4.87c-1.51,2.2-4.75-1.39-7.19,0.81
		c-2.43,2.2-4.06-1.28-6.57-3.22c-0.26-0.94-0.4-1.92-0.4-2.94c0-4.87,3.16-9,7.54-10.46c-1.22-3.53-3.62-6.49-6.74-8.42
		c4.43,3.14,3.75,8.11-0.8,12.27c-3.37,3.09-0.93,6.01-3.13,9.23c-2.2,3.22-6.94-2.03-10.5,1.19c-3.55,3.21-5.92-1.85-9.58-4.69
		c1.28,4.64,4.58,8.44,8.91,10.39c0.28,0.13,0.57,0.24,0.87,0.36C47.1,197.85,48.08,198.12,49.09,198.3z"/>
	<path class="st15" d="M45.97,191.44c3.55-3.22,8.29,2.03,10.5-1.19c2.2-3.22-0.24-6.14,3.13-9.23c4.54-4.16,5.22-9.13,0.8-12.27
		c-0.05-0.03-0.09-0.07-0.14-0.11c-0.09-0.06-0.19-0.1-0.28-0.15c-0.31-0.18-0.62-0.34-0.95-0.5c-0.11-0.05-0.2-0.12-0.31-0.17
		c-0.1-0.04-0.19-0.08-0.29-0.13c-0.02-0.01-0.05-0.02-0.07-0.03c-0.37-0.16-0.76-0.3-1.15-0.44c-0.12-0.04-0.24-0.09-0.37-0.14
		c-0.39-0.13-0.8-0.23-1.2-0.32c-0.13-0.03-0.26-0.07-0.39-0.1c-0.41-0.09-0.83-0.15-1.25-0.2c-0.13-0.02-0.26-0.05-0.4-0.06
		c-0.56-0.06-1.12-0.09-1.69-0.09c-2.36,0-4.6,0.52-6.62,1.43c-2.27,1.02-4.26,2.54-5.82,4.43c-0.29,0.35-0.56,0.71-0.82,1.08
		c-1.8,2.6-2.86,5.77-2.86,9.17c0,0,0,0,0,0c0,0.49,0.03,0.97,0.07,1.45c0.01,0.14,0.03,0.28,0.04,0.42
		c0.05,0.4,0.11,0.79,0.18,1.18c0.03,0.14,0.06,0.29,0.09,0.43c0.06,0.27,0.12,0.55,0.2,0.81c0.01,0,0.01,0.01,0.02,0.01
		C40.06,189.59,42.43,194.65,45.97,191.44z M55.59,176.88c0.21-0.54,2.07-2.14,2.5-1.22c0.43,0.93,0.29,1.43,0,2.07
		c-0.29,0.64,0.93,3.29-0.43,3.29C56.3,181.02,54.66,179.31,55.59,176.88z M55.31,185.14c0.11-0.75,0.41-2.54,1.06-1.54
		c0.64,1,1.21,2.16,0.46,2.44C56.09,186.32,55.14,186.35,55.31,185.14z M54.83,187.23c0.79,0.27,0.43,1.66,0,1.8
		c-0.43,0.14-0.78-0.55-1.14-1.28C53.2,186.77,54.04,186.96,54.83,187.23z M51.91,185.14c0,0.5-0.4,0.9-0.9,0.9
		c-0.5,0-0.9-0.4-0.9-0.9c0-0.5,0.4-0.9,0.9-0.9C51.51,184.24,51.91,184.64,51.91,185.14z M50.07,171.86c0.81,0,1.46,0.65,1.46,1.46
		s-0.65,1.46-1.46,1.46c-0.81,0-1.46-0.65-1.46-1.46S49.26,171.86,50.07,171.86z M41.94,185.66c0.25,0.67,1.34,0.95,2.15,1.05
		c0.81,0.1,0.75,1.53,0.63,2.03c-0.21,0.84-1.67-0.57-2.31-0.98c-0.64-0.41-1.28-0.83-1.65-1.58
		C40.39,185.42,41.7,184.99,41.94,185.66z"/>
	<path class="st14" d="M50.12,185.14c0,0.5,0.4,0.9,0.9,0.9c0.5,0,0.9-0.4,0.9-0.9c0-0.5-0.4-0.9-0.9-0.9
		C50.52,184.24,50.12,184.64,50.12,185.14z"/>
	<path class="st14" d="M50.07,174.78c0.81,0,1.46-0.65,1.46-1.46s-0.65-1.46-1.46-1.46c-0.81,0-1.46,0.65-1.46,1.46
		S49.26,174.78,50.07,174.78z"/>
	<path class="st14" d="M57.66,181.02c1.36,0,0.14-2.65,0.43-3.29c0.29-0.64,0.43-1.14,0-2.07c-0.43-0.93-2.3,0.68-2.5,1.22
		C54.66,179.31,56.3,181.02,57.66,181.02z"/>
	<path class="st14" d="M42.41,187.75c0.64,0.41,2.1,1.83,2.31,0.98c0.12-0.5,0.18-1.93-0.63-2.03c-0.81-0.1-1.9-0.38-2.15-1.05
		c-0.25-0.67-1.55-0.24-1.18,0.51C41.13,186.92,41.78,187.34,42.41,187.75z"/>
	<path class="st14" d="M54.83,189.03c0.43-0.14,0.79-1.52,0-1.8c-0.79-0.27-1.63-0.47-1.14,0.51
		C54.05,188.48,54.4,189.17,54.83,189.03z"/>
	<path class="st14" d="M56.84,186.04c0.75-0.28,0.18-1.44-0.46-2.44c-0.64-1-0.95,0.79-1.06,1.54
		C55.14,186.35,56.09,186.32,56.84,186.04z"/>
	<path class="st8" d="M190.65,198.44v3.95v0.22h5.23v-4.35c-0.94,0.26-1.94,0.41-2.96,0.41
		C192.14,198.68,191.38,198.59,190.65,198.44z"/>
	<path class="st14" d="M201.6,188.12c-0.12,3.13-4.06,2.67-5.56,4.87c-1.51,2.2-4.75-1.39-7.19,0.81c-2.43,2.2-4.05-1.26-6.56-3.21
		c0.84,3.02,2.92,5.52,5.66,6.9c0.85,0.43,1.75,0.76,2.7,0.96c0.73,0.15,1.49,0.23,2.27,0.23c1.03,0,2.02-0.15,2.96-0.41
		c4.65-1.3,8.07-5.56,8.07-10.62c0-3.97-2.1-7.44-5.24-9.38C201.76,180.43,201.7,185.3,201.6,188.12z"/>
	<path class="st15" d="M182.64,183.63c-0.49,1.24-0.76,2.59-0.76,4.01c0,0.46,0.04,0.92,0.09,1.37c0.01,0.12,0.03,0.23,0.05,0.34
		c0.06,0.35,0.13,0.7,0.21,1.04c0.02,0.06,0.02,0.12,0.04,0.18c0,0,0.01,0.01,0.01,0.01c2.51,1.95,4.13,5.41,6.56,3.21
		c2.43-2.2,5.68,1.39,7.19-0.81c1.51-2.2,5.45-1.74,5.56-4.87c0.1-2.82,0.17-7.68-2.89-9.86c-0.03-0.02-0.05-0.04-0.08-0.07
		c-0.06-0.04-0.13-0.07-0.19-0.1c-0.21-0.12-0.43-0.24-0.65-0.34c-0.07-0.04-0.14-0.08-0.21-0.11c-0.07-0.03-0.13-0.06-0.2-0.09
		c-0.02-0.01-0.03-0.01-0.05-0.02c-0.26-0.11-0.52-0.21-0.78-0.3c-0.09-0.03-0.17-0.07-0.25-0.09c-0.27-0.09-0.54-0.16-0.82-0.22
		c-0.09-0.02-0.18-0.05-0.27-0.07c-0.28-0.06-0.57-0.1-0.86-0.14c-0.09-0.01-0.18-0.03-0.27-0.04c-0.38-0.04-0.77-0.06-1.16-0.06
		C188.23,176.6,184.24,179.52,182.64,183.63z M195.43,183.83c0.14-0.37,1.42-1.47,1.71-0.83c0.29,0.64,0.2,0.98,0,1.42
		c-0.2,0.44,0.64,2.25-0.29,2.25C195.92,186.67,194.79,185.49,195.43,183.83z M195.24,189.48c0.07-0.51,0.28-1.74,0.72-1.05
		c0.44,0.69,0.83,1.48,0.32,1.67C195.77,190.29,195.13,190.32,195.24,189.48z M194.91,190.92c0.54,0.19,0.29,1.13,0,1.23
		c-0.29,0.1-0.54-0.38-0.78-0.88C193.8,190.6,194.37,190.73,194.91,190.92z M192.91,189.48c0,0.34-0.28,0.62-0.62,0.62
		s-0.62-0.28-0.62-0.62s0.28-0.62,0.62-0.62S192.91,189.14,192.91,189.48z M191.65,180.39c0.55,0,1,0.45,1,1c0,0.55-0.45,1-1,1
		c-0.55,0-1-0.45-1-1C190.65,180.84,191.1,180.39,191.65,180.39z M186.09,189.84c0.17,0.46,0.92,0.65,1.47,0.72
		c0.55,0.07,0.52,1.04,0.43,1.39c-0.14,0.58-1.15-0.39-1.58-0.67c-0.44-0.28-0.88-0.57-1.13-1.08
		C185.02,189.68,185.92,189.38,186.09,189.84z"/>
	<path class="st14" d="M191.68,189.48c0,0.34,0.28,0.62,0.62,0.62s0.62-0.28,0.62-0.62s-0.28-0.62-0.62-0.62
		S191.68,189.14,191.68,189.48z"/>
	<path class="st14" d="M191.65,182.39c0.55,0,1-0.45,1-1c0-0.55-0.45-1-1-1c-0.55,0-1,0.45-1,1
		C190.65,181.95,191.1,182.39,191.65,182.39z"/>
	<path class="st14" d="M196.85,186.67c0.93,0,0.1-1.81,0.29-2.25c0.2-0.44,0.29-0.78,0-1.42c-0.29-0.64-1.57,0.46-1.71,0.83
		C194.79,185.49,195.92,186.67,196.85,186.67z"/>
	<path class="st14" d="M185.28,190.19c0.25,0.51,0.7,0.8,1.13,1.08c0.44,0.28,1.44,1.25,1.58,0.67c0.08-0.34,0.12-1.32-0.43-1.39
		c-0.55-0.07-1.3-0.26-1.47-0.72C185.92,189.38,185.02,189.68,185.28,190.19z"/>
	<path class="st14" d="M194.91,192.15c0.29-0.1,0.54-1.04,0-1.23c-0.54-0.19-1.11-0.32-0.78,0.35
		C194.37,191.77,194.62,192.24,194.91,192.15z"/>
	<path class="st14" d="M196.29,190.1c0.51-0.19,0.12-0.98-0.32-1.67c-0.44-0.69-0.65,0.54-0.72,1.05
		C195.13,190.32,195.77,190.29,196.29,190.1z"/>
	<path class="st8" d="M67.73,198.28l-1.64,4.11h3.76l2.54-3.86c-0.57,0.09-1.15,0.15-1.74,0.15
		C69.63,198.68,68.66,198.53,67.73,198.28z"/>
	<path class="st15" d="M59.6,187.64c0,1.02,0.14,2,0.4,2.94c2.52,1.95,4.14,5.43,6.57,3.22c2.43-2.2,5.68,1.39,7.19-0.81
		c1.51-2.2,5.45-1.74,5.56-4.87c0.1-2.82,0.17-7.69-2.89-9.86c-0.03-0.02-0.05-0.04-0.08-0.06c-0.06-0.04-0.13-0.07-0.19-0.1
		c-0.21-0.12-0.43-0.24-0.65-0.35c-0.07-0.04-0.14-0.08-0.21-0.11c-0.07-0.03-0.13-0.06-0.2-0.09c-0.02-0.01-0.03-0.01-0.05-0.02
		c-0.26-0.11-0.52-0.21-0.78-0.3c-0.09-0.03-0.17-0.07-0.25-0.09c-0.27-0.09-0.54-0.16-0.82-0.22c-0.09-0.02-0.18-0.05-0.27-0.07
		c-0.28-0.06-0.57-0.1-0.86-0.14c-0.09-0.01-0.18-0.03-0.27-0.04c-0.38-0.04-0.77-0.06-1.16-0.06c-1.22,0-2.4,0.21-3.5,0.58
		C62.76,178.64,59.6,182.77,59.6,187.64z M73.15,183.83c0.14-0.37,1.42-1.47,1.71-0.83c0.29,0.64,0.2,0.98,0,1.42
		c-0.2,0.44,0.64,2.25-0.29,2.25C73.64,186.67,72.51,185.49,73.15,183.83z M72.97,189.48c0.07-0.51,0.28-1.74,0.72-1.05
		c0.44,0.69,0.83,1.48,0.32,1.67C73.49,190.29,72.85,190.32,72.97,189.48z M72.63,190.92c0.54,0.19,0.29,1.13,0,1.23
		c-0.29,0.1-0.54-0.38-0.78-0.88C71.52,190.6,72.09,190.73,72.63,190.92z M70.64,189.48c0,0.34-0.28,0.62-0.62,0.62
		c-0.34,0-0.62-0.28-0.62-0.62s0.28-0.62,0.62-0.62C70.36,188.87,70.64,189.14,70.64,189.48z M69.37,180.39c0.55,0,1,0.45,1,1
		c0,0.55-0.45,1-1,1s-1-0.45-1-1C68.37,180.84,68.82,180.39,69.37,180.39z M63.81,189.84c0.17,0.46,0.92,0.65,1.47,0.72
		c0.55,0.07,0.52,1.04,0.43,1.39c-0.14,0.58-1.15-0.39-1.58-0.67c-0.44-0.28-0.88-0.57-1.13-1.08
		C62.75,189.68,63.64,189.38,63.81,189.84z"/>
	<path class="st14" d="M69.41,189.48c0,0.34,0.28,0.62,0.62,0.62c0.34,0,0.62-0.28,0.62-0.62s-0.28-0.62-0.62-0.62
		C69.68,188.87,69.41,189.14,69.41,189.48z"/>
	<path class="st14" d="M69.37,182.39c0.55,0,1-0.45,1-1c0-0.55-0.45-1-1-1s-1,0.45-1,1C68.37,181.95,68.82,182.39,69.37,182.39z"/>
	<path class="st14" d="M74.57,186.67c0.93,0,0.1-1.81,0.29-2.25c0.2-0.44,0.29-0.78,0-1.42c-0.29-0.64-1.57,0.46-1.71,0.83
		C72.51,185.49,73.64,186.67,74.57,186.67z"/>
	<path class="st14" d="M64.13,191.28c0.44,0.28,1.44,1.25,1.58,0.67c0.08-0.34,0.12-1.32-0.43-1.39c-0.55-0.07-1.3-0.26-1.47-0.72
		c-0.17-0.46-1.06-0.16-0.81,0.35C63.25,190.71,63.69,190.99,64.13,191.28z"/>
	<path class="st14" d="M72.63,192.15c0.29-0.1,0.54-1.04,0-1.23c-0.54-0.19-1.11-0.32-0.78,0.35
		C72.1,191.77,72.34,192.24,72.63,192.15z"/>
	<path class="st14" d="M74.01,190.1c0.51-0.19,0.12-0.98-0.32-1.67c-0.44-0.69-0.65,0.54-0.72,1.05
		C72.85,190.32,73.49,190.29,74.01,190.1z"/>
</g>
</svg>
