<?xml version="1.0" encoding="utf-8"?>
<!-- Generator: Adobe Illustrator 23.0.3, SVG Export Plug-In . SVG Version: 6.00 Build 0)  -->
<svg version="1.1" id="Ebene_1" xmlns="http://www.w3.org/2000/svg" xmlns:xlink="http://www.w3.org/1999/xlink" x="0px" y="0px"
	 viewBox="0 0 240 240" style="enable-background:new 0 0 240 240;" xml:space="preserve">
<style type="text/css">
	.st0{fill:none;}
	.st1{fill:#42464D;}
	.st2{fill:#D9D9D9;}
	.st3{fill:#C6C6C5;}
	.st4{fill:#5E636B;}
	.st5{fill:#69B9E8;}
	.st6{fill:#68B0E2;}
	.st7{fill:#666A68;}
	.st8{fill:#6D7170;}
	.st9{fill:#FFEC9A;}
</style>
<g>
	<rect x="0" class="st0" width="240" height="240"/>
</g>
<g>
	<polygon class="st1" points="149.14,178.97 147.61,178.97 144.99,178.97 142.85,178.97 127.39,178.97 123.25,178.97 121.11,178.97 
		105.65,178.97 101.5,178.97 99.36,178.97 83.9,178.97 79.75,178.97 9.33,178.97 5.13,178.97 5.13,183.96 233,183.96 233,178.97 
		229.42,178.97 164.6,178.97 	"/>
	<rect x="121.11" y="178.92" class="st2" width="2.14" height="0.05"/>
	<rect x="99.36" y="178.92" class="st2" width="2.14" height="0.05"/>
	<rect x="142.85" y="178.92" class="st2" width="2.14" height="0.05"/>
	<path class="st2" d="M79.75,178.92h-2.29h-2.8v-41.41h-1.84v-4.69h74.79v-4.26v-13.18v-10h-12.77h-0.68h-30h-0.68h-30h-0.68h-30
		h-0.68H11.47v-0.64v-0.64V84.73v-0.64v-0.64h30.67h0.68h30h0.68h30h0.68h30h0.68h12.77v-1.87h-15.07H9.33v97.39h70.42V178.92z
		 M41.83,146.93H24.11v-25.67h17.72V146.93z M63.85,157.21H46.13v-25.67h17.72V157.21z"/>
	<polygon class="st3" points="147.61,81.58 147.61,83.45 164.84,83.45 165.52,83.45 195.52,83.45 196.19,83.45 226.87,83.45 
		226.87,84.09 226.87,84.64 226.87,84.73 226.87,104.1 226.87,104.75 226.87,105.39 196.19,105.39 195.52,105.39 165.52,105.39 
		164.84,105.39 147.61,105.39 147.61,115.38 147.61,128.56 147.61,132.82 170.69,132.82 170.69,137.51 168.85,137.51 168.85,178.92 
		166.05,178.92 164.6,178.92 164.6,178.97 229.42,178.97 229.42,81.58 	"/>
	<polygon class="st4" points="132.54,65.73 123.64,65.73 123.64,58 114.49,58 114.49,65.73 92.73,65.73 92.73,60.52 78.91,60.52 
		78.91,65.73 69.16,65.73 69.16,60.52 55.33,60.52 55.33,65.73 38.31,65.73 38.31,58 29.16,58 29.16,65.73 5.13,65.73 5.13,81.58 
		9.33,81.58 132.54,81.58 	"/>
	<polygon class="st1" points="147.61,81.58 229.42,81.58 233,81.58 233,65.73 204.98,65.73 177.02,65.73 150.91,65.73 150.91,58 
		141.75,58 141.75,65.73 132.54,65.73 132.54,81.58 	"/>
	<polygon class="st5" points="12.14,84.73 12.14,104.1 18.31,104.1 30.51,84.73 	"/>
	<polygon class="st6" points="18.31,104.1 42.14,104.1 42.14,84.73 30.51,84.73 	"/>
	<polygon class="st5" points="42.82,84.73 42.82,104.1 48.98,104.1 61.18,84.73 	"/>
	<polygon class="st6" points="48.98,104.1 72.82,104.1 72.82,84.73 61.18,84.73 	"/>
	<polygon class="st5" points="73.49,84.73 73.49,104.1 79.66,104.1 91.85,84.73 	"/>
	<polygon class="st6" points="79.66,104.1 103.49,104.1 103.49,84.73 91.85,84.73 	"/>
	<polygon class="st5" points="104.17,84.73 104.17,104.1 110.33,104.1 122.53,84.73 	"/>
	<polygon class="st6" points="110.33,104.1 134.17,104.1 134.17,84.73 122.53,84.73 	"/>
	<polygon class="st5" points="134.84,104.1 141,104.1 153.2,84.73 134.84,84.73 	"/>
	<polygon class="st6" points="164.84,104.1 164.84,84.73 153.2,84.73 141,104.1 	"/>
	<path class="st7" d="M134.17,83.45h-30h-0.68h-30h-0.68h-30h-0.68H11.47v0.64v0.64v19.37v0.64v0.64h30.67h0.68h30h0.68h30h0.68h30
		h0.68h12.77h17.23h0.68h30h0.68h30.67v-0.64v-0.64V84.73v-0.09v-0.55v-0.64h-30.67h-0.68h-30h-0.68h-17.23h-12.77H134.17z
		 M42.14,104.1H18.31h-6.16V84.73h18.36h11.64V104.1z M72.82,104.1H48.98h-6.16V84.73h18.36h11.64V104.1z M103.49,104.1H79.66h-6.16
		V84.73h18.36h11.64V104.1z M134.17,104.1h-23.84h-6.16V84.73h18.36h11.64V104.1z M196.19,84.73h18.36h11.64v19.37h-23.84h-6.16
		V84.73z M165.52,84.73h18.36h11.64v19.37h-23.84h-6.16V84.73z M153.2,84.73h11.64v19.37H141h-6.16V84.73H153.2z"/>
	<polygon class="st5" points="183.88,84.73 165.52,84.73 165.52,104.1 171.68,104.1 	"/>
	<polygon class="st6" points="195.52,104.1 195.52,84.73 183.88,84.73 171.68,104.1 	"/>
	<polygon class="st5" points="214.55,84.73 196.19,84.73 196.19,104.1 202.35,104.1 	"/>
	<polygon class="st6" points="226.19,104.1 226.19,84.73 214.55,84.73 202.35,104.1 	"/>
	<polygon class="st7" points="77.46,137.51 77.46,178.92 79.75,178.92 79.75,144.69 91.63,144.69 99.36,144.69 99.36,178.92 
		101.5,178.92 101.5,144.69 113.38,144.69 121.11,144.69 121.11,178.92 123.25,178.92 123.25,144.69 135.12,144.69 142.85,144.69 
		142.85,178.92 144.99,178.92 144.99,144.69 156.87,144.69 164.6,144.69 164.6,178.92 166.05,178.92 166.05,137.51 	"/>
	<polygon class="st5" points="79.75,144.69 79.75,178.92 79.75,178.97 83.9,178.97 91.63,144.69 	"/>
	<polygon class="st6" points="99.36,144.69 91.63,144.69 83.9,178.97 99.36,178.97 99.36,178.92 	"/>
	<polygon class="st5" points="101.5,144.69 101.5,178.92 101.5,178.97 105.65,178.97 113.38,144.69 	"/>
	<polygon class="st6" points="121.11,144.69 113.38,144.69 105.65,178.97 121.11,178.97 121.11,178.92 	"/>
	<polygon class="st5" points="123.25,144.69 123.25,178.92 123.25,178.97 127.39,178.97 135.12,144.69 	"/>
	<polygon class="st6" points="142.85,144.69 135.12,144.69 127.39,178.97 142.85,178.97 142.85,178.92 	"/>
	<polygon class="st5" points="144.99,144.69 144.99,178.92 144.99,178.97 147.61,178.97 149.14,178.97 156.87,144.69 	"/>
	<polygon class="st6" points="156.87,144.69 149.14,178.97 164.6,178.97 164.6,178.92 164.6,144.69 	"/>
	<polygon class="st8" points="72.82,137.51 74.65,137.51 74.65,178.92 77.46,178.92 77.46,137.51 166.05,137.51 166.05,178.92 
		168.85,178.92 168.85,137.51 170.69,137.51 170.69,132.82 147.61,132.82 72.82,132.82 	"/>
	<rect x="177.02" y="60.52" class="st4" width="27.96" height="5.21"/>
	<path class="st9" d="M24.11,146.93h17.72v-25.67H24.11V146.93z"/>
	<path class="st9" d="M46.13,157.21h17.72v-25.67H46.13V157.21z"/>
	<g>
		<path class="st0" d="M56.15,142.16c-0.33,0.13-0.44,0.55-0.14,1.32c0.31,0.77,0.68,1.01,1.01,0.88c0.33-0.13,0.44-0.56,0.13-1.33
			C56.85,142.25,56.48,142.03,56.15,142.16z"/>
		<path class="st0" d="M52.8,143.87c-0.48,0.19-0.65,0.78-0.09,2.19c0.56,1.41,1.11,1.76,1.59,1.57c0.49-0.19,0.63-0.83,0.07-2.24
			C53.81,143.98,53.29,143.67,52.8,143.87z"/>
		<path class="st0" d="M49.65,147.38c-0.28,0.11-0.55,0.4-0.67,0.93c0.45,0.85,0.95,1.08,1.44,0.89c0.41-0.17,0.61-0.63,0.37-1.25
			C50.55,147.36,50.14,147.18,49.65,147.38z"/>
		<path class="st0" d="M60.65,142.76c-0.33,0.13-0.44,0.55-0.14,1.32c0.31,0.77,0.68,1.01,1.01,0.88c0.33-0.13,0.44-0.57,0.13-1.33
			C61.35,142.86,60.98,142.63,60.65,142.76z"/>
		<path class="st4" d="M49.55,146.65c-0.36,0.14-0.71,0.53-0.85,1.02c-0.51-1.39-0.19-2.06,0.44-2.31c0.3-0.12,0.67-0.09,0.94,0.06
			l0.27-0.74c-0.42-0.2-0.95-0.27-1.56-0.03c-1.02,0.41-1.64,1.58-0.87,3.52c0.67,1.68,1.8,2.11,2.78,1.72
			c0.85-0.34,1.31-1.27,0.92-2.26C51.21,146.57,50.41,146.31,49.55,146.65z M50.42,149.19c-0.49,0.19-0.99-0.04-1.44-0.89
			c0.12-0.53,0.38-0.82,0.67-0.93c0.49-0.2,0.9-0.01,1.14,0.57C51.03,148.56,50.83,149.03,50.42,149.19z"/>
		<path class="st4" d="M52.52,143.16c-1.04,0.41-1.34,1.55-0.67,3.24c0.67,1.68,1.7,2.35,2.73,1.93c1.03-0.41,1.33-1.6,0.65-3.28
			C54.57,143.37,53.56,142.75,52.52,143.16z M54.3,147.63c-0.48,0.19-1.03-0.16-1.59-1.57c-0.56-1.41-0.39-2,0.09-2.19
			c0.49-0.19,1.01,0.12,1.57,1.53C54.94,146.8,54.79,147.43,54.3,147.63z"/>
		<polygon class="st4" points="58.22,146.88 58.77,146.66 59.45,140.23 58.9,140.45 		"/>
		<path class="st4" d="M62.31,143.37c-0.41-1.03-1.15-1.42-1.87-1.13c-0.72,0.29-0.99,1.08-0.58,2.1c0.41,1.03,1.15,1.43,1.87,1.14
			C62.46,145.2,62.72,144.4,62.31,143.37z M61.53,144.96c-0.33,0.13-0.71-0.11-1.01-0.88c-0.31-0.77-0.19-1.19,0.14-1.32
			c0.33-0.13,0.7,0.09,1.01,0.86C61.97,144.39,61.86,144.83,61.53,144.96z"/>
		<path class="st4" d="M55.94,141.63c-0.72,0.29-0.99,1.08-0.58,2.1c0.41,1.04,1.15,1.43,1.87,1.14c0.72-0.29,0.99-1.08,0.57-2.12
			C57.4,141.73,56.66,141.35,55.94,141.63z M57.03,144.35c-0.33,0.13-0.71-0.11-1.01-0.88c-0.31-0.77-0.19-1.19,0.14-1.32
			c0.33-0.13,0.7,0.09,1.01,0.86C57.46,143.79,57.36,144.22,57.03,144.35z"/>
	</g>
	<path class="st4" d="M26.59,133.14c0.9,0.5,1.92,0.42,2.4-0.43c0.35-0.62,0.15-1.25-0.32-1.71l0.02-0.03
		c0.62,0.09,1.13-0.09,1.42-0.62c0.45-0.8,0.08-1.58-0.82-2.09c-0.56-0.31-1.14-0.33-1.74-0.2l0.14,0.77
		c0.44-0.1,0.82-0.12,1.19,0.09c0.43,0.24,0.56,0.62,0.34,1.01c-0.24,0.43-0.72,0.58-1.64,0.07l-0.35,0.62
		c1.07,0.6,1.2,1.08,0.93,1.57c-0.25,0.44-0.75,0.51-1.26,0.22c-0.47-0.26-0.7-0.69-0.82-1.14l-0.71,0.32
		C25.49,132.14,25.83,132.72,26.59,133.14z"/>
	<path class="st4" d="M30.49,135.32c0.97,0.54,2.08,0.02,2.96-1.56c0.88-1.58,0.73-2.75-0.24-3.3c-0.97-0.54-2.05-0.07-2.94,1.52
		C29.38,133.56,29.51,134.78,30.49,135.32z M31.08,132.43c0.74-1.33,1.31-1.56,1.76-1.31c0.46,0.25,0.55,0.86-0.2,2.18
		c-0.74,1.33-1.33,1.61-1.78,1.35C30.41,134.41,30.34,133.76,31.08,132.43z"/>
	<path class="st4" d="M34.84,135.21c0.68,0.38,1.46,0.08,2.01-0.89c0.54-0.96,0.38-1.78-0.3-2.16c-0.68-0.38-1.46-0.09-2,0.87
		C34,134,34.16,134.83,34.84,135.21z M35.16,133.37c0.4-0.72,0.8-0.9,1.11-0.72c0.31,0.17,0.37,0.6-0.04,1.32
		c-0.4,0.72-0.81,0.91-1.12,0.74C34.81,134.54,34.76,134.1,35.16,133.37z"/>
	<path class="st4" d="M38.91,136.04c-0.68-0.38-1.46-0.09-2,0.87c-0.54,0.97-0.39,1.8,0.29,2.18c0.68,0.38,1.46,0.08,2.01-0.89
		C39.75,137.23,39.59,136.42,38.91,136.04z M38.6,137.85c-0.4,0.72-0.81,0.91-1.12,0.74c-0.31-0.17-0.36-0.62,0.04-1.34
		c0.4-0.72,0.8-0.9,1.11-0.72C38.94,136.7,39,137.13,38.6,137.85z"/>
	<polygon class="st4" points="34.42,137.53 39.84,134.01 39.33,133.72 33.91,137.24 	"/>
</g>
</svg>
