<?xml version="1.0" encoding="UTF-8" standalone="no"?>
<!-- Generator: Adobe Illustrator 23.0.3, SVG Export Plug-In . SVG Version: 6.00 Build 0)  -->

<svg
    xmlns:dc="http://purl.org/dc/elements/1.1/"
    xmlns:cc="http://creativecommons.org/ns#"
    xmlns:rdf="http://www.w3.org/1999/02/22-rdf-syntax-ns#"
    xmlns="http://www.w3.org/2000/svg"
    xmlns:sodipodi="http://sodipodi.sourceforge.net/DTD/sodipodi-0.dtd"
    xmlns:inkscape="http://www.inkscape.org/namespaces/inkscape"
    version="1.1"
    id="Ebene_1"
    x="0px"
    y="0px"
    viewBox="0 0 240 240"
    style="enable-background:new 0 0 240 240;"
    xml:space="preserve"
    sodipodi:docname="Cell_occupied.svg"
    inkscape:version="0.92.4 (5da689c313, 2019-01-14)"><metadata
   id="metadata11"><rdf:RDF><cc:Work
       rdf:about=""><dc:format>image/svg+xml</dc:format><dc:type
         rdf:resource="http://purl.org/dc/dcmitype/StillImage" /><dc:title /></cc:Work></rdf:RDF></metadata>
    <defs
        id="defs9"/>
    <sodipodi:namedview
        pagecolor="#ffffff"
        bordercolor="#666666"
        borderopacity="1"
        objecttolerance="10"
        gridtolerance="10"
        guidetolerance="10"
        inkscape:pageopacity="0"
        inkscape:pageshadow="2"
        inkscape:window-width="1920"
        inkscape:window-height="1017"
        id="namedview7"
        showgrid="false"
        inkscape:zoom="2.7812867"
        inkscape:cx="103.55553"
        inkscape:cy="123.32931"
        inkscape:window-x="-8"
        inkscape:window-y="-8"
        inkscape:window-maximized="1"
        inkscape:current-layer="Ebene_1" />
    <style
   type="text/css"
   id="style2">
	.st0{fill:#9CCB89;}
</style>


    <path
        style="fill:#000000;fill-opacity:0.90196078;stroke-width:0.99701494"
        d="M 60 0.18359375 C 26.76 0.18359375 0 26.943594 0 60.183594 L 0 180.35938 C 0 213.59938 26.76 240.35938 60 240.35938 L 180.53711 240.35938 C 213.77711 240.35938 240.53711 213.59938 240.53711 180.35938 L 240.53711 60.183594 C 240.53711 26.943594 213.77711 0.18359375 180.53711 0.18359375 L 60 0.18359375 z M 74.414062 21.755859 L 166.12305 21.755859 C 191.41327 21.755859 211.77344 42.116022 211.77344 67.40625 L 211.77344 173.13672 C 211.77344 198.42695 191.41327 218.78711 166.12305 218.78711 L 74.414062 218.78711 C 49.123835 218.78711 28.763672 198.42695 28.763672 173.13672 L 28.763672 67.40625 C 28.763672 42.116022 49.123835 21.755859 74.414062 21.755859 z "
        id="rect820"/></svg>
