<?xml version="1.0" encoding="utf-8"?>
<!-- Generator: Adobe Illustrator 23.0.3, SVG Export Plug-In . SVG Version: 6.00 Build 0)  -->
<svg version="1.1" id="Ebene_1" xmlns="http://www.w3.org/2000/svg" xmlns:xlink="http://www.w3.org/1999/xlink" x="0px" y="0px"
	 viewBox="0 0 240 240" style="enable-background:new 0 0 240 240;" xml:space="preserve">
<style type="text/css">
	.st0{fill:#8B5420;}
	.st1{fill:#A8642A;}
	.st2{fill:#5DAD61;}
	.st3{fill:#418050;}
	.st4{fill:none;}
</style>
<rect x="134.27" y="104.64" class="st0" width="3.42" height="32.17"/>
<polygon class="st1" points="133.24,104.64 128.8,104.64 128.8,136.8 134.27,136.8 134.27,104.64 "/>
<polygon class="st2" points="133.24,93.12 133.24,36.93 133.24,25.41 114.48,93.12 117.67,93.12 114.48,104.64 128.8,104.64 
	133.24,104.64 "/>
<polygon class="st3" points="133.24,25.41 133.24,36.93 133.24,93.12 133.24,104.64 134.27,104.64 137.68,104.64 152,104.64 
	148.81,93.12 152,93.12 "/>
<g>
	<rect x="0" class="st4" width="240" height="240"/>
</g>
<rect x="101.86" y="179.02" class="st0" width="4.21" height="39.63"/>
<polygon class="st1" points="100.59,179.02 95.12,179.02 95.12,218.65 101.86,218.65 101.86,179.02 "/>
<polygon class="st2" points="100.59,164.83 100.59,95.6 100.59,81.41 77.48,164.83 81.41,164.83 77.48,179.02 95.12,179.02 
	100.59,179.02 "/>
<polygon class="st3" points="100.59,81.41 100.59,95.6 100.59,164.83 100.59,179.02 101.86,179.02 106.07,179.02 123.71,179.02 
	119.77,164.83 123.71,164.83 "/>
<rect x="188.18" y="190.1" class="st0" width="4.39" height="18.98"/>
<polygon class="st1" points="186.86,190.1 181.16,190.1 181.16,209.08 188.18,209.08 188.18,190.1 "/>
<polygon class="st2" points="186.86,165.03 186.86,149.98 186.86,139.97 186.86,133.77 186.86,129.19 186.86,122.03 186.86,116.32 
	186.86,99.84 186.86,86.18 186.86,83.64 186.86,66.18 177.67,101.51 161.07,129.19 168.09,129.19 166.2,133.77 172.88,133.77 
	169.15,142.81 150.21,165.03 163.41,165.03 139.95,190.1 181.16,190.1 186.86,190.1 "/>
<polygon class="st3" points="223.51,165.03 204.57,142.81 200.85,133.77 207.53,133.77 205.64,129.19 212.65,129.19 196.06,101.51 
	186.86,66.18 186.86,83.64 186.86,86.18 186.86,99.84 186.86,116.32 186.86,122.03 186.86,129.19 186.86,133.77 186.86,139.97 
	186.86,149.98 186.86,165.03 186.86,190.1 188.18,190.1 192.56,190.1 233.77,190.1 210.32,165.03 "/>
<rect x="40.02" y="148.41" class="st0" width="4.04" height="11.55"/>
<polygon class="st1" points="38.81,148.41 33.55,148.41 33.55,159.96 40.02,159.96 40.02,148.41 "/>
<polygon class="st2" points="38.81,144.19 38.81,141.9 38.81,124.42 38.81,109.17 38.81,90.25 38.81,85.6 38.81,71.19 38.81,52.12 
	38.81,50.69 38.81,48.4 38.81,33.2 28.81,62.07 22.14,71.19 25.65,71.19 12.49,90.25 19.04,90.25 12.49,109.17 16.67,109.17 
	14.76,114.42 6.42,124.42 11.12,124.42 3.91,144.19 16.59,144.19 15.59,148.41 33.55,148.41 38.81,148.41 "/>
<polygon class="st3" points="66.5,124.42 71.2,124.42 62.86,114.42 60.95,109.17 65.13,109.17 58.58,90.25 65.13,90.25 51.97,71.19 
	55.48,71.19 48.81,62.07 38.81,33.2 38.81,48.4 38.81,50.69 38.81,52.12 38.81,71.19 38.81,85.6 38.81,90.25 38.81,109.17 
	38.81,124.42 38.81,141.9 38.81,144.19 38.81,148.41 40.02,148.41 44.06,148.41 62.03,148.41 61.03,144.19 73.7,144.19 "/>
</svg>
