<?xml version="1.0" encoding="utf-8"?>
<!-- Generator: Adobe Illustrator 23.0.3, SVG Export Plug-In . SVG Version: 6.00 Build 0)  -->
<svg version="1.1" id="Ebene_1" xmlns="http://www.w3.org/2000/svg" xmlns:xlink="http://www.w3.org/1999/xlink" x="0px" y="0px"
	 viewBox="0 0 240 240" style="enable-background:new 0 0 240 240;" xml:space="preserve">
<style type="text/css">
	.st0{fill:none;}
	.st1{fill:#015969;}
	.st2{fill:#046F81;}
	.st3{fill:#BAC9D2;}
	.st4{fill:#E2F2FA;}
	.st5{fill:#8B5420;}
	.st6{fill:#A8642A;}
	.st7{fill:#5DAD61;}
	.st8{fill:#418050;}
</style>
<g>
	<rect x="0" class="st0" width="240" height="240"/>
</g>
<g>
	<path class="st1" d="M215.28,109.64l-22.03,30.92l-23.95-36.37l-24.57-34.6l-11.09-22.18v12.42l-2.14-10.75l0,0l-7.06,9.97
		L114.27,52l-8.59,7.04l-8.57-8.06L123.74,10L8.28,187.74h146.64c-7.99-24.17-22.91-75.57-22.91-75.57l42.37,75.57h62.08H240V74.88
		L215.28,109.64z"/>
	<polygon class="st2" points="136.03,42.45 131.51,49.08 133.64,59.83 133.64,47.41 144.73,69.59 169.3,104.19 193.25,140.56 
		215.28,109.64 159.75,66.78 142.52,39.61 140.03,44.96 	"/>
	<path class="st2" d="M154.92,187.74h4.83h14.63l-42.37-75.57C132.02,112.17,146.93,163.58,154.92,187.74z"/>
	<polygon class="st3" points="105.69,59.05 114.27,52 124.44,59.05 131.51,49.08 123.74,10 97.12,50.99 	"/>
	<polygon class="st4" points="131.51,49.08 136.03,42.45 140.03,44.96 142.52,39.61 142.52,39.61 123.74,10 131.51,49.08 	"/>
</g>
<g>
	<rect x="195.86" y="177.02" class="st5" width="4.21" height="39.63"/>
	<polygon class="st6" points="194.59,177.02 189.12,177.02 189.12,216.65 195.86,216.65 195.86,177.02 	"/>
	<polygon class="st7" points="194.59,162.83 194.59,93.6 194.59,79.41 171.48,162.83 175.41,162.83 171.48,177.02 189.12,177.02 
		194.59,177.02 	"/>
	<polygon class="st8" points="217.71,162.83 194.59,79.41 194.59,93.6 194.59,162.83 194.59,177.02 195.86,177.02 200.07,177.02 
		217.71,177.02 213.77,162.83 	"/>
	<rect x="40.02" y="200.41" class="st5" width="4.04" height="11.55"/>
	<polygon class="st6" points="38.81,200.41 33.55,200.41 33.55,211.96 40.02,211.96 40.02,200.41 	"/>
	<polygon class="st7" points="38.81,196.19 38.81,193.9 38.81,176.42 38.81,161.17 38.81,142.25 38.81,137.6 38.81,123.19 
		38.81,104.12 38.81,102.69 38.81,100.4 38.81,85.2 28.81,114.07 22.14,123.19 25.65,123.19 12.49,142.25 19.04,142.25 
		12.49,161.17 16.67,161.17 14.76,166.42 6.42,176.42 11.12,176.42 3.91,196.19 16.59,196.19 15.59,200.41 33.55,200.41 
		38.81,200.41 	"/>
	<polygon class="st8" points="66.5,176.42 71.2,176.42 62.86,166.42 60.95,161.17 65.13,161.17 58.58,142.25 65.13,142.25 
		51.97,123.19 55.48,123.19 48.81,114.07 38.81,85.2 38.81,100.4 38.81,102.69 38.81,104.12 38.81,123.19 38.81,137.6 38.81,142.25 
		38.81,161.17 38.81,176.42 38.81,193.9 38.81,196.19 38.81,200.41 40.02,200.41 44.06,200.41 62.03,200.41 61.03,196.19 
		73.7,196.19 	"/>
</g>
</svg>
