<?xml version="1.0" encoding="utf-8"?>
<!-- Generator: Adobe Illustrator 23.0.3, SVG Export Plug-In . SVG Version: 6.00 Build 0)  -->
<svg version="1.1" id="Ebene_1" xmlns="http://www.w3.org/2000/svg" xmlns:xlink="http://www.w3.org/1999/xlink" x="0px" y="0px"
	 viewBox="0 0 240 240" style="enable-background:new 0 0 240 240;" xml:space="preserve">
<style type="text/css">
	.st0{fill:none;}
	.st1{fill:#8B5420;}
	.st2{fill:#A8642A;}
	.st3{fill:#80983C;}
	.st4{fill:#84A83E;}
</style>
<g>
	<rect x="0" class="st0" width="240" height="240"/>
</g>
<g>
	<path class="st0" d="M162.45,98.75c-1.24,0.22-2.5,0.39-3.79,0.52v2.57L162.45,98.75z"/>
	<path class="st0" d="M148.94,99.22c-1.27-0.14-2.52-0.33-3.75-0.56l7.77,9.52v-2.25L148.94,99.22z"/>
	<path class="st0" d="M83.2,145.05c-1.52-0.16-3.01-0.39-4.47-0.67l9.28,11.36v-2.69L83.2,145.05z"/>
	<path class="st0" d="M99.34,144.49c-1.47,0.27-2.98,0.47-4.52,0.62v3.07L99.34,144.49z"/>
	<path class="st0" d="M152.26,99.46l0.7,1.17v-1.15C152.73,99.47,152.5,99.47,152.26,99.46z"/>
	<path class="st0" d="M87.17,145.34l0.84,1.39v-1.38C87.73,145.35,87.45,145.35,87.17,145.34z"/>
	<path class="st1" d="M152.96,100.63l2.19,3.65v-4.8c-0.37,0.01-0.73,0.02-1.1,0.02c-0.37,0-0.73-0.01-1.1-0.02V100.63z"/>
	<path class="st1" d="M155.63,114.1l-13.09-16.03c-0.59-0.15-1.18-0.32-1.75-0.49l12.17,14.91v28.62h2.19v-26.63L155.63,114.1z"/>
	<path class="st1" d="M152.96,105.92v2.25l2.19,2.69v-3.15l0.08-0.05l-5.01-8.33c-0.43-0.03-0.87-0.07-1.29-0.12L152.96,105.92z"/>
	<path class="st1" d="M155.64,104.31l0.66,0.81l8.38-6.84c-0.73,0.17-1.48,0.33-2.23,0.47l-3.79,3.09L155.64,104.31z"/>
	<path class="st2" d="M156.31,105.12l-0.66-0.81l3.03-2.47v-2.57c-1.15,0.11-2.32,0.18-3.51,0.21v4.8l-2.19-3.65l-0.7-1.17
		c-0.68-0.03-1.36-0.07-2.03-0.12l5.01,8.33l-0.08,0.05v3.15l-2.19-2.69l-7.77-9.52c-0.9-0.17-1.78-0.37-2.65-0.59l13.09,16.03
		l-0.47,0.39v26.63h3.51v-35.75l10.1-8.25c-1.31,0.45-2.68,0.84-4.08,1.16L156.31,105.12z"/>
	<path class="st3" d="M145.19,98.66c1.22,0.23,2.47,0.43,3.75,0.56c0.43,0.05,0.86,0.08,1.29,0.12c0.67,0.05,1.35,0.1,2.03,0.12
		c0.23,0.01,0.47,0.01,0.7,0.01c0.36,0.01,0.73,0.02,1.1,0.02V51.85c-18.64,0-33.75,10.66-33.75,23.82
		c0,9.83,8.44,18.27,20.48,21.91c0.58,0.17,1.16,0.34,1.75,0.49C143.41,98.29,144.29,98.48,145.19,98.66z"/>
	<path class="st4" d="M154.06,51.85v47.64c0.37,0,0.73-0.01,1.1-0.02c1.19-0.03,2.36-0.1,3.51-0.21c1.29-0.12,2.55-0.29,3.79-0.52
		c0.76-0.14,1.5-0.3,2.23-0.47c1.4-0.33,2.77-0.71,4.08-1.16c11.27-3.86,19.05-12.01,19.05-21.45
		C187.81,62.52,172.7,51.85,154.06,51.85z"/>
	<path class="st1" d="M88.01,146.73l2.62,4.36v-5.73c-0.44,0.01-0.87,0.02-1.31,0.02c-0.44,0-0.87-0.01-1.31-0.02V146.73z"/>
	<path class="st1" d="M91.19,162.81l-15.62-19.13c-0.71-0.18-1.41-0.38-2.09-0.59l14.53,17.8v34.16h2.62v-31.78L91.19,162.81z"/>
	<path class="st1" d="M88.01,153.05v2.69l2.62,3.21v-3.76l0.1-0.06l-5.98-9.95c-0.52-0.04-1.03-0.08-1.54-0.14L88.01,153.05z"/>
	<path class="st1" d="M91.21,151.13L92,152.1l10-8.17c-0.88,0.21-1.76,0.4-2.67,0.56l-4.52,3.69L91.21,151.13z"/>
	<path class="st2" d="M92,152.1l-0.79-0.97l3.61-2.95v-3.07c-1.38,0.13-2.77,0.22-4.19,0.25v5.73l-2.62-4.36l-0.84-1.39
		c-0.82-0.03-1.62-0.08-2.43-0.15l5.98,9.95l-0.1,0.06v3.76l-2.62-3.21l-9.28-11.36c-1.07-0.21-2.13-0.44-3.16-0.7l15.62,19.13
		l-0.57,0.46v31.78h4.19v-42.67l12.05-9.84c-1.57,0.54-3.2,1-4.87,1.39L92,152.1z"/>
	<path class="st3" d="M78.73,144.38c1.46,0.28,2.95,0.51,4.47,0.67c0.51,0.05,1.03,0.1,1.54,0.14c0.8,0.06,1.61,0.12,2.43,0.15
		c0.28,0.01,0.56,0.01,0.84,0.02c0.44,0.01,0.87,0.02,1.31,0.02V88.51c-22.25,0-40.29,12.73-40.29,28.43
		c0,11.74,10.07,21.81,24.45,26.15c0.69,0.21,1.39,0.4,2.09,0.59C76.6,143.94,77.66,144.17,78.73,144.38z"/>
	<path class="st4" d="M89.32,88.51v56.87c0.44,0,0.87-0.01,1.31-0.02c1.42-0.03,2.81-0.11,4.19-0.25c1.53-0.15,3.04-0.35,4.52-0.62
		c0.9-0.16,1.79-0.35,2.67-0.56c1.67-0.39,3.3-0.85,4.87-1.39c13.46-4.6,22.73-14.34,22.73-25.6
		C129.61,101.24,111.57,88.51,89.32,88.51z"/>
</g>
</svg>
