<?xml version="1.0" encoding="utf-8"?>
<!-- Generator: Adobe Illustrator 23.0.3, SVG Export Plug-In . SVG Version: 6.00 Build 0)  -->
<svg version="1.1" id="Ebene_1" xmlns="http://www.w3.org/2000/svg" xmlns:xlink="http://www.w3.org/1999/xlink" x="0px" y="0px"
	 viewBox="0 0 240 240" style="enable-background:new 0 0 240 240;" xml:space="preserve">
<style type="text/css">
	.st0{fill:none;}
	.st1{fill:#8B5420;}
	.st2{fill:#A8642A;}
	.st3{fill:#5DAD61;}
	.st4{fill:#418050;}
</style>
<g>
	<rect x="0" class="st0" width="240" height="240"/>
</g>
<g>
	<rect x="144.5" y="187.2" class="st1" width="3.17" height="9.07"/>
	<polygon class="st2" points="143.55,187.2 139.42,187.2 139.42,196.27 144.5,196.27 144.5,187.2 	"/>
	<polygon class="st3" points="143.55,183.89 143.55,182.1 143.55,168.38 143.55,156.41 143.55,141.57 143.55,137.92 143.55,126.6 
		143.55,111.64 143.55,110.52 143.55,108.73 143.55,96.8 135.7,119.45 130.46,126.6 133.22,126.6 122.89,141.57 128.03,141.57 
		122.89,156.41 126.18,156.41 124.67,160.53 118.13,168.38 121.82,168.38 116.16,183.89 126.11,183.89 125.32,187.2 139.42,187.2 
		143.55,187.2 	"/>
	<polygon class="st4" points="165.28,168.38 168.97,168.38 162.42,160.53 160.92,156.41 164.2,156.41 159.06,141.57 164.2,141.57 
		153.87,126.6 156.63,126.6 151.39,119.45 143.55,96.8 143.55,108.73 143.55,110.52 143.55,111.64 143.55,126.6 143.55,137.92 
		143.55,141.57 143.55,156.41 143.55,168.38 143.55,182.1 143.55,183.89 143.55,187.2 144.5,187.2 147.67,187.2 161.77,187.2 
		160.98,183.89 170.93,183.89 	"/>
	<rect x="108.36" y="164.02" class="st1" width="4.21" height="39.63"/>
	<polygon class="st2" points="107.1,164.02 101.62,164.02 101.62,203.65 108.36,203.65 108.36,164.02 	"/>
	<polygon class="st3" points="107.1,149.83 107.1,80.6 107.1,66.41 83.98,149.83 87.91,149.83 83.98,164.02 101.62,164.02 
		107.1,164.02 	"/>
	<polygon class="st4" points="107.1,66.41 107.1,80.6 107.1,149.83 107.1,164.02 108.36,164.02 112.57,164.02 130.21,164.02 
		126.28,149.83 130.21,149.83 	"/>
	<rect x="201.25" y="199.53" class="st1" width="3.36" height="24.55"/>
	<polygon class="st2" points="200.25,199.53 195.87,199.53 195.87,224.08 201.25,224.08 201.25,199.53 	"/>
	<polygon class="st3" points="200.25,190.31 200.25,178.76 200.25,171.08 200.25,166.33 200.25,162.82 200.25,157.33 200.25,152.95 
		200.25,140.32 200.25,129.84 200.25,127.89 200.25,114.51 193.19,141.6 180.47,162.82 185.85,162.82 184.4,166.33 189.52,166.33 
		186.67,173.26 172.14,190.31 182.26,190.31 164.28,209.53 195.87,209.53 200.25,209.53 	"/>
	<polygon class="st4" points="218.23,190.31 228.35,190.31 213.82,173.26 210.97,166.33 216.09,166.33 214.64,162.82 220.02,162.82 
		207.3,141.6 200.25,114.51 200.25,127.89 200.25,129.84 200.25,140.32 200.25,152.95 200.25,157.33 200.25,162.82 200.25,166.33 
		200.25,171.08 200.25,178.76 200.25,190.31 200.25,209.53 201.25,209.53 204.62,209.53 236.22,209.53 	"/>
	<rect x="42.26" y="203.07" class="st1" width="4.04" height="11.55"/>
	<polygon class="st2" points="41.04,203.07 35.79,203.07 35.79,214.62 42.26,214.62 42.26,203.07 	"/>
	<polygon class="st3" points="41.04,198.85 41.04,196.57 41.04,179.08 41.04,163.83 41.04,144.92 41.04,140.26 41.04,125.85 
		41.04,106.78 41.04,105.35 41.04,103.07 41.04,87.87 31.04,116.73 24.37,125.85 27.88,125.85 14.72,144.92 21.27,144.92 
		14.72,163.83 18.91,163.83 16.99,169.09 8.65,179.08 13.35,179.08 6.15,198.85 18.82,198.85 17.82,203.07 35.79,203.07 
		41.04,203.07 	"/>
	<polygon class="st4" points="68.74,179.08 73.44,179.08 65.09,169.08 63.18,163.83 67.36,163.83 60.81,144.92 67.36,144.92 
		54.2,125.85 57.72,125.85 51.04,116.73 41.04,87.87 41.04,103.07 41.04,105.35 41.04,106.78 41.04,125.85 41.04,140.26 
		41.04,144.92 41.04,163.83 41.04,179.08 41.04,196.57 41.04,198.85 41.04,203.07 42.26,203.07 46.3,203.07 64.27,203.07 
		63.26,198.85 75.94,198.85 	"/>
</g>
</svg>
