<?xml version="1.0" encoding="utf-8"?>
<!-- Generator: Adobe Illustrator 23.0.3, SVG Export Plug-In . SVG Version: 6.00 Build 0)  -->
<svg version="1.1" id="Ebene_1" xmlns="http://www.w3.org/2000/svg" xmlns:xlink="http://www.w3.org/1999/xlink" x="0px" y="0px"
	 viewBox="0 0 240 240" style="enable-background:new 0 0 240 240;" xml:space="preserve">
<style type="text/css">
	.st0{fill:none;}
	.st1{fill:#015969;}
	.st2{fill:#046F81;}
	.st3{fill:#BAC9D2;}
	.st4{fill:#E2F2FA;}
	.st5{fill:#8B5420;}
	.st6{fill:#A8642A;}
	.st7{fill:#5DAD61;}
	.st8{fill:#418050;}
</style>
<g>
	<rect x="0" class="st0" width="240" height="240"/>
</g>
<g>
	<polygon class="st0" points="9,61.24 1,32 9,61.24 	"/>
	<polygon class="st1" points="84.98,177.02 88.91,162.83 84.98,162.83 94.19,129.61 57.46,98.87 57.46,50.96 52.73,55.61 
		47.55,48.17 42.28,44.96 34.96,47.6 26.42,41.9 20.17,54.46 11.33,70.48 9,61.24 9,61.24 9,61.24 9,61.24 2.31,61.34 0,60.52 
		0,183.7 10.83,187.74 13.27,187.74 17.99,182.09 19.91,176.83 15.72,176.83 22.27,157.92 15.72,157.92 28.88,138.85 25.37,138.85 
		32.04,129.73 32.62,128.06 32.62,98.87 36.97,115.52 42.04,100.87 52.04,129.73 58.72,138.85 55.2,138.85 68.36,157.92 
		61.81,157.92 68.36,176.83 65.08,176.83 72.84,187.74 102.62,187.74 102.62,177.02 	"/>
	<polygon class="st1" points="156.06,141.45 147.06,158.3 140.89,98.87 120.84,111.76 117.71,114.12 131.21,162.83 127.28,162.83 
		131.21,177.02 113.57,177.02 113.57,187.74 128.6,187.74 143.51,187.74 163.92,169.84 	"/>
	<polygon class="st2" points="173.14,173.31 187.67,156.26 190.52,149.33 185.4,149.33 186.85,145.82 181.47,145.82 184.05,141.51 
		140.89,98.87 147.06,158.3 156.06,141.45 163.92,169.84 143.51,187.74 169.75,187.74 183.26,173.31 	"/>
	<polygon class="st2" points="65.3,44.96 61.86,50.99 57.46,50.96 57.46,98.87 94.19,129.61 103.01,97.77 89.06,86.82 73.61,44.96 
		70.45,48.17 	"/>
	<polygon class="st2" points="120.84,111.76 116.01,107.98 117.71,114.12 	"/>
	<polygon class="st2" points="9,61.24 11.33,70.48 20.17,54.46 14.35,55.61 	"/>
	<polygon class="st2" points="64.18,176.83 66.09,182.08 70.82,187.74 72.84,187.74 65.08,176.83 	"/>
	<polygon class="st2" points="32.62,98.87 32.62,128.06 36.97,115.52 	"/>
	<polygon class="st2" points="0,187.74 2.67,187.74 10.83,187.74 0,183.7 	"/>
	<polygon class="st3" points="0,60.52 2.31,61.34 9,61.24 9,61.24 1,32 0,32.96 	"/>
	<polygon class="st4" points="9,61.24 14.35,55.61 20.17,54.46 1,32 9,61.24 	"/>
	<polygon class="st3" points="42.28,44.96 47.55,48.17 52.73,55.61 57.46,50.96 42.28,10 26.42,41.9 26.42,41.9 34.96,47.6 	"/>
	<polygon class="st4" points="61.86,50.99 65.3,44.96 70.45,48.17 73.61,44.96 42.28,10 57.46,50.96 	"/>
	<polygon class="st5" points="109.36,177.02 109.36,216.65 113.57,216.65 113.57,187.74 113.57,177.02 	"/>
	<polygon class="st6" points="109.36,177.02 108.1,177.02 102.62,177.02 102.62,187.74 102.62,216.65 109.36,216.65 	"/>
	<polygon class="st7" points="84.98,162.83 88.91,162.83 84.98,177.02 102.62,177.02 108.1,177.02 108.1,162.83 108.1,93.6 
		108.1,79.41 103.01,97.77 94.19,129.61 	"/>
	<polygon class="st8" points="108.1,162.83 108.1,177.02 109.36,177.02 113.57,177.02 131.21,177.02 127.28,162.83 131.21,162.83 
		117.71,114.12 116.01,107.98 108.1,79.41 108.1,93.6 	"/>
	<rect x="202.25" y="192.53" class="st5" width="3.36" height="14.55"/>
	<polygon class="st6" points="201.25,192.53 196.87,192.53 196.87,207.08 202.25,207.08 202.25,192.53 	"/>
	<polygon class="st7" points="201.25,173.31 201.25,161.76 201.25,154.08 201.25,149.33 201.25,145.82 201.25,140.33 201.25,135.95 
		201.25,123.32 201.25,112.84 201.25,110.89 201.25,97.51 194.19,124.6 184.05,141.51 181.47,145.82 186.85,145.82 185.4,149.33 
		190.52,149.33 187.67,156.26 173.14,173.31 183.26,173.31 169.75,187.74 165.28,192.53 196.87,192.53 201.25,192.53 	"/>
	<polygon class="st8" points="219.23,173.31 229.35,173.31 214.82,156.26 211.97,149.33 217.09,149.33 215.64,145.82 221.02,145.82 
		208.3,124.6 201.25,97.51 201.25,110.89 201.25,112.84 201.25,123.32 201.25,135.95 201.25,140.33 201.25,145.82 201.25,149.33 
		201.25,154.08 201.25,161.76 201.25,173.31 201.25,192.53 202.25,192.53 205.62,192.53 237.22,192.53 	"/>
	<rect x="43.26" y="216.07" class="st5" width="4.04" height="11.55"/>
	<polygon class="st6" points="42.04,216.07 36.79,216.07 36.79,227.62 43.26,227.62 43.26,216.07 	"/>
	<polygon class="st7" points="42.04,211.85 42.04,209.57 42.04,192.08 42.04,176.83 42.04,157.92 42.04,153.26 42.04,138.85 
		42.04,119.78 42.04,118.35 42.04,116.07 42.04,100.87 36.97,115.52 32.62,128.06 32.04,129.73 25.37,138.85 28.88,138.85 
		15.72,157.92 22.27,157.92 15.72,176.83 19.91,176.83 17.99,182.09 13.27,187.74 9.65,192.08 14.35,192.08 7.15,211.85 
		19.82,211.85 18.82,216.07 36.79,216.07 42.04,216.07 	"/>
	<polygon class="st8" points="64.18,176.83 65.08,176.83 68.36,176.83 61.81,157.92 68.36,157.92 55.2,138.85 58.72,138.85 
		52.04,129.73 42.04,100.87 42.04,116.07 42.04,118.35 42.04,119.78 42.04,138.85 42.04,153.26 42.04,157.92 42.04,176.83 
		42.04,192.08 42.04,209.57 42.04,211.85 42.04,216.07 43.26,216.07 47.3,216.07 65.27,216.07 64.26,211.85 76.94,211.85 
		69.74,192.08 74.44,192.08 70.82,187.74 66.09,182.08 	"/>
</g>
</svg>
