<?xml version="1.0" encoding="utf-8"?>
<!-- Generator: Adobe Illustrator 23.0.3, SVG Export Plug-In . SVG Version: 6.00 Build 0)  -->
<svg version="1.1" id="Ebene_1" xmlns="http://www.w3.org/2000/svg" xmlns:xlink="http://www.w3.org/1999/xlink" x="0px" y="0px"
	 viewBox="0 0 240 240" style="enable-background:new 0 0 240 240;" xml:space="preserve">
<style type="text/css">
	.st0{fill:none;}
	.st1{fill:#8B5420;}
	.st2{fill:#A8642A;}
	.st3{fill:#80983C;}
	.st4{fill:#84A83E;}
</style>
<g>
	<rect x="0" class="st0" width="240" height="240"/>
</g>
<g>
	<path class="st0" d="M182.94,105.22c-1.27-0.14-2.52-0.33-3.75-0.56l7.77,9.52v-2.25L182.94,105.22z"/>
	<path class="st0" d="M196.45,104.75c-1.24,0.22-2.5,0.39-3.79,0.52v2.57L196.45,104.75z"/>
	<path class="st0" d="M61.85,65.64c-4.78-0.43-9.25-1.56-13.19-3.24c-1.97,3.16-5.72,5.64-10.35,6.81l9.59,11.74
		c1.75-0.41,3.62-0.63,5.57-0.63c3.03,0,5.88,0.54,8.39,1.48V65.64z"/>
	<path class="st0" d="M143.34,177.49c-1.47,0.27-2.98,0.47-4.52,0.62v3.07L143.34,177.49z"/>
	<path class="st0" d="M131.17,178.34l0.84,1.39v-1.38C131.73,178.35,131.45,178.35,131.17,178.34z"/>
	<path class="st0" d="M127.2,178.05c-1.52-0.16-3.01-0.39-4.47-0.67l9.28,11.36v-2.69L127.2,178.05z"/>
	<path class="st0" d="M61.7,104.14c-1.31,0.48-2.7,0.84-4.17,1.09l4.32,7.19v-8.1L61.7,104.14z"/>
	<path class="st0" d="M71.35,92.94c0,0.02,0,0.04,0,0.06L88.1,79.32c-7.97-1.27-13.92-6.29-13.92-12.3c0-0.64,0.09-1.27,0.22-1.89
		c-1.38,0.24-2.8,0.42-4.24,0.54v22.77C70.92,89.83,71.35,91.35,71.35,92.94z"/>
	<path class="st0" d="M186.26,105.46l0.7,1.17v-1.15C186.73,105.47,186.5,105.47,186.26,105.46z"/>
	<path class="st1" d="M65.04,83.33V65.82c-1.08-0.02-2.14-0.09-3.19-0.18v16.15C63,82.22,64.06,82.74,65.04,83.33z"/>
	<path class="st2" d="M70.16,88.43V65.67c-1.31,0.11-2.63,0.17-3.98,0.17c-0.38,0-0.75-0.01-1.13-0.02v17.51
		C67.31,84.69,69.07,86.44,70.16,88.43z"/>
	<path class="st1" d="M61.85,104.32v8.1l3.19,5.31v-11.72l0.1-0.08l-1.96-2.41c-0.48,0.22-0.97,0.42-1.48,0.61L61.85,104.32z"/>
	<path class="st1" d="M35.58,69.73c-0.6,0.08-1.21,0.14-1.83,0.17L43.87,82.3c0.48-0.22,0.97-0.42,1.48-0.6L35.58,69.73z"/>
	<path class="st2" d="M35.58,69.73l9.77,11.97c0.81-0.29,1.66-0.55,2.54-0.75l-9.59-11.74C37.43,69.43,36.52,69.61,35.58,69.73z"/>
	<path class="st1" d="M65.16,122.67l-10.31-17.16c-0.46,0.02-0.92,0.05-1.39,0.05c-0.13,0-0.25-0.01-0.38-0.01l8.76,14.58v40.75
		h3.19v-38.14L65.16,122.67z"/>
	<path class="st1" d="M71.35,93c-0.01,0.76-0.12,1.5-0.3,2.22l19.17-15.65c-0.72-0.05-1.42-0.14-2.11-0.25L71.35,93z"/>
	<path class="st2" d="M92.06,79.64c-0.63,0-1.24-0.02-1.85-0.07L71.04,95.22c-0.9,3.48-3.81,6.45-7.87,8.31l1.96,2.41l-0.1,0.08
		v11.72l-3.19-5.31l-4.32-7.19c-0.87,0.14-1.76,0.24-2.68,0.29l10.31,17.16l-0.12,0.07v38.14h5.11V99.1L94.1,79.55
		C93.43,79.6,92.75,79.64,92.06,79.64z"/>
	<path class="st3" d="M50.17,57.33c0,1.8-0.54,3.51-1.51,5.07c3.94,1.68,8.41,2.81,13.19,3.24c1.05,0.09,2.12,0.16,3.19,0.18
		c0.38,0.01,0.75,0.02,1.13,0.02V18c-18.72,0-33.89,10.71-33.89,23.92c0,0.95,0.09,1.88,0.24,2.8
		C42.29,44.81,50.17,50.42,50.17,57.33z"/>
	<path class="st4" d="M70.16,65.67c1.44-0.12,2.86-0.3,4.24-0.54c1.29-6.07,8.7-10.73,17.66-10.73v25.25c0.69,0,1.37-0.03,2.03-0.09
		c8.92-0.71,15.85-6.05,15.85-12.54c0-6.28-6.51-11.47-15.02-12.44c3.25-3.67,5.13-8,5.13-12.65C100.06,28.71,84.89,18,66.17,18
		v47.84C67.52,65.84,68.85,65.78,70.16,65.67z"/>
	<path class="st3" d="M74.4,65.13c-0.13,0.62-0.22,1.24-0.22,1.89c0,6.01,5.96,11.03,13.92,12.3c0.69,0.11,1.39,0.2,2.11,0.25
		c0.61,0.04,1.23,0.07,1.85,0.07V54.39C83.1,54.39,75.7,59.05,74.4,65.13z"/>
	<path class="st3" d="M14.4,57.33c0,6.97,8.01,12.62,17.88,12.62V44.71C22.41,44.71,14.4,50.36,14.4,57.33z"/>
	<path class="st4" d="M38.31,69.21c4.63-1.17,8.38-3.65,10.35-6.81c0.96-1.55,1.51-3.26,1.51-5.07c0-6.91-7.88-12.52-17.65-12.61
		c-0.08,0-0.16-0.01-0.24-0.01v25.25c0.49,0,0.98-0.02,1.47-0.05c0.62-0.04,1.23-0.09,1.83-0.17
		C36.52,69.61,37.43,69.43,38.31,69.21z"/>
	<path class="st3" d="M53.46,80.32c-1.95,0-3.82,0.23-5.57,0.63c-0.88,0.2-1.73,0.46-2.54,0.75c-0.51,0.18-1,0.38-1.48,0.6
		c-4.98,2.24-8.29,6.16-8.29,10.64c0,6.88,7.81,12.47,17.51,12.61c0.13,0,0.25,0.01,0.38,0.01V80.32z"/>
	<path class="st4" d="M71.35,92.94c0-1.59-0.43-3.1-1.19-4.5c-1.08-1.99-2.85-3.74-5.11-5.1c-0.98-0.59-2.05-1.11-3.19-1.54
		c-2.5-0.94-5.35-1.48-8.39-1.48v25.25c0.47,0,0.93-0.02,1.39-0.05c0.91-0.05,1.81-0.15,2.68-0.29c1.47-0.24,2.87-0.61,4.17-1.09
		c0.51-0.19,1-0.39,1.48-0.61c4.05-1.85,6.96-4.83,7.87-8.31c0.19-0.72,0.3-1.46,0.3-2.22C71.35,92.98,71.35,92.96,71.35,92.94z"/>
	<path class="st1" d="M186.96,106.63l2.19,3.65v-4.8c-0.37,0.01-0.73,0.02-1.1,0.02c-0.37,0-0.73-0.01-1.1-0.02V106.63z"/>
	<path class="st1" d="M189.63,120.1l-13.09-16.03c-0.59-0.15-1.18-0.32-1.75-0.49l12.17,14.91v28.62h2.19v-26.63L189.63,120.1z"/>
	<path class="st1" d="M186.96,111.92v2.25l2.19,2.69v-3.15l0.08-0.05l-5.01-8.33c-0.43-0.03-0.87-0.07-1.29-0.12L186.96,111.92z"/>
	<path class="st1" d="M189.64,110.31l0.66,0.81l8.38-6.84c-0.73,0.17-1.48,0.33-2.23,0.47l-3.79,3.09L189.64,110.31z"/>
	<path class="st2" d="M190.31,111.12l-0.66-0.81l3.03-2.47v-2.57c-1.15,0.11-2.32,0.18-3.51,0.21v4.8l-2.19-3.65l-0.7-1.17
		c-0.68-0.03-1.36-0.07-2.03-0.12l5.01,8.33l-0.08,0.05v3.15l-2.19-2.69l-7.77-9.52c-0.9-0.17-1.78-0.37-2.65-0.59l13.09,16.03
		l-0.47,0.39v26.63h3.51v-35.75l10.1-8.25c-1.31,0.45-2.68,0.84-4.08,1.16L190.31,111.12z"/>
	<path class="st3" d="M179.19,104.66c1.22,0.23,2.47,0.43,3.75,0.56c0.43,0.05,0.86,0.08,1.29,0.12c0.67,0.05,1.35,0.1,2.03,0.12
		c0.23,0.01,0.47,0.01,0.7,0.01c0.36,0.01,0.73,0.02,1.1,0.02V57.85c-18.64,0-33.75,10.66-33.75,23.82
		c0,9.83,8.44,18.27,20.48,21.91c0.58,0.17,1.16,0.34,1.75,0.49C177.41,104.29,178.29,104.48,179.19,104.66z"/>
	<path class="st4" d="M188.06,57.85v47.64c0.37,0,0.73-0.01,1.1-0.02c1.19-0.03,2.36-0.1,3.51-0.21c1.29-0.12,2.55-0.29,3.79-0.52
		c0.76-0.14,1.5-0.3,2.23-0.47c1.4-0.33,2.77-0.71,4.08-1.16c11.27-3.86,19.05-12.01,19.05-21.45
		C221.81,68.52,206.7,57.85,188.06,57.85z"/>
	<path class="st1" d="M132.01,179.73l2.62,4.36v-5.73c-0.44,0.01-0.87,0.02-1.31,0.02c-0.44,0-0.87-0.01-1.31-0.02V179.73z"/>
	<path class="st1" d="M135.19,195.81l-15.62-19.13c-0.71-0.18-1.41-0.38-2.09-0.59l14.53,17.8v34.16h2.62v-31.78L135.19,195.81z"/>
	<path class="st1" d="M132.01,186.05v2.69l2.62,3.21v-3.76l0.1-0.06l-5.98-9.95c-0.52-0.04-1.03-0.08-1.54-0.14L132.01,186.05z"/>
	<path class="st1" d="M135.21,184.13l0.79,0.97l10-8.17c-0.88,0.21-1.76,0.4-2.67,0.56l-4.52,3.69L135.21,184.13z"/>
	<path class="st2" d="M136,185.1l-0.79-0.97l3.61-2.95v-3.07c-1.38,0.13-2.77,0.22-4.19,0.25v5.73l-2.62-4.36l-0.84-1.39
		c-0.82-0.03-1.62-0.08-2.43-0.15l5.98,9.95l-0.1,0.06v3.76l-2.62-3.21l-9.28-11.36c-1.07-0.21-2.13-0.44-3.16-0.7l15.62,19.13
		l-0.57,0.46v31.78h4.19v-42.67l12.05-9.84c-1.57,0.54-3.2,1-4.87,1.39L136,185.1z"/>
	<path class="st3" d="M122.73,177.38c1.46,0.28,2.95,0.51,4.47,0.67c0.51,0.05,1.03,0.1,1.54,0.14c0.8,0.06,1.61,0.12,2.43,0.15
		c0.28,0.01,0.56,0.01,0.84,0.02c0.44,0.01,0.87,0.02,1.31,0.02v-56.87c-22.25,0-40.29,12.73-40.29,28.43
		c0,11.74,10.07,21.81,24.45,26.15c0.69,0.21,1.39,0.4,2.09,0.59C120.6,176.94,121.66,177.17,122.73,177.38z"/>
	<path class="st4" d="M133.32,121.51v56.87c0.44,0,0.87-0.01,1.31-0.02c1.42-0.03,2.81-0.11,4.19-0.25
		c1.53-0.15,3.04-0.35,4.52-0.62c0.9-0.16,1.79-0.35,2.67-0.56c1.67-0.39,3.3-0.85,4.87-1.39c13.46-4.6,22.73-14.34,22.73-25.6
		C173.61,134.24,155.57,121.51,133.32,121.51z"/>
</g>
</svg>
