<?xml version="1.0" encoding="utf-8"?>
<!-- Generator: Adobe Illustrator 23.0.3, SVG Export Plug-In . SVG Version: 6.00 Build 0)  -->
<svg version="1.1" id="Ebene_1" xmlns="http://www.w3.org/2000/svg" xmlns:xlink="http://www.w3.org/1999/xlink" x="0px" y="0px"
	 viewBox="0 0 240 240" style="enable-background:new 0 0 240 240;" xml:space="preserve">
<style type="text/css">
	.st0{fill:none;}
	.st1{fill:#015969;}
	.st2{fill:#046F81;}
	.st3{fill:#BAC9D2;}
	.st4{fill:#E2F2FA;}
	.st5{fill:#8B5420;}
	.st6{fill:#A8642A;}
	.st7{fill:#5DAD61;}
	.st8{fill:#418050;}
</style>
<g>
	<rect x="0" class="st0" width="240" height="240"/>
</g>
<g>
	<polygon class="st1" points="228.68,39.89 225.57,57.7 223.26,29.86 221.52,33.19 218.29,32.12 212.59,33.19 210.31,30.96 
		188.6,73.82 183.07,82.65 179.72,59.49 148.72,103.69 145.76,130.5 137.92,146.79 131.25,93.34 127.24,107.87 127.24,59.49 
		92.54,121.15 72.69,162.1 68.54,133.05 72.69,124.39 57.81,107.01 46.43,129.02 57.7,147.82 52.32,147.82 53.77,151.33 
		48.65,151.33 51.5,158.26 66.03,175.31 55.91,175.31 64.04,184 90.16,184 109.44,114.41 128.72,184 132.81,184 173.11,184 
		174.99,178.83 170.81,178.83 177.36,159.92 170.81,159.92 183.97,140.85 180.45,140.85 187.12,131.73 197.13,102.87 207.13,131.73 
		213.8,140.85 210.29,140.85 223.45,159.92 216.89,159.92 223.45,178.83 219.26,178.83 221.15,184 240,184 240,100 	"/>
	<polygon class="st2" points="131.25,93.34 137.92,146.79 145.76,130.5 148.72,103.69 127.24,59.49 127.24,107.87 	"/>
	<polygon class="st2" points="188.6,73.82 179.72,59.49 183.07,82.65 	"/>
	<polygon class="st2" points="68.54,133.05 72.69,162.1 92.54,121.15 57.81,107.01 72.69,124.39 	"/>
	<polygon class="st2" points="226.16,31.33 223.26,29.86 225.57,57.7 228.68,39.89 240,100 240,65.17 240,46.2 230.74,27.48 
		228.33,29.86 	"/>
	<polygon class="st3" points="218.29,32.12 221.52,33.19 223.26,29.86 221.52,8.82 210.31,30.96 210.31,30.96 212.59,33.19 	"/>
	<polygon class="st4" points="226.16,31.33 228.33,29.86 230.74,27.48 221.52,8.82 223.26,29.86 	"/>
	<rect x="104.59" y="200.89" class="st5" width="3.73" height="35.11"/>
	<polygon class="st6" points="108.32,200.89 108.32,236 114.29,236 114.29,200.89 109.44,200.89 	"/>
	<polygon class="st7" points="109.44,126.98 109.44,188.31 109.44,200.89 114.29,200.89 129.91,200.89 126.43,188.31 129.91,188.31 
		128.72,184 109.44,114.41 	"/>
	<polygon class="st8" points="109.44,200.89 109.44,188.31 109.44,126.98 109.44,114.41 90.16,184 88.96,188.31 92.44,188.31 
		88.96,200.89 104.59,200.89 108.32,200.89 	"/>
	<rect x="33.55" y="194.53" class="st5" width="3.36" height="14.55"/>
	<polygon class="st6" points="36.91,194.53 36.91,209.08 42.29,209.08 42.29,194.53 37.92,194.53 	"/>
	<polygon class="st7" points="66.03,175.31 51.5,158.26 48.65,151.33 53.77,151.33 52.32,147.82 57.7,147.82 46.43,129.02 
		44.97,126.6 37.92,99.51 37.92,112.89 37.92,114.84 37.92,125.32 37.92,137.95 37.92,142.33 37.92,147.82 37.92,151.33 
		37.92,156.08 37.92,163.76 37.92,175.31 37.92,194.53 42.29,194.53 73.89,194.53 64.04,184 55.91,175.31 	"/>
	<polygon class="st8" points="37.92,194.53 37.92,175.31 37.92,163.76 37.92,156.08 37.92,151.33 37.92,147.82 37.92,142.33 
		37.92,137.95 37.92,125.32 37.92,114.84 37.92,112.89 37.92,99.51 30.87,126.6 18.14,147.82 23.53,147.82 22.08,151.33 
		27.2,151.33 24.34,158.26 9.82,175.31 19.94,175.31 1.95,194.53 33.55,194.53 36.91,194.53 	"/>
	<rect x="191.87" y="218.07" class="st5" width="4.04" height="11.55"/>
	<polygon class="st6" points="195.91,218.07 195.91,229.62 202.38,229.62 202.38,218.07 197.13,218.07 	"/>
	<polygon class="st7" points="223.45,178.83 216.89,159.92 223.45,159.92 210.29,140.85 213.8,140.85 207.13,131.73 197.13,102.87 
		197.13,118.07 197.13,120.35 197.13,121.78 197.13,140.85 197.13,155.26 197.13,159.92 197.13,178.83 197.13,194.08 197.13,211.57 
		197.13,213.85 197.13,218.07 202.38,218.07 220.35,218.07 219.35,213.85 232.02,213.85 224.82,194.08 229.52,194.08 221.18,184.09 
		221.15,184 219.26,178.83 	"/>
	<polygon class="st8" points="197.13,218.07 197.13,213.85 197.13,211.57 197.13,194.08 197.13,178.83 197.13,159.92 197.13,155.26 
		197.13,140.85 197.13,121.78 197.13,120.35 197.13,118.07 197.13,102.87 187.12,131.73 180.45,140.85 183.97,140.85 170.81,159.92 
		177.36,159.92 170.81,178.83 174.99,178.83 173.11,184 173.08,184.08 164.73,194.08 169.43,194.08 162.23,213.85 174.9,213.85 
		173.9,218.07 191.87,218.07 195.91,218.07 	"/>
</g>
</svg>
