<?xml version="1.0" encoding="utf-8"?>
<!-- Generator: Adobe Illustrator 23.0.3, SVG Export Plug-In . SVG Version: 6.00 Build 0)  -->
<svg version="1.1" id="Ebene_1" xmlns="http://www.w3.org/2000/svg" xmlns:xlink="http://www.w3.org/1999/xlink" x="0px" y="0px"
	 viewBox="0 0 240 240" style="enable-background:new 0 0 240 240;" xml:space="preserve">
<style type="text/css">
	.st0{fill:none;}
	.st1{fill:#8B5420;}
	.st2{fill:#A8642A;}
	.st3{fill:#80983C;}
	.st4{fill:#84A83E;}
</style>
<g>
	<rect x="0" class="st0" width="240" height="240"/>
</g>
<g>
	<path class="st0" d="M157.3,111.01c-1.1,0.4-2.28,0.71-3.52,0.92l3.65,6.07v-6.83L157.3,111.01z"/>
	<path class="st0" d="M157.43,78.54c-4.03-0.36-7.8-1.31-11.13-2.73c-1.66,2.67-4.82,4.75-8.73,5.74l8.09,9.9
		c1.48-0.34,3.06-0.53,4.7-0.53c2.56,0,4.96,0.45,7.07,1.25V78.54z"/>
	<path class="st0" d="M165.44,101.57c0,0.02,0,0.03,0,0.05l14.14-11.54c-6.72-1.07-11.75-5.31-11.75-10.38
		c0-0.54,0.08-1.07,0.19-1.59c-1.17,0.21-2.36,0.36-3.58,0.46v19.2C165.07,98.95,165.44,100.23,165.44,101.57z"/>
	<path class="st1" d="M160.12,93.46V78.69c-0.91-0.02-1.81-0.07-2.69-0.15v13.63C158.39,92.53,159.29,92.97,160.12,93.46z"/>
	<path class="st2" d="M160.12,93.46c1.91,1.15,3.4,2.62,4.31,4.31v-19.2c-1.1,0.09-2.22,0.14-3.36,0.14c-0.32,0-0.64-0.01-0.95-0.02
		V93.46z"/>
	<path class="st1" d="M135.27,81.99c-0.51,0.07-1.02,0.11-1.55,0.14l8.54,10.45c0.4-0.18,0.82-0.35,1.25-0.51L135.27,81.99z"/>
	<path class="st1" d="M157.43,111.17V118l2.69,4.48v-9.88l0.08-0.07l-1.66-2.03c-0.4,0.18-0.82,0.36-1.25,0.51L157.43,111.17z"/>
	<path class="st2" d="M135.27,81.99l8.24,10.09c0.69-0.25,1.4-0.46,2.14-0.63l-8.09-9.9C136.82,81.74,136.06,81.89,135.27,81.99z"/>
	<path class="st1" d="M160.22,126.65l-8.7-14.47c-0.39,0.02-0.77,0.04-1.17,0.04c-0.11,0-0.21-0.01-0.32-0.01l7.39,12.3v34.37h2.69
		v-32.17L160.22,126.65z"/>
	<path class="st1" d="M165.44,101.62c0,0.64-0.1,1.26-0.25,1.87l16.17-13.2c-0.6-0.04-1.19-0.12-1.78-0.21L165.44,101.62z"/>
	<path class="st2" d="M181.35,90.29l-16.17,13.2c-0.76,2.93-3.22,5.44-6.63,7.01l1.66,2.03l-0.08,0.07v9.88l-2.69-4.48l-3.65-6.07
		c-0.73,0.12-1.49,0.2-2.26,0.24l8.7,14.47l-0.1,0.06v32.17h4.31v-52.11l20.2-16.49c-0.56,0.05-1.14,0.07-1.72,0.07
		C182.38,90.35,181.86,90.33,181.35,90.29z"/>
	<path class="st3" d="M147.57,71.53c0,1.52-0.46,2.96-1.27,4.27c3.33,1.42,7.1,2.37,11.13,2.73c0.89,0.08,1.78,0.13,2.69,0.15
		c0.32,0.01,0.63,0.02,0.95,0.02V38.35c-15.79,0-28.59,9.03-28.59,20.18c0,0.8,0.07,1.59,0.2,2.36
		C140.93,60.97,147.57,65.7,147.57,71.53z"/>
	<path class="st4" d="M185.33,69.2c2.74-3.1,4.33-6.75,4.33-10.67c0-11.14-12.8-20.18-28.59-20.18v40.35c1.14,0,2.26-0.05,3.36-0.14
		c1.22-0.1,2.41-0.25,3.58-0.46c1.09-5.12,7.34-9.05,14.9-9.05v21.3c0.58,0,1.15-0.03,1.72-0.07c7.52-0.6,13.37-5.1,13.37-10.57
		C198,74.4,192.51,70.02,185.33,69.2z"/>
	<path class="st3" d="M179.57,90.08c0.58,0.09,1.17,0.17,1.78,0.21c0.51,0.04,1.04,0.06,1.56,0.06v-21.3
		c-7.56,0-13.81,3.93-14.9,9.05c-0.11,0.52-0.19,1.05-0.19,1.59C167.83,84.77,172.85,89,179.57,90.08z"/>
	<path class="st3" d="M117.4,71.53c0,5.88,6.75,10.65,15.09,10.65v-21.3C124.15,60.89,117.4,65.65,117.4,71.53z"/>
	<path class="st4" d="M137.57,81.55c3.91-0.99,7.07-3.08,8.73-5.74c0.81-1.31,1.27-2.75,1.27-4.27c0-5.83-6.65-10.56-14.88-10.64
		c-0.07,0-0.13-0.01-0.2-0.01v21.3c0.42,0,0.83-0.02,1.24-0.04c0.52-0.03,1.04-0.08,1.55-0.14
		C136.06,81.89,136.82,81.74,137.57,81.55z"/>
	<path class="st3" d="M150.35,90.92c-1.64,0-3.22,0.19-4.7,0.53c-0.74,0.17-1.46,0.39-2.14,0.63c-0.43,0.15-0.85,0.32-1.25,0.51
		c-4.2,1.89-6.99,5.2-6.99,8.98c0,5.81,6.59,10.52,14.77,10.64c0.11,0,0.21,0.01,0.32,0.01V90.92z"/>
	<path class="st4" d="M165.44,101.57c0-1.34-0.37-2.62-1.01-3.8c-0.91-1.68-2.4-3.16-4.31-4.31c-0.83-0.5-1.73-0.93-2.69-1.3
		c-2.11-0.79-4.52-1.25-7.07-1.25v21.3c0.39,0,0.78-0.02,1.17-0.04c0.77-0.04,1.52-0.12,2.26-0.24c1.24-0.2,2.42-0.51,3.52-0.92
		c0.43-0.16,0.84-0.33,1.25-0.51c3.42-1.56,5.88-4.08,6.63-7.01c0.16-0.61,0.25-1.23,0.25-1.87
		C165.44,101.6,165.44,101.59,165.44,101.57z"/>
</g>
<g>
	<path class="st0" d="M78.35,143.94c0,0.02,0,0.04,0,0.06l16.76-13.68c-7.97-1.27-13.92-6.29-13.92-12.3c0-0.64,0.09-1.27,0.22-1.89
		c-1.38,0.24-2.8,0.42-4.24,0.54v22.77C77.92,140.83,78.35,142.35,78.35,143.94z"/>
	<path class="st0" d="M68.7,155.14c-1.31,0.48-2.7,0.84-4.17,1.09l4.32,7.19v-8.1L68.7,155.14z"/>
	<path class="st0" d="M68.85,116.64c-4.78-0.43-9.25-1.56-13.19-3.24c-1.97,3.16-5.72,5.64-10.35,6.81l9.59,11.74
		c1.75-0.41,3.62-0.63,5.57-0.63c3.03,0,5.88,0.54,8.39,1.48V116.64z"/>
	<path class="st1" d="M72.04,134.33v-17.51c-1.08-0.02-2.14-0.09-3.19-0.18v16.15C70,133.22,71.06,133.74,72.04,134.33z"/>
	<path class="st2" d="M72.04,134.33c2.26,1.36,4.03,3.11,5.11,5.1v-22.77c-1.31,0.11-2.63,0.17-3.98,0.17
		c-0.38,0-0.75-0.01-1.13-0.02V134.33z"/>
	<path class="st1" d="M42.58,120.73c-0.6,0.08-1.21,0.14-1.83,0.17l10.12,12.39c0.48-0.22,0.97-0.42,1.48-0.6L42.58,120.73z"/>
	<path class="st1" d="M68.85,155.32v8.1l3.19,5.31v-11.72l0.1-0.08l-1.96-2.41c-0.48,0.22-0.97,0.42-1.48,0.61L68.85,155.32z"/>
	<path class="st2" d="M42.58,120.73l9.77,11.97c0.81-0.29,1.66-0.55,2.54-0.75l-9.59-11.74C44.43,120.43,43.52,120.61,42.58,120.73z
		"/>
	<path class="st1" d="M72.16,173.67l-10.31-17.16c-0.46,0.02-0.92,0.05-1.39,0.05c-0.13,0-0.25-0.01-0.38-0.01l8.76,14.58v40.75
		h3.19v-38.14L72.16,173.67z"/>
	<path class="st1" d="M78.35,144c-0.01,0.76-0.12,1.5-0.3,2.22l19.17-15.65c-0.72-0.05-1.42-0.14-2.11-0.25L78.35,144z"/>
	<path class="st2" d="M97.21,130.57l-19.17,15.65c-0.9,3.48-3.81,6.45-7.87,8.31l1.96,2.41l-0.1,0.08v11.72l-3.19-5.31l-4.32-7.19
		c-0.87,0.14-1.76,0.24-2.68,0.29l10.31,17.16l-0.12,0.07v38.14h5.11V150.1l23.94-19.55c-0.67,0.05-1.35,0.09-2.03,0.09
		C98.44,130.64,97.82,130.61,97.21,130.57z"/>
	<path class="st3" d="M57.17,108.33c0,1.8-0.54,3.51-1.51,5.07c3.94,1.68,8.41,2.81,13.19,3.24c1.05,0.09,2.12,0.16,3.19,0.18
		c0.38,0.01,0.75,0.02,1.13,0.02V69c-18.72,0-33.89,10.71-33.89,23.92c0,0.95,0.09,1.88,0.24,2.8
		C49.29,95.81,57.17,101.42,57.17,108.33z"/>
	<path class="st4" d="M101.93,105.57c3.25-3.67,5.13-8,5.13-12.65C107.06,79.71,91.89,69,73.17,69v47.84c1.35,0,2.68-0.06,3.98-0.17
		c1.44-0.12,2.86-0.3,4.24-0.54c1.29-6.07,8.7-10.73,17.66-10.73v25.25c0.69,0,1.37-0.03,2.03-0.09
		c8.92-0.71,15.85-6.05,15.85-12.54C116.95,111.73,110.44,106.54,101.93,105.57z"/>
	<path class="st3" d="M95.1,130.32c0.69,0.11,1.39,0.2,2.11,0.25c0.61,0.04,1.23,0.07,1.85,0.07v-25.25
		c-8.96,0-16.37,4.66-17.66,10.73c-0.13,0.62-0.22,1.24-0.22,1.89C81.18,124.02,87.14,129.04,95.1,130.32z"/>
	<path class="st3" d="M21.4,108.33c0,6.97,8.01,12.62,17.88,12.62V95.71C29.41,95.71,21.4,101.36,21.4,108.33z"/>
	<path class="st4" d="M45.31,120.21c4.63-1.17,8.38-3.65,10.35-6.81c0.96-1.55,1.51-3.26,1.51-5.07c0-6.91-7.88-12.52-17.65-12.61
		c-0.08,0-0.16-0.01-0.24-0.01v25.25c0.49,0,0.98-0.02,1.47-0.05c0.62-0.04,1.23-0.09,1.83-0.17
		C43.52,120.61,44.43,120.43,45.31,120.21z"/>
	<path class="st3" d="M60.46,131.32c-1.95,0-3.82,0.23-5.57,0.63c-0.88,0.2-1.73,0.46-2.54,0.75c-0.51,0.18-1,0.38-1.48,0.6
		c-4.98,2.24-8.29,6.16-8.29,10.64c0,6.88,7.81,12.47,17.51,12.61c0.13,0,0.25,0.01,0.38,0.01V131.32z"/>
	<path class="st4" d="M78.35,143.94c0-1.59-0.43-3.1-1.19-4.5c-1.08-1.99-2.85-3.74-5.11-5.1c-0.98-0.59-2.05-1.11-3.19-1.54
		c-2.5-0.94-5.35-1.48-8.39-1.48v25.25c0.47,0,0.93-0.02,1.39-0.05c0.91-0.05,1.81-0.15,2.68-0.29c1.47-0.24,2.87-0.61,4.17-1.09
		c0.51-0.19,1-0.39,1.48-0.61c4.05-1.85,6.96-4.83,7.87-8.31c0.19-0.72,0.3-1.46,0.3-2.22C78.35,143.98,78.35,143.96,78.35,143.94z"
		/>
</g>
</svg>
