<?xml version="1.0" encoding="utf-8"?>
<!-- Generator: Adobe Illustrator 23.0.3, SVG Export Plug-In . SVG Version: 6.00 Build 0)  -->
<svg version="1.1" id="Ebene_1" xmlns="http://www.w3.org/2000/svg" xmlns:xlink="http://www.w3.org/1999/xlink" x="0px" y="0px"
	 viewBox="0 0 240 240" style="enable-background:new 0 0 240 240;" xml:space="preserve">
<style type="text/css">
	.st0{fill:none;}
	.st1{fill:#015969;}
	.st2{fill:#046F81;}
	.st3{fill:#BAC9D2;}
	.st4{fill:#E2F2FA;}
	.st5{fill:#8B5420;}
	.st6{fill:#A8642A;}
	.st7{fill:#5DAD61;}
	.st8{fill:#418050;}
</style>
<g>
	<rect x="0" class="st0" width="240" height="240"/>
</g>
<g>
	<polygon class="st1" points="18.21,179.03 37.15,156.81 38.63,153.23 34.62,147.77 34.2,147.77 34.35,147.4 31.27,143.19 
		29.07,143.19 30.06,141.54 11.8,116.61 6.62,127.25 0.01,74.86 0,74.88 0,187.74 9.84,187.74 23.26,187.74 31.41,179.03 	"/>
	<polygon class="st1" points="87.05,106.26 69.57,124.71 76.16,135.69 	"/>
	<polygon class="st1" points="161.13,177.38 167.67,169.53 169.18,165.41 165.89,165.41 171.03,150.57 165.89,150.57 176.22,135.6 
		173.46,135.6 178.7,128.45 186.55,105.8 194.39,128.45 199.63,135.6 196.87,135.6 207.2,150.57 202.06,150.57 207.2,165.41 
		203.92,165.41 205.42,169.53 206.94,171.35 240,183.7 240,74.88 240,60.52 232.6,57.9 221.15,63.05 214.47,57.57 178.11,92.62 
		119.57,154.76 149.69,111.29 158.34,88.22 152.55,68.02 142.33,70.48 139.68,67.64 145.95,44.96 129.01,106.26 107.16,127.48 
		93.42,139.67 87.05,129.92 76.6,136.43 80.65,143.19 73.64,143.19 75.53,147.77 68.85,147.77 72.57,156.81 91.51,179.03 
		78.32,179.03 86.47,187.74 161.04,187.74 164.82,177.38 	"/>
	<polygon class="st2" points="76.6,136.43 87.05,129.92 93.42,139.67 107.16,127.48 87.05,106.26 76.16,135.69 	"/>
	<polygon class="st2" points="36.09,143.19 31.27,143.19 34.35,147.4 	"/>
	<polygon class="st2" points="40.88,147.77 34.62,147.77 38.63,153.23 	"/>
	<polygon class="st2" points="11.8,116.61 30.06,141.54 38,128.29 0.01,74.86 6.62,127.25 	"/>
	<polygon class="st2" points="157.04,70.4 152.55,68.02 152.55,68.02 158.34,88.22 149.69,111.29 119.57,154.76 178.11,92.62 
		145.95,44.96 159.85,65.57 	"/>
	<polygon class="st2" points="206.94,171.35 211.97,177.38 208.28,177.38 212.05,187.74 240,187.74 240,183.7 	"/>
	<polygon class="st3" points="232.6,57.9 240,60.52 240,32.96 214.47,57.56 214.47,57.57 221.15,63.05 	"/>
	<polygon class="st3" points="142.33,70.48 152.55,68.02 152.55,68.02 145.95,44.96 139.68,67.64 	"/>
	<polygon class="st4" points="157.04,70.4 159.85,65.57 145.95,44.96 152.55,68.02 	"/>
	<rect x="56.18" y="204.1" class="st5" width="4.39" height="18.98"/>
	<polygon class="st6" points="54.86,204.1 49.16,204.1 49.16,223.08 56.18,223.08 56.18,204.1 	"/>
	<polygon class="st7" points="54.86,179.03 54.86,163.98 54.86,153.97 54.86,147.77 54.86,143.19 54.86,136.03 54.86,130.32 
		54.86,113.84 54.86,100.18 54.86,97.64 54.86,80.18 45.67,115.51 38,128.29 30.06,141.54 29.07,143.19 31.27,143.19 36.09,143.19 
		34.35,147.4 34.2,147.77 34.62,147.77 40.88,147.77 38.63,153.23 37.15,156.81 18.21,179.03 31.41,179.03 23.26,187.74 7.95,204.1 
		49.16,204.1 54.86,204.1 	"/>
	<polygon class="st8" points="91.51,179.03 72.57,156.81 68.85,147.77 75.53,147.77 73.64,143.19 80.65,143.19 76.6,136.43 
		76.16,135.69 69.57,124.71 64.06,115.51 54.86,80.18 54.86,97.64 54.86,100.18 54.86,113.84 54.86,130.32 54.86,136.03 
		54.86,143.19 54.86,147.77 54.86,153.97 54.86,163.98 54.86,179.03 54.86,204.1 56.18,204.1 60.56,204.1 101.77,204.1 
		86.47,187.74 78.32,179.03 	"/>
	<rect x="187.5" y="196.2" class="st5" width="3.17" height="9.07"/>
	<polygon class="st6" points="186.55,196.2 182.42,196.2 182.42,205.27 187.5,205.27 187.5,196.2 	"/>
	<polygon class="st7" points="186.55,192.89 186.55,191.1 186.55,177.38 186.55,165.41 186.55,150.57 186.55,146.92 186.55,135.6 
		186.55,120.64 186.55,119.52 186.55,117.73 186.55,105.8 178.7,128.45 173.46,135.6 176.22,135.6 165.89,150.57 171.03,150.57 
		165.89,165.41 169.18,165.41 167.67,169.53 161.13,177.38 164.82,177.38 161.04,187.74 159.16,192.89 169.11,192.89 168.32,196.2 
		182.42,196.2 186.55,196.2 	"/>
	<polygon class="st8" points="211.97,177.38 206.94,171.35 205.42,169.53 203.92,165.41 207.2,165.41 202.06,150.57 207.2,150.57 
		196.87,135.6 199.63,135.6 194.39,128.45 186.55,105.8 186.55,117.73 186.55,119.52 186.55,120.64 186.55,135.6 186.55,146.92 
		186.55,150.57 186.55,165.41 186.55,177.38 186.55,191.1 186.55,192.89 186.55,196.2 187.5,196.2 190.67,196.2 204.77,196.2 
		203.98,192.89 213.93,192.89 212.05,187.74 208.28,177.38 	"/>
</g>
</svg>
