<?xml version="1.0" encoding="utf-8"?>
<!-- Generator: Adobe Illustrator 23.0.3, SVG Export Plug-In . SVG Version: 6.00 Build 0)  -->
<svg version="1.1" id="Ebene_1" xmlns="http://www.w3.org/2000/svg" xmlns:xlink="http://www.w3.org/1999/xlink" x="0px" y="0px"
	 viewBox="0 0 240 240" style="enable-background:new 0 0 240 240;" xml:space="preserve">
<style type="text/css">
	.st0{fill:none;}
	.st1{fill:#015969;}
	.st2{fill:#046F81;}
	.st3{fill:#BAC9D2;}
	.st4{fill:#E2F2FA;}
	.st5{fill:#8B5420;}
	.st6{fill:#A8642A;}
	.st7{fill:#5DAD61;}
	.st8{fill:#418050;}
</style>
<g>
	<rect x="0" class="st0" width="240" height="240"/>
</g>
<g>
	<polygon class="st1" points="132.23,151.49 127.57,118.28 101.14,99.96 110.98,124.9 78.85,85.46 65.38,47.01 65.38,60.25 
		60.63,28.79 57.62,28.79 54.28,26.79 49.67,28.79 46.1,26.24 14.08,74.67 0,100 0,184 6.93,184 30.38,184 33.89,174.38 
		30.2,174.38 36.75,166.53 38.25,162.41 34.97,162.41 40.11,147.57 34.97,147.57 45.29,132.6 42.54,132.6 47.77,125.45 55.62,102.8 
		63.47,125.45 68.71,132.6 65.95,132.6 76.28,147.57 71.13,147.57 76.28,162.41 72.99,162.41 74.49,166.53 81.04,174.38 
		77.35,174.38 80.86,184 119.27,184 115.13,165.63 	"/>
	<polygon class="st2" points="14.08,74.67 0,46.2 0,100 	"/>
	<polygon class="st2" points="150.65,176.03 169.6,153.81 173.32,144.77 166.64,144.77 168.53,140.19 161.51,140.19 168.14,129.14 
		152.33,107.01 101.45,76.72 66.44,22.49 63.78,26.53 60.63,28.79 65.38,60.25 65.38,47.01 78.85,85.46 110.98,124.9 101.14,99.96 
		127.57,118.28 132.23,151.49 115.13,165.63 119.27,184 156.4,184 163.85,176.03 	"/>
	<polygon class="st3" points="54.28,26.79 57.62,28.79 60.63,28.79 57.62,8.82 46.1,26.24 49.67,28.79 	"/>
	<polygon class="st4" points="63.78,26.53 66.44,22.49 66.44,22.49 57.62,8.82 60.63,28.79 	"/>
	<rect x="181.61" y="201.1" class="st5" width="4.39" height="18.98"/>
	<polygon class="st6" points="185.99,201.1 185.99,220.08 193.01,220.08 193.01,201.1 187.31,201.1 	"/>
	<polygon class="st7" points="210.76,176.03 223.96,176.03 205.02,153.81 201.29,144.77 207.97,144.77 206.08,140.19 213.1,140.19 
		196.5,112.51 187.31,77.18 187.31,94.64 187.31,97.18 187.31,110.84 187.31,127.32 187.31,133.03 187.31,140.19 187.31,144.77 
		187.31,150.97 187.31,160.98 187.31,176.03 187.31,201.1 193.01,201.1 234.22,201.1 	"/>
	<polygon class="st8" points="187.31,201.1 187.31,176.03 187.31,160.98 187.31,150.97 187.31,144.77 187.31,140.19 187.31,133.03 
		187.31,127.32 187.31,110.84 187.31,97.18 187.31,94.64 187.31,77.18 178.11,112.51 168.14,129.14 161.51,140.19 168.53,140.19 
		166.64,144.77 173.32,144.77 169.6,153.81 150.65,176.03 163.85,176.03 156.4,184 140.4,201.1 181.61,201.1 185.99,201.1 	"/>
	<rect x="51.5" y="193.2" class="st5" width="3.17" height="9.07"/>
	<polygon class="st6" points="54.67,193.2 54.67,202.27 59.75,202.27 59.75,193.2 55.62,193.2 	"/>
	<polygon class="st7" points="81.04,174.38 74.49,166.53 72.99,162.41 76.28,162.41 71.13,147.57 76.28,147.57 65.95,132.6 
		68.71,132.6 63.47,125.45 55.62,102.8 55.62,114.73 55.62,116.52 55.62,117.64 55.62,132.6 55.62,143.92 55.62,147.57 
		55.62,162.41 55.62,174.38 55.62,188.1 55.62,189.89 55.62,193.2 59.75,193.2 73.85,193.2 73.06,189.89 83,189.89 80.86,184 
		77.35,174.38 	"/>
	<polygon class="st8" points="55.62,193.2 55.62,189.89 55.62,188.1 55.62,174.38 55.62,162.41 55.62,147.57 55.62,143.92 
		55.62,132.6 55.62,117.64 55.62,116.52 55.62,114.73 55.62,102.8 47.77,125.45 42.54,132.6 45.29,132.6 34.97,147.57 40.11,147.57 
		34.97,162.41 38.25,162.41 36.75,166.53 30.2,174.38 33.89,174.38 30.38,184 28.24,189.89 38.18,189.89 37.4,193.2 51.5,193.2 
		54.67,193.2 	"/>
</g>
</svg>
