<?xml version="1.0" encoding="utf-8"?>
<!-- Generator: Adobe Illustrator 23.0.3, SVG Export Plug-In . SVG Version: 6.00 Build 0)  -->
<svg version="1.1" id="Ebene_1" xmlns="http://www.w3.org/2000/svg" xmlns:xlink="http://www.w3.org/1999/xlink" x="0px" y="0px"
	 viewBox="0 0 240 240" style="enable-background:new 0 0 240 240;" xml:space="preserve">
<style type="text/css">
	.st0{fill:#978679;}
	.st1{fill:#3D3D3D;}
	.st2{fill:none;}
</style>
<g>
	<rect x="10" y="69.5" class="st0" width="20" height="100"/>
	<rect x="210" y="69.5" class="st0" width="20" height="100"/>
	<rect x="170" y="69.5" class="st0" width="20" height="100"/>
	<rect x="130" y="69.5" class="st0" width="20" height="100"/>
	<rect x="90" y="69.5" class="st0" width="20" height="100"/>
	<rect x="50" y="69.5" class="st0" width="20" height="100"/>
</g>
<g>
	<rect x="210.5" y="69.5" class="st0" width="20" height="100"/>
	<rect x="70" y="210" class="st0" width="100" height="20"/>
	<polygon class="st0" points="181.24,81.34 162.2,87.45 191.12,177.54 131.57,108.02 116.38,121.03 175.94,190.57 92.74,152.04 
		84.33,170.19 175.08,212.21 182.59,195.99 196.62,183.97 194.91,181.97 211.8,176.55 	"/>
</g>
<g>
	<path class="st1" d="M239.5,151c-48.8,0-88.5,39.7-88.5,88.5c0,0.17,0.01,0.33,0.01,0.5h10.01c0-0.17-0.01-0.33-0.01-0.5
		c0-43.29,35.21-78.5,78.5-78.5c0.17,0,0.33,0.01,0.5,0.01v-10.01C239.83,151.01,239.67,151,239.5,151z"/>
	<path class="st1" d="M79,240h10c0-83.26,67.74-151,151-151V79C151.22,79,79,151.22,79,240z"/>
</g>
<g>
	<rect x="0" y="150.51" class="st1" width="240" height="9.98"/>
	<rect x="0" y="78.51" class="st1" width="240" height="9.98"/>
</g>
<g>
	<rect x="0" y="0" class="st2" width="240" height="240"/>
</g>
</svg>
