<?xml version="1.0" encoding="utf-8"?>
<!-- Generator: Adobe Illustrator 23.0.3, SVG Export Plug-In . SVG Version: 6.00 Build 0)  -->
<svg version="1.1" id="Ebene_1" xmlns="http://www.w3.org/2000/svg" xmlns:xlink="http://www.w3.org/1999/xlink" x="0px" y="0px"
	 viewBox="0 0 240 240" style="enable-background:new 0 0 240 240;" xml:space="preserve">
<style type="text/css">
	.st0{fill:#978679;}
	.st1{fill:#3D3D3D;}
	.st2{fill:none;}
</style>
<g>
	<rect x="10" y="70.5" class="st0" width="20" height="100"/>
	<rect x="210" y="70.5" class="st0" width="20" height="100"/>
	<rect x="170" y="70.5" class="st0" width="20" height="100"/>
	<rect x="130" y="70.5" class="st0" width="20" height="100"/>
	<rect x="90" y="70.5" class="st0" width="20" height="100"/>
	<rect x="50" y="70.5" class="st0" width="20" height="100"/>
</g>
<g>
	<rect x="210.5" y="70.5" class="st0" width="20" height="100"/>
	<rect x="70" y="10" class="st0" width="100" height="20"/>
	<polygon class="st0" points="181.24,158.66 162.2,152.55 191.12,62.46 131.57,131.98 116.38,118.97 175.94,49.43 92.74,87.96 
		84.33,69.81 175.08,27.79 182.59,44.01 196.62,56.03 194.91,58.03 211.8,63.45 	"/>
</g>
<g>
	<path class="st1" d="M239.5,89C190.7,89,151,49.3,151,0.5c0-0.17,0.01-0.33,0.01-0.5l10.01,0c0,0.17-0.01,0.33-0.01,0.5
		c0,43.29,35.21,78.5,78.5,78.5c0.17,0,0.33-0.01,0.5-0.01v10.01C239.83,88.99,239.67,89,239.5,89z"/>
	<path class="st1" d="M79,0l10,0c0,83.26,67.74,151,151,151v10C151.22,161,79,88.78,79,0z"/>
</g>
<g>
	<rect x="0" y="79.51" class="st1" width="240" height="9.98"/>
	<rect x="0" y="151.51" class="st1" width="240" height="9.98"/>
</g>
<g>
	<rect x="0" y="0" class="st2" width="240" height="240"/>
</g>
</svg>
