<?xml version="1.0" encoding="utf-8"?>
<!-- Generator: Adobe Illustrator 23.0.3, SVG Export Plug-In . SVG Version: 6.00 Build 0)  -->
<svg version="1.1" id="Ebene_1" xmlns="http://www.w3.org/2000/svg" xmlns:xlink="http://www.w3.org/1999/xlink" x="0px" y="0px"
	 viewBox="0 0 240 240" style="enable-background:new 0 0 240 240;" xml:space="preserve">
<style type="text/css">
	.st0{fill:#978679;}
	.st1{fill:#3D3D3D;}
	.st2{fill:none;}
</style>
<g>
	<rect x="70.5" y="10" class="st0" width="100" height="20"/>
	<rect x="70.5" y="210" class="st0" width="100" height="20"/>
	<rect x="70.5" y="170" class="st0" width="100" height="20"/>
	<rect x="70.5" y="130" class="st0" width="100" height="20"/>
	<rect x="70.5" y="90" class="st0" width="100" height="20"/>
	<rect x="70.5" y="50" class="st0" width="100" height="20"/>
</g>
<g>
	<rect x="70.5" y="210.5" class="st0" width="100" height="20"/>
	<rect x="10" y="70" class="st0" width="20" height="100"/>
	<polygon class="st0" points="158.66,181.24 152.55,162.2 62.46,191.12 131.98,131.57 118.97,116.38 49.43,175.94 87.96,92.74 
		69.81,84.33 27.79,175.08 44.01,182.59 56.03,196.62 58.03,194.91 63.45,211.8 	"/>
</g>
<g>
	<path class="st1" d="M89,239.5C89,190.7,49.3,151,0.5,151c-0.17,0-0.33,0.01-0.5,0.01v10.01c0.17,0,0.33-0.01,0.5-0.01
		c43.29,0,78.5,35.21,78.5,78.5c0,0.17-0.01,0.33-0.01,0.5h10.01C88.99,239.83,89,239.67,89,239.5z"/>
	<path class="st1" d="M0,79v10c83.26,0,151,67.74,151,151h10C161,151.22,88.78,79,0,79z"/>
</g>
<g>
	<rect x="79.51" class="st1" width="9.98" height="240"/>
	<rect x="151.51" class="st1" width="9.98" height="240"/>
</g>
<g>
	<rect class="st2" width="240" height="240"/>
</g>
</svg>
