<?xml version="1.0" encoding="utf-8"?>
<!-- Generator: Adobe Illustrator 23.0.3, SVG Export Plug-In . SVG Version: 6.00 Build 0)  -->
<svg version="1.1" id="Ebene_1" xmlns="http://www.w3.org/2000/svg" xmlns:xlink="http://www.w3.org/1999/xlink" x="0px" y="0px"
	 viewBox="0 0 240 240" style="enable-background:new 0 0 240 240;" xml:space="preserve">
<style type="text/css">
	.st0{fill:none;}
	.st1{fill:#978679;}
	.st2{fill:#3D3D3D;}
</style>
<g>
	<rect class="st0" width="240" height="240"/>
</g>
<g>
	<rect class="st0" width="240" height="240"/>
</g>
<g>
	<rect x="69.5" y="9.5" class="st1" width="100" height="20"/>
	<rect x="210" y="70" class="st1" width="20" height="100"/>
	<polygon class="st1" points="81.34,58.76 87.45,77.8 177.54,48.88 108.02,108.43 121.03,123.62 190.57,64.06 152.04,147.26 
		170.19,155.67 212.21,64.92 195.99,57.41 183.97,43.38 181.97,45.09 176.55,28.2 	"/>
</g>
<g>
	<rect x="70.5" y="210.5" class="st1" width="100" height="20"/>
	<rect x="10" y="70" class="st1" width="20" height="100"/>
	<polygon class="st1" points="158.66,181.24 152.55,162.2 62.46,191.12 131.98,131.57 118.97,116.38 49.43,175.94 87.96,92.74 
		69.81,84.33 27.79,175.08 44.01,182.59 56.03,196.62 58.03,194.91 63.45,211.8 	"/>
</g>
<g>
	<rect x="10" y="69.5" class="st1" width="20" height="100"/>
	<rect x="210" y="69.5" class="st1" width="20" height="100"/>
	<rect x="170" y="69.5" class="st1" width="20" height="100"/>
	<rect x="130" y="69.5" class="st1" width="20" height="100"/>
	<rect x="90" y="69.5" class="st1" width="20" height="100"/>
	<rect x="50" y="69.5" class="st1" width="20" height="100"/>
</g>
<g>
	<rect x="70" y="9.5" class="st1" width="100" height="20"/>
	<rect x="70" y="209.5" class="st1" width="100" height="20"/>
	<rect x="70" y="169.5" class="st1" width="100" height="20"/>
	<rect x="70" y="129.5" class="st1" width="100" height="20"/>
	<rect x="70" y="89.5" class="st1" width="100" height="20"/>
	<rect x="70" y="49.5" class="st1" width="100" height="20"/>
</g>
<g>
	<path class="st2" d="M89,239.5C89,190.7,49.3,151,0.5,151c-0.17,0-0.33,0.01-0.5,0.01v10.01c0.17,0,0.33-0.01,0.5-0.01
		c43.29,0,78.5,35.21,78.5,78.5c0,0.17-0.01,0.33-0.01,0.5h10.01C88.99,239.83,89,239.67,89,239.5z"/>
	<path class="st2" d="M0,79v10c83.26,0,151,67.74,151,151h10C161,151.22,88.78,79,0,79z"/>
</g>
<g>
	<rect x="0" y="150.51" class="st2" width="240" height="9.98"/>
	<rect x="0" y="78.51" class="st2" width="240" height="9.98"/>
</g>
<g>
	<rect x="79.01" y="-0.5" class="st2" width="9.98" height="240"/>
	<rect x="151.01" y="-0.5" class="st2" width="9.98" height="240"/>
</g>
<g>
	<path class="st2" d="M151,0.5c0,48.8,39.7,88.5,88.5,88.5c0.17,0,0.33-0.01,0.5-0.01V78.99c-0.17,0-0.33,0.01-0.5,0.01
		C196.21,79,161,43.79,161,0.5c0-0.17,0.01-0.33,0.01-0.5l-10.01,0C151.01,0.17,151,0.33,151,0.5z"/>
	<path class="st2" d="M240,161v-10C156.74,151,89,83.26,89,0L79,0C79,88.78,151.22,161,240,161z"/>
</g>
</svg>
