<?xml version="1.0" encoding="utf-8"?>
<!-- Generator: Adobe Illustrator 23.0.3, SVG Export Plug-In . SVG Version: 6.00 Build 0)  -->
<svg version="1.1" id="Ebene_1" xmlns="http://www.w3.org/2000/svg" xmlns:xlink="http://www.w3.org/1999/xlink" x="0px" y="0px"
	 viewBox="0 0 240 240" style="enable-background:new 0 0 240 240;" xml:space="preserve">
<style type="text/css">
	.st0{fill:#978679;}
	.st1{fill:#3D3D3D;}
	.st2{fill:none;}
</style>
<g>
	<rect x="69.5" y="210.5" class="st0" width="100" height="20"/>
	<rect x="210" y="70" class="st0" width="20" height="100"/>
	<polygon class="st0" points="81.34,181.24 87.45,162.2 177.54,191.12 108.02,131.57 121.03,116.38 190.57,175.94 152.04,92.74 
		170.19,84.33 212.21,175.08 195.99,182.59 183.97,196.62 181.97,194.91 176.55,211.8 	"/>
</g>
<g>
	<rect x="70.5" y="210.5" class="st0" width="100" height="20"/>
	<rect x="10" y="70" class="st0" width="20" height="100"/>
	<polygon class="st0" points="158.66,181.24 152.55,162.2 62.46,191.12 131.98,131.57 118.97,116.38 49.43,175.94 87.96,92.74 
		69.81,84.33 27.79,175.08 44.01,182.59 56.03,196.62 58.03,194.91 63.45,211.8 	"/>
</g>
<g>
	<path class="st1" d="M151,239.5c0-48.8,39.7-88.5,88.5-88.5c0.17,0,0.33,0.01,0.5,0.01v10.01c-0.17,0-0.33-0.01-0.5-0.01
		c-43.29,0-78.5,35.21-78.5,78.5c0,0.17,0.01,0.33,0.01,0.5h-10.01C151.01,239.83,151,239.67,151,239.5z"/>
	<path class="st1" d="M240,79v10c-83.26,0-151,67.74-151,151H79C79,151.22,151.22,79,240,79z"/>
</g>
<g>
	<path class="st1" d="M89,239.5C89,190.7,49.3,151,0.5,151c-0.17,0-0.33,0.01-0.5,0.01v10.01c0.17,0,0.33-0.01,0.5-0.01
		c43.29,0,78.5,35.21,78.5,78.5c0,0.17-0.01,0.33-0.01,0.5h10.01C88.99,239.83,89,239.67,89,239.5z"/>
	<path class="st1" d="M0,79v10c83.26,0,151,67.74,151,151h10C161,151.22,88.78,79,0,79z"/>
</g>
<g>
	<rect x="0" class="st2" width="240" height="240"/>
</g>
</svg>
