<?xml version="1.0" encoding="utf-8"?>
<!-- Generator: Adobe Illustrator 23.0.3, SVG Export Plug-In . SVG Version: 6.00 Build 0)  -->
<svg version="1.1" id="Ebene_1" xmlns="http://www.w3.org/2000/svg" x="0px" y="0px"
     viewBox="0 0 240 240" style="enable-background:new 0 0 240 240;" xml:space="preserve">
<style type="text/css">
	.st0{fill:none;}
	.st1{fill:#DCDCDC;}
	.st2{fill:#D50000;}
	.st3{fill:#444444;}
	.st4{fill:#5B5A5A;}
	.st5{fill:#FBFBFB;}
</style>
<g>
	<rect class="st0" width="240" height="240"/>
</g>
    <g>
	<path class="st1" d="M22.72,91.98c-28.2,24.88-20.88,51.1-13.5,59.44c31.2,35.21,45.87,51.77,77.07,86.98
		c0.56,0.65,1.44,0.96,2.53,0.99c3.08,0.1,7.89-2.15,12.36-6.07c17.5-15.45,35-30.9,52.5-46.35c3.96-3.52,6.6-7.45,7.34-10.44
		c0.38-1.54,0.28-2.85-0.47-3.69c-31.2-35.21-45.87-51.77-77.07-86.98C76.46,77.97,50.91,67.08,22.72,91.98z M37.28,108.42
		c24.23-21.4,46.83-12.8,52.22-5.25c26.82,30.27,37.11,41.88,63.93,72.15c1.9,2.11-0.74,7.55-5.9,12.14
		c-2.27,2.01-4.55,4.01-6.82,6.02l0,0l-0.98,0.86c-9.99,8.82-19.97,17.63-29.96,26.45l-0.98,0.86c-2.13,1.88-4.27,3.77-6.4,5.65
		c-5.19,4.55-10.93,6.51-12.79,4.36c-26.82-30.27-37.11-41.88-63.93-72.15C18.83,153.25,13.04,129.81,37.28,108.42z M5.33,118.89
		c0.94-0.03,2.44,7.35,1.34,8.72c-1.1,1.38-3.42,1.34-3.43,0.29C3.24,127.01,4.39,118.91,5.33,118.89z M80.65,93.09
		c-4.78-5.39-26.67-5.55-46.42,11.88c-19.75,17.43-22.27,39.14-17.49,44.54c-15.32-17.29-8.58-38.22,9.19-53.91
		C43.69,79.92,65.33,75.8,80.65,93.09z M60.81,77.08c1.05,0.14,0.8,2.43-0.7,3.36c-1.5,0.92-8.65-1.46-8.51-2.39
		C51.74,77.11,59.93,76.96,60.81,77.08z"/>
        <path class="st2" d="M37.28,108.42c24.23-21.4,46.83-12.8,52.22-5.25c26.82,30.27,37.11,41.88,63.93,72.15
		c1.9,2.11-0.74,7.55-5.9,12.14c-2.27,2.01-4.55,4.01-6.82,6.02l-48.61-54.86l4.3-3.79c3-2.65,4.54-5.81,3.43-7.06l-1.4-1.59
		c-1.11-1.25-4.44-0.11-7.44,2.54l-40.73,35.95c-3,2.65-4.54,5.81-3.43,7.06l1.4,1.59c1.11,1.25,4.44,0.11,7.44-2.54l36.09-31.86
		l-0.64,0.56l48.61,54.86c-9.99,8.82-19.97,17.63-29.96,26.45l-48.61-54.86l-0.98,0.86l48.61,54.86c-2.13,1.88-4.27,3.77-6.4,5.65
		c-5.19,4.55-10.93,6.51-12.79,4.36c-26.82-30.27-37.11-41.88-63.93-72.15C18.83,153.25,13.04,129.81,37.28,108.42z"/>
        <path class="st3" d="M34.23,104.97c-19.75,17.43-22.27,39.14-17.49,44.54c-15.32-17.29-8.58-38.22,9.19-53.91
		c17.77-15.68,39.4-19.8,54.72-2.51C75.87,87.69,53.97,87.54,34.23,104.97z"/>
        <g>
		<path class="st4" d="M98.43,126.18l1.4,1.59c1.11,1.25-0.43,4.41-3.43,7.06l-4.3,3.79l48.61,54.86l0,0l-0.98,0.86l-48.61-54.86
			l0.64-0.56l-36.09,31.86c-3,2.65-6.33,3.79-7.44,2.54l-1.4-1.59c-1.11-1.25,0.43-4.41,3.43-7.06l40.73-35.95
			C93.99,126.07,97.32,124.93,98.43,126.18z"/>
            <polygon class="st4" points="61.17,165.93 109.78,220.79 108.81,221.65 60.2,166.79 		"/>
	</g>
        <path class="st5" d="M60.1,80.44c-1.5,0.92-8.65-1.46-8.51-2.39c0.14-0.93,8.34-1.08,9.21-0.96C61.86,77.21,61.61,79.51,60.1,80.44
		z"/>
        <path class="st5" d="M6.67,127.61c-1.1,1.38-3.42,1.34-3.43,0.29c-0.01-0.88,1.14-8.98,2.08-9.01
		C6.27,118.86,7.77,126.23,6.67,127.61z"/>
</g>
</svg>
