<?xml version="1.0" encoding="utf-8"?>
<!-- Generator: Adobe Illustrator 23.0.3, SVG Export Plug-In . SVG Version: 6.00 Build 0)  -->
<svg version="1.1" id="Ebene_1" xmlns="http://www.w3.org/2000/svg" xmlns:xlink="http://www.w3.org/1999/xlink" x="0px" y="0px"
	 viewBox="0 0 240 240" style="enable-background:new 0 0 240 240;" xml:space="preserve">
<style type="text/css">
	.st0{fill:none;}
	.st1{fill:#DCDCDC;}
	.st2{fill:#D50000;}
	.st3{fill:#444444;}
	.st4{fill:#5B5A5A;}
	.st5{fill:#FBFBFB;}
</style>
<g>
	<rect class="st0" width="240" height="240"/>
</g>
<g>
	<path class="st1" d="M143.31,167.66c-30.54-35.78-44.91-52.61-75.45-88.39c-0.72-0.86-1.91-1.23-3.32-1.21
		c-2.74,0.04-6.42,1.62-9.78,4.47c-14.77,12.66-29.54,25.32-44.31,37.98c-3.75,3.24-6,7.13-6.04,9.96
		c-0.02,0.99,0.23,1.86,0.79,2.51c30.54,35.78,44.91,52.61,75.45,88.39c7.23,8.47,30.67,20.65,54.46,0.24
		C158.91,201.23,150.17,175.7,143.31,167.66z M74.03,204.71c-26.26-30.76-36.33-42.56-62.59-73.32c-1.86-2.15,0.16-6.95,4.52-10.71
		c1.8-1.54,3.6-3.09,5.4-4.63l0.82-0.71c8.43-7.22,16.86-14.45,25.28-21.67l0.82-0.71l0,0c1.92-1.64,3.84-3.29,5.75-4.93
		c4.38-3.73,9.43-4.99,11.26-2.81c26.26,30.76,36.33,42.56,62.59,73.32c6.6,6.49,13.41,28.85-7.05,46.38
		C100.4,222.45,79.41,212.25,74.03,204.71z M101.7,231.76c-0.96-0.23-0.89-2.34,0.41-3.05c1.3-0.71,7.91,2.2,7.85,3.05
		C109.89,232.62,102.5,231.95,101.7,231.76z M131.97,217.94c-14.99,12.85-34.26,14.57-49.26-3c4.68,5.48,24.47,7.76,41.13-6.52
		c16.67-14.29,17.49-34.22,12.81-39.71C151.65,186.28,146.96,205.09,131.97,217.94z M149.01,198.29c-0.85-0.07-2.7-7.07-1.8-8.24
		c0.9-1.17,3-0.91,3.07,0.07C150.35,190.94,149.86,198.36,149.01,198.29z"/>
	<path class="st2" d="M120.85,204.91c20.46-17.53,13.66-39.88,7.05-46.38c-26.26-30.76-36.33-42.56-62.59-73.32
		c-1.83-2.17-6.88-0.91-11.26,2.81c-1.92,1.64-3.84,3.29-5.75,4.93l47.59,55.75l3.63-3.11c2.53-2.17,5.47-2.9,6.55-1.63l1.38,1.61
		c1.08,1.27-0.09,4.06-2.63,6.23l-34.37,29.46c-2.53,2.17-5.47,2.9-6.55,1.63l-1.38-1.61c-1.08-1.27,0.09-4.06,2.63-6.23
		l30.46-26.11l-0.54,0.46L47.47,93.66c-8.43,7.22-16.86,14.45-25.28,21.67l47.59,55.75l-0.82,0.71l-47.59-55.75
		c-1.8,1.54-3.6,3.09-5.4,4.63c-4.35,3.76-6.38,8.57-4.52,10.71c26.26,30.76,36.33,42.56,62.59,73.32
		C79.41,212.25,100.4,222.45,120.85,204.91z"/>
	<path class="st3" d="M123.84,208.42c-16.67,14.28-36.45,12.01-41.13,6.52c15,17.57,34.27,15.85,49.26,3
		c14.99-12.85,19.68-31.66,4.68-49.23C141.33,174.19,140.51,194.13,123.84,208.42z"/>
	<g>
		<path class="st4" d="M107.43,145.57l-1.38-1.61c-1.08-1.27-4.02-0.54-6.55,1.63l-3.63,3.11L48.3,92.96l0,0l-0.82,0.71l47.59,55.75
			l0.54-0.46l-30.46,26.11c-2.53,2.17-3.71,4.96-2.63,6.23l1.38,1.61c1.08,1.27,4.02,0.54,6.55-1.63l34.37-29.46
			C107.34,149.63,108.52,146.84,107.43,145.57z"/>
		<polygon class="st4" points="69.77,171.08 22.19,115.33 21.36,116.04 68.95,171.79 		"/>
	</g>
	<path class="st5" d="M147.21,190.05c-0.9,1.17,0.95,8.17,1.8,8.24s1.34-7.35,1.28-8.17C150.21,189.14,148.12,188.88,147.21,190.05z
		"/>
	<path class="st5" d="M102.11,228.71c-1.3,0.71-1.37,2.83-0.41,3.05c0.8,0.19,8.19,0.85,8.26,0
		C110.03,230.91,103.41,228,102.11,228.71z"/>
</g>
</svg>
