<?xml version="1.0" encoding="utf-8"?>
<!-- Generator: Adobe Illustrator 23.0.3, SVG Export Plug-In . SVG Version: 6.00 Build 0)  -->
<svg version="1.1" id="Ebene_1" xmlns="http://www.w3.org/2000/svg" xmlns:xlink="http://www.w3.org/1999/xlink" x="0px" y="0px"
	 viewBox="0 0 240 240" style="enable-background:new 0 0 240 240;" xml:space="preserve">
<style type="text/css">
	.st0{fill:#444444;}
	.st1{fill:#DCDCDC;}
	.st2{fill:#0091EA;}
	.st3{fill:#767676;}
	.st4{fill:#5B5A5A;}
	.st5{fill:#FBFBFB;}
	.st6{fill:none;}
</style>
<path class="st0" d="M17.47,127.56c2.11-5.86,4.46-11.72,6.98-17.42c0.27-0.61,0.62-1.05,0.78-0.99c2.55,1.02,5.09,2.04,7.64,3.06
	c0.16,0.06,0.08,0.62-0.16,1.24c-2.32,5.8-4.65,11.61-6.97,17.41c-0.25,0.62-0.58,1.07-0.74,1.01c-2.55-1.02-5.09-2.04-7.64-3.06
	C17.19,128.75,17.24,128.19,17.47,127.56z"/>
<path class="st0" d="M67.3,147.52c2.11-5.86,4.46-11.72,6.98-17.42c0.27-0.61,0.62-1.05,0.78-0.99c2.55,1.02,5.09,2.04,7.64,3.06
	c0.16,0.06,0.08,0.62-0.16,1.24c-2.32,5.8-4.65,11.61-6.97,17.41c-0.25,0.62-0.58,1.07-0.74,1.01c-2.55-1.02-5.09-2.04-7.64-3.06
	C67.02,148.7,67.08,148.14,67.3,147.52z"/>
<path class="st0" d="M82.19,142.15l-0.98,2.44c-0.08,0.21-0.35,0.36-0.61,0.34l-3.48-0.24l2.18-5.43l2.68,2.22
	C82.19,141.65,82.27,141.95,82.19,142.15z"/>
<g>
	<g>
		<path class="st0" d="M75.25,145.08c0.17,0.01,0.24,0.21,0.31,0.41c0.03,0.07,0.06,0.17,0.1,0.23c0.05-0.04,0.12-0.11,0.16-0.15
			c0.16-0.16,0.31-0.32,0.47-0.26c0.16,0.05,0.19,0.26,0.22,0.47c0.01,0.07,0.02,0.18,0.04,0.24c0.05-0.03,0.13-0.09,0.19-0.13
			c0.18-0.13,0.35-0.26,0.5-0.18c0.15,0.07,0.15,0.28,0.16,0.5c0,0.07,0,0.18,0.01,0.24c0.06-0.02,0.14-0.08,0.2-0.11
			c0.19-0.11,0.37-0.22,0.52-0.13c0.14,0.09,0.13,0.29,0.11,0.51c0,0.07-0.01,0.17-0.01,0.23c0.06-0.02,0.15-0.06,0.21-0.09
			c0.2-0.1,0.38-0.19,0.52-0.09c0.14,0.1,0.11,0.3,0.08,0.52c-0.01,0.07-0.02,0.17-0.02,0.23c0.06-0.02,0.15-0.06,0.21-0.08
			c0.2-0.09,0.39-0.17,0.52-0.06c0.13,0.1,0.09,0.31,0.05,0.52c-0.01,0.07-0.03,0.17-0.03,0.23c0.06-0.01,0.16-0.05,0.22-0.07
			c0.21-0.08,0.4-0.15,0.52-0.03c0.12,0.11,0.07,0.31,0.02,0.53c-0.02,0.06-0.04,0.16-0.05,0.22c0.06-0.01,0.16-0.04,0.22-0.06
			c0.21-0.06,0.4-0.13,0.52-0.01c0.12,0.12,0.06,0.32-0.01,0.53c-0.02,0.06-0.05,0.16-0.06,0.22c0.06-0.01,0.16-0.03,0.23-0.05
			c0.21-0.05,0.41-0.1,0.52,0.02c0.11,0.13,0.04,0.32-0.04,0.53c-0.02,0.06-0.06,0.15-0.07,0.21c0.06,0,0.16-0.02,0.23-0.03
			c0.21-0.04,0.41-0.08,0.52,0.06c0.11,0.14,0.02,0.33-0.08,0.53c-0.03,0.06-0.07,0.15-0.09,0.21c0.06,0,0.17-0.01,0.24-0.01
			c0.22-0.02,0.42-0.04,0.51,0.1c0.09,0.15-0.02,0.33-0.13,0.52c-0.04,0.07-0.12,0.19-0.12,0.23l-0.26,0.11
			c-0.08-0.14,0.02-0.3,0.13-0.49c0.03-0.06,0.09-0.14,0.11-0.2c-0.06,0-0.15,0.01-0.21,0.01c-0.22,0.02-0.42,0.04-0.52-0.1
			c-0.09-0.13-0.01-0.3,0.08-0.5c0.03-0.06,0.07-0.15,0.09-0.21c-0.06,0-0.15,0.02-0.22,0.03c-0.21,0.04-0.42,0.08-0.52-0.05
			c-0.1-0.12-0.04-0.3,0.04-0.51c0.02-0.06,0.06-0.15,0.07-0.22c-0.06,0.01-0.15,0.03-0.22,0.05c-0.21,0.05-0.41,0.1-0.52-0.02
			c-0.11-0.12-0.05-0.3,0.01-0.52c0.02-0.06,0.05-0.16,0.06-0.22c-0.06,0.01-0.15,0.04-0.21,0.06c-0.21,0.06-0.4,0.13-0.52,0.01
			c-0.12-0.11-0.07-0.31-0.02-0.52c0.02-0.06,0.04-0.16,0.05-0.22c-0.06,0.01-0.15,0.05-0.21,0.07c-0.2,0.07-0.39,0.14-0.52,0.04
			c-0.13-0.11-0.09-0.31-0.04-0.52c0.01-0.06,0.03-0.16,0.03-0.22c-0.06,0.02-0.15,0.06-0.21,0.08c-0.2,0.08-0.39,0.17-0.52,0.07
			c-0.13-0.1-0.1-0.3-0.07-0.52c0.01-0.06,0.02-0.16,0.02-0.22c-0.06,0.02-0.15,0.06-0.21,0.09c-0.19,0.1-0.37,0.19-0.51,0.1
			c-0.14-0.09-0.12-0.3-0.11-0.51c0-0.06,0.01-0.16,0.01-0.22c-0.06,0.02-0.14,0.08-0.2,0.11c-0.19,0.11-0.36,0.21-0.5,0.13
			c-0.15-0.08-0.15-0.29-0.15-0.5c0-0.06,0-0.16-0.01-0.22c-0.05,0.03-0.14,0.09-0.19,0.13c-0.18,0.13-0.33,0.24-0.48,0.18
			c-0.15-0.06-0.18-0.27-0.21-0.48c-0.01-0.06-0.02-0.16-0.04-0.22c-0.03,0.04-0.11,0.12-0.16,0.17c-0.15,0.15-0.28,0.29-0.43,0.25
			c-0.16-0.04-0.23-0.23-0.3-0.43c-0.03-0.08-0.08-0.21-0.1-0.24c0,0,0.02,0.01,0.04,0.01L75.25,145.08z"/>
	</g>
	<g>
		<path class="st0" d="M80.38,137.47l0.27-0.11c-0.01-0.02-0.03-0.03-0.03-0.03c0.04,0.02,0.19,0.02,0.28,0.03
			c0.23,0.01,0.45,0.01,0.56,0.16c0.1,0.14,0.02,0.31-0.07,0.51c-0.03,0.06-0.07,0.15-0.08,0.21c0.06,0,0.16-0.02,0.22-0.03
			c0.23-0.04,0.44-0.08,0.57,0.05c0.12,0.12,0.08,0.31,0.03,0.53c-0.02,0.07-0.04,0.16-0.05,0.23c0.06-0.01,0.16-0.04,0.22-0.06
			c0.22-0.07,0.42-0.13,0.56-0.01c0.14,0.11,0.11,0.31,0.08,0.53c-0.01,0.07-0.02,0.17-0.02,0.23c0.06-0.02,0.15-0.05,0.21-0.08
			c0.21-0.09,0.4-0.17,0.55-0.06c0.15,0.1,0.14,0.31,0.13,0.53c0,0.07-0.01,0.17,0,0.23c0.06-0.02,0.15-0.06,0.21-0.09
			c0.2-0.1,0.39-0.19,0.54-0.09c0.15,0.1,0.16,0.31,0.16,0.53c0,0.07,0,0.17,0.01,0.23c0.06-0.02,0.15-0.07,0.2-0.11
			c0.19-0.11,0.37-0.21,0.53-0.12c0.16,0.09,0.17,0.3,0.19,0.53c0,0.07,0.01,0.17,0.02,0.23c0.06-0.03,0.14-0.08,0.2-0.12
			c0.18-0.12,0.36-0.23,0.52-0.15c0.16,0.08,0.19,0.29,0.21,0.52c0.01,0.07,0.02,0.17,0.03,0.23c0.06-0.03,0.13-0.09,0.19-0.13
			c0.18-0.13,0.34-0.25,0.5-0.18c0.17,0.07,0.21,0.29,0.25,0.51c0.01,0.07,0.03,0.16,0.05,0.23c0.05-0.03,0.13-0.1,0.18-0.14
			c0.17-0.14,0.32-0.27,0.49-0.21c0.17,0.06,0.22,0.28,0.28,0.5c0.02,0.06,0.04,0.16,0.06,0.22c0.05-0.04,0.12-0.11,0.17-0.15
			c0.16-0.16,0.29-0.29,0.46-0.24c0.18,0.05,0.25,0.26,0.32,0.48c0.02,0.07,0.06,0.17,0.08,0.22c0.03-0.04,0.1-0.13,0.15-0.19
			c0.14-0.17,0.25-0.32,0.42-0.29l-0.03,0.29c0.02,0,0.03,0,0.04,0c-0.04,0.02-0.12,0.13-0.18,0.19c-0.14,0.18-0.27,0.34-0.46,0.3
			c-0.18-0.04-0.24-0.24-0.32-0.47c-0.02-0.07-0.06-0.18-0.09-0.24c-0.05,0.04-0.12,0.11-0.17,0.15c-0.16,0.16-0.31,0.31-0.49,0.25
			c-0.17-0.06-0.22-0.27-0.28-0.49c-0.02-0.07-0.04-0.18-0.07-0.24c-0.05,0.03-0.13,0.1-0.18,0.14c-0.17,0.14-0.33,0.28-0.51,0.21
			c-0.17-0.07-0.21-0.28-0.25-0.51c-0.01-0.07-0.03-0.18-0.05-0.24c-0.05,0.03-0.14,0.09-0.19,0.13c-0.18,0.13-0.35,0.26-0.52,0.18
			c-0.17-0.08-0.19-0.29-0.22-0.52c-0.01-0.07-0.02-0.17-0.04-0.24c-0.06,0.03-0.14,0.08-0.2,0.12c-0.19,0.12-0.36,0.23-0.53,0.15
			c-0.16-0.09-0.18-0.3-0.19-0.53c0-0.07-0.01-0.18-0.02-0.24c-0.06,0.02-0.15,0.07-0.21,0.11c-0.19,0.11-0.38,0.21-0.54,0.12
			c-0.16-0.1-0.16-0.31-0.17-0.54c0-0.07,0-0.17-0.01-0.24c-0.06,0.02-0.16,0.07-0.22,0.1c-0.2,0.1-0.39,0.19-0.54,0.09
			c-0.16-0.1-0.15-0.32-0.13-0.54c0-0.07,0.01-0.17,0-0.23c-0.06,0.02-0.16,0.06-0.23,0.08c-0.21,0.09-0.4,0.17-0.55,0.05
			c-0.15-0.11-0.12-0.33-0.09-0.55c0.01-0.07,0.02-0.17,0.02-0.23c-0.06,0.01-0.17,0.04-0.24,0.06c-0.22,0.07-0.42,0.13-0.56,0
			c-0.14-0.13-0.09-0.33-0.04-0.55c0.02-0.06,0.04-0.16,0.05-0.22c-0.07,0-0.18,0.02-0.25,0.03c-0.22,0.04-0.44,0.08-0.56-0.06
			c-0.13-0.15-0.04-0.34,0.05-0.55c0.03-0.06,0.07-0.15,0.08-0.21c-0.07-0.01-0.19-0.02-0.27-0.02
			C80.68,137.64,80.46,137.63,80.38,137.47z"/>
	</g>
</g>
<path class="st1" d="M79.1,130.23l-50.12-20.07c-1.65-0.66-3.51,0.14-4.17,1.79l-5.76,14.38c-0.66,1.65,0.14,3.51,1.79,4.17
	l50.12,20.07c1.62,0.65,3.5-0.14,4.17-1.79l5.76-14.38C81.53,132.75,80.73,130.88,79.1,130.23z"/>
<path class="st2" d="M77.18,131.12l-47.72-19.11c-1.61-0.65-3.45,0.17-4.11,1.81l-4.62,11.53c-0.66,1.65,0.11,3.5,1.73,4.15
	l47.72,19.11c1.37,0.55,2.95-0.14,3.53-1.56l4.95-12.36C79.21,133.26,78.55,131.66,77.18,131.12z"/>
<path class="st3" d="M58.27,140.27l4.47-11.16c0.33-0.82-0.07-1.76-0.89-2.09l-1.04-0.42c-0.82-0.33-1.76,0.07-2.09,0.89
	l-4.47,11.16c-0.33,0.82,0.07,1.76,0.89,2.09l1.04,0.42C57.01,141.49,57.94,141.09,58.27,140.27z"/>
<rect x="41.31" y="104.07" transform="matrix(0.3718 -0.9283 0.9283 0.3718 -87.3127 115.192)" class="st4" width="0.29" height="36.07"/>
<rect x="37.91" y="112.54" transform="matrix(0.3718 -0.9283 0.9283 0.3718 -97.3108 117.3653)" class="st4" width="0.29" height="36.07"/>
<rect x="59.75" y="127.33" transform="matrix(0.3718 -0.9283 0.9283 0.3718 -80.7345 135.8172)" class="st4" width="0.45" height="0.45"/>
<rect x="59.4" y="128.22" transform="matrix(0.3718 -0.9283 0.9283 0.3718 -81.7758 136.0436)" class="st4" width="0.45" height="0.45"/>
<rect x="59.04" y="129.1" transform="matrix(0.3718 -0.9283 0.9283 0.3718 -82.8171 136.2699)" class="st4" width="0.45" height="0.45"/>
<rect x="58.69" y="129.98" transform="matrix(0.3718 -0.9283 0.9283 0.3718 -83.8584 136.4963)" class="st4" width="0.45" height="0.45"/>
<rect x="54.98" y="139.26" transform="matrix(0.3718 -0.9283 0.9283 0.3718 -94.8071 138.8762)" class="st4" width="0.45" height="0.45"/>
<rect x="55.33" y="138.38" transform="matrix(0.3718 -0.9283 0.9283 0.3718 -93.7658 138.6499)" class="st4" width="0.45" height="0.45"/>
<rect x="55.68" y="137.5" transform="matrix(0.3718 -0.9283 0.9283 0.3718 -92.7245 138.4235)" class="st4" width="0.45" height="0.45"/>
<rect x="56.04" y="136.61" transform="matrix(0.3718 -0.9283 0.9283 0.3718 -91.6832 138.1971)" class="st4" width="0.45" height="0.45"/>
<path class="st0" d="M75.58,149.32c5.43-3.06,11.03-5.96,16.66-8.63c0.6-0.29,1.15-0.39,1.23-0.24c1.26,2.44,2.52,4.87,3.79,7.31
	c0.08,0.15-0.34,0.52-0.93,0.83c-5.55,2.87-11.1,5.75-16.65,8.62c-0.59,0.31-1.14,0.43-1.22,0.28c-1.26-2.44-2.52-4.87-3.79-7.31
	C74.6,150.04,75,149.65,75.58,149.32z"/>
<path class="st0" d="M82.16,142.21l-2.1,1.58c-0.18,0.13-0.26,0.43-0.17,0.67l1.14,3.29l4.67-3.52l-2.85-2
	C82.64,142.08,82.34,142.08,82.16,142.21z"/>
<path class="st1" d="M77.67,149.58c4.59-2.37,9.17-4.75,13.76-7.12c1.58-0.8,3.52-0.19,4.33,1.37
	c11.49,22.18,16.89,32.61,28.38,54.79c2.58,4.98,6.36,18.01-1.03,21.83l0,0c-7.39,3.83-15.71-6.51-18.43-11.76
	c-11.49-22.18-16.89-32.61-28.38-54.79C75.48,152.35,76.1,150.41,77.67,149.58z"/>
<path class="st2" d="M79.54,150.82c3.94-2.04,7.88-4.08,11.82-6.12c1.36-0.69,3.03-0.16,3.72,1.18
	c9.87,19.07,13.66,26.38,23.54,45.45c2.44,4.25,5.47,15.48-0.88,18.77l0,0c-6.35,3.29-13.78-5.66-15.84-10.11
	c-9.88-19.07-13.66-26.38-23.54-45.45C77.66,153.2,78.19,151.54,79.54,150.82z"/>
<path class="st0" d="M121.91,197.65c1.76,3.4,2.13,11.94-3.05,14.62l3.06,5.9C126.57,215.76,127.55,208.53,121.91,197.65z"/>
<path class="st0" d="M105.16,206.32c1.76,3.4,8.52,8.63,13.7,5.95l3.06,5.9C117.26,220.58,110.8,217.21,105.16,206.32z"/>
<path class="st3" d="M99.92,188.97l10.67-5.53c0.79-0.41,1.09-1.38,0.69-2.16l-0.52-1c-0.41-0.79-1.38-1.09-2.16-0.69l-10.67,5.53
	c-0.79,0.41-1.09,1.38-0.69,2.16l0.52,1C98.16,189.07,99.13,189.38,99.92,188.97z"/>
<rect x="98.25" y="143.51" transform="matrix(0.888 -0.4599 0.4599 0.888 -63.9281 63.5132)" class="st4" width="0.29" height="38.91"/>
<rect x="90.15" y="147.71" transform="matrix(0.888 -0.4599 0.4599 0.888 -66.767 60.2559)" class="st4" width="0.29" height="38.91"/>
<rect x="109.29" y="180.24" transform="matrix(0.888 -0.4599 0.4599 0.888 -70.7286 70.5869)" class="st4" width="0.45" height="0.45"/>
<rect x="108.44" y="180.67" transform="matrix(0.888 -0.4599 0.4599 0.888 -71.0243 70.2477)" class="st4" width="0.45" height="0.45"/>
<rect x="107.6" y="181.11" transform="matrix(0.888 -0.4599 0.4599 0.888 -71.3199 69.9084)" class="st4" width="0.45" height="0.45"/>
<rect x="106.75" y="181.55" transform="matrix(0.888 -0.4599 0.4599 0.888 -71.6156 69.5691)" class="st4" width="0.45" height="0.45"/>
<rect x="97.88" y="186.15" transform="matrix(0.888 -0.4599 0.4599 0.888 -74.7244 66.0021)" class="st4" width="0.45" height="0.45"/>
<rect x="98.72" y="185.71" transform="matrix(0.888 -0.4599 0.4599 0.888 -74.4288 66.3413)" class="st4" width="0.45" height="0.45"/>
<rect x="99.57" y="185.27" transform="matrix(0.888 -0.4599 0.4599 0.888 -74.1331 66.6806)" class="st4" width="0.45" height="0.45"/>
<rect x="100.41" y="184.83" transform="matrix(0.888 -0.4599 0.4599 0.888 -73.8374 67.0199)" class="st4" width="0.45" height="0.45"/>
<path class="st5" d="M127.21,209.92c-0.06-0.45-0.77-1.01-1.04-0.69c-0.27,0.32,0.58,3.78,0.87,3.99
	C127.33,213.43,127.26,210.3,127.21,209.92z"/>
<path class="st5" d="M112.13,217.74c-0.33-0.3-0.38-1.21,0.04-1.25c0.42-0.03,2.75,2.66,2.75,3.01S112.4,217.99,112.13,217.74z"/>
<g>
	<rect class="st6" width="240" height="240"/>
</g>
</svg>
