<?xml version="1.0" encoding="utf-8"?>
<!-- Generator: Adobe Illustrator 23.0.3, SVG Export Plug-In . SVG Version: 6.00 Build 0)  -->
<svg version="1.1" id="Ebene_1" xmlns="http://www.w3.org/2000/svg" xmlns:xlink="http://www.w3.org/1999/xlink" x="0px" y="0px"
	 viewBox="0 0 240 240" style="enable-background:new 0 0 240 240;" xml:space="preserve">
<style type="text/css">
	.st0{fill:#444444;}
	.st1{fill:#CDCDCD;}
	.st2{fill:#0091EA;}
	.st3{fill:#767676;}
	.st4{fill:#5B5A5A;}
	.st5{fill:#FBFBFB;}
	.st6{fill:none;}
</style>
<path class="st0" d="M110.77,195.57c6.22,0.22,12.54,0.22,18.76,0c0.67-0.02,1.2-0.18,1.2-0.35c0-2.74,0-5.49,0-8.23
	c0-0.17-0.54-0.31-1.21-0.31c-6.25,0-12.5,0-18.75,0c-0.67,0-1.21,0.14-1.21,0.31c0,2.74,0,5.49,0,8.23
	C109.56,195.38,110.1,195.54,110.77,195.57z"/>
<path class="st0" d="M110.77,141.88c6.22,0.22,12.54,0.22,18.76,0c0.67-0.02,1.2-0.18,1.2-0.35c0-2.74,0-5.49,0-8.23
	c0-0.17-0.54-0.31-1.21-0.31c-6.25,0-12.5,0-18.75,0c-0.67,0-1.21,0.14-1.21,0.31c0,2.74,0,5.49,0,8.23
	C109.56,141.7,110.1,141.86,110.77,141.88z"/>
<path class="st0" d="M121.47,131.12h-2.63c-0.22,0-0.46,0.19-0.54,0.44l-1.07,3.32h5.85l-1.07-3.32
	C121.93,131.3,121.69,131.12,121.47,131.12z"/>
<g>
	<g>
		<path class="st0" d="M115.44,135.6c0.09-0.15-0.03-0.31-0.16-0.49c-0.04-0.06-0.11-0.15-0.13-0.21c0.06-0.02,0.15-0.03,0.22-0.04
			c0.22-0.04,0.44-0.07,0.48-0.24c0.05-0.16-0.1-0.3-0.27-0.44c-0.05-0.05-0.13-0.12-0.17-0.17c0.05-0.03,0.15-0.06,0.21-0.08
			c0.21-0.07,0.41-0.14,0.44-0.31c0.02-0.17-0.14-0.28-0.32-0.41c-0.06-0.04-0.14-0.1-0.19-0.15c0.05-0.03,0.14-0.07,0.2-0.1
			c0.2-0.09,0.39-0.18,0.4-0.35c0.01-0.17-0.17-0.27-0.36-0.38c-0.06-0.03-0.15-0.09-0.2-0.13c0.05-0.04,0.14-0.08,0.19-0.12
			c0.19-0.11,0.38-0.21,0.37-0.37c0-0.17-0.19-0.26-0.38-0.36c-0.06-0.03-0.15-0.08-0.2-0.11c0.05-0.04,0.13-0.09,0.19-0.13
			c0.19-0.12,0.36-0.23,0.35-0.39c-0.01-0.17-0.2-0.25-0.4-0.34c-0.06-0.03-0.15-0.07-0.21-0.1c0.04-0.04,0.13-0.1,0.18-0.14
			c0.18-0.13,0.35-0.25,0.33-0.41c-0.02-0.17-0.22-0.24-0.42-0.32c-0.06-0.02-0.16-0.06-0.21-0.09c0.04-0.04,0.12-0.11,0.18-0.15
			c0.17-0.13,0.33-0.26,0.3-0.43c-0.03-0.17-0.23-0.23-0.44-0.29c-0.06-0.02-0.16-0.05-0.21-0.07c0.04-0.05,0.12-0.11,0.17-0.16
			c0.16-0.14,0.32-0.28,0.28-0.44c-0.04-0.16-0.24-0.22-0.46-0.27c-0.06-0.02-0.16-0.04-0.22-0.06c0.04-0.05,0.11-0.12,0.16-0.17
			c0.15-0.15,0.3-0.3,0.25-0.46c-0.05-0.16-0.26-0.2-0.48-0.24c-0.06-0.01-0.16-0.03-0.22-0.05c0.03-0.05,0.1-0.14,0.15-0.19
			c0.14-0.17,0.27-0.32,0.21-0.47c-0.07-0.16-0.28-0.17-0.51-0.19c-0.08-0.01-0.22-0.01-0.26-0.03l-0.23,0.16
			c0.07,0.14,0.26,0.15,0.48,0.17c0.07,0,0.17,0.01,0.23,0.02c-0.03,0.05-0.09,0.12-0.13,0.17c-0.14,0.17-0.27,0.33-0.22,0.48
			c0.06,0.15,0.24,0.18,0.46,0.22c0.07,0.01,0.16,0.03,0.22,0.05c-0.04,0.05-0.1,0.11-0.15,0.16c-0.15,0.15-0.3,0.3-0.25,0.46
			c0.04,0.16,0.23,0.2,0.45,0.26c0.06,0.02,0.16,0.04,0.22,0.06c-0.04,0.05-0.11,0.11-0.16,0.15c-0.16,0.14-0.32,0.28-0.28,0.44
			c0.03,0.16,0.22,0.22,0.43,0.28c0.06,0.02,0.16,0.05,0.21,0.07c-0.04,0.04-0.12,0.1-0.17,0.14c-0.17,0.13-0.33,0.26-0.31,0.42
			c0.03,0.16,0.22,0.23,0.42,0.31c0.06,0.02,0.15,0.06,0.21,0.09c-0.05,0.04-0.13,0.1-0.18,0.14c-0.18,0.12-0.34,0.24-0.33,0.41
			c0.02,0.16,0.2,0.25,0.4,0.33c0.06,0.03,0.15,0.07,0.2,0.1c-0.05,0.04-0.13,0.09-0.19,0.13c-0.18,0.12-0.35,0.22-0.35,0.39
			c0.01,0.16,0.19,0.26,0.38,0.35c0.06,0.03,0.14,0.07,0.19,0.11c-0.05,0.04-0.14,0.08-0.19,0.12c-0.19,0.1-0.37,0.2-0.37,0.36
			c0,0.17,0.17,0.27,0.36,0.38c0.05,0.03,0.14,0.08,0.19,0.12c-0.05,0.03-0.14,0.07-0.2,0.1c-0.2,0.09-0.38,0.17-0.39,0.33
			c-0.02,0.17,0.15,0.29,0.33,0.41c0.05,0.04,0.13,0.09,0.17,0.13c-0.06,0.03-0.15,0.06-0.21,0.08c-0.21,0.07-0.39,0.13-0.42,0.29
			c-0.03,0.16,0.12,0.3,0.28,0.45c0.05,0.04,0.12,0.11,0.16,0.15c-0.05,0.01-0.16,0.02-0.23,0.04c-0.21,0.04-0.4,0.07-0.45,0.21
			c-0.06,0.15,0.06,0.32,0.18,0.49c0.05,0.07,0.13,0.18,0.14,0.22c0-0.01,0-0.02,0.01-0.04L115.44,135.6z"/>
	</g>
	<g>
		<path class="st0" d="M124.86,135.6l0.25-0.14c0.01,0.02,0.01,0.04,0.01,0.04c0.01-0.04,0.09-0.15,0.14-0.22
			c0.13-0.18,0.24-0.34,0.18-0.49c-0.06-0.14-0.24-0.17-0.45-0.21c-0.07-0.01-0.16-0.03-0.22-0.05c0.04-0.04,0.11-0.1,0.15-0.15
			c0.16-0.15,0.31-0.29,0.28-0.45c-0.03-0.16-0.21-0.22-0.42-0.29c-0.06-0.02-0.16-0.05-0.21-0.08c0.04-0.04,0.12-0.1,0.17-0.13
			c0.18-0.13,0.34-0.25,0.33-0.41c-0.02-0.16-0.19-0.24-0.39-0.33c-0.06-0.03-0.15-0.07-0.2-0.1c0.05-0.04,0.13-0.09,0.19-0.12
			c0.19-0.11,0.36-0.21,0.36-0.38c0-0.16-0.18-0.26-0.37-0.36c-0.06-0.03-0.15-0.08-0.2-0.12c0.05-0.03,0.14-0.08,0.2-0.11
			c0.19-0.1,0.38-0.19,0.38-0.35c0.01-0.16-0.16-0.27-0.35-0.39c-0.06-0.04-0.14-0.09-0.19-0.13c0.05-0.03,0.14-0.07,0.2-0.1
			c0.2-0.09,0.39-0.17,0.4-0.33c0.02-0.16-0.15-0.28-0.33-0.41c-0.05-0.04-0.13-0.09-0.18-0.14c0.05-0.03,0.15-0.06,0.21-0.09
			c0.2-0.08,0.39-0.15,0.42-0.31c0.03-0.16-0.14-0.29-0.31-0.42c-0.05-0.04-0.13-0.1-0.17-0.14c0.06-0.03,0.15-0.05,0.21-0.07
			c0.21-0.07,0.4-0.12,0.43-0.28c0.03-0.16-0.12-0.3-0.28-0.44c-0.05-0.04-0.12-0.1-0.16-0.15c0.06-0.02,0.15-0.05,0.22-0.06
			c0.22-0.05,0.4-0.1,0.45-0.26c0.04-0.16-0.1-0.31-0.26-0.46c-0.04-0.04-0.11-0.11-0.15-0.16c0.06-0.02,0.16-0.04,0.22-0.05
			c0.22-0.04,0.41-0.07,0.46-0.22c0.06-0.16-0.08-0.31-0.22-0.48c-0.04-0.05-0.11-0.13-0.14-0.18c0.05,0,0.16-0.01,0.24-0.01
			c0.22-0.01,0.4-0.02,0.48-0.17l-0.26-0.13c0.01-0.02,0.02-0.02,0.02-0.03c-0.03,0.02-0.18,0.03-0.26,0.03
			c-0.22,0.01-0.44,0.03-0.51,0.19c-0.06,0.15,0.06,0.3,0.2,0.47c0.04,0.05,0.11,0.13,0.15,0.19c-0.06,0.02-0.15,0.03-0.22,0.05
			c-0.22,0.04-0.43,0.07-0.48,0.24c-0.05,0.16,0.09,0.3,0.25,0.46c0.05,0.05,0.12,0.12,0.16,0.17c-0.06,0.02-0.15,0.05-0.22,0.06
			c-0.21,0.05-0.42,0.1-0.46,0.27c-0.04,0.16,0.12,0.3,0.28,0.44c0.05,0.04,0.13,0.11,0.17,0.16c-0.06,0.03-0.15,0.06-0.21,0.07
			c-0.21,0.07-0.41,0.13-0.44,0.29c-0.03,0.16,0.13,0.29,0.3,0.43c0.05,0.04,0.13,0.1,0.17,0.15c-0.05,0.03-0.15,0.06-0.21,0.09
			c-0.2,0.08-0.4,0.15-0.42,0.32c-0.02,0.17,0.15,0.29,0.33,0.41c0.05,0.04,0.14,0.1,0.18,0.14c-0.05,0.03-0.15,0.07-0.21,0.1
			c-0.2,0.09-0.39,0.17-0.4,0.34c-0.01,0.17,0.16,0.28,0.35,0.4c0.06,0.04,0.14,0.09,0.19,0.13c-0.05,0.04-0.14,0.08-0.2,0.11
			c-0.19,0.1-0.38,0.19-0.38,0.36c0,0.17,0.18,0.27,0.37,0.37c0.06,0.03,0.15,0.08,0.19,0.12c-0.05,0.04-0.14,0.09-0.2,0.13
			c-0.19,0.11-0.36,0.21-0.36,0.38c0.01,0.17,0.2,0.26,0.4,0.35c0.06,0.03,0.15,0.07,0.2,0.1c-0.04,0.04-0.13,0.11-0.19,0.15
			c-0.18,0.13-0.34,0.25-0.32,0.41c0.02,0.17,0.22,0.24,0.44,0.31c0.06,0.02,0.16,0.05,0.21,0.08c-0.04,0.05-0.12,0.12-0.17,0.17
			c-0.16,0.15-0.31,0.28-0.27,0.44c0.05,0.17,0.26,0.21,0.48,0.24c0.06,0.01,0.16,0.03,0.22,0.04c-0.03,0.06-0.09,0.15-0.13,0.21
			C124.9,135.28,124.78,135.45,124.86,135.6z"/>
	</g>
</g>
<path class="st1" d="M131.2,137.35v53.99c0,1.77-1.44,3.21-3.21,3.21H112.5c-1.77,0-3.21-1.44-3.21-3.21v-53.99
	c0-1.74,1.43-3.19,3.21-3.21h15.49C129.77,134.16,131.21,135.6,131.2,137.35z"/>
<path class="st2" d="M129.66,138.81v51.41c0,1.74-1.44,3.14-3.21,3.14h-12.42c-1.77,0-3.21-1.41-3.21-3.14v-51.41
	c-0.01-1.48,1.23-2.69,2.76-2.7h13.32C128.43,136.13,129.67,137.34,129.66,138.81z"/>
<path class="st3" d="M114.14,152.96h12.02c0.89,0,1.6,0.72,1.6,1.6v1.12c0,0.89-0.72,1.6-1.6,1.6h-12.02c-0.89,0-1.6-0.72-1.6-1.6
	v-1.12C112.54,153.68,113.26,152.96,114.14,152.96z"/>
<rect x="124.6" y="157.29" class="st4" width="0.29" height="36.07"/>
<rect x="115.48" y="157.29" class="st4" width="0.29" height="36.07"/>
<rect x="126.35" y="155.88" class="st4" width="0.45" height="0.45"/>
<rect x="125.4" y="155.88" class="st4" width="0.45" height="0.45"/>
<rect x="124.45" y="155.88" class="st4" width="0.45" height="0.45"/>
<rect x="123.5" y="155.88" class="st4" width="0.45" height="0.45"/>
<rect x="113.5" y="155.88" class="st4" width="0.45" height="0.45"/>
<rect x="114.45" y="155.88" class="st4" width="0.45" height="0.45"/>
<rect x="115.4" y="155.88" class="st4" width="0.45" height="0.45"/>
<rect x="116.35" y="155.88" class="st4" width="0.45" height="0.45"/>
<path class="st0" d="M110.77,129.27c6.22,0.22,12.54,0.22,18.76,0c0.67-0.02,1.2-0.18,1.2-0.35c0-2.74,0-5.49,0-8.23
	c0-0.17-0.54-0.31-1.21-0.31c-6.25,0-12.5,0-18.75,0c-0.67,0-1.21,0.14-1.21,0.31c0,2.74,0,5.49,0,8.23
	C109.56,129.09,110.1,129.25,110.77,129.27z"/>
<path class="st0" d="M121.47,131.12h-2.63c-0.22,0-0.46-0.19-0.54-0.44l-1.07-3.32h5.85l-1.07,3.32
	C121.93,130.93,121.69,131.12,121.47,131.12z"/>
<path class="st1" d="M112.5,128.09c5.16,0,10.33,0,15.49,0c1.78-0.02,3.22-1.45,3.21-3.21c0-24.98,0-36.72,0-61.7
	c0-5.61-2.63-18.92-10.95-18.91l0,0c-8.32-0.01-10.95,13-10.95,18.91c0,24.98,0,36.72,0,61.7
	C109.29,126.63,110.72,128.07,112.5,128.09z"/>
<path class="st2" d="M113.59,126.12c4.44,0,8.88,0,13.32,0c1.53-0.01,2.76-1.25,2.76-2.76c0-21.47,0-29.71,0-51.18
	c0.21-4.9-2.26-16.26-9.42-16.26l0,0c-7.15,0-9.63,11.36-9.42,16.26c0,21.47,0,29.71,0,51.18
	C110.82,124.87,112.06,126.11,113.59,126.12z"/>
<path class="st0" d="M129.68,65.06c0-3.83-3.6-11.58-9.43-11.58v-6.65C125.49,46.83,129.68,52.8,129.68,65.06z"/>
<path class="st0" d="M110.82,65.06c0-3.83,3.6-11.58,9.43-11.58v-6.65C115,46.83,110.82,52.8,110.82,65.06z"/>
<path class="st3" d="M114.14,82.87h12.02c0.89,0,1.6,0.72,1.6,1.6v1.12c0,0.89-0.72,1.6-1.6,1.6h-12.02c-0.89,0-1.6-0.72-1.6-1.6
	v-1.12C112.54,83.59,113.26,82.87,114.14,82.87z"/>
<rect x="124.6" y="87.21" class="st4" width="0.29" height="38.91"/>
<rect x="115.48" y="87.21" class="st4" width="0.29" height="38.91"/>
<rect x="126.35" y="85.79" class="st4" width="0.45" height="0.45"/>
<rect x="125.4" y="85.79" class="st4" width="0.45" height="0.45"/>
<rect x="124.45" y="85.79" class="st4" width="0.45" height="0.45"/>
<rect x="123.5" y="85.79" class="st4" width="0.45" height="0.45"/>
<rect x="113.5" y="85.79" class="st4" width="0.45" height="0.45"/>
<rect x="114.45" y="85.79" class="st4" width="0.45" height="0.45"/>
<rect x="115.4" y="85.79" class="st4" width="0.45" height="0.45"/>
<rect x="116.35" y="85.79" class="st4" width="0.45" height="0.45"/>
<path class="st5" d="M128.74,51.72c0.15,0.42-0.22,1.25-0.61,1.09c-0.38-0.16-1.22-3.62-1.06-3.94
	C127.23,48.54,128.61,51.36,128.74,51.72z"/>
<path class="st5" d="M111.75,51.72c-0.15,0.42,0.22,1.25,0.61,1.09c0.38-0.16,1.22-3.62,1.06-3.94
	C113.26,48.54,111.88,51.36,111.75,51.72z"/>
<g>
	<rect class="st6" width="240" height="240"/>
</g>
</svg>
