<?xml version="1.0" encoding="utf-8"?>
<!-- Generator: Adobe Illustrator 23.0.3, SVG Export Plug-In . SVG Version: 6.00 Build 0)  -->
<svg version="1.1" id="Ebene_1" xmlns="http://www.w3.org/2000/svg" xmlns:xlink="http://www.w3.org/1999/xlink" x="0px" y="0px"
	 viewBox="0 0 240 240" style="enable-background:new 0 0 240 240;" xml:space="preserve">
<style type="text/css">
	.st0{fill:none;}
	.st1{fill:#DCDCDC;}
	.st2{fill:#D50000;}
	.st3{fill:#444444;}
	.st4{fill:#5B5A5A;}
	.st5{fill:#FBFBFB;}
</style>
<g>
	<rect class="st0" width="240" height="240"/>
</g>
<g>
	<path class="st1" d="M148.79,167.05c-26.96-38.56-39.63-56.69-66.59-95.25c-0.64-0.93-1.89-1.33-3.48-1.32
		c-3.08,0.02-7.51,1.67-11.86,4.7C47.76,88.59,28.65,102,9.55,115.41c-4.85,3.43-8.16,7.58-8.79,10.6
		c-0.22,1.06-0.12,1.99,0.38,2.69c26.96,38.56,39.63,56.69,66.59,95.25c6.38,9.13,30.16,22.37,60.94,0.75
		C159.46,203.1,154.84,175.71,148.79,167.05z M63.7,206.05c-23.17-33.15-32.06-45.86-55.24-79.01c-1.65-2.31,1.59-7.43,7.23-11.42
		c2.33-1.63,4.66-3.27,6.99-4.9l1.07-0.75c10.9-7.65,21.81-15.3,32.71-22.96l1.07-0.75l0,0c2.48-1.74,4.96-3.48,7.44-5.22
		c5.67-3.95,11.58-5.25,13.18-2.9c23.17,33.15,32.06,45.86,55.24,79.01c6.08,7.01,9.17,30.99-17.3,49.55
		C89.63,225.28,68.19,214.17,63.7,206.05z M89.2,235.25c-1.02-0.25-0.52-2.51,1.08-3.26c1.6-0.75,8.42,2.43,8.17,3.34
		C98.2,236.24,90.06,235.46,89.2,235.25z M125.9,220.74c-19.4,13.61-41.33,15.28-54.56-3.65c4.13,5.91,25.83,8.52,47.39-6.61
		c21.56-15.13,26.52-36.46,22.39-42.36C154.35,187.04,145.3,207.12,125.9,220.74z M148.97,199.87c-0.94-0.08-1.59-7.59-0.34-8.83
		c1.25-1.25,3.54-0.95,3.43,0.1C151.96,192.02,149.9,199.95,148.97,199.87z"/>
	<path class="st2" d="M116.09,206.7c26.47-18.57,23.38-42.54,17.3-49.55c-23.17-33.15-32.06-45.86-55.24-79.01
		c-1.61-2.34-7.52-1.04-13.18,2.9c-2.48,1.74-4.96,3.48-7.44,5.22l42,60.07l4.69-3.29c3.28-2.3,6.71-3.06,7.67-1.69l1.21,1.74
		c0.96,1.37-0.93,4.34-4.21,6.64l-44.47,31.21c-3.28,2.3-6.71,3.06-7.67,1.69l-1.21-1.74c-0.96-1.37,0.93-4.34,4.21-6.64
		l39.41-27.66l-0.7,0.49l-42-60.07c-10.9,7.65-21.81,15.3-32.71,22.96l42,60.07l-1.07,0.75l-42-60.07c-2.33,1.63-4.66,3.27-6.99,4.9
		c-5.64,3.99-8.88,9.11-7.23,11.42c23.17,33.15,32.06,45.86,55.24,79.01C68.19,214.17,89.63,225.28,116.09,206.7z"/>
	<path class="st3" d="M118.73,210.48c-21.56,15.13-43.26,12.52-47.39,6.61c13.23,18.93,35.16,17.27,54.56,3.65
		c19.4-13.61,28.45-33.69,15.22-52.62C145.25,174.02,140.29,195.34,118.73,210.48z"/>
	<g>
		<path class="st4" d="M113.09,143.1l-1.21-1.74c-0.96-1.37-4.39-0.61-7.67,1.69l-4.69,3.29l-42-60.07l0,0l-1.07,0.75l42,60.07
			l0.7-0.49l-39.41,27.66c-3.28,2.3-5.16,5.28-4.21,6.64l1.21,1.74c0.96,1.37,4.39,0.61,7.67-1.69l44.47-31.21
			C112.16,147.44,114.04,144.46,113.09,143.1z"/>
		<polygon class="st4" points="65.74,170.04 23.74,109.97 22.68,110.72 64.68,170.79 		"/>
	</g>
	<path class="st5" d="M148.62,191.04c-1.25,1.25-0.6,8.75,0.34,8.83c0.94,0.08,2.99-7.85,3.09-8.73
		C152.17,190.09,149.87,189.79,148.62,191.04z"/>
	<path class="st5" d="M90.28,231.99c-1.6,0.75-2.1,3.01-1.08,3.26c0.86,0.21,9,0.99,9.25,0.08
		C98.7,234.42,91.88,231.24,90.28,231.99z"/>
</g>
</svg>
