<svg id="Ebene_1" data-name="Ebene 1" xmlns="http://www.w3.org/2000/svg" viewBox="0 0 240 240"><defs><style>.cls-1{fill:none;}.cls-2{fill:#cdcdcd;}.cls-3{fill:#d50000;}.cls-4{fill:#444;}.cls-5{fill:#5b5a5a;}.cls-6{fill:#fbfbfb;}</style></defs><title>N_Zug_Gleis_#d50000</title><rect class="cls-1" width="240" height="240"/><path class="cls-2" d="M151.23,204c4.66,0,8.73-1.27,11-3.12a4.33,4.33,0,0,0,1.85-3.3V74.18c0-11.22-10.53-37.84-43.81-37.83s-43.82,26-43.82,37.83v123.4a3.84,3.84,0,0,0,1.09,2.58c2,2.24,6.49,3.82,11.74,3.84ZM147.55,45.55c.64-.64,6.15,5,6.67,5.7s-.9,2.5-2.44,2.18S146.91,46.19,147.55,45.55Zm-61.28,5.7c.52-.7,6-6.34,6.67-5.7s-2.69,7.56-4.23,7.88S85.66,52.1,86.27,51.25Zm34-9.76c21,0,37.71,11.92,37.71,36.45,0-7.65-14.41-23.16-37.71-23.16S82.53,70.29,82.53,77.94C82.53,53.41,99.28,41.49,120.25,41.49ZM82.58,194.55V92.19c-.86-9.8,9.06-32.53,37.67-32.52s38.52,22.72,37.66,32.52V194.55c0,3-4.92,5.49-11,5.52H93.61C87.5,200,82.56,197.57,82.58,194.55Z"/><path class="cls-3" d="M102.32,122.24v77.83h35.36V122.24Z"/><path class="cls-3" d="M101.17,200.07V122.24H95.83c-3.55,0-6.42-1.44-6.42-3.21v-2.25c0-1.77,2.87-3.21,6.42-3.21H143.9c3.55,0,6.42,1.44,6.42,3.21V119c0,1.77-2.87,3.21-6.42,3.21h-5.07v77.83h8c6.11,0,11.05-2.5,11-5.52V92.19c.86-9.8-9.06-32.53-37.66-32.52S81.72,82.39,82.58,92.19V194.55c0,3,4.92,5.49,11,5.52Z"/><path class="cls-4" d="M120.25,54.78c23.3,0,37.71,15.51,37.71,23.16,0-24.53-16.74-36.45-37.71-36.45S82.53,53.41,82.53,77.94C82.53,70.29,96.94,54.78,120.25,54.78Z"/><path class="cls-5" d="M143.9,113.57H95.83c-3.55,0-6.42,1.44-6.42,3.21V119c0,1.77,2.87,3.21,6.42,3.21h5.34v77.83h1.15V122.24h35.36v77.83h1.15V122.24h5.07c3.55,0,6.42-1.44,6.42-3.21v-2.25C150.32,115,147.45,113.57,143.9,113.57Z"/><path class="cls-6" d="M151.78,53.43c1.54.32,3.05-1.33,2.44-2.18s-6-6.34-6.67-5.7S150.24,53.11,151.78,53.43Z"/><path class="cls-6" d="M88.71,53.43c1.54-.32,4.87-7.24,4.23-7.88s-6.15,5-6.67,5.7S87.17,53.75,88.71,53.43Z"/></svg>